%TF.GenerationSoftware,KiCad,Pcbnew,(5.1.9)-1*%
%TF.CreationDate,2021-09-20T18:56:34+02:00*%
%TF.ProjectId,deep blue delay,64656570-2062-46c7-9565-2064656c6179,rev?*%
%TF.SameCoordinates,Original*%
%TF.FileFunction,Soldermask,Top*%
%TF.FilePolarity,Negative*%
%FSLAX46Y46*%
G04 Gerber Fmt 4.6, Leading zero omitted, Abs format (unit mm)*
G04 Created by KiCad (PCBNEW (5.1.9)-1) date 2021-09-20 18:56:34*
%MOMM*%
%LPD*%
G01*
G04 APERTURE LIST*
%ADD10C,2.340000*%
%ADD11O,1.600000X1.600000*%
%ADD12C,1.600000*%
%ADD13C,2.500000*%
%ADD14O,1.740000X2.190000*%
%ADD15O,1.700000X1.700000*%
%ADD16R,1.700000X1.700000*%
%ADD17C,1.800000*%
%ADD18R,1.800000X1.800000*%
%ADD19R,1.600000X1.600000*%
%ADD20O,2.200000X2.200000*%
%ADD21R,2.200000X2.200000*%
G04 APERTURE END LIST*
%TO.C,R6*%
G36*
G01*
X32312500Y64125001D02*
X32312500Y62874999D01*
G75*
G02*
X32062501Y62625000I-249999J0D01*
G01*
X31437499Y62625000D01*
G75*
G02*
X31187500Y62874999I0J249999D01*
G01*
X31187500Y64125001D01*
G75*
G02*
X31437499Y64375000I249999J0D01*
G01*
X32062501Y64375000D01*
G75*
G02*
X32312500Y64125001I0J-249999D01*
G01*
G37*
G36*
G01*
X35237500Y64125001D02*
X35237500Y62874999D01*
G75*
G02*
X34987501Y62625000I-249999J0D01*
G01*
X34362499Y62625000D01*
G75*
G02*
X34112500Y62874999I0J249999D01*
G01*
X34112500Y64125001D01*
G75*
G02*
X34362499Y64375000I249999J0D01*
G01*
X34987501Y64375000D01*
G75*
G02*
X35237500Y64125001I0J-249999D01*
G01*
G37*
%TD*%
D10*
%TO.C,VOL1*%
X7366000Y46000000D03*
X9866000Y56000000D03*
X12366000Y46000000D03*
%TD*%
D11*
%TO.C,R17*%
X22352000Y35306000D03*
D12*
X29972000Y35306000D03*
%TD*%
D11*
%TO.C,R15*%
X12700000Y14478000D03*
D12*
X12700000Y6858000D03*
%TD*%
%TO.C,R14*%
G36*
G01*
X19104500Y13325001D02*
X19104500Y12074999D01*
G75*
G02*
X18854501Y11825000I-249999J0D01*
G01*
X18229499Y11825000D01*
G75*
G02*
X17979500Y12074999I0J249999D01*
G01*
X17979500Y13325001D01*
G75*
G02*
X18229499Y13575000I249999J0D01*
G01*
X18854501Y13575000D01*
G75*
G02*
X19104500Y13325001I0J-249999D01*
G01*
G37*
G36*
G01*
X22029500Y13325001D02*
X22029500Y12074999D01*
G75*
G02*
X21779501Y11825000I-249999J0D01*
G01*
X21154499Y11825000D01*
G75*
G02*
X20904500Y12074999I0J249999D01*
G01*
X20904500Y13325001D01*
G75*
G02*
X21154499Y13575000I249999J0D01*
G01*
X21779501Y13575000D01*
G75*
G02*
X22029500Y13325001I0J-249999D01*
G01*
G37*
%TD*%
D11*
%TO.C,R13*%
X7620000Y6858000D03*
D12*
X7620000Y14478000D03*
%TD*%
%TO.C,R12*%
G36*
G01*
X16881001Y15693500D02*
X15630999Y15693500D01*
G75*
G02*
X15381000Y15943499I0J249999D01*
G01*
X15381000Y16568501D01*
G75*
G02*
X15630999Y16818500I249999J0D01*
G01*
X16881001Y16818500D01*
G75*
G02*
X17131000Y16568501I0J-249999D01*
G01*
X17131000Y15943499D01*
G75*
G02*
X16881001Y15693500I-249999J0D01*
G01*
G37*
G36*
G01*
X16881001Y12768500D02*
X15630999Y12768500D01*
G75*
G02*
X15381000Y13018499I0J249999D01*
G01*
X15381000Y13643501D01*
G75*
G02*
X15630999Y13893500I249999J0D01*
G01*
X16881001Y13893500D01*
G75*
G02*
X17131000Y13643501I0J-249999D01*
G01*
X17131000Y13018499D01*
G75*
G02*
X16881001Y12768500I-249999J0D01*
G01*
G37*
%TD*%
D11*
%TO.C,R11*%
X14986000Y24892000D03*
D12*
X14986000Y32512000D03*
%TD*%
D11*
%TO.C,R9*%
X39878000Y31242000D03*
D12*
X39878000Y23622000D03*
%TD*%
D11*
%TO.C,R8*%
X42164000Y41402000D03*
D12*
X34544000Y41402000D03*
%TD*%
D11*
%TO.C,R7*%
X44958000Y48514000D03*
D12*
X44958000Y40894000D03*
%TD*%
D11*
%TO.C,R5*%
X34544000Y48006000D03*
D12*
X42164000Y48006000D03*
%TD*%
D11*
%TO.C,R4*%
X42164000Y44704000D03*
D12*
X34544000Y44704000D03*
%TD*%
D13*
%TO.C,MIX1*%
X32500000Y20500000D03*
X27500000Y20500000D03*
X22500000Y20500000D03*
%TD*%
D14*
%TO.C,LED1*%
X19040000Y61000000D03*
G36*
G01*
X15630000Y60154999D02*
X15630000Y61845001D01*
G75*
G02*
X15879999Y62095000I249999J0D01*
G01*
X17120001Y62095000D01*
G75*
G02*
X17370000Y61845001I0J-249999D01*
G01*
X17370000Y60154999D01*
G75*
G02*
X17120001Y59905000I-249999J0D01*
G01*
X15879999Y59905000D01*
G75*
G02*
X15630000Y60154999I0J249999D01*
G01*
G37*
%TD*%
D15*
%TO.C,J4*%
X49784000Y15748000D03*
D16*
X52324000Y15748000D03*
%TD*%
D15*
%TO.C,J3*%
X35306000Y10668000D03*
D16*
X35306000Y13208000D03*
%TD*%
D15*
%TO.C,J2*%
X49022000Y20828000D03*
D16*
X49022000Y23368000D03*
%TD*%
D14*
%TO.C,J1*%
X31080000Y61000000D03*
X28540000Y61000000D03*
X26000000Y61000000D03*
G36*
G01*
X22590000Y60154999D02*
X22590000Y61845001D01*
G75*
G02*
X22839999Y62095000I249999J0D01*
G01*
X24080001Y62095000D01*
G75*
G02*
X24330000Y61845001I0J-249999D01*
G01*
X24330000Y60154999D01*
G75*
G02*
X24080001Y59905000I-249999J0D01*
G01*
X22839999Y59905000D01*
G75*
G02*
X22590000Y60154999I0J249999D01*
G01*
G37*
%TD*%
%TO.C,GND1*%
X38040000Y61000000D03*
G36*
G01*
X34630000Y60154999D02*
X34630000Y61845001D01*
G75*
G02*
X34879999Y62095000I249999J0D01*
G01*
X36120001Y62095000D01*
G75*
G02*
X36370000Y61845001I0J-249999D01*
G01*
X36370000Y60154999D01*
G75*
G02*
X36120001Y59905000I-249999J0D01*
G01*
X34879999Y59905000D01*
G75*
G02*
X34630000Y60154999I0J249999D01*
G01*
G37*
%TD*%
D13*
%TO.C,FEEDBACK1*%
X15000000Y35500000D03*
X10000000Y35500000D03*
X5000000Y35500000D03*
%TD*%
%TO.C,DELAY1*%
X50000000Y35500000D03*
X45000000Y35500000D03*
X40000000Y35500000D03*
%TD*%
D17*
%TO.C,D3*%
X51308000Y12192000D03*
D18*
X51308000Y9652000D03*
%TD*%
D11*
%TO.C,D2*%
X52578000Y28194000D03*
D19*
X52578000Y20574000D03*
%TD*%
D20*
%TO.C,D1*%
X52578000Y61976000D03*
D21*
X42418000Y61976000D03*
%TD*%
D12*
%TO.C,C23*%
X9906000Y20066000D03*
X4906000Y20066000D03*
%TD*%
%TO.C,C22*%
X20320000Y31162000D03*
X20320000Y26162000D03*
%TD*%
%TO.C,C21*%
X17780000Y2286000D03*
X22780000Y2286000D03*
%TD*%
%TO.C,C20*%
X26924000Y26242000D03*
X26924000Y31242000D03*
%TD*%
%TO.C,C18*%
X25908000Y5588000D03*
X30908000Y5588000D03*
%TD*%
%TO.C,C16*%
X30908000Y2286000D03*
X25908000Y2286000D03*
%TD*%
%TO.C,C14*%
G36*
G01*
X19942000Y15781000D02*
X19942000Y16731000D01*
G75*
G02*
X20192000Y16981000I250000J0D01*
G01*
X20692000Y16981000D01*
G75*
G02*
X20942000Y16731000I0J-250000D01*
G01*
X20942000Y15781000D01*
G75*
G02*
X20692000Y15531000I-250000J0D01*
G01*
X20192000Y15531000D01*
G75*
G02*
X19942000Y15781000I0J250000D01*
G01*
G37*
G36*
G01*
X18042000Y15781000D02*
X18042000Y16731000D01*
G75*
G02*
X18292000Y16981000I250000J0D01*
G01*
X18792000Y16981000D01*
G75*
G02*
X19042000Y16731000I0J-250000D01*
G01*
X19042000Y15781000D01*
G75*
G02*
X18792000Y15531000I-250000J0D01*
G01*
X18292000Y15531000D01*
G75*
G02*
X18042000Y15781000I0J250000D01*
G01*
G37*
%TD*%
%TO.C,C13*%
X33528000Y26242000D03*
X33528000Y31242000D03*
%TD*%
%TO.C,C11*%
X39370000Y10240000D03*
X39370000Y15240000D03*
%TD*%
%TO.C,C10*%
X45974000Y10240000D03*
X45974000Y15240000D03*
%TD*%
%TO.C,C9*%
X42672000Y10240000D03*
X42672000Y15240000D03*
%TD*%
%TO.C,C8*%
X43902000Y20066000D03*
D19*
X41402000Y20066000D03*
%TD*%
D12*
%TO.C,C7*%
X17446000Y40640000D03*
X12446000Y40640000D03*
%TD*%
%TO.C,C5*%
X42418000Y26456000D03*
D19*
X42418000Y28956000D03*
%TD*%
D12*
%TO.C,C3*%
X52070000Y56388000D03*
D19*
X49570000Y56388000D03*
%TD*%
D12*
%TO.C,C1*%
X41910000Y56642000D03*
D19*
X44410000Y56642000D03*
%TD*%
M02*
