%FSLAX45Y45*%
G04 Gerber Fmt 4.5, Leading zero omitted, Abs format (unit mm)*
G04 Created by KiCad (PCBNEW (5.1.9)-1) date 2021-09-20 18:57:42*
%MOMM*%
%LPD*%
G01*
G04 APERTURE LIST*
%TA.AperFunction,Profile*%
%ADD10C,0.050000*%
%TD*%
%ADD11C,0.200000*%
%ADD12C,0.300000*%
G04 APERTURE END LIST*
D10*
X3150000Y5325000D02*
G75*
G03*
X3150000Y5325000I-400000J0D01*
G01*
X5500000Y6500000D02*
X5500000Y0D01*
X0Y6500000D02*
X5500000Y6500000D01*
X0Y0D02*
X0Y6500000D01*
X0Y0D02*
X5500000Y0D01*
D11*
X1626000Y1498200D02*
X1676000Y1448200D01*
X1676000Y1498200D02*
X1626000Y1448200D01*
X1829200Y1828400D02*
X1879200Y1778400D01*
X1879200Y1828400D02*
X1829200Y1778400D01*
X2083200Y4266800D02*
X2133200Y4216800D01*
X2133200Y4266800D02*
X2083200Y4216800D01*
X2489600Y3708000D02*
X2539600Y3658000D01*
X2539600Y3708000D02*
X2489600Y3658000D01*
X2667400Y1574400D02*
X2717400Y1524400D01*
X2717400Y1574400D02*
X2667400Y1524400D01*
X2692800Y4419200D02*
X2742800Y4369200D01*
X2742800Y4419200D02*
X2692800Y4369200D01*
X2972200Y2082400D02*
X3022200Y2032400D01*
X3022200Y2082400D02*
X2972200Y2032400D01*
X3073800Y3733400D02*
X3123800Y3683400D01*
X3123800Y3733400D02*
X3073800Y3683400D01*
X3150000Y4520800D02*
X3200000Y4470800D01*
X3200000Y4520800D02*
X3150000Y4470800D01*
X3302400Y1345800D02*
X3352400Y1295800D01*
X3352400Y1345800D02*
X3302400Y1295800D01*
X3683400Y2107800D02*
X3733400Y2057800D01*
X3733400Y2107800D02*
X3683400Y2057800D01*
X530600Y2006600D02*
G75*
G03*
X530600Y2006600I-40000J0D01*
G01*
X802000Y1447800D02*
G75*
G03*
X802000Y1447800I-40000J0D01*
G01*
X802000Y685800D02*
G75*
G03*
X802000Y685800I-40000J0D01*
G01*
X1030600Y2006600D02*
G75*
G03*
X1030600Y2006600I-40000J0D01*
G01*
X1284600Y4064000D02*
G75*
G03*
X1284600Y4064000I-40000J0D01*
G01*
X1310000Y1447800D02*
G75*
G03*
X1310000Y1447800I-40000J0D01*
G01*
X1310000Y685800D02*
G75*
G03*
X1310000Y685800I-40000J0D01*
G01*
X1538600Y3251200D02*
G75*
G03*
X1538600Y3251200I-40000J0D01*
G01*
X1538600Y2489200D02*
G75*
G03*
X1538600Y2489200I-40000J0D01*
G01*
X1784600Y4064000D02*
G75*
G03*
X1784600Y4064000I-40000J0D01*
G01*
X1818000Y228600D02*
G75*
G03*
X1818000Y228600I-40000J0D01*
G01*
X2072000Y3116200D02*
G75*
G03*
X2072000Y3116200I-40000J0D01*
G01*
X2072000Y2616200D02*
G75*
G03*
X2072000Y2616200I-40000J0D01*
G01*
X2275200Y3530600D02*
G75*
G03*
X2275200Y3530600I-40000J0D01*
G01*
X2318000Y228600D02*
G75*
G03*
X2318000Y228600I-40000J0D01*
G01*
X2630800Y558800D02*
G75*
G03*
X2630800Y558800I-40000J0D01*
G01*
X2630800Y228600D02*
G75*
G03*
X2630800Y228600I-40000J0D01*
G01*
X2732400Y3124200D02*
G75*
G03*
X2732400Y3124200I-40000J0D01*
G01*
X2732400Y2624200D02*
G75*
G03*
X2732400Y2624200I-40000J0D01*
G01*
X3037200Y3530600D02*
G75*
G03*
X3037200Y3530600I-40000J0D01*
G01*
X3130800Y558800D02*
G75*
G03*
X3130800Y558800I-40000J0D01*
G01*
X3130800Y228600D02*
G75*
G03*
X3130800Y228600I-40000J0D01*
G01*
X3392800Y3124200D02*
G75*
G03*
X3392800Y3124200I-40000J0D01*
G01*
X3392800Y2624200D02*
G75*
G03*
X3392800Y2624200I-40000J0D01*
G01*
X3494400Y4800600D02*
G75*
G03*
X3494400Y4800600I-40000J0D01*
G01*
X3494400Y4470400D02*
G75*
G03*
X3494400Y4470400I-40000J0D01*
G01*
X3494400Y4140200D02*
G75*
G03*
X3494400Y4140200I-40000J0D01*
G01*
X3977000Y1524000D02*
G75*
G03*
X3977000Y1524000I-40000J0D01*
G01*
X3977000Y1024000D02*
G75*
G03*
X3977000Y1024000I-40000J0D01*
G01*
X4027800Y3124200D02*
G75*
G03*
X4027800Y3124200I-40000J0D01*
G01*
X4027800Y2362200D02*
G75*
G03*
X4027800Y2362200I-40000J0D01*
G01*
X4180200Y2006600D02*
G75*
G03*
X4180200Y2006600I-40000J0D01*
G01*
X4231000Y5664200D02*
G75*
G03*
X4231000Y5664200I-40000J0D01*
G01*
X4256400Y4800600D02*
G75*
G03*
X4256400Y4800600I-40000J0D01*
G01*
X4256400Y4470400D02*
G75*
G03*
X4256400Y4470400I-40000J0D01*
G01*
X4256400Y4140200D02*
G75*
G03*
X4256400Y4140200I-40000J0D01*
G01*
X4281800Y2895600D02*
G75*
G03*
X4281800Y2895600I-40000J0D01*
G01*
X4281800Y2645600D02*
G75*
G03*
X4281800Y2645600I-40000J0D01*
G01*
X4307200Y1524000D02*
G75*
G03*
X4307200Y1524000I-40000J0D01*
G01*
X4307200Y1024000D02*
G75*
G03*
X4307200Y1024000I-40000J0D01*
G01*
X4430200Y2006600D02*
G75*
G03*
X4430200Y2006600I-40000J0D01*
G01*
X4481000Y5664200D02*
G75*
G03*
X4481000Y5664200I-40000J0D01*
G01*
X4535800Y4851400D02*
G75*
G03*
X4535800Y4851400I-40000J0D01*
G01*
X4535800Y4089400D02*
G75*
G03*
X4535800Y4089400I-40000J0D01*
G01*
X4637400Y1524000D02*
G75*
G03*
X4637400Y1524000I-40000J0D01*
G01*
X4637400Y1024000D02*
G75*
G03*
X4637400Y1024000I-40000J0D01*
G01*
X4997000Y5638800D02*
G75*
G03*
X4997000Y5638800I-40000J0D01*
G01*
X5247000Y5638800D02*
G75*
G03*
X5247000Y5638800I-40000J0D01*
G01*
X5297800Y2819400D02*
G75*
G03*
X5297800Y2819400I-40000J0D01*
G01*
X5297800Y2057400D02*
G75*
G03*
X5297800Y2057400I-40000J0D01*
G01*
X5130800Y1264200D02*
X5130800Y1174200D01*
X5085800Y1219200D02*
X5175800Y1219200D01*
X5130800Y1010200D02*
X5130800Y920200D01*
X5085800Y965200D02*
X5175800Y965200D01*
X3565956Y1285444D02*
X3565956Y1356156D01*
X3495244Y1356156D01*
X3495244Y1285444D01*
X3565956Y1285444D01*
X3565956Y1031444D02*
X3565956Y1102156D01*
X3495244Y1102156D01*
X3495244Y1031444D01*
X3565956Y1031444D01*
X4937556Y2301444D02*
X4937556Y2372156D01*
X4866844Y2372156D01*
X4866844Y2301444D01*
X4937556Y2301444D01*
X4937556Y2047444D02*
X4937556Y2118156D01*
X4866844Y2118156D01*
X4866844Y2047444D01*
X4937556Y2047444D01*
X5013756Y1539444D02*
X5013756Y1610156D01*
X4943044Y1610156D01*
X4943044Y1539444D01*
X5013756Y1539444D01*
X5267756Y1539444D02*
X5267756Y1610156D01*
X5197044Y1610156D01*
X5197044Y1539444D01*
X5267756Y1539444D01*
X4241800Y6142600D02*
X4296800Y6197600D01*
X4241800Y6252600D01*
X4186800Y6197600D01*
X4241800Y6142600D01*
X5257800Y6142600D02*
X5312800Y6197600D01*
X5257800Y6252600D01*
X5202800Y6197600D01*
X5257800Y6142600D01*
X1590500Y6159500D02*
X1709500Y6040500D01*
X1709500Y6159500D02*
X1590500Y6040500D01*
X1709500Y6100000D02*
G75*
G03*
X1709500Y6100000I-59500J0D01*
G01*
X1844500Y6159500D02*
X1963500Y6040500D01*
X1963500Y6159500D02*
X1844500Y6040500D01*
X1963500Y6100000D02*
G75*
G03*
X1963500Y6100000I-59500J0D01*
G01*
X2286500Y6159500D02*
X2405500Y6040500D01*
X2405500Y6159500D02*
X2286500Y6040500D01*
X2405500Y6100000D02*
G75*
G03*
X2405500Y6100000I-59500J0D01*
G01*
X2540500Y6159500D02*
X2659500Y6040500D01*
X2659500Y6159500D02*
X2540500Y6040500D01*
X2659500Y6100000D02*
G75*
G03*
X2659500Y6100000I-59500J0D01*
G01*
X2794500Y6159500D02*
X2913500Y6040500D01*
X2913500Y6159500D02*
X2794500Y6040500D01*
X2913500Y6100000D02*
G75*
G03*
X2913500Y6100000I-59500J0D01*
G01*
X3048500Y6159500D02*
X3167500Y6040500D01*
X3167500Y6159500D02*
X3048500Y6040500D01*
X3167500Y6100000D02*
G75*
G03*
X3167500Y6100000I-59500J0D01*
G01*
X3490500Y6159500D02*
X3609500Y6040500D01*
X3609500Y6159500D02*
X3490500Y6040500D01*
X3609500Y6100000D02*
G75*
G03*
X3609500Y6100000I-59500J0D01*
G01*
X3744500Y6159500D02*
X3863500Y6040500D01*
X3863500Y6159500D02*
X3744500Y6040500D01*
X3863500Y6100000D02*
G75*
G03*
X3863500Y6100000I-59500J0D01*
G01*
X435000Y3615000D02*
X565000Y3485000D01*
X565000Y3615000D02*
X435000Y3485000D01*
X500000Y3615000D02*
X500000Y3485000D01*
X435000Y3550000D02*
X565000Y3550000D01*
X671600Y4665000D02*
X801600Y4535000D01*
X801600Y4665000D02*
X671600Y4535000D01*
X736600Y4665000D02*
X736600Y4535000D01*
X671600Y4600000D02*
X801600Y4600000D01*
X921600Y5665000D02*
X1051600Y5535000D01*
X1051600Y5665000D02*
X921600Y5535000D01*
X986600Y5665000D02*
X986600Y5535000D01*
X921600Y5600000D02*
X1051600Y5600000D01*
X935000Y3615000D02*
X1065000Y3485000D01*
X1065000Y3615000D02*
X935000Y3485000D01*
X1000000Y3615000D02*
X1000000Y3485000D01*
X935000Y3550000D02*
X1065000Y3550000D01*
X1171600Y4665000D02*
X1301600Y4535000D01*
X1301600Y4665000D02*
X1171600Y4535000D01*
X1236600Y4665000D02*
X1236600Y4535000D01*
X1171600Y4600000D02*
X1301600Y4600000D01*
X1435000Y3615000D02*
X1565000Y3485000D01*
X1565000Y3615000D02*
X1435000Y3485000D01*
X1500000Y3615000D02*
X1500000Y3485000D01*
X1435000Y3550000D02*
X1565000Y3550000D01*
X2185000Y2115000D02*
X2315000Y1985000D01*
X2315000Y2115000D02*
X2185000Y1985000D01*
X2250000Y2115000D02*
X2250000Y1985000D01*
X2185000Y2050000D02*
X2315000Y2050000D01*
X2685000Y2115000D02*
X2815000Y1985000D01*
X2815000Y2115000D02*
X2685000Y1985000D01*
X2750000Y2115000D02*
X2750000Y1985000D01*
X2685000Y2050000D02*
X2815000Y2050000D01*
X3185000Y2115000D02*
X3315000Y1985000D01*
X3315000Y2115000D02*
X3185000Y1985000D01*
X3250000Y2115000D02*
X3250000Y1985000D01*
X3185000Y2050000D02*
X3315000Y2050000D01*
X3935000Y3615000D02*
X4065000Y3485000D01*
X4065000Y3615000D02*
X3935000Y3485000D01*
X4000000Y3615000D02*
X4000000Y3485000D01*
X3935000Y3550000D02*
X4065000Y3550000D01*
X4435000Y3615000D02*
X4565000Y3485000D01*
X4565000Y3615000D02*
X4435000Y3485000D01*
X4500000Y3615000D02*
X4500000Y3485000D01*
X4435000Y3550000D02*
X4565000Y3550000D01*
X4935000Y3615000D02*
X5065000Y3485000D01*
X5065000Y3615000D02*
X4935000Y3485000D01*
X5000000Y3615000D02*
X5000000Y3485000D01*
X4935000Y3550000D02*
X5065000Y3550000D01*
D12*
X283928Y-468214D02*
X283928Y-168214D01*
X355357Y-168214D01*
X398214Y-182500D01*
X426786Y-211071D01*
X441071Y-239643D01*
X455357Y-296786D01*
X455357Y-339643D01*
X441071Y-396786D01*
X426786Y-425357D01*
X398214Y-453929D01*
X355357Y-468214D01*
X283928Y-468214D01*
X583928Y-468214D02*
X583928Y-268214D01*
X583928Y-325357D02*
X598214Y-296786D01*
X612500Y-282500D01*
X641071Y-268214D01*
X669643Y-268214D01*
X769643Y-468214D02*
X769643Y-268214D01*
X769643Y-168214D02*
X755357Y-182500D01*
X769643Y-196786D01*
X783928Y-182500D01*
X769643Y-168214D01*
X769643Y-196786D01*
X955357Y-468214D02*
X926786Y-453929D01*
X912500Y-425357D01*
X912500Y-168214D01*
X1112500Y-468214D02*
X1083928Y-453929D01*
X1069643Y-425357D01*
X1069643Y-168214D01*
X1455357Y-468214D02*
X1455357Y-168214D01*
X1555357Y-382500D01*
X1655357Y-168214D01*
X1655357Y-468214D01*
X1926786Y-468214D02*
X1926786Y-311072D01*
X1912500Y-282500D01*
X1883928Y-268214D01*
X1826786Y-268214D01*
X1798214Y-282500D01*
X1926786Y-453929D02*
X1898214Y-468214D01*
X1826786Y-468214D01*
X1798214Y-453929D01*
X1783928Y-425357D01*
X1783928Y-396786D01*
X1798214Y-368214D01*
X1826786Y-353929D01*
X1898214Y-353929D01*
X1926786Y-339643D01*
X2069643Y-268214D02*
X2069643Y-568214D01*
X2069643Y-282500D02*
X2098214Y-268214D01*
X2155357Y-268214D01*
X2183928Y-282500D01*
X2198214Y-296786D01*
X2212500Y-325357D01*
X2212500Y-411071D01*
X2198214Y-439643D01*
X2183928Y-453929D01*
X2155357Y-468214D01*
X2098214Y-468214D01*
X2069643Y-453929D01*
X2341071Y-439643D02*
X2355357Y-453929D01*
X2341071Y-468214D01*
X2326786Y-453929D01*
X2341071Y-439643D01*
X2341071Y-468214D01*
X2341071Y-282500D02*
X2355357Y-296786D01*
X2341071Y-311072D01*
X2326786Y-296786D01*
X2341071Y-282500D01*
X2341071Y-311072D01*
X-52500Y-937500D02*
X-2500Y-987500D01*
X-2500Y-937500D02*
X-52500Y-987500D01*
X341071Y-798214D02*
X369643Y-798214D01*
X398214Y-812500D01*
X412500Y-826786D01*
X426786Y-855357D01*
X441071Y-912500D01*
X441071Y-983929D01*
X426786Y-1041071D01*
X412500Y-1069643D01*
X398214Y-1083929D01*
X369643Y-1098214D01*
X341071Y-1098214D01*
X312500Y-1083929D01*
X298214Y-1069643D01*
X283928Y-1041071D01*
X269643Y-983929D01*
X269643Y-912500D01*
X283928Y-855357D01*
X298214Y-826786D01*
X312500Y-812500D01*
X341071Y-798214D01*
X569643Y-1069643D02*
X583928Y-1083929D01*
X569643Y-1098214D01*
X555357Y-1083929D01*
X569643Y-1069643D01*
X569643Y-1098214D01*
X855357Y-798214D02*
X712500Y-798214D01*
X698214Y-941071D01*
X712500Y-926786D01*
X741071Y-912500D01*
X812500Y-912500D01*
X841071Y-926786D01*
X855357Y-941071D01*
X869643Y-969643D01*
X869643Y-1041071D01*
X855357Y-1069643D01*
X841071Y-1083929D01*
X812500Y-1098214D01*
X741071Y-1098214D01*
X712500Y-1083929D01*
X698214Y-1069643D01*
X1055357Y-798214D02*
X1083928Y-798214D01*
X1112500Y-812500D01*
X1126786Y-826786D01*
X1141071Y-855357D01*
X1155357Y-912500D01*
X1155357Y-983929D01*
X1141071Y-1041071D01*
X1126786Y-1069643D01*
X1112500Y-1083929D01*
X1083928Y-1098214D01*
X1055357Y-1098214D01*
X1026786Y-1083929D01*
X1012500Y-1069643D01*
X998214Y-1041071D01*
X983928Y-983929D01*
X983928Y-912500D01*
X998214Y-855357D01*
X1012500Y-826786D01*
X1026786Y-812500D01*
X1055357Y-798214D01*
X1283928Y-1098214D02*
X1283928Y-898214D01*
X1283928Y-926786D02*
X1298214Y-912500D01*
X1326786Y-898214D01*
X1369643Y-898214D01*
X1398214Y-912500D01*
X1412500Y-941071D01*
X1412500Y-1098214D01*
X1412500Y-941071D02*
X1426786Y-912500D01*
X1455357Y-898214D01*
X1498214Y-898214D01*
X1526786Y-912500D01*
X1541071Y-941071D01*
X1541071Y-1098214D01*
X1683928Y-1098214D02*
X1683928Y-898214D01*
X1683928Y-926786D02*
X1698214Y-912500D01*
X1726786Y-898214D01*
X1769643Y-898214D01*
X1798214Y-912500D01*
X1812500Y-941071D01*
X1812500Y-1098214D01*
X1812500Y-941071D02*
X1826786Y-912500D01*
X1855357Y-898214D01*
X1898214Y-898214D01*
X1926786Y-912500D01*
X1941071Y-941071D01*
X1941071Y-1098214D01*
X2526786Y-783929D02*
X2269643Y-1169643D01*
X2912500Y-798214D02*
X2941071Y-798214D01*
X2969643Y-812500D01*
X2983928Y-826786D01*
X2998214Y-855357D01*
X3012500Y-912500D01*
X3012500Y-983929D01*
X2998214Y-1041071D01*
X2983928Y-1069643D01*
X2969643Y-1083929D01*
X2941071Y-1098214D01*
X2912500Y-1098214D01*
X2883928Y-1083929D01*
X2869643Y-1069643D01*
X2855357Y-1041071D01*
X2841071Y-983929D01*
X2841071Y-912500D01*
X2855357Y-855357D01*
X2869643Y-826786D01*
X2883928Y-812500D01*
X2912500Y-798214D01*
X3141071Y-1069643D02*
X3155357Y-1083929D01*
X3141071Y-1098214D01*
X3126786Y-1083929D01*
X3141071Y-1069643D01*
X3141071Y-1098214D01*
X3341071Y-798214D02*
X3369643Y-798214D01*
X3398214Y-812500D01*
X3412500Y-826786D01*
X3426786Y-855357D01*
X3441071Y-912500D01*
X3441071Y-983929D01*
X3426786Y-1041071D01*
X3412500Y-1069643D01*
X3398214Y-1083929D01*
X3369643Y-1098214D01*
X3341071Y-1098214D01*
X3312500Y-1083929D01*
X3298214Y-1069643D01*
X3283928Y-1041071D01*
X3269643Y-983929D01*
X3269643Y-912500D01*
X3283928Y-855357D01*
X3298214Y-826786D01*
X3312500Y-812500D01*
X3341071Y-798214D01*
X3555357Y-826786D02*
X3569643Y-812500D01*
X3598214Y-798214D01*
X3669643Y-798214D01*
X3698214Y-812500D01*
X3712500Y-826786D01*
X3726786Y-855357D01*
X3726786Y-883929D01*
X3712500Y-926786D01*
X3541071Y-1098214D01*
X3726786Y-1098214D01*
X3912500Y-798214D02*
X3941071Y-798214D01*
X3969643Y-812500D01*
X3983928Y-826786D01*
X3998214Y-855357D01*
X4012500Y-912500D01*
X4012500Y-983929D01*
X3998214Y-1041071D01*
X3983928Y-1069643D01*
X3969643Y-1083929D01*
X3941071Y-1098214D01*
X3912500Y-1098214D01*
X3883928Y-1083929D01*
X3869643Y-1069643D01*
X3855357Y-1041071D01*
X3841071Y-983929D01*
X3841071Y-912500D01*
X3855357Y-855357D01*
X3869643Y-826786D01*
X3883928Y-812500D01*
X3912500Y-798214D01*
X4126786Y-798214D02*
X4126786Y-855357D01*
X4241071Y-798214D02*
X4241071Y-855357D01*
X4683928Y-1212500D02*
X4669643Y-1198214D01*
X4641071Y-1155357D01*
X4626786Y-1126786D01*
X4612500Y-1083929D01*
X4598214Y-1012500D01*
X4598214Y-955357D01*
X4612500Y-883929D01*
X4626786Y-841071D01*
X4641071Y-812500D01*
X4669643Y-769643D01*
X4683928Y-755357D01*
X4955357Y-1098214D02*
X4783928Y-1098214D01*
X4869643Y-1098214D02*
X4869643Y-798214D01*
X4841071Y-841071D01*
X4812500Y-869643D01*
X4783928Y-883929D01*
X5241071Y-1098214D02*
X5069643Y-1098214D01*
X5155357Y-1098214D02*
X5155357Y-798214D01*
X5126786Y-841071D01*
X5098214Y-869643D01*
X5069643Y-883929D01*
X5598214Y-1098214D02*
X5598214Y-798214D01*
X5726786Y-1098214D02*
X5726786Y-941071D01*
X5712500Y-912500D01*
X5683928Y-898214D01*
X5641071Y-898214D01*
X5612500Y-912500D01*
X5598214Y-926786D01*
X5912500Y-1098214D02*
X5883928Y-1083929D01*
X5869643Y-1069643D01*
X5855357Y-1041071D01*
X5855357Y-955357D01*
X5869643Y-926786D01*
X5883928Y-912500D01*
X5912500Y-898214D01*
X5955357Y-898214D01*
X5983928Y-912500D01*
X5998214Y-926786D01*
X6012500Y-955357D01*
X6012500Y-1041071D01*
X5998214Y-1069643D01*
X5983928Y-1083929D01*
X5955357Y-1098214D01*
X5912500Y-1098214D01*
X6183928Y-1098214D02*
X6155357Y-1083929D01*
X6141071Y-1055357D01*
X6141071Y-798214D01*
X6412500Y-1083929D02*
X6383928Y-1098214D01*
X6326786Y-1098214D01*
X6298214Y-1083929D01*
X6283928Y-1055357D01*
X6283928Y-941071D01*
X6298214Y-912500D01*
X6326786Y-898214D01*
X6383928Y-898214D01*
X6412500Y-912500D01*
X6426786Y-941071D01*
X6426786Y-969643D01*
X6283928Y-998214D01*
X6541071Y-1083929D02*
X6569643Y-1098214D01*
X6626786Y-1098214D01*
X6655357Y-1083929D01*
X6669643Y-1055357D01*
X6669643Y-1041071D01*
X6655357Y-1012500D01*
X6626786Y-998214D01*
X6583928Y-998214D01*
X6555357Y-983929D01*
X6541071Y-955357D01*
X6541071Y-941071D01*
X6555357Y-912500D01*
X6583928Y-898214D01*
X6626786Y-898214D01*
X6655357Y-912500D01*
X6769643Y-1212500D02*
X6783928Y-1198214D01*
X6812500Y-1155357D01*
X6826786Y-1126786D01*
X6841071Y-1083929D01*
X6855357Y-1012500D01*
X6855357Y-955357D01*
X6841071Y-883929D01*
X6826786Y-841071D01*
X6812500Y-812500D01*
X6783928Y-769643D01*
X6769643Y-755357D01*
X-2500Y-1358500D02*
G75*
G03*
X-2500Y-1358500I-40000J0D01*
G01*
X341071Y-1194214D02*
X369643Y-1194214D01*
X398214Y-1208500D01*
X412500Y-1222786D01*
X426786Y-1251357D01*
X441071Y-1308500D01*
X441071Y-1379929D01*
X426786Y-1437071D01*
X412500Y-1465643D01*
X398214Y-1479929D01*
X369643Y-1494214D01*
X341071Y-1494214D01*
X312500Y-1479929D01*
X298214Y-1465643D01*
X283928Y-1437071D01*
X269643Y-1379929D01*
X269643Y-1308500D01*
X283928Y-1251357D01*
X298214Y-1222786D01*
X312500Y-1208500D01*
X341071Y-1194214D01*
X569643Y-1465643D02*
X583928Y-1479929D01*
X569643Y-1494214D01*
X555357Y-1479929D01*
X569643Y-1465643D01*
X569643Y-1494214D01*
X755357Y-1322786D02*
X726786Y-1308500D01*
X712500Y-1294214D01*
X698214Y-1265643D01*
X698214Y-1251357D01*
X712500Y-1222786D01*
X726786Y-1208500D01*
X755357Y-1194214D01*
X812500Y-1194214D01*
X841071Y-1208500D01*
X855357Y-1222786D01*
X869643Y-1251357D01*
X869643Y-1265643D01*
X855357Y-1294214D01*
X841071Y-1308500D01*
X812500Y-1322786D01*
X755357Y-1322786D01*
X726786Y-1337072D01*
X712500Y-1351357D01*
X698214Y-1379929D01*
X698214Y-1437071D01*
X712500Y-1465643D01*
X726786Y-1479929D01*
X755357Y-1494214D01*
X812500Y-1494214D01*
X841071Y-1479929D01*
X855357Y-1465643D01*
X869643Y-1437071D01*
X869643Y-1379929D01*
X855357Y-1351357D01*
X841071Y-1337072D01*
X812500Y-1322786D01*
X1055357Y-1194214D02*
X1083928Y-1194214D01*
X1112500Y-1208500D01*
X1126786Y-1222786D01*
X1141071Y-1251357D01*
X1155357Y-1308500D01*
X1155357Y-1379929D01*
X1141071Y-1437071D01*
X1126786Y-1465643D01*
X1112500Y-1479929D01*
X1083928Y-1494214D01*
X1055357Y-1494214D01*
X1026786Y-1479929D01*
X1012500Y-1465643D01*
X998214Y-1437071D01*
X983928Y-1379929D01*
X983928Y-1308500D01*
X998214Y-1251357D01*
X1012500Y-1222786D01*
X1026786Y-1208500D01*
X1055357Y-1194214D01*
X1283928Y-1494214D02*
X1283928Y-1294214D01*
X1283928Y-1322786D02*
X1298214Y-1308500D01*
X1326786Y-1294214D01*
X1369643Y-1294214D01*
X1398214Y-1308500D01*
X1412500Y-1337072D01*
X1412500Y-1494214D01*
X1412500Y-1337072D02*
X1426786Y-1308500D01*
X1455357Y-1294214D01*
X1498214Y-1294214D01*
X1526786Y-1308500D01*
X1541071Y-1337072D01*
X1541071Y-1494214D01*
X1683928Y-1494214D02*
X1683928Y-1294214D01*
X1683928Y-1322786D02*
X1698214Y-1308500D01*
X1726786Y-1294214D01*
X1769643Y-1294214D01*
X1798214Y-1308500D01*
X1812500Y-1337072D01*
X1812500Y-1494214D01*
X1812500Y-1337072D02*
X1826786Y-1308500D01*
X1855357Y-1294214D01*
X1898214Y-1294214D01*
X1926786Y-1308500D01*
X1941071Y-1337072D01*
X1941071Y-1494214D01*
X2526786Y-1179929D02*
X2269643Y-1565643D01*
X2912500Y-1194214D02*
X2941071Y-1194214D01*
X2969643Y-1208500D01*
X2983928Y-1222786D01*
X2998214Y-1251357D01*
X3012500Y-1308500D01*
X3012500Y-1379929D01*
X2998214Y-1437071D01*
X2983928Y-1465643D01*
X2969643Y-1479929D01*
X2941071Y-1494214D01*
X2912500Y-1494214D01*
X2883928Y-1479929D01*
X2869643Y-1465643D01*
X2855357Y-1437071D01*
X2841071Y-1379929D01*
X2841071Y-1308500D01*
X2855357Y-1251357D01*
X2869643Y-1222786D01*
X2883928Y-1208500D01*
X2912500Y-1194214D01*
X3141071Y-1465643D02*
X3155357Y-1479929D01*
X3141071Y-1494214D01*
X3126786Y-1479929D01*
X3141071Y-1465643D01*
X3141071Y-1494214D01*
X3341071Y-1194214D02*
X3369643Y-1194214D01*
X3398214Y-1208500D01*
X3412500Y-1222786D01*
X3426786Y-1251357D01*
X3441071Y-1308500D01*
X3441071Y-1379929D01*
X3426786Y-1437071D01*
X3412500Y-1465643D01*
X3398214Y-1479929D01*
X3369643Y-1494214D01*
X3341071Y-1494214D01*
X3312500Y-1479929D01*
X3298214Y-1465643D01*
X3283928Y-1437071D01*
X3269643Y-1379929D01*
X3269643Y-1308500D01*
X3283928Y-1251357D01*
X3298214Y-1222786D01*
X3312500Y-1208500D01*
X3341071Y-1194214D01*
X3541071Y-1194214D02*
X3726786Y-1194214D01*
X3626786Y-1308500D01*
X3669643Y-1308500D01*
X3698214Y-1322786D01*
X3712500Y-1337072D01*
X3726786Y-1365643D01*
X3726786Y-1437071D01*
X3712500Y-1465643D01*
X3698214Y-1479929D01*
X3669643Y-1494214D01*
X3583928Y-1494214D01*
X3555357Y-1479929D01*
X3541071Y-1465643D01*
X4012500Y-1494214D02*
X3841071Y-1494214D01*
X3926786Y-1494214D02*
X3926786Y-1194214D01*
X3898214Y-1237072D01*
X3869643Y-1265643D01*
X3841071Y-1279929D01*
X4126786Y-1194214D02*
X4126786Y-1251357D01*
X4241071Y-1194214D02*
X4241071Y-1251357D01*
X4683928Y-1608500D02*
X4669643Y-1594214D01*
X4641071Y-1551357D01*
X4626786Y-1522786D01*
X4612500Y-1479929D01*
X4598214Y-1408500D01*
X4598214Y-1351357D01*
X4612500Y-1279929D01*
X4626786Y-1237072D01*
X4641071Y-1208500D01*
X4669643Y-1165643D01*
X4683928Y-1151357D01*
X4941071Y-1194214D02*
X4798214Y-1194214D01*
X4783928Y-1337072D01*
X4798214Y-1322786D01*
X4826786Y-1308500D01*
X4898214Y-1308500D01*
X4926786Y-1322786D01*
X4941071Y-1337072D01*
X4955357Y-1365643D01*
X4955357Y-1437071D01*
X4941071Y-1465643D01*
X4926786Y-1479929D01*
X4898214Y-1494214D01*
X4826786Y-1494214D01*
X4798214Y-1479929D01*
X4783928Y-1465643D01*
X5141071Y-1194214D02*
X5169643Y-1194214D01*
X5198214Y-1208500D01*
X5212500Y-1222786D01*
X5226786Y-1251357D01*
X5241071Y-1308500D01*
X5241071Y-1379929D01*
X5226786Y-1437071D01*
X5212500Y-1465643D01*
X5198214Y-1479929D01*
X5169643Y-1494214D01*
X5141071Y-1494214D01*
X5112500Y-1479929D01*
X5098214Y-1465643D01*
X5083928Y-1437071D01*
X5069643Y-1379929D01*
X5069643Y-1308500D01*
X5083928Y-1251357D01*
X5098214Y-1222786D01*
X5112500Y-1208500D01*
X5141071Y-1194214D01*
X5598214Y-1494214D02*
X5598214Y-1194214D01*
X5726786Y-1494214D02*
X5726786Y-1337072D01*
X5712500Y-1308500D01*
X5683928Y-1294214D01*
X5641071Y-1294214D01*
X5612500Y-1308500D01*
X5598214Y-1322786D01*
X5912500Y-1494214D02*
X5883928Y-1479929D01*
X5869643Y-1465643D01*
X5855357Y-1437071D01*
X5855357Y-1351357D01*
X5869643Y-1322786D01*
X5883928Y-1308500D01*
X5912500Y-1294214D01*
X5955357Y-1294214D01*
X5983928Y-1308500D01*
X5998214Y-1322786D01*
X6012500Y-1351357D01*
X6012500Y-1437071D01*
X5998214Y-1465643D01*
X5983928Y-1479929D01*
X5955357Y-1494214D01*
X5912500Y-1494214D01*
X6183928Y-1494214D02*
X6155357Y-1479929D01*
X6141071Y-1451357D01*
X6141071Y-1194214D01*
X6412500Y-1479929D02*
X6383928Y-1494214D01*
X6326786Y-1494214D01*
X6298214Y-1479929D01*
X6283928Y-1451357D01*
X6283928Y-1337072D01*
X6298214Y-1308500D01*
X6326786Y-1294214D01*
X6383928Y-1294214D01*
X6412500Y-1308500D01*
X6426786Y-1337072D01*
X6426786Y-1365643D01*
X6283928Y-1394214D01*
X6541071Y-1479929D02*
X6569643Y-1494214D01*
X6626786Y-1494214D01*
X6655357Y-1479929D01*
X6669643Y-1451357D01*
X6669643Y-1437071D01*
X6655357Y-1408500D01*
X6626786Y-1394214D01*
X6583928Y-1394214D01*
X6555357Y-1379929D01*
X6541071Y-1351357D01*
X6541071Y-1337072D01*
X6555357Y-1308500D01*
X6583928Y-1294214D01*
X6626786Y-1294214D01*
X6655357Y-1308500D01*
X6769643Y-1608500D02*
X6783928Y-1594214D01*
X6812500Y-1551357D01*
X6826786Y-1522786D01*
X6841071Y-1479929D01*
X6855357Y-1408500D01*
X6855357Y-1351357D01*
X6841071Y-1279929D01*
X6826786Y-1237072D01*
X6812500Y-1208500D01*
X6783928Y-1165643D01*
X6769643Y-1151357D01*
X-47500Y-1709500D02*
X-47500Y-1799500D01*
X-92500Y-1754500D02*
X-2500Y-1754500D01*
X341071Y-1590214D02*
X369643Y-1590214D01*
X398214Y-1604500D01*
X412500Y-1618786D01*
X426786Y-1647357D01*
X441071Y-1704500D01*
X441071Y-1775929D01*
X426786Y-1833071D01*
X412500Y-1861643D01*
X398214Y-1875929D01*
X369643Y-1890214D01*
X341071Y-1890214D01*
X312500Y-1875929D01*
X298214Y-1861643D01*
X283928Y-1833071D01*
X269643Y-1775929D01*
X269643Y-1704500D01*
X283928Y-1647357D01*
X298214Y-1618786D01*
X312500Y-1604500D01*
X341071Y-1590214D01*
X569643Y-1861643D02*
X583928Y-1875929D01*
X569643Y-1890214D01*
X555357Y-1875929D01*
X569643Y-1861643D01*
X569643Y-1890214D01*
X726786Y-1890214D02*
X783928Y-1890214D01*
X812500Y-1875929D01*
X826786Y-1861643D01*
X855357Y-1818786D01*
X869643Y-1761643D01*
X869643Y-1647357D01*
X855357Y-1618786D01*
X841071Y-1604500D01*
X812500Y-1590214D01*
X755357Y-1590214D01*
X726786Y-1604500D01*
X712500Y-1618786D01*
X698214Y-1647357D01*
X698214Y-1718786D01*
X712500Y-1747357D01*
X726786Y-1761643D01*
X755357Y-1775929D01*
X812500Y-1775929D01*
X841071Y-1761643D01*
X855357Y-1747357D01*
X869643Y-1718786D01*
X1055357Y-1590214D02*
X1083928Y-1590214D01*
X1112500Y-1604500D01*
X1126786Y-1618786D01*
X1141071Y-1647357D01*
X1155357Y-1704500D01*
X1155357Y-1775929D01*
X1141071Y-1833071D01*
X1126786Y-1861643D01*
X1112500Y-1875929D01*
X1083928Y-1890214D01*
X1055357Y-1890214D01*
X1026786Y-1875929D01*
X1012500Y-1861643D01*
X998214Y-1833071D01*
X983928Y-1775929D01*
X983928Y-1704500D01*
X998214Y-1647357D01*
X1012500Y-1618786D01*
X1026786Y-1604500D01*
X1055357Y-1590214D01*
X1283928Y-1890214D02*
X1283928Y-1690214D01*
X1283928Y-1718786D02*
X1298214Y-1704500D01*
X1326786Y-1690214D01*
X1369643Y-1690214D01*
X1398214Y-1704500D01*
X1412500Y-1733071D01*
X1412500Y-1890214D01*
X1412500Y-1733071D02*
X1426786Y-1704500D01*
X1455357Y-1690214D01*
X1498214Y-1690214D01*
X1526786Y-1704500D01*
X1541071Y-1733071D01*
X1541071Y-1890214D01*
X1683928Y-1890214D02*
X1683928Y-1690214D01*
X1683928Y-1718786D02*
X1698214Y-1704500D01*
X1726786Y-1690214D01*
X1769643Y-1690214D01*
X1798214Y-1704500D01*
X1812500Y-1733071D01*
X1812500Y-1890214D01*
X1812500Y-1733071D02*
X1826786Y-1704500D01*
X1855357Y-1690214D01*
X1898214Y-1690214D01*
X1926786Y-1704500D01*
X1941071Y-1733071D01*
X1941071Y-1890214D01*
X2526786Y-1575929D02*
X2269643Y-1961643D01*
X2912500Y-1590214D02*
X2941071Y-1590214D01*
X2969643Y-1604500D01*
X2983928Y-1618786D01*
X2998214Y-1647357D01*
X3012500Y-1704500D01*
X3012500Y-1775929D01*
X2998214Y-1833071D01*
X2983928Y-1861643D01*
X2969643Y-1875929D01*
X2941071Y-1890214D01*
X2912500Y-1890214D01*
X2883928Y-1875929D01*
X2869643Y-1861643D01*
X2855357Y-1833071D01*
X2841071Y-1775929D01*
X2841071Y-1704500D01*
X2855357Y-1647357D01*
X2869643Y-1618786D01*
X2883928Y-1604500D01*
X2912500Y-1590214D01*
X3141071Y-1861643D02*
X3155357Y-1875929D01*
X3141071Y-1890214D01*
X3126786Y-1875929D01*
X3141071Y-1861643D01*
X3141071Y-1890214D01*
X3341071Y-1590214D02*
X3369643Y-1590214D01*
X3398214Y-1604500D01*
X3412500Y-1618786D01*
X3426786Y-1647357D01*
X3441071Y-1704500D01*
X3441071Y-1775929D01*
X3426786Y-1833071D01*
X3412500Y-1861643D01*
X3398214Y-1875929D01*
X3369643Y-1890214D01*
X3341071Y-1890214D01*
X3312500Y-1875929D01*
X3298214Y-1861643D01*
X3283928Y-1833071D01*
X3269643Y-1775929D01*
X3269643Y-1704500D01*
X3283928Y-1647357D01*
X3298214Y-1618786D01*
X3312500Y-1604500D01*
X3341071Y-1590214D01*
X3541071Y-1590214D02*
X3726786Y-1590214D01*
X3626786Y-1704500D01*
X3669643Y-1704500D01*
X3698214Y-1718786D01*
X3712500Y-1733071D01*
X3726786Y-1761643D01*
X3726786Y-1833071D01*
X3712500Y-1861643D01*
X3698214Y-1875929D01*
X3669643Y-1890214D01*
X3583928Y-1890214D01*
X3555357Y-1875929D01*
X3541071Y-1861643D01*
X3998214Y-1590214D02*
X3855357Y-1590214D01*
X3841071Y-1733071D01*
X3855357Y-1718786D01*
X3883928Y-1704500D01*
X3955357Y-1704500D01*
X3983928Y-1718786D01*
X3998214Y-1733071D01*
X4012500Y-1761643D01*
X4012500Y-1833071D01*
X3998214Y-1861643D01*
X3983928Y-1875929D01*
X3955357Y-1890214D01*
X3883928Y-1890214D01*
X3855357Y-1875929D01*
X3841071Y-1861643D01*
X4126786Y-1590214D02*
X4126786Y-1647357D01*
X4241071Y-1590214D02*
X4241071Y-1647357D01*
X4683928Y-2004500D02*
X4669643Y-1990214D01*
X4641071Y-1947357D01*
X4626786Y-1918786D01*
X4612500Y-1875929D01*
X4598214Y-1804500D01*
X4598214Y-1747357D01*
X4612500Y-1675929D01*
X4626786Y-1633071D01*
X4641071Y-1604500D01*
X4669643Y-1561643D01*
X4683928Y-1547357D01*
X4783928Y-1618786D02*
X4798214Y-1604500D01*
X4826786Y-1590214D01*
X4898214Y-1590214D01*
X4926786Y-1604500D01*
X4941071Y-1618786D01*
X4955357Y-1647357D01*
X4955357Y-1675929D01*
X4941071Y-1718786D01*
X4769643Y-1890214D01*
X4955357Y-1890214D01*
X5312500Y-1890214D02*
X5312500Y-1590214D01*
X5441071Y-1890214D02*
X5441071Y-1733071D01*
X5426786Y-1704500D01*
X5398214Y-1690214D01*
X5355357Y-1690214D01*
X5326786Y-1704500D01*
X5312500Y-1718786D01*
X5626786Y-1890214D02*
X5598214Y-1875929D01*
X5583928Y-1861643D01*
X5569643Y-1833071D01*
X5569643Y-1747357D01*
X5583928Y-1718786D01*
X5598214Y-1704500D01*
X5626786Y-1690214D01*
X5669643Y-1690214D01*
X5698214Y-1704500D01*
X5712500Y-1718786D01*
X5726786Y-1747357D01*
X5726786Y-1833071D01*
X5712500Y-1861643D01*
X5698214Y-1875929D01*
X5669643Y-1890214D01*
X5626786Y-1890214D01*
X5898214Y-1890214D02*
X5869643Y-1875929D01*
X5855357Y-1847357D01*
X5855357Y-1590214D01*
X6126786Y-1875929D02*
X6098214Y-1890214D01*
X6041071Y-1890214D01*
X6012500Y-1875929D01*
X5998214Y-1847357D01*
X5998214Y-1733071D01*
X6012500Y-1704500D01*
X6041071Y-1690214D01*
X6098214Y-1690214D01*
X6126786Y-1704500D01*
X6141071Y-1733071D01*
X6141071Y-1761643D01*
X5998214Y-1790214D01*
X6255357Y-1875929D02*
X6283928Y-1890214D01*
X6341071Y-1890214D01*
X6369643Y-1875929D01*
X6383928Y-1847357D01*
X6383928Y-1833071D01*
X6369643Y-1804500D01*
X6341071Y-1790214D01*
X6298214Y-1790214D01*
X6269643Y-1775929D01*
X6255357Y-1747357D01*
X6255357Y-1733071D01*
X6269643Y-1704500D01*
X6298214Y-1690214D01*
X6341071Y-1690214D01*
X6369643Y-1704500D01*
X6483928Y-2004500D02*
X6498214Y-1990214D01*
X6526786Y-1947357D01*
X6541071Y-1918786D01*
X6555357Y-1875929D01*
X6569643Y-1804500D01*
X6569643Y-1747357D01*
X6555357Y-1675929D01*
X6541071Y-1633071D01*
X6526786Y-1604500D01*
X6498214Y-1561643D01*
X6483928Y-1547357D01*
X-17144Y-2185856D02*
X-17144Y-2115144D01*
X-87856Y-2115144D01*
X-87856Y-2185856D01*
X-17144Y-2185856D01*
X441071Y-2286214D02*
X269643Y-2286214D01*
X355357Y-2286214D02*
X355357Y-1986214D01*
X326786Y-2029071D01*
X298214Y-2057643D01*
X269643Y-2071929D01*
X569643Y-2257643D02*
X583928Y-2271929D01*
X569643Y-2286214D01*
X555357Y-2271929D01*
X569643Y-2257643D01*
X569643Y-2286214D01*
X769643Y-1986214D02*
X798214Y-1986214D01*
X826786Y-2000500D01*
X841071Y-2014786D01*
X855357Y-2043357D01*
X869643Y-2100500D01*
X869643Y-2171929D01*
X855357Y-2229072D01*
X841071Y-2257643D01*
X826786Y-2271929D01*
X798214Y-2286214D01*
X769643Y-2286214D01*
X741071Y-2271929D01*
X726786Y-2257643D01*
X712500Y-2229072D01*
X698214Y-2171929D01*
X698214Y-2100500D01*
X712500Y-2043357D01*
X726786Y-2014786D01*
X741071Y-2000500D01*
X769643Y-1986214D01*
X1055357Y-1986214D02*
X1083928Y-1986214D01*
X1112500Y-2000500D01*
X1126786Y-2014786D01*
X1141071Y-2043357D01*
X1155357Y-2100500D01*
X1155357Y-2171929D01*
X1141071Y-2229072D01*
X1126786Y-2257643D01*
X1112500Y-2271929D01*
X1083928Y-2286214D01*
X1055357Y-2286214D01*
X1026786Y-2271929D01*
X1012500Y-2257643D01*
X998214Y-2229072D01*
X983928Y-2171929D01*
X983928Y-2100500D01*
X998214Y-2043357D01*
X1012500Y-2014786D01*
X1026786Y-2000500D01*
X1055357Y-1986214D01*
X1283928Y-2286214D02*
X1283928Y-2086214D01*
X1283928Y-2114786D02*
X1298214Y-2100500D01*
X1326786Y-2086214D01*
X1369643Y-2086214D01*
X1398214Y-2100500D01*
X1412500Y-2129072D01*
X1412500Y-2286214D01*
X1412500Y-2129072D02*
X1426786Y-2100500D01*
X1455357Y-2086214D01*
X1498214Y-2086214D01*
X1526786Y-2100500D01*
X1541071Y-2129072D01*
X1541071Y-2286214D01*
X1683928Y-2286214D02*
X1683928Y-2086214D01*
X1683928Y-2114786D02*
X1698214Y-2100500D01*
X1726786Y-2086214D01*
X1769643Y-2086214D01*
X1798214Y-2100500D01*
X1812500Y-2129072D01*
X1812500Y-2286214D01*
X1812500Y-2129072D02*
X1826786Y-2100500D01*
X1855357Y-2086214D01*
X1898214Y-2086214D01*
X1926786Y-2100500D01*
X1941071Y-2129072D01*
X1941071Y-2286214D01*
X2526786Y-1971929D02*
X2269643Y-2357643D01*
X2912500Y-1986214D02*
X2941071Y-1986214D01*
X2969643Y-2000500D01*
X2983928Y-2014786D01*
X2998214Y-2043357D01*
X3012500Y-2100500D01*
X3012500Y-2171929D01*
X2998214Y-2229072D01*
X2983928Y-2257643D01*
X2969643Y-2271929D01*
X2941071Y-2286214D01*
X2912500Y-2286214D01*
X2883928Y-2271929D01*
X2869643Y-2257643D01*
X2855357Y-2229072D01*
X2841071Y-2171929D01*
X2841071Y-2100500D01*
X2855357Y-2043357D01*
X2869643Y-2014786D01*
X2883928Y-2000500D01*
X2912500Y-1986214D01*
X3141071Y-2257643D02*
X3155357Y-2271929D01*
X3141071Y-2286214D01*
X3126786Y-2271929D01*
X3141071Y-2257643D01*
X3141071Y-2286214D01*
X3341071Y-1986214D02*
X3369643Y-1986214D01*
X3398214Y-2000500D01*
X3412500Y-2014786D01*
X3426786Y-2043357D01*
X3441071Y-2100500D01*
X3441071Y-2171929D01*
X3426786Y-2229072D01*
X3412500Y-2257643D01*
X3398214Y-2271929D01*
X3369643Y-2286214D01*
X3341071Y-2286214D01*
X3312500Y-2271929D01*
X3298214Y-2257643D01*
X3283928Y-2229072D01*
X3269643Y-2171929D01*
X3269643Y-2100500D01*
X3283928Y-2043357D01*
X3298214Y-2014786D01*
X3312500Y-2000500D01*
X3341071Y-1986214D01*
X3541071Y-1986214D02*
X3726786Y-1986214D01*
X3626786Y-2100500D01*
X3669643Y-2100500D01*
X3698214Y-2114786D01*
X3712500Y-2129072D01*
X3726786Y-2157643D01*
X3726786Y-2229072D01*
X3712500Y-2257643D01*
X3698214Y-2271929D01*
X3669643Y-2286214D01*
X3583928Y-2286214D01*
X3555357Y-2271929D01*
X3541071Y-2257643D01*
X3869643Y-2286214D02*
X3926786Y-2286214D01*
X3955357Y-2271929D01*
X3969643Y-2257643D01*
X3998214Y-2214786D01*
X4012500Y-2157643D01*
X4012500Y-2043357D01*
X3998214Y-2014786D01*
X3983928Y-2000500D01*
X3955357Y-1986214D01*
X3898214Y-1986214D01*
X3869643Y-2000500D01*
X3855357Y-2014786D01*
X3841071Y-2043357D01*
X3841071Y-2114786D01*
X3855357Y-2143357D01*
X3869643Y-2157643D01*
X3898214Y-2171929D01*
X3955357Y-2171929D01*
X3983928Y-2157643D01*
X3998214Y-2143357D01*
X4012500Y-2114786D01*
X4126786Y-1986214D02*
X4126786Y-2043357D01*
X4241071Y-1986214D02*
X4241071Y-2043357D01*
X4683928Y-2400500D02*
X4669643Y-2386214D01*
X4641071Y-2343357D01*
X4626786Y-2314786D01*
X4612500Y-2271929D01*
X4598214Y-2200500D01*
X4598214Y-2143357D01*
X4612500Y-2071929D01*
X4626786Y-2029071D01*
X4641071Y-2000500D01*
X4669643Y-1957643D01*
X4683928Y-1943357D01*
X4926786Y-1986214D02*
X4869643Y-1986214D01*
X4841071Y-2000500D01*
X4826786Y-2014786D01*
X4798214Y-2057643D01*
X4783928Y-2114786D01*
X4783928Y-2229072D01*
X4798214Y-2257643D01*
X4812500Y-2271929D01*
X4841071Y-2286214D01*
X4898214Y-2286214D01*
X4926786Y-2271929D01*
X4941071Y-2257643D01*
X4955357Y-2229072D01*
X4955357Y-2157643D01*
X4941071Y-2129072D01*
X4926786Y-2114786D01*
X4898214Y-2100500D01*
X4841071Y-2100500D01*
X4812500Y-2114786D01*
X4798214Y-2129072D01*
X4783928Y-2157643D01*
X5312500Y-2286214D02*
X5312500Y-1986214D01*
X5441071Y-2286214D02*
X5441071Y-2129072D01*
X5426786Y-2100500D01*
X5398214Y-2086214D01*
X5355357Y-2086214D01*
X5326786Y-2100500D01*
X5312500Y-2114786D01*
X5626786Y-2286214D02*
X5598214Y-2271929D01*
X5583928Y-2257643D01*
X5569643Y-2229072D01*
X5569643Y-2143357D01*
X5583928Y-2114786D01*
X5598214Y-2100500D01*
X5626786Y-2086214D01*
X5669643Y-2086214D01*
X5698214Y-2100500D01*
X5712500Y-2114786D01*
X5726786Y-2143357D01*
X5726786Y-2229072D01*
X5712500Y-2257643D01*
X5698214Y-2271929D01*
X5669643Y-2286214D01*
X5626786Y-2286214D01*
X5898214Y-2286214D02*
X5869643Y-2271929D01*
X5855357Y-2243357D01*
X5855357Y-1986214D01*
X6126786Y-2271929D02*
X6098214Y-2286214D01*
X6041071Y-2286214D01*
X6012500Y-2271929D01*
X5998214Y-2243357D01*
X5998214Y-2129072D01*
X6012500Y-2100500D01*
X6041071Y-2086214D01*
X6098214Y-2086214D01*
X6126786Y-2100500D01*
X6141071Y-2129072D01*
X6141071Y-2157643D01*
X5998214Y-2186214D01*
X6255357Y-2271929D02*
X6283928Y-2286214D01*
X6341071Y-2286214D01*
X6369643Y-2271929D01*
X6383928Y-2243357D01*
X6383928Y-2229072D01*
X6369643Y-2200500D01*
X6341071Y-2186214D01*
X6298214Y-2186214D01*
X6269643Y-2171929D01*
X6255357Y-2143357D01*
X6255357Y-2129072D01*
X6269643Y-2100500D01*
X6298214Y-2086214D01*
X6341071Y-2086214D01*
X6369643Y-2100500D01*
X6483928Y-2400500D02*
X6498214Y-2386214D01*
X6526786Y-2343357D01*
X6541071Y-2314786D01*
X6555357Y-2271929D01*
X6569643Y-2200500D01*
X6569643Y-2143357D01*
X6555357Y-2071929D01*
X6541071Y-2029071D01*
X6526786Y-2000500D01*
X6498214Y-1957643D01*
X6483928Y-1943357D01*
X-57500Y-2601500D02*
X-2500Y-2546500D01*
X-57500Y-2491500D01*
X-112500Y-2546500D01*
X-57500Y-2601500D01*
X441071Y-2682214D02*
X269643Y-2682214D01*
X355357Y-2682214D02*
X355357Y-2382214D01*
X326786Y-2425072D01*
X298214Y-2453643D01*
X269643Y-2467929D01*
X569643Y-2653643D02*
X583928Y-2667929D01*
X569643Y-2682214D01*
X555357Y-2667929D01*
X569643Y-2653643D01*
X569643Y-2682214D01*
X869643Y-2682214D02*
X698214Y-2682214D01*
X783928Y-2682214D02*
X783928Y-2382214D01*
X755357Y-2425072D01*
X726786Y-2453643D01*
X698214Y-2467929D01*
X1055357Y-2382214D02*
X1083928Y-2382214D01*
X1112500Y-2396500D01*
X1126786Y-2410786D01*
X1141071Y-2439357D01*
X1155357Y-2496500D01*
X1155357Y-2567929D01*
X1141071Y-2625072D01*
X1126786Y-2653643D01*
X1112500Y-2667929D01*
X1083928Y-2682214D01*
X1055357Y-2682214D01*
X1026786Y-2667929D01*
X1012500Y-2653643D01*
X998214Y-2625072D01*
X983928Y-2567929D01*
X983928Y-2496500D01*
X998214Y-2439357D01*
X1012500Y-2410786D01*
X1026786Y-2396500D01*
X1055357Y-2382214D01*
X1283928Y-2682214D02*
X1283928Y-2482214D01*
X1283928Y-2510786D02*
X1298214Y-2496500D01*
X1326786Y-2482214D01*
X1369643Y-2482214D01*
X1398214Y-2496500D01*
X1412500Y-2525072D01*
X1412500Y-2682214D01*
X1412500Y-2525072D02*
X1426786Y-2496500D01*
X1455357Y-2482214D01*
X1498214Y-2482214D01*
X1526786Y-2496500D01*
X1541071Y-2525072D01*
X1541071Y-2682214D01*
X1683928Y-2682214D02*
X1683928Y-2482214D01*
X1683928Y-2510786D02*
X1698214Y-2496500D01*
X1726786Y-2482214D01*
X1769643Y-2482214D01*
X1798214Y-2496500D01*
X1812500Y-2525072D01*
X1812500Y-2682214D01*
X1812500Y-2525072D02*
X1826786Y-2496500D01*
X1855357Y-2482214D01*
X1898214Y-2482214D01*
X1926786Y-2496500D01*
X1941071Y-2525072D01*
X1941071Y-2682214D01*
X2526786Y-2367929D02*
X2269643Y-2753643D01*
X2912500Y-2382214D02*
X2941071Y-2382214D01*
X2969643Y-2396500D01*
X2983928Y-2410786D01*
X2998214Y-2439357D01*
X3012500Y-2496500D01*
X3012500Y-2567929D01*
X2998214Y-2625072D01*
X2983928Y-2653643D01*
X2969643Y-2667929D01*
X2941071Y-2682214D01*
X2912500Y-2682214D01*
X2883928Y-2667929D01*
X2869643Y-2653643D01*
X2855357Y-2625072D01*
X2841071Y-2567929D01*
X2841071Y-2496500D01*
X2855357Y-2439357D01*
X2869643Y-2410786D01*
X2883928Y-2396500D01*
X2912500Y-2382214D01*
X3141071Y-2653643D02*
X3155357Y-2667929D01*
X3141071Y-2682214D01*
X3126786Y-2667929D01*
X3141071Y-2653643D01*
X3141071Y-2682214D01*
X3341071Y-2382214D02*
X3369643Y-2382214D01*
X3398214Y-2396500D01*
X3412500Y-2410786D01*
X3426786Y-2439357D01*
X3441071Y-2496500D01*
X3441071Y-2567929D01*
X3426786Y-2625072D01*
X3412500Y-2653643D01*
X3398214Y-2667929D01*
X3369643Y-2682214D01*
X3341071Y-2682214D01*
X3312500Y-2667929D01*
X3298214Y-2653643D01*
X3283928Y-2625072D01*
X3269643Y-2567929D01*
X3269643Y-2496500D01*
X3283928Y-2439357D01*
X3298214Y-2410786D01*
X3312500Y-2396500D01*
X3341071Y-2382214D01*
X3698214Y-2482214D02*
X3698214Y-2682214D01*
X3626786Y-2367929D02*
X3555357Y-2582214D01*
X3741071Y-2582214D01*
X3826786Y-2382214D02*
X4012500Y-2382214D01*
X3912500Y-2496500D01*
X3955357Y-2496500D01*
X3983928Y-2510786D01*
X3998214Y-2525072D01*
X4012500Y-2553643D01*
X4012500Y-2625072D01*
X3998214Y-2653643D01*
X3983928Y-2667929D01*
X3955357Y-2682214D01*
X3869643Y-2682214D01*
X3841071Y-2667929D01*
X3826786Y-2653643D01*
X4126786Y-2382214D02*
X4126786Y-2439357D01*
X4241071Y-2382214D02*
X4241071Y-2439357D01*
X4683928Y-2796500D02*
X4669643Y-2782214D01*
X4641071Y-2739357D01*
X4626786Y-2710786D01*
X4612500Y-2667929D01*
X4598214Y-2596500D01*
X4598214Y-2539357D01*
X4612500Y-2467929D01*
X4626786Y-2425072D01*
X4641071Y-2396500D01*
X4669643Y-2353643D01*
X4683928Y-2339357D01*
X4783928Y-2410786D02*
X4798214Y-2396500D01*
X4826786Y-2382214D01*
X4898214Y-2382214D01*
X4926786Y-2396500D01*
X4941071Y-2410786D01*
X4955357Y-2439357D01*
X4955357Y-2467929D01*
X4941071Y-2510786D01*
X4769643Y-2682214D01*
X4955357Y-2682214D01*
X5312500Y-2682214D02*
X5312500Y-2382214D01*
X5441071Y-2682214D02*
X5441071Y-2525072D01*
X5426786Y-2496500D01*
X5398214Y-2482214D01*
X5355357Y-2482214D01*
X5326786Y-2496500D01*
X5312500Y-2510786D01*
X5626786Y-2682214D02*
X5598214Y-2667929D01*
X5583928Y-2653643D01*
X5569643Y-2625072D01*
X5569643Y-2539357D01*
X5583928Y-2510786D01*
X5598214Y-2496500D01*
X5626786Y-2482214D01*
X5669643Y-2482214D01*
X5698214Y-2496500D01*
X5712500Y-2510786D01*
X5726786Y-2539357D01*
X5726786Y-2625072D01*
X5712500Y-2653643D01*
X5698214Y-2667929D01*
X5669643Y-2682214D01*
X5626786Y-2682214D01*
X5898214Y-2682214D02*
X5869643Y-2667929D01*
X5855357Y-2639357D01*
X5855357Y-2382214D01*
X6126786Y-2667929D02*
X6098214Y-2682214D01*
X6041071Y-2682214D01*
X6012500Y-2667929D01*
X5998214Y-2639357D01*
X5998214Y-2525072D01*
X6012500Y-2496500D01*
X6041071Y-2482214D01*
X6098214Y-2482214D01*
X6126786Y-2496500D01*
X6141071Y-2525072D01*
X6141071Y-2553643D01*
X5998214Y-2582214D01*
X6255357Y-2667929D02*
X6283928Y-2682214D01*
X6341071Y-2682214D01*
X6369643Y-2667929D01*
X6383928Y-2639357D01*
X6383928Y-2625072D01*
X6369643Y-2596500D01*
X6341071Y-2582214D01*
X6298214Y-2582214D01*
X6269643Y-2567929D01*
X6255357Y-2539357D01*
X6255357Y-2525072D01*
X6269643Y-2496500D01*
X6298214Y-2482214D01*
X6341071Y-2482214D01*
X6369643Y-2496500D01*
X6483928Y-2796500D02*
X6498214Y-2782214D01*
X6526786Y-2739357D01*
X6541071Y-2710786D01*
X6555357Y-2667929D01*
X6569643Y-2596500D01*
X6569643Y-2539357D01*
X6555357Y-2467929D01*
X6541071Y-2425072D01*
X6526786Y-2396500D01*
X6498214Y-2353643D01*
X6483928Y-2339357D01*
X-121500Y-2883000D02*
X-2500Y-3002000D01*
X-2500Y-2883000D02*
X-121500Y-3002000D01*
X-2500Y-2942500D02*
G75*
G03*
X-2500Y-2942500I-59500J0D01*
G01*
X441071Y-3078214D02*
X269643Y-3078214D01*
X355357Y-3078214D02*
X355357Y-2778214D01*
X326786Y-2821071D01*
X298214Y-2849643D01*
X269643Y-2863929D01*
X569643Y-3049643D02*
X583928Y-3063929D01*
X569643Y-3078214D01*
X555357Y-3063929D01*
X569643Y-3049643D01*
X569643Y-3078214D01*
X869643Y-3078214D02*
X698214Y-3078214D01*
X783928Y-3078214D02*
X783928Y-2778214D01*
X755357Y-2821071D01*
X726786Y-2849643D01*
X698214Y-2863929D01*
X1012500Y-3078214D02*
X1069643Y-3078214D01*
X1098214Y-3063929D01*
X1112500Y-3049643D01*
X1141071Y-3006786D01*
X1155357Y-2949643D01*
X1155357Y-2835357D01*
X1141071Y-2806786D01*
X1126786Y-2792500D01*
X1098214Y-2778214D01*
X1041071Y-2778214D01*
X1012500Y-2792500D01*
X998214Y-2806786D01*
X983928Y-2835357D01*
X983928Y-2906786D01*
X998214Y-2935357D01*
X1012500Y-2949643D01*
X1041071Y-2963929D01*
X1098214Y-2963929D01*
X1126786Y-2949643D01*
X1141071Y-2935357D01*
X1155357Y-2906786D01*
X1283928Y-3078214D02*
X1283928Y-2878214D01*
X1283928Y-2906786D02*
X1298214Y-2892500D01*
X1326786Y-2878214D01*
X1369643Y-2878214D01*
X1398214Y-2892500D01*
X1412500Y-2921071D01*
X1412500Y-3078214D01*
X1412500Y-2921071D02*
X1426786Y-2892500D01*
X1455357Y-2878214D01*
X1498214Y-2878214D01*
X1526786Y-2892500D01*
X1541071Y-2921071D01*
X1541071Y-3078214D01*
X1683928Y-3078214D02*
X1683928Y-2878214D01*
X1683928Y-2906786D02*
X1698214Y-2892500D01*
X1726786Y-2878214D01*
X1769643Y-2878214D01*
X1798214Y-2892500D01*
X1812500Y-2921071D01*
X1812500Y-3078214D01*
X1812500Y-2921071D02*
X1826786Y-2892500D01*
X1855357Y-2878214D01*
X1898214Y-2878214D01*
X1926786Y-2892500D01*
X1941071Y-2921071D01*
X1941071Y-3078214D01*
X2526786Y-2763929D02*
X2269643Y-3149643D01*
X2912500Y-2778214D02*
X2941071Y-2778214D01*
X2969643Y-2792500D01*
X2983928Y-2806786D01*
X2998214Y-2835357D01*
X3012500Y-2892500D01*
X3012500Y-2963929D01*
X2998214Y-3021071D01*
X2983928Y-3049643D01*
X2969643Y-3063929D01*
X2941071Y-3078214D01*
X2912500Y-3078214D01*
X2883928Y-3063929D01*
X2869643Y-3049643D01*
X2855357Y-3021071D01*
X2841071Y-2963929D01*
X2841071Y-2892500D01*
X2855357Y-2835357D01*
X2869643Y-2806786D01*
X2883928Y-2792500D01*
X2912500Y-2778214D01*
X3141071Y-3049643D02*
X3155357Y-3063929D01*
X3141071Y-3078214D01*
X3126786Y-3063929D01*
X3141071Y-3049643D01*
X3141071Y-3078214D01*
X3341071Y-2778214D02*
X3369643Y-2778214D01*
X3398214Y-2792500D01*
X3412500Y-2806786D01*
X3426786Y-2835357D01*
X3441071Y-2892500D01*
X3441071Y-2963929D01*
X3426786Y-3021071D01*
X3412500Y-3049643D01*
X3398214Y-3063929D01*
X3369643Y-3078214D01*
X3341071Y-3078214D01*
X3312500Y-3063929D01*
X3298214Y-3049643D01*
X3283928Y-3021071D01*
X3269643Y-2963929D01*
X3269643Y-2892500D01*
X3283928Y-2835357D01*
X3298214Y-2806786D01*
X3312500Y-2792500D01*
X3341071Y-2778214D01*
X3698214Y-2878214D02*
X3698214Y-3078214D01*
X3626786Y-2763929D02*
X3555357Y-2978214D01*
X3741071Y-2978214D01*
X3826786Y-2778214D02*
X4026786Y-2778214D01*
X3898214Y-3078214D01*
X4126786Y-2778214D02*
X4126786Y-2835357D01*
X4241071Y-2778214D02*
X4241071Y-2835357D01*
X4683928Y-3192500D02*
X4669643Y-3178214D01*
X4641071Y-3135357D01*
X4626786Y-3106786D01*
X4612500Y-3063929D01*
X4598214Y-2992500D01*
X4598214Y-2935357D01*
X4612500Y-2863929D01*
X4626786Y-2821071D01*
X4641071Y-2792500D01*
X4669643Y-2749643D01*
X4683928Y-2735357D01*
X4841071Y-2906786D02*
X4812500Y-2892500D01*
X4798214Y-2878214D01*
X4783928Y-2849643D01*
X4783928Y-2835357D01*
X4798214Y-2806786D01*
X4812500Y-2792500D01*
X4841071Y-2778214D01*
X4898214Y-2778214D01*
X4926786Y-2792500D01*
X4941071Y-2806786D01*
X4955357Y-2835357D01*
X4955357Y-2849643D01*
X4941071Y-2878214D01*
X4926786Y-2892500D01*
X4898214Y-2906786D01*
X4841071Y-2906786D01*
X4812500Y-2921071D01*
X4798214Y-2935357D01*
X4783928Y-2963929D01*
X4783928Y-3021071D01*
X4798214Y-3049643D01*
X4812500Y-3063929D01*
X4841071Y-3078214D01*
X4898214Y-3078214D01*
X4926786Y-3063929D01*
X4941071Y-3049643D01*
X4955357Y-3021071D01*
X4955357Y-2963929D01*
X4941071Y-2935357D01*
X4926786Y-2921071D01*
X4898214Y-2906786D01*
X5312500Y-3078214D02*
X5312500Y-2778214D01*
X5441071Y-3078214D02*
X5441071Y-2921071D01*
X5426786Y-2892500D01*
X5398214Y-2878214D01*
X5355357Y-2878214D01*
X5326786Y-2892500D01*
X5312500Y-2906786D01*
X5626786Y-3078214D02*
X5598214Y-3063929D01*
X5583928Y-3049643D01*
X5569643Y-3021071D01*
X5569643Y-2935357D01*
X5583928Y-2906786D01*
X5598214Y-2892500D01*
X5626786Y-2878214D01*
X5669643Y-2878214D01*
X5698214Y-2892500D01*
X5712500Y-2906786D01*
X5726786Y-2935357D01*
X5726786Y-3021071D01*
X5712500Y-3049643D01*
X5698214Y-3063929D01*
X5669643Y-3078214D01*
X5626786Y-3078214D01*
X5898214Y-3078214D02*
X5869643Y-3063929D01*
X5855357Y-3035357D01*
X5855357Y-2778214D01*
X6126786Y-3063929D02*
X6098214Y-3078214D01*
X6041071Y-3078214D01*
X6012500Y-3063929D01*
X5998214Y-3035357D01*
X5998214Y-2921071D01*
X6012500Y-2892500D01*
X6041071Y-2878214D01*
X6098214Y-2878214D01*
X6126786Y-2892500D01*
X6141071Y-2921071D01*
X6141071Y-2949643D01*
X5998214Y-2978214D01*
X6255357Y-3063929D02*
X6283928Y-3078214D01*
X6341071Y-3078214D01*
X6369643Y-3063929D01*
X6383928Y-3035357D01*
X6383928Y-3021071D01*
X6369643Y-2992500D01*
X6341071Y-2978214D01*
X6298214Y-2978214D01*
X6269643Y-2963929D01*
X6255357Y-2935357D01*
X6255357Y-2921071D01*
X6269643Y-2892500D01*
X6298214Y-2878214D01*
X6341071Y-2878214D01*
X6369643Y-2892500D01*
X6483928Y-3192500D02*
X6498214Y-3178214D01*
X6526786Y-3135357D01*
X6541071Y-3106786D01*
X6555357Y-3063929D01*
X6569643Y-2992500D01*
X6569643Y-2935357D01*
X6555357Y-2863929D01*
X6541071Y-2821071D01*
X6526786Y-2792500D01*
X6498214Y-2749643D01*
X6483928Y-2735357D01*
X-132500Y-3273500D02*
X-2500Y-3403500D01*
X-2500Y-3273500D02*
X-132500Y-3403500D01*
X-67500Y-3273500D02*
X-67500Y-3403500D01*
X-132500Y-3338500D02*
X-2500Y-3338500D01*
X441071Y-3474214D02*
X269643Y-3474214D01*
X355357Y-3474214D02*
X355357Y-3174214D01*
X326786Y-3217071D01*
X298214Y-3245643D01*
X269643Y-3259929D01*
X569643Y-3445643D02*
X583928Y-3459929D01*
X569643Y-3474214D01*
X555357Y-3459929D01*
X569643Y-3445643D01*
X569643Y-3474214D01*
X683928Y-3174214D02*
X869643Y-3174214D01*
X769643Y-3288500D01*
X812500Y-3288500D01*
X841071Y-3302786D01*
X855357Y-3317071D01*
X869643Y-3345643D01*
X869643Y-3417071D01*
X855357Y-3445643D01*
X841071Y-3459929D01*
X812500Y-3474214D01*
X726786Y-3474214D01*
X698214Y-3459929D01*
X683928Y-3445643D01*
X1055357Y-3174214D02*
X1083928Y-3174214D01*
X1112500Y-3188500D01*
X1126786Y-3202786D01*
X1141071Y-3231357D01*
X1155357Y-3288500D01*
X1155357Y-3359929D01*
X1141071Y-3417071D01*
X1126786Y-3445643D01*
X1112500Y-3459929D01*
X1083928Y-3474214D01*
X1055357Y-3474214D01*
X1026786Y-3459929D01*
X1012500Y-3445643D01*
X998214Y-3417071D01*
X983928Y-3359929D01*
X983928Y-3288500D01*
X998214Y-3231357D01*
X1012500Y-3202786D01*
X1026786Y-3188500D01*
X1055357Y-3174214D01*
X1283928Y-3474214D02*
X1283928Y-3274214D01*
X1283928Y-3302786D02*
X1298214Y-3288500D01*
X1326786Y-3274214D01*
X1369643Y-3274214D01*
X1398214Y-3288500D01*
X1412500Y-3317071D01*
X1412500Y-3474214D01*
X1412500Y-3317071D02*
X1426786Y-3288500D01*
X1455357Y-3274214D01*
X1498214Y-3274214D01*
X1526786Y-3288500D01*
X1541071Y-3317071D01*
X1541071Y-3474214D01*
X1683928Y-3474214D02*
X1683928Y-3274214D01*
X1683928Y-3302786D02*
X1698214Y-3288500D01*
X1726786Y-3274214D01*
X1769643Y-3274214D01*
X1798214Y-3288500D01*
X1812500Y-3317071D01*
X1812500Y-3474214D01*
X1812500Y-3317071D02*
X1826786Y-3288500D01*
X1855357Y-3274214D01*
X1898214Y-3274214D01*
X1926786Y-3288500D01*
X1941071Y-3317071D01*
X1941071Y-3474214D01*
X2526786Y-3159929D02*
X2269643Y-3545643D01*
X2912500Y-3174214D02*
X2941071Y-3174214D01*
X2969643Y-3188500D01*
X2983928Y-3202786D01*
X2998214Y-3231357D01*
X3012500Y-3288500D01*
X3012500Y-3359929D01*
X2998214Y-3417071D01*
X2983928Y-3445643D01*
X2969643Y-3459929D01*
X2941071Y-3474214D01*
X2912500Y-3474214D01*
X2883928Y-3459929D01*
X2869643Y-3445643D01*
X2855357Y-3417071D01*
X2841071Y-3359929D01*
X2841071Y-3288500D01*
X2855357Y-3231357D01*
X2869643Y-3202786D01*
X2883928Y-3188500D01*
X2912500Y-3174214D01*
X3141071Y-3445643D02*
X3155357Y-3459929D01*
X3141071Y-3474214D01*
X3126786Y-3459929D01*
X3141071Y-3445643D01*
X3141071Y-3474214D01*
X3341071Y-3174214D02*
X3369643Y-3174214D01*
X3398214Y-3188500D01*
X3412500Y-3202786D01*
X3426786Y-3231357D01*
X3441071Y-3288500D01*
X3441071Y-3359929D01*
X3426786Y-3417071D01*
X3412500Y-3445643D01*
X3398214Y-3459929D01*
X3369643Y-3474214D01*
X3341071Y-3474214D01*
X3312500Y-3459929D01*
X3298214Y-3445643D01*
X3283928Y-3417071D01*
X3269643Y-3359929D01*
X3269643Y-3288500D01*
X3283928Y-3231357D01*
X3298214Y-3202786D01*
X3312500Y-3188500D01*
X3341071Y-3174214D01*
X3712500Y-3174214D02*
X3569643Y-3174214D01*
X3555357Y-3317071D01*
X3569643Y-3302786D01*
X3598214Y-3288500D01*
X3669643Y-3288500D01*
X3698214Y-3302786D01*
X3712500Y-3317071D01*
X3726786Y-3345643D01*
X3726786Y-3417071D01*
X3712500Y-3445643D01*
X3698214Y-3459929D01*
X3669643Y-3474214D01*
X3598214Y-3474214D01*
X3569643Y-3459929D01*
X3555357Y-3445643D01*
X4012500Y-3474214D02*
X3841071Y-3474214D01*
X3926786Y-3474214D02*
X3926786Y-3174214D01*
X3898214Y-3217071D01*
X3869643Y-3245643D01*
X3841071Y-3259929D01*
X4126786Y-3174214D02*
X4126786Y-3231357D01*
X4241071Y-3174214D02*
X4241071Y-3231357D01*
X4683928Y-3588500D02*
X4669643Y-3574214D01*
X4641071Y-3531357D01*
X4626786Y-3502786D01*
X4612500Y-3459929D01*
X4598214Y-3388500D01*
X4598214Y-3331357D01*
X4612500Y-3259929D01*
X4626786Y-3217071D01*
X4641071Y-3188500D01*
X4669643Y-3145643D01*
X4683928Y-3131357D01*
X4955357Y-3474214D02*
X4783928Y-3474214D01*
X4869643Y-3474214D02*
X4869643Y-3174214D01*
X4841071Y-3217071D01*
X4812500Y-3245643D01*
X4783928Y-3259929D01*
X5069643Y-3202786D02*
X5083928Y-3188500D01*
X5112500Y-3174214D01*
X5183928Y-3174214D01*
X5212500Y-3188500D01*
X5226786Y-3202786D01*
X5241071Y-3231357D01*
X5241071Y-3259929D01*
X5226786Y-3302786D01*
X5055357Y-3474214D01*
X5241071Y-3474214D01*
X5598214Y-3474214D02*
X5598214Y-3174214D01*
X5726786Y-3474214D02*
X5726786Y-3317071D01*
X5712500Y-3288500D01*
X5683928Y-3274214D01*
X5641071Y-3274214D01*
X5612500Y-3288500D01*
X5598214Y-3302786D01*
X5912500Y-3474214D02*
X5883928Y-3459929D01*
X5869643Y-3445643D01*
X5855357Y-3417071D01*
X5855357Y-3331357D01*
X5869643Y-3302786D01*
X5883928Y-3288500D01*
X5912500Y-3274214D01*
X5955357Y-3274214D01*
X5983928Y-3288500D01*
X5998214Y-3302786D01*
X6012500Y-3331357D01*
X6012500Y-3417071D01*
X5998214Y-3445643D01*
X5983928Y-3459929D01*
X5955357Y-3474214D01*
X5912500Y-3474214D01*
X6183928Y-3474214D02*
X6155357Y-3459929D01*
X6141071Y-3431357D01*
X6141071Y-3174214D01*
X6412500Y-3459929D02*
X6383928Y-3474214D01*
X6326786Y-3474214D01*
X6298214Y-3459929D01*
X6283928Y-3431357D01*
X6283928Y-3317071D01*
X6298214Y-3288500D01*
X6326786Y-3274214D01*
X6383928Y-3274214D01*
X6412500Y-3288500D01*
X6426786Y-3317071D01*
X6426786Y-3345643D01*
X6283928Y-3374214D01*
X6541071Y-3459929D02*
X6569643Y-3474214D01*
X6626786Y-3474214D01*
X6655357Y-3459929D01*
X6669643Y-3431357D01*
X6669643Y-3417071D01*
X6655357Y-3388500D01*
X6626786Y-3374214D01*
X6583928Y-3374214D01*
X6555357Y-3359929D01*
X6541071Y-3331357D01*
X6541071Y-3317071D01*
X6555357Y-3288500D01*
X6583928Y-3274214D01*
X6626786Y-3274214D01*
X6655357Y-3288500D01*
X6769643Y-3588500D02*
X6783928Y-3574214D01*
X6812500Y-3531357D01*
X6826786Y-3502786D01*
X6841071Y-3459929D01*
X6855357Y-3388500D01*
X6855357Y-3331357D01*
X6841071Y-3259929D01*
X6826786Y-3217071D01*
X6812500Y-3188500D01*
X6783928Y-3145643D01*
X6769643Y-3131357D01*
M02*
