%TF.GenerationSoftware,KiCad,Pcbnew,(5.1.9)-1*%
%TF.CreationDate,2021-09-20T18:56:34+02:00*%
%TF.ProjectId,deep blue delay,64656570-2062-46c7-9565-2064656c6179,rev?*%
%TF.SameCoordinates,Original*%
%TF.FileFunction,Legend,Bot*%
%TF.FilePolarity,Positive*%
%FSLAX46Y46*%
G04 Gerber Fmt 4.6, Leading zero omitted, Abs format (unit mm)*
G04 Created by KiCad (PCBNEW (5.1.9)-1) date 2021-09-20 18:56:34*
%MOMM*%
%LPD*%
G01*
G04 APERTURE LIST*
%ADD10C,0.120000*%
%ADD11C,0.010000*%
%ADD12C,0.150000*%
G04 APERTURE END LIST*
D10*
X35560000Y40132000D02*
X33274000Y40132000D01*
X35560000Y38100000D02*
X35560000Y40132000D01*
X32766000Y38100000D02*
X35560000Y38100000D01*
X32766000Y40132000D02*
X32766000Y38100000D01*
X33274000Y40132000D02*
X32766000Y40132000D01*
X33274000Y43942000D02*
X33782000Y44450000D01*
X33274000Y40132000D02*
X33274000Y43942000D01*
D11*
%TO.C,G\u002A\u002A\u002A*%
G36*
X51771944Y2808875D02*
G01*
X51762996Y2803079D01*
X51714158Y2768153D01*
X51657830Y2723318D01*
X51602415Y2675914D01*
X51556321Y2633280D01*
X51527953Y2602756D01*
X51522933Y2593455D01*
X51534437Y2571962D01*
X51564719Y2529446D01*
X51607415Y2474804D01*
X51610822Y2470609D01*
X51661877Y2403957D01*
X51707769Y2337264D01*
X51735710Y2290155D01*
X51762111Y2212681D01*
X51779887Y2105422D01*
X51788309Y1976863D01*
X51786647Y1835491D01*
X51781445Y1758462D01*
X51766927Y1592385D01*
X51544644Y1817077D01*
X51398837Y1968205D01*
X51268411Y2110889D01*
X51156641Y2241256D01*
X51066801Y2355434D01*
X51002165Y2449550D01*
X50985082Y2478899D01*
X50930989Y2578287D01*
X50821533Y2519186D01*
X50753107Y2479804D01*
X50690503Y2439711D01*
X50657538Y2415625D01*
X50602999Y2371166D01*
X50643307Y2277129D01*
X50693680Y2184383D01*
X50774407Y2069577D01*
X50884459Y1933935D01*
X51022806Y1778680D01*
X51188421Y1605037D01*
X51315866Y1477300D01*
X51443503Y1353707D01*
X51549359Y1256710D01*
X51637208Y1183345D01*
X51710823Y1130645D01*
X51773978Y1095645D01*
X51825769Y1076615D01*
X51906279Y1058863D01*
X51961603Y1059496D01*
X52001961Y1080366D01*
X52031004Y1113807D01*
X52068607Y1175446D01*
X52098462Y1246482D01*
X52121494Y1332133D01*
X52138627Y1437617D01*
X52150785Y1568153D01*
X52158890Y1728960D01*
X52162525Y1856689D01*
X52171849Y2277302D01*
X52119086Y2402661D01*
X52068529Y2507346D01*
X52006088Y2613737D01*
X51939635Y2709648D01*
X51877043Y2782887D01*
X51867749Y2791839D01*
X51832211Y2821892D01*
X51806433Y2826910D01*
X51771944Y2808875D01*
G37*
X51771944Y2808875D02*
X51762996Y2803079D01*
X51714158Y2768153D01*
X51657830Y2723318D01*
X51602415Y2675914D01*
X51556321Y2633280D01*
X51527953Y2602756D01*
X51522933Y2593455D01*
X51534437Y2571962D01*
X51564719Y2529446D01*
X51607415Y2474804D01*
X51610822Y2470609D01*
X51661877Y2403957D01*
X51707769Y2337264D01*
X51735710Y2290155D01*
X51762111Y2212681D01*
X51779887Y2105422D01*
X51788309Y1976863D01*
X51786647Y1835491D01*
X51781445Y1758462D01*
X51766927Y1592385D01*
X51544644Y1817077D01*
X51398837Y1968205D01*
X51268411Y2110889D01*
X51156641Y2241256D01*
X51066801Y2355434D01*
X51002165Y2449550D01*
X50985082Y2478899D01*
X50930989Y2578287D01*
X50821533Y2519186D01*
X50753107Y2479804D01*
X50690503Y2439711D01*
X50657538Y2415625D01*
X50602999Y2371166D01*
X50643307Y2277129D01*
X50693680Y2184383D01*
X50774407Y2069577D01*
X50884459Y1933935D01*
X51022806Y1778680D01*
X51188421Y1605037D01*
X51315866Y1477300D01*
X51443503Y1353707D01*
X51549359Y1256710D01*
X51637208Y1183345D01*
X51710823Y1130645D01*
X51773978Y1095645D01*
X51825769Y1076615D01*
X51906279Y1058863D01*
X51961603Y1059496D01*
X52001961Y1080366D01*
X52031004Y1113807D01*
X52068607Y1175446D01*
X52098462Y1246482D01*
X52121494Y1332133D01*
X52138627Y1437617D01*
X52150785Y1568153D01*
X52158890Y1728960D01*
X52162525Y1856689D01*
X52171849Y2277302D01*
X52119086Y2402661D01*
X52068529Y2507346D01*
X52006088Y2613737D01*
X51939635Y2709648D01*
X51877043Y2782887D01*
X51867749Y2791839D01*
X51832211Y2821892D01*
X51806433Y2826910D01*
X51771944Y2808875D01*
G36*
X45591496Y4159128D02*
G01*
X45623804Y4035809D01*
X45686535Y3905259D01*
X45774782Y3776944D01*
X45812992Y3731846D01*
X45878521Y3652516D01*
X45962617Y3540245D01*
X46064572Y3396081D01*
X46183673Y3221073D01*
X46319209Y3016271D01*
X46470472Y2782724D01*
X46636749Y2521479D01*
X46687154Y2441518D01*
X46745032Y2348672D01*
X46801237Y2257032D01*
X46849308Y2177221D01*
X46882539Y2120294D01*
X46947381Y2008688D01*
X47009778Y1907219D01*
X47066878Y1819928D01*
X47115831Y1750859D01*
X47153785Y1704052D01*
X47177889Y1683550D01*
X47185385Y1690980D01*
X47190531Y1712309D01*
X47204821Y1764983D01*
X47226529Y1842810D01*
X47253930Y1939599D01*
X47282028Y2037788D01*
X47316366Y2160134D01*
X47349206Y2282411D01*
X47377909Y2394411D01*
X47399836Y2485925D01*
X47409330Y2530231D01*
X47445645Y2716597D01*
X47474897Y2870280D01*
X47497930Y2996870D01*
X47515585Y3101952D01*
X47528704Y3191115D01*
X47538129Y3269946D01*
X47544703Y3344032D01*
X47549266Y3418960D01*
X47551725Y3475136D01*
X47554576Y3626664D01*
X47550420Y3748462D01*
X47539413Y3836306D01*
X47538298Y3841482D01*
X47524837Y3899016D01*
X47514805Y3937090D01*
X47511253Y3946373D01*
X47492393Y3940749D01*
X47444643Y3925981D01*
X47376384Y3904670D01*
X47333636Y3891259D01*
X47159502Y3836541D01*
X47155427Y3535078D01*
X47151492Y3385598D01*
X47143109Y3259213D01*
X47128673Y3140043D01*
X47106576Y3012211D01*
X47098223Y2969846D01*
X47077822Y2872566D01*
X47058803Y2789119D01*
X47042986Y2726990D01*
X47032191Y2693665D01*
X47030319Y2690519D01*
X47013438Y2697741D01*
X46982974Y2731410D01*
X46945318Y2784388D01*
X46942849Y2788211D01*
X46815181Y2986904D01*
X46706800Y3155113D01*
X46616056Y3295349D01*
X46541301Y3410123D01*
X46480886Y3501948D01*
X46433162Y3573333D01*
X46396480Y3626790D01*
X46369191Y3664831D01*
X46355296Y3683000D01*
X46309761Y3743281D01*
X46268150Y3803063D01*
X46255738Y3822498D01*
X46225701Y3865795D01*
X46178584Y3927343D01*
X46123025Y3995971D01*
X46104638Y4017883D01*
X46051969Y4084489D01*
X46009466Y4146530D01*
X45983919Y4193771D01*
X45980080Y4205654D01*
X45969115Y4259385D01*
X45578197Y4259385D01*
X45591496Y4159128D01*
G37*
X45591496Y4159128D02*
X45623804Y4035809D01*
X45686535Y3905259D01*
X45774782Y3776944D01*
X45812992Y3731846D01*
X45878521Y3652516D01*
X45962617Y3540245D01*
X46064572Y3396081D01*
X46183673Y3221073D01*
X46319209Y3016271D01*
X46470472Y2782724D01*
X46636749Y2521479D01*
X46687154Y2441518D01*
X46745032Y2348672D01*
X46801237Y2257032D01*
X46849308Y2177221D01*
X46882539Y2120294D01*
X46947381Y2008688D01*
X47009778Y1907219D01*
X47066878Y1819928D01*
X47115831Y1750859D01*
X47153785Y1704052D01*
X47177889Y1683550D01*
X47185385Y1690980D01*
X47190531Y1712309D01*
X47204821Y1764983D01*
X47226529Y1842810D01*
X47253930Y1939599D01*
X47282028Y2037788D01*
X47316366Y2160134D01*
X47349206Y2282411D01*
X47377909Y2394411D01*
X47399836Y2485925D01*
X47409330Y2530231D01*
X47445645Y2716597D01*
X47474897Y2870280D01*
X47497930Y2996870D01*
X47515585Y3101952D01*
X47528704Y3191115D01*
X47538129Y3269946D01*
X47544703Y3344032D01*
X47549266Y3418960D01*
X47551725Y3475136D01*
X47554576Y3626664D01*
X47550420Y3748462D01*
X47539413Y3836306D01*
X47538298Y3841482D01*
X47524837Y3899016D01*
X47514805Y3937090D01*
X47511253Y3946373D01*
X47492393Y3940749D01*
X47444643Y3925981D01*
X47376384Y3904670D01*
X47333636Y3891259D01*
X47159502Y3836541D01*
X47155427Y3535078D01*
X47151492Y3385598D01*
X47143109Y3259213D01*
X47128673Y3140043D01*
X47106576Y3012211D01*
X47098223Y2969846D01*
X47077822Y2872566D01*
X47058803Y2789119D01*
X47042986Y2726990D01*
X47032191Y2693665D01*
X47030319Y2690519D01*
X47013438Y2697741D01*
X46982974Y2731410D01*
X46945318Y2784388D01*
X46942849Y2788211D01*
X46815181Y2986904D01*
X46706800Y3155113D01*
X46616056Y3295349D01*
X46541301Y3410123D01*
X46480886Y3501948D01*
X46433162Y3573333D01*
X46396480Y3626790D01*
X46369191Y3664831D01*
X46355296Y3683000D01*
X46309761Y3743281D01*
X46268150Y3803063D01*
X46255738Y3822498D01*
X46225701Y3865795D01*
X46178584Y3927343D01*
X46123025Y3995971D01*
X46104638Y4017883D01*
X46051969Y4084489D01*
X46009466Y4146530D01*
X45983919Y4193771D01*
X45980080Y4205654D01*
X45969115Y4259385D01*
X45578197Y4259385D01*
X45591496Y4159128D01*
G36*
X52022466Y4219718D02*
G01*
X51958936Y4197894D01*
X51877416Y4162495D01*
X51812313Y4132603D01*
X51772854Y4106853D01*
X51756190Y4076252D01*
X51759473Y4031808D01*
X51779856Y3964529D01*
X51798152Y3912182D01*
X51818338Y3848381D01*
X51829464Y3799912D01*
X51829214Y3777624D01*
X51804708Y3775001D01*
X51742881Y3777827D01*
X51645088Y3785959D01*
X51512683Y3799253D01*
X51347020Y3817566D01*
X51149454Y3840757D01*
X50921339Y3868682D01*
X50692539Y3897551D01*
X50546738Y3915914D01*
X50405399Y3933239D01*
X50275731Y3948679D01*
X50164942Y3961386D01*
X50080243Y3970512D01*
X50037933Y3974517D01*
X49983250Y3979918D01*
X49925434Y3987830D01*
X49858441Y3999452D01*
X49776225Y4015983D01*
X49672740Y4038620D01*
X49541941Y4068562D01*
X49421328Y4096758D01*
X49399931Y4096814D01*
X49380722Y4081442D01*
X49359302Y4044220D01*
X49331269Y3978730D01*
X49318751Y3947095D01*
X49290549Y3872151D01*
X49269002Y3809383D01*
X49257497Y3768881D01*
X49256462Y3761420D01*
X49273191Y3738184D01*
X49314059Y3716644D01*
X49319962Y3714649D01*
X49365832Y3702804D01*
X49441395Y3686269D01*
X49537790Y3666719D01*
X49646154Y3645831D01*
X49757626Y3625281D01*
X49863345Y3606745D01*
X49954448Y3591900D01*
X50013567Y3583461D01*
X50073493Y3574449D01*
X50107009Y3560212D01*
X50126478Y3530678D01*
X50143786Y3477393D01*
X50162363Y3363846D01*
X50160632Y3265111D01*
X50159664Y3170419D01*
X50176839Y3079103D01*
X50215183Y2981526D01*
X50277722Y2868055D01*
X50293248Y2842846D01*
X50343001Y2763264D01*
X50396110Y2678459D01*
X50430878Y2623039D01*
X50469364Y2569052D01*
X50504565Y2531958D01*
X50525538Y2520633D01*
X50554899Y2530935D01*
X50606956Y2558245D01*
X50672210Y2597426D01*
X50697094Y2613441D01*
X50761005Y2657921D01*
X50809948Y2696906D01*
X50836268Y2724093D01*
X50838748Y2730104D01*
X50827802Y2757102D01*
X50798878Y2804115D01*
X50761086Y2857104D01*
X50707193Y2933900D01*
X50652782Y3020217D01*
X50624317Y3070274D01*
X50593765Y3132603D01*
X50575998Y3187093D01*
X50567698Y3249007D01*
X50565545Y3333606D01*
X50565539Y3340594D01*
X50565539Y3500719D01*
X50716962Y3487125D01*
X50790310Y3479169D01*
X50847694Y3470387D01*
X50878697Y3462437D01*
X50880875Y3461035D01*
X50892595Y3436756D01*
X50910084Y3386753D01*
X50925045Y3337353D01*
X50947258Y3272578D01*
X50976693Y3221440D01*
X51022512Y3170690D01*
X51070268Y3127410D01*
X51139198Y3061812D01*
X51215360Y2980687D01*
X51283444Y2900428D01*
X51289867Y2892248D01*
X51352488Y2816751D01*
X51400103Y2772481D01*
X51437000Y2756682D01*
X51467467Y2766597D01*
X51475054Y2773235D01*
X51501477Y2791636D01*
X51550935Y2820564D01*
X51598988Y2846504D01*
X51674887Y2889069D01*
X51716954Y2924808D01*
X51727340Y2962136D01*
X51708197Y3009467D01*
X51661675Y3075216D01*
X51658509Y3079345D01*
X51597289Y3155720D01*
X51526119Y3239726D01*
X51471600Y3300871D01*
X51371430Y3409462D01*
X51598600Y3396268D01*
X51705263Y3389105D01*
X51835514Y3378893D01*
X51974104Y3366901D01*
X52105781Y3354400D01*
X52126940Y3352259D01*
X52230994Y3342211D01*
X52320646Y3334688D01*
X52389030Y3330178D01*
X52429281Y3329165D01*
X52436975Y3330309D01*
X52436020Y3354192D01*
X52420791Y3409794D01*
X52392788Y3493076D01*
X52353509Y3600003D01*
X52304450Y3726540D01*
X52247111Y3868650D01*
X52182988Y4022297D01*
X52161055Y4073769D01*
X52127066Y4150458D01*
X52098195Y4198607D01*
X52066107Y4220824D01*
X52022466Y4219718D01*
G37*
X52022466Y4219718D02*
X51958936Y4197894D01*
X51877416Y4162495D01*
X51812313Y4132603D01*
X51772854Y4106853D01*
X51756190Y4076252D01*
X51759473Y4031808D01*
X51779856Y3964529D01*
X51798152Y3912182D01*
X51818338Y3848381D01*
X51829464Y3799912D01*
X51829214Y3777624D01*
X51804708Y3775001D01*
X51742881Y3777827D01*
X51645088Y3785959D01*
X51512683Y3799253D01*
X51347020Y3817566D01*
X51149454Y3840757D01*
X50921339Y3868682D01*
X50692539Y3897551D01*
X50546738Y3915914D01*
X50405399Y3933239D01*
X50275731Y3948679D01*
X50164942Y3961386D01*
X50080243Y3970512D01*
X50037933Y3974517D01*
X49983250Y3979918D01*
X49925434Y3987830D01*
X49858441Y3999452D01*
X49776225Y4015983D01*
X49672740Y4038620D01*
X49541941Y4068562D01*
X49421328Y4096758D01*
X49399931Y4096814D01*
X49380722Y4081442D01*
X49359302Y4044220D01*
X49331269Y3978730D01*
X49318751Y3947095D01*
X49290549Y3872151D01*
X49269002Y3809383D01*
X49257497Y3768881D01*
X49256462Y3761420D01*
X49273191Y3738184D01*
X49314059Y3716644D01*
X49319962Y3714649D01*
X49365832Y3702804D01*
X49441395Y3686269D01*
X49537790Y3666719D01*
X49646154Y3645831D01*
X49757626Y3625281D01*
X49863345Y3606745D01*
X49954448Y3591900D01*
X50013567Y3583461D01*
X50073493Y3574449D01*
X50107009Y3560212D01*
X50126478Y3530678D01*
X50143786Y3477393D01*
X50162363Y3363846D01*
X50160632Y3265111D01*
X50159664Y3170419D01*
X50176839Y3079103D01*
X50215183Y2981526D01*
X50277722Y2868055D01*
X50293248Y2842846D01*
X50343001Y2763264D01*
X50396110Y2678459D01*
X50430878Y2623039D01*
X50469364Y2569052D01*
X50504565Y2531958D01*
X50525538Y2520633D01*
X50554899Y2530935D01*
X50606956Y2558245D01*
X50672210Y2597426D01*
X50697094Y2613441D01*
X50761005Y2657921D01*
X50809948Y2696906D01*
X50836268Y2724093D01*
X50838748Y2730104D01*
X50827802Y2757102D01*
X50798878Y2804115D01*
X50761086Y2857104D01*
X50707193Y2933900D01*
X50652782Y3020217D01*
X50624317Y3070274D01*
X50593765Y3132603D01*
X50575998Y3187093D01*
X50567698Y3249007D01*
X50565545Y3333606D01*
X50565539Y3340594D01*
X50565539Y3500719D01*
X50716962Y3487125D01*
X50790310Y3479169D01*
X50847694Y3470387D01*
X50878697Y3462437D01*
X50880875Y3461035D01*
X50892595Y3436756D01*
X50910084Y3386753D01*
X50925045Y3337353D01*
X50947258Y3272578D01*
X50976693Y3221440D01*
X51022512Y3170690D01*
X51070268Y3127410D01*
X51139198Y3061812D01*
X51215360Y2980687D01*
X51283444Y2900428D01*
X51289867Y2892248D01*
X51352488Y2816751D01*
X51400103Y2772481D01*
X51437000Y2756682D01*
X51467467Y2766597D01*
X51475054Y2773235D01*
X51501477Y2791636D01*
X51550935Y2820564D01*
X51598988Y2846504D01*
X51674887Y2889069D01*
X51716954Y2924808D01*
X51727340Y2962136D01*
X51708197Y3009467D01*
X51661675Y3075216D01*
X51658509Y3079345D01*
X51597289Y3155720D01*
X51526119Y3239726D01*
X51471600Y3300871D01*
X51371430Y3409462D01*
X51598600Y3396268D01*
X51705263Y3389105D01*
X51835514Y3378893D01*
X51974104Y3366901D01*
X52105781Y3354400D01*
X52126940Y3352259D01*
X52230994Y3342211D01*
X52320646Y3334688D01*
X52389030Y3330178D01*
X52429281Y3329165D01*
X52436975Y3330309D01*
X52436020Y3354192D01*
X52420791Y3409794D01*
X52392788Y3493076D01*
X52353509Y3600003D01*
X52304450Y3726540D01*
X52247111Y3868650D01*
X52182988Y4022297D01*
X52161055Y4073769D01*
X52127066Y4150458D01*
X52098195Y4198607D01*
X52066107Y4220824D01*
X52022466Y4219718D01*
G36*
X44564574Y7858071D02*
G01*
X44542389Y7820269D01*
X44518160Y7773707D01*
X44481562Y7711498D01*
X44454885Y7669292D01*
X44413910Y7602587D01*
X44396139Y7558072D01*
X44401091Y7526854D01*
X44428284Y7500041D01*
X44445115Y7488665D01*
X44497259Y7446991D01*
X44536465Y7405176D01*
X44567106Y7369369D01*
X44616810Y7315544D01*
X44676806Y7253110D01*
X44702542Y7227007D01*
X44777621Y7150365D01*
X44858947Y7065601D01*
X44930866Y6989060D01*
X44941378Y6977664D01*
X45043833Y6881188D01*
X45147887Y6816968D01*
X45264267Y6779267D01*
X45332713Y6768297D01*
X45440568Y6755620D01*
X45428060Y6694464D01*
X45415587Y6653580D01*
X45402174Y6636852D01*
X45401238Y6636961D01*
X45376410Y6645328D01*
X45327081Y6663166D01*
X45280684Y6680364D01*
X45214892Y6701447D01*
X45124901Y6725620D01*
X45024997Y6749193D01*
X44967897Y6761183D01*
X44861000Y6785218D01*
X44735291Y6817718D01*
X44608710Y6853871D01*
X44526673Y6879601D01*
X44436399Y6908078D01*
X44359258Y6930017D01*
X44302908Y6943411D01*
X44275009Y6946250D01*
X44274029Y6945846D01*
X44256711Y6920876D01*
X44239106Y6875371D01*
X44238105Y6871948D01*
X44220121Y6816611D01*
X44194466Y6746115D01*
X44180056Y6709126D01*
X44139964Y6609097D01*
X44192405Y6584690D01*
X44338082Y6524372D01*
X44510674Y6465287D01*
X44698106Y6411243D01*
X44879846Y6367843D01*
X45029094Y6333426D01*
X45146858Y6299151D01*
X45240551Y6261405D01*
X45317585Y6216571D01*
X45385373Y6161034D01*
X45451327Y6091179D01*
X45454382Y6087628D01*
X45521702Y6010795D01*
X45597525Y5926738D01*
X45656845Y5862809D01*
X45709212Y5805758D01*
X45739040Y5765747D01*
X45751538Y5732298D01*
X45751913Y5694936D01*
X45749756Y5675923D01*
X45724978Y5484111D01*
X45703525Y5322038D01*
X45684132Y5180634D01*
X45665537Y5050831D01*
X45646475Y4923560D01*
X45631015Y4823687D01*
X45614490Y4714805D01*
X45600440Y4615856D01*
X45589947Y4534950D01*
X45584088Y4480199D01*
X45583231Y4464554D01*
X45586075Y4429899D01*
X45602118Y4417343D01*
X45642620Y4420450D01*
X45656500Y4422690D01*
X45718042Y4429520D01*
X45797095Y4434010D01*
X45847744Y4435016D01*
X45965718Y4435231D01*
X45998761Y4655039D01*
X46017432Y4775791D01*
X46037894Y4902288D01*
X46059073Y5028499D01*
X46079895Y5148388D01*
X46099286Y5255924D01*
X46116172Y5345073D01*
X46129480Y5409802D01*
X46138135Y5444078D01*
X46139866Y5447763D01*
X46151830Y5436399D01*
X46173989Y5397512D01*
X46200474Y5341860D01*
X46258929Y5211301D01*
X46306617Y5108126D01*
X46347945Y5023707D01*
X46387320Y4949416D01*
X46429148Y4876628D01*
X46477837Y4796713D01*
X46484003Y4786792D01*
X46539478Y4700978D01*
X46595661Y4619672D01*
X46645083Y4553404D01*
X46673644Y4519451D01*
X46783368Y4401085D01*
X46869051Y4306200D01*
X46934213Y4230572D01*
X46982372Y4169980D01*
X47017047Y4120198D01*
X47040919Y4078654D01*
X47069810Y4028255D01*
X47099383Y3998431D01*
X47137743Y3987798D01*
X47192996Y3994967D01*
X47273246Y4018553D01*
X47313464Y4032036D01*
X47383188Y4056772D01*
X47423233Y4075676D01*
X47441166Y4094724D01*
X47444558Y4119892D01*
X47443377Y4134613D01*
X47422228Y4214226D01*
X47376422Y4309505D01*
X47311316Y4411093D01*
X47232268Y4509632D01*
X47222557Y4520312D01*
X47100980Y4652865D01*
X47004655Y4759489D01*
X46931742Y4842415D01*
X46880399Y4903872D01*
X46848785Y4946089D01*
X46835059Y4971298D01*
X46837380Y4981727D01*
X46841069Y4982308D01*
X46860655Y4972389D01*
X46903111Y4946510D01*
X46953657Y4913923D01*
X47010901Y4878272D01*
X47056570Y4853533D01*
X47078566Y4845539D01*
X47106254Y4834705D01*
X47150239Y4807574D01*
X47166935Y4795652D01*
X47210395Y4765541D01*
X47271721Y4725690D01*
X47342815Y4681037D01*
X47415577Y4636520D01*
X47481908Y4597077D01*
X47533710Y4567647D01*
X47562883Y4553168D01*
X47565768Y4552462D01*
X47586280Y4542951D01*
X47631911Y4517485D01*
X47694547Y4480665D01*
X47727910Y4460529D01*
X47793926Y4422248D01*
X47883148Y4373264D01*
X47990668Y4316031D01*
X48111575Y4253005D01*
X48240957Y4186639D01*
X48373906Y4119388D01*
X48505512Y4053707D01*
X48630862Y3992049D01*
X48745049Y3936870D01*
X48843161Y3890623D01*
X48920288Y3855764D01*
X48971520Y3834746D01*
X48990235Y3829539D01*
X49012069Y3834916D01*
X49031953Y3855385D01*
X49053732Y3897450D01*
X49081250Y3967617D01*
X49095912Y4008351D01*
X49122262Y4085311D01*
X49141677Y4147260D01*
X49151653Y4185899D01*
X49152031Y4194482D01*
X49131112Y4204347D01*
X49084186Y4222560D01*
X49033021Y4241057D01*
X48957314Y4271145D01*
X48884456Y4305668D01*
X48849549Y4325318D01*
X48805606Y4350340D01*
X48735164Y4387569D01*
X48647032Y4432465D01*
X48550018Y4480489D01*
X48523769Y4493245D01*
X48417946Y4545412D01*
X48311051Y4599750D01*
X48214711Y4650249D01*
X48140551Y4690901D01*
X48133000Y4695233D01*
X48047428Y4743921D01*
X47955610Y4794954D01*
X47879000Y4836440D01*
X47744957Y4910389D01*
X47585371Y5003309D01*
X47406438Y5111382D01*
X47214358Y5230786D01*
X47015326Y5357700D01*
X46815542Y5488303D01*
X46739148Y5539154D01*
X46654750Y5595383D01*
X46576555Y5647034D01*
X46513338Y5688338D01*
X46474190Y5713331D01*
X46431010Y5742957D01*
X46369016Y5789122D01*
X46299448Y5843384D01*
X46276846Y5861545D01*
X46209010Y5915604D01*
X46146915Y5963513D01*
X46100922Y5997329D01*
X46090410Y6004453D01*
X46054741Y6033997D01*
X46003603Y6084310D01*
X45946381Y6146009D01*
X45929218Y6165583D01*
X45817692Y6294613D01*
X45817692Y6454728D01*
X45821094Y6554492D01*
X45831884Y6621620D01*
X45847901Y6657972D01*
X45904103Y6713731D01*
X45991121Y6763072D01*
X46111005Y6806750D01*
X46265805Y6845518D01*
X46448251Y6878672D01*
X46525743Y6892338D01*
X46570902Y6904849D01*
X46590297Y6918748D01*
X46591304Y6934021D01*
X46585637Y6967515D01*
X46578471Y7028316D01*
X46571141Y7104757D01*
X46569425Y7125118D01*
X46556359Y7284774D01*
X46484987Y7274954D01*
X46438174Y7267425D01*
X46363302Y7254161D01*
X46270641Y7237026D01*
X46170462Y7217884D01*
X46169344Y7217667D01*
X46025722Y7193197D01*
X45885078Y7177236D01*
X45731477Y7168265D01*
X45622267Y7165540D01*
X45319462Y7160880D01*
X45212000Y7278032D01*
X45066523Y7434444D01*
X44936658Y7569622D01*
X44824043Y7682012D01*
X44730315Y7770056D01*
X44657113Y7832200D01*
X44606074Y7866888D01*
X44584596Y7874000D01*
X44564574Y7858071D01*
G37*
X44564574Y7858071D02*
X44542389Y7820269D01*
X44518160Y7773707D01*
X44481562Y7711498D01*
X44454885Y7669292D01*
X44413910Y7602587D01*
X44396139Y7558072D01*
X44401091Y7526854D01*
X44428284Y7500041D01*
X44445115Y7488665D01*
X44497259Y7446991D01*
X44536465Y7405176D01*
X44567106Y7369369D01*
X44616810Y7315544D01*
X44676806Y7253110D01*
X44702542Y7227007D01*
X44777621Y7150365D01*
X44858947Y7065601D01*
X44930866Y6989060D01*
X44941378Y6977664D01*
X45043833Y6881188D01*
X45147887Y6816968D01*
X45264267Y6779267D01*
X45332713Y6768297D01*
X45440568Y6755620D01*
X45428060Y6694464D01*
X45415587Y6653580D01*
X45402174Y6636852D01*
X45401238Y6636961D01*
X45376410Y6645328D01*
X45327081Y6663166D01*
X45280684Y6680364D01*
X45214892Y6701447D01*
X45124901Y6725620D01*
X45024997Y6749193D01*
X44967897Y6761183D01*
X44861000Y6785218D01*
X44735291Y6817718D01*
X44608710Y6853871D01*
X44526673Y6879601D01*
X44436399Y6908078D01*
X44359258Y6930017D01*
X44302908Y6943411D01*
X44275009Y6946250D01*
X44274029Y6945846D01*
X44256711Y6920876D01*
X44239106Y6875371D01*
X44238105Y6871948D01*
X44220121Y6816611D01*
X44194466Y6746115D01*
X44180056Y6709126D01*
X44139964Y6609097D01*
X44192405Y6584690D01*
X44338082Y6524372D01*
X44510674Y6465287D01*
X44698106Y6411243D01*
X44879846Y6367843D01*
X45029094Y6333426D01*
X45146858Y6299151D01*
X45240551Y6261405D01*
X45317585Y6216571D01*
X45385373Y6161034D01*
X45451327Y6091179D01*
X45454382Y6087628D01*
X45521702Y6010795D01*
X45597525Y5926738D01*
X45656845Y5862809D01*
X45709212Y5805758D01*
X45739040Y5765747D01*
X45751538Y5732298D01*
X45751913Y5694936D01*
X45749756Y5675923D01*
X45724978Y5484111D01*
X45703525Y5322038D01*
X45684132Y5180634D01*
X45665537Y5050831D01*
X45646475Y4923560D01*
X45631015Y4823687D01*
X45614490Y4714805D01*
X45600440Y4615856D01*
X45589947Y4534950D01*
X45584088Y4480199D01*
X45583231Y4464554D01*
X45586075Y4429899D01*
X45602118Y4417343D01*
X45642620Y4420450D01*
X45656500Y4422690D01*
X45718042Y4429520D01*
X45797095Y4434010D01*
X45847744Y4435016D01*
X45965718Y4435231D01*
X45998761Y4655039D01*
X46017432Y4775791D01*
X46037894Y4902288D01*
X46059073Y5028499D01*
X46079895Y5148388D01*
X46099286Y5255924D01*
X46116172Y5345073D01*
X46129480Y5409802D01*
X46138135Y5444078D01*
X46139866Y5447763D01*
X46151830Y5436399D01*
X46173989Y5397512D01*
X46200474Y5341860D01*
X46258929Y5211301D01*
X46306617Y5108126D01*
X46347945Y5023707D01*
X46387320Y4949416D01*
X46429148Y4876628D01*
X46477837Y4796713D01*
X46484003Y4786792D01*
X46539478Y4700978D01*
X46595661Y4619672D01*
X46645083Y4553404D01*
X46673644Y4519451D01*
X46783368Y4401085D01*
X46869051Y4306200D01*
X46934213Y4230572D01*
X46982372Y4169980D01*
X47017047Y4120198D01*
X47040919Y4078654D01*
X47069810Y4028255D01*
X47099383Y3998431D01*
X47137743Y3987798D01*
X47192996Y3994967D01*
X47273246Y4018553D01*
X47313464Y4032036D01*
X47383188Y4056772D01*
X47423233Y4075676D01*
X47441166Y4094724D01*
X47444558Y4119892D01*
X47443377Y4134613D01*
X47422228Y4214226D01*
X47376422Y4309505D01*
X47311316Y4411093D01*
X47232268Y4509632D01*
X47222557Y4520312D01*
X47100980Y4652865D01*
X47004655Y4759489D01*
X46931742Y4842415D01*
X46880399Y4903872D01*
X46848785Y4946089D01*
X46835059Y4971298D01*
X46837380Y4981727D01*
X46841069Y4982308D01*
X46860655Y4972389D01*
X46903111Y4946510D01*
X46953657Y4913923D01*
X47010901Y4878272D01*
X47056570Y4853533D01*
X47078566Y4845539D01*
X47106254Y4834705D01*
X47150239Y4807574D01*
X47166935Y4795652D01*
X47210395Y4765541D01*
X47271721Y4725690D01*
X47342815Y4681037D01*
X47415577Y4636520D01*
X47481908Y4597077D01*
X47533710Y4567647D01*
X47562883Y4553168D01*
X47565768Y4552462D01*
X47586280Y4542951D01*
X47631911Y4517485D01*
X47694547Y4480665D01*
X47727910Y4460529D01*
X47793926Y4422248D01*
X47883148Y4373264D01*
X47990668Y4316031D01*
X48111575Y4253005D01*
X48240957Y4186639D01*
X48373906Y4119388D01*
X48505512Y4053707D01*
X48630862Y3992049D01*
X48745049Y3936870D01*
X48843161Y3890623D01*
X48920288Y3855764D01*
X48971520Y3834746D01*
X48990235Y3829539D01*
X49012069Y3834916D01*
X49031953Y3855385D01*
X49053732Y3897450D01*
X49081250Y3967617D01*
X49095912Y4008351D01*
X49122262Y4085311D01*
X49141677Y4147260D01*
X49151653Y4185899D01*
X49152031Y4194482D01*
X49131112Y4204347D01*
X49084186Y4222560D01*
X49033021Y4241057D01*
X48957314Y4271145D01*
X48884456Y4305668D01*
X48849549Y4325318D01*
X48805606Y4350340D01*
X48735164Y4387569D01*
X48647032Y4432465D01*
X48550018Y4480489D01*
X48523769Y4493245D01*
X48417946Y4545412D01*
X48311051Y4599750D01*
X48214711Y4650249D01*
X48140551Y4690901D01*
X48133000Y4695233D01*
X48047428Y4743921D01*
X47955610Y4794954D01*
X47879000Y4836440D01*
X47744957Y4910389D01*
X47585371Y5003309D01*
X47406438Y5111382D01*
X47214358Y5230786D01*
X47015326Y5357700D01*
X46815542Y5488303D01*
X46739148Y5539154D01*
X46654750Y5595383D01*
X46576555Y5647034D01*
X46513338Y5688338D01*
X46474190Y5713331D01*
X46431010Y5742957D01*
X46369016Y5789122D01*
X46299448Y5843384D01*
X46276846Y5861545D01*
X46209010Y5915604D01*
X46146915Y5963513D01*
X46100922Y5997329D01*
X46090410Y6004453D01*
X46054741Y6033997D01*
X46003603Y6084310D01*
X45946381Y6146009D01*
X45929218Y6165583D01*
X45817692Y6294613D01*
X45817692Y6454728D01*
X45821094Y6554492D01*
X45831884Y6621620D01*
X45847901Y6657972D01*
X45904103Y6713731D01*
X45991121Y6763072D01*
X46111005Y6806750D01*
X46265805Y6845518D01*
X46448251Y6878672D01*
X46525743Y6892338D01*
X46570902Y6904849D01*
X46590297Y6918748D01*
X46591304Y6934021D01*
X46585637Y6967515D01*
X46578471Y7028316D01*
X46571141Y7104757D01*
X46569425Y7125118D01*
X46556359Y7284774D01*
X46484987Y7274954D01*
X46438174Y7267425D01*
X46363302Y7254161D01*
X46270641Y7237026D01*
X46170462Y7217884D01*
X46169344Y7217667D01*
X46025722Y7193197D01*
X45885078Y7177236D01*
X45731477Y7168265D01*
X45622267Y7165540D01*
X45319462Y7160880D01*
X45212000Y7278032D01*
X45066523Y7434444D01*
X44936658Y7569622D01*
X44824043Y7682012D01*
X44730315Y7770056D01*
X44657113Y7832200D01*
X44606074Y7866888D01*
X44584596Y7874000D01*
X44564574Y7858071D01*
G36*
X50099848Y6963669D02*
G01*
X50086094Y6938362D01*
X50064029Y6889005D01*
X50037461Y6825227D01*
X50010200Y6756655D01*
X49986053Y6692919D01*
X49968830Y6643646D01*
X49962340Y6618467D01*
X49962757Y6617101D01*
X49982581Y6607404D01*
X50027830Y6585772D01*
X50086846Y6557771D01*
X50164404Y6516978D01*
X50253293Y6464192D01*
X50331077Y6413015D01*
X50404498Y6356315D01*
X50494971Y6278773D01*
X50594994Y6187610D01*
X50697066Y6090045D01*
X50793685Y5993300D01*
X50877349Y5904595D01*
X50940558Y5831152D01*
X50954766Y5812692D01*
X50990012Y5760617D01*
X51033560Y5689840D01*
X51081115Y5608171D01*
X51128383Y5523419D01*
X51171070Y5443394D01*
X51204881Y5375903D01*
X51225523Y5328758D01*
X51229846Y5312467D01*
X51237345Y5288396D01*
X51258069Y5235122D01*
X51289360Y5159146D01*
X51328560Y5066968D01*
X51356925Y5001667D01*
X51406415Y4886398D01*
X51455769Y4767526D01*
X51500261Y4656693D01*
X51535164Y4565539D01*
X51544698Y4539142D01*
X51590154Y4415481D01*
X51626552Y4328545D01*
X51654430Y4277176D01*
X51674327Y4260220D01*
X51674848Y4260234D01*
X51698122Y4267576D01*
X51748519Y4286518D01*
X51817085Y4313643D01*
X51853100Y4328270D01*
X51926403Y4358789D01*
X51984797Y4384054D01*
X52019665Y4400292D01*
X52025502Y4403758D01*
X52021308Y4423727D01*
X52004089Y4472845D01*
X51976375Y4544410D01*
X51940700Y4631726D01*
X51927553Y4662991D01*
X51886227Y4761919D01*
X51848393Y4854904D01*
X51817801Y4932567D01*
X51798202Y4985524D01*
X51796011Y4992077D01*
X51777801Y5041323D01*
X51747629Y5115496D01*
X51709891Y5204033D01*
X51674041Y5285154D01*
X51628134Y5387690D01*
X51580559Y5494751D01*
X51537856Y5591581D01*
X51513827Y5646615D01*
X51454308Y5775675D01*
X51392962Y5889072D01*
X51324150Y5994636D01*
X51242229Y6100197D01*
X51141561Y6213584D01*
X51016506Y6342627D01*
X51002023Y6357113D01*
X50869688Y6487024D01*
X50756897Y6592179D01*
X50657489Y6677251D01*
X50565301Y6746916D01*
X50474170Y6805848D01*
X50377935Y6858720D01*
X50276530Y6907430D01*
X50201254Y6939280D01*
X50141771Y6959592D01*
X50105959Y6965857D01*
X50099848Y6963669D01*
G37*
X50099848Y6963669D02*
X50086094Y6938362D01*
X50064029Y6889005D01*
X50037461Y6825227D01*
X50010200Y6756655D01*
X49986053Y6692919D01*
X49968830Y6643646D01*
X49962340Y6618467D01*
X49962757Y6617101D01*
X49982581Y6607404D01*
X50027830Y6585772D01*
X50086846Y6557771D01*
X50164404Y6516978D01*
X50253293Y6464192D01*
X50331077Y6413015D01*
X50404498Y6356315D01*
X50494971Y6278773D01*
X50594994Y6187610D01*
X50697066Y6090045D01*
X50793685Y5993300D01*
X50877349Y5904595D01*
X50940558Y5831152D01*
X50954766Y5812692D01*
X50990012Y5760617D01*
X51033560Y5689840D01*
X51081115Y5608171D01*
X51128383Y5523419D01*
X51171070Y5443394D01*
X51204881Y5375903D01*
X51225523Y5328758D01*
X51229846Y5312467D01*
X51237345Y5288396D01*
X51258069Y5235122D01*
X51289360Y5159146D01*
X51328560Y5066968D01*
X51356925Y5001667D01*
X51406415Y4886398D01*
X51455769Y4767526D01*
X51500261Y4656693D01*
X51535164Y4565539D01*
X51544698Y4539142D01*
X51590154Y4415481D01*
X51626552Y4328545D01*
X51654430Y4277176D01*
X51674327Y4260220D01*
X51674848Y4260234D01*
X51698122Y4267576D01*
X51748519Y4286518D01*
X51817085Y4313643D01*
X51853100Y4328270D01*
X51926403Y4358789D01*
X51984797Y4384054D01*
X52019665Y4400292D01*
X52025502Y4403758D01*
X52021308Y4423727D01*
X52004089Y4472845D01*
X51976375Y4544410D01*
X51940700Y4631726D01*
X51927553Y4662991D01*
X51886227Y4761919D01*
X51848393Y4854904D01*
X51817801Y4932567D01*
X51798202Y4985524D01*
X51796011Y4992077D01*
X51777801Y5041323D01*
X51747629Y5115496D01*
X51709891Y5204033D01*
X51674041Y5285154D01*
X51628134Y5387690D01*
X51580559Y5494751D01*
X51537856Y5591581D01*
X51513827Y5646615D01*
X51454308Y5775675D01*
X51392962Y5889072D01*
X51324150Y5994636D01*
X51242229Y6100197D01*
X51141561Y6213584D01*
X51016506Y6342627D01*
X51002023Y6357113D01*
X50869688Y6487024D01*
X50756897Y6592179D01*
X50657489Y6677251D01*
X50565301Y6746916D01*
X50474170Y6805848D01*
X50377935Y6858720D01*
X50276530Y6907430D01*
X50201254Y6939280D01*
X50141771Y6959592D01*
X50105959Y6965857D01*
X50099848Y6963669D01*
G36*
X43978255Y8020249D02*
G01*
X43849409Y7968400D01*
X43732352Y7894844D01*
X43634674Y7802748D01*
X43563970Y7695278D01*
X43556513Y7678853D01*
X43543130Y7635701D01*
X43535414Y7577540D01*
X43532819Y7496621D01*
X43534801Y7385193D01*
X43535136Y7374860D01*
X43539537Y7269847D01*
X43545827Y7193414D01*
X43555899Y7135067D01*
X43571648Y7084308D01*
X43594968Y7030642D01*
X43598642Y7022930D01*
X43669053Y6901105D01*
X43752625Y6808362D01*
X43858699Y6734894D01*
X43887712Y6719462D01*
X43946903Y6690133D01*
X43991225Y6669604D01*
X44009991Y6662615D01*
X44022146Y6679152D01*
X44046217Y6723590D01*
X44078138Y6788172D01*
X44098472Y6831425D01*
X44132189Y6905775D01*
X44158571Y6966555D01*
X44173981Y7005246D01*
X44176462Y7014073D01*
X44160321Y7029694D01*
X44119594Y7052987D01*
X44097155Y7063674D01*
X44027522Y7102727D01*
X43980556Y7150973D01*
X43952175Y7216418D01*
X43938294Y7307067D01*
X43935147Y7381243D01*
X43932231Y7551001D01*
X44035126Y7606449D01*
X44096075Y7637182D01*
X44138132Y7650152D01*
X44175684Y7648080D01*
X44207397Y7639002D01*
X44253927Y7625814D01*
X44281392Y7622115D01*
X44283515Y7622937D01*
X44302876Y7650573D01*
X44332531Y7701436D01*
X44367132Y7765248D01*
X44401331Y7831730D01*
X44429778Y7890604D01*
X44447127Y7931593D01*
X44450000Y7942884D01*
X44432833Y7969458D01*
X44387412Y8000275D01*
X44359599Y8013878D01*
X44240942Y8046156D01*
X44111297Y8047223D01*
X43978255Y8020249D01*
G37*
X43978255Y8020249D02*
X43849409Y7968400D01*
X43732352Y7894844D01*
X43634674Y7802748D01*
X43563970Y7695278D01*
X43556513Y7678853D01*
X43543130Y7635701D01*
X43535414Y7577540D01*
X43532819Y7496621D01*
X43534801Y7385193D01*
X43535136Y7374860D01*
X43539537Y7269847D01*
X43545827Y7193414D01*
X43555899Y7135067D01*
X43571648Y7084308D01*
X43594968Y7030642D01*
X43598642Y7022930D01*
X43669053Y6901105D01*
X43752625Y6808362D01*
X43858699Y6734894D01*
X43887712Y6719462D01*
X43946903Y6690133D01*
X43991225Y6669604D01*
X44009991Y6662615D01*
X44022146Y6679152D01*
X44046217Y6723590D01*
X44078138Y6788172D01*
X44098472Y6831425D01*
X44132189Y6905775D01*
X44158571Y6966555D01*
X44173981Y7005246D01*
X44176462Y7014073D01*
X44160321Y7029694D01*
X44119594Y7052987D01*
X44097155Y7063674D01*
X44027522Y7102727D01*
X43980556Y7150973D01*
X43952175Y7216418D01*
X43938294Y7307067D01*
X43935147Y7381243D01*
X43932231Y7551001D01*
X44035126Y7606449D01*
X44096075Y7637182D01*
X44138132Y7650152D01*
X44175684Y7648080D01*
X44207397Y7639002D01*
X44253927Y7625814D01*
X44281392Y7622115D01*
X44283515Y7622937D01*
X44302876Y7650573D01*
X44332531Y7701436D01*
X44367132Y7765248D01*
X44401331Y7831730D01*
X44429778Y7890604D01*
X44447127Y7931593D01*
X44450000Y7942884D01*
X44432833Y7969458D01*
X44387412Y8000275D01*
X44359599Y8013878D01*
X44240942Y8046156D01*
X44111297Y8047223D01*
X43978255Y8020249D01*
G36*
X47686122Y7400637D02*
G01*
X47485809Y7394281D01*
X47292963Y7382954D01*
X47119097Y7366960D01*
X47029077Y7355311D01*
X46936392Y7341410D01*
X46858983Y7329472D01*
X46804348Y7320675D01*
X46779986Y7316201D01*
X46779454Y7316011D01*
X46779375Y7296918D01*
X46783180Y7249114D01*
X46789744Y7182644D01*
X46797940Y7107552D01*
X46806643Y7033883D01*
X46814726Y6971681D01*
X46821063Y6930990D01*
X46823758Y6920778D01*
X46843709Y6921636D01*
X46895316Y6927775D01*
X46971655Y6938270D01*
X47065803Y6952196D01*
X47109581Y6958938D01*
X47396812Y6990998D01*
X47710901Y7002540D01*
X48045453Y6993569D01*
X48394071Y6964087D01*
X48445615Y6958085D01*
X48576109Y6942623D01*
X48709592Y6927262D01*
X48834577Y6913291D01*
X48939575Y6902003D01*
X48990708Y6896810D01*
X49211208Y6866242D01*
X49406130Y6819178D01*
X49550834Y6768024D01*
X49615519Y6743457D01*
X49668212Y6726511D01*
X49694174Y6721231D01*
X49717369Y6738123D01*
X49740100Y6780121D01*
X49745115Y6794500D01*
X49768440Y6860823D01*
X49797906Y6933929D01*
X49805246Y6950595D01*
X49827819Y7006196D01*
X49841115Y7049713D01*
X49842615Y7060672D01*
X49823572Y7086053D01*
X49767793Y7115680D01*
X49677305Y7148851D01*
X49554134Y7184864D01*
X49400309Y7223018D01*
X49323182Y7240359D01*
X49258658Y7252435D01*
X49162297Y7267810D01*
X49041111Y7285557D01*
X48902109Y7304746D01*
X48752304Y7324450D01*
X48598706Y7343742D01*
X48448326Y7361692D01*
X48308175Y7377373D01*
X48216738Y7386817D01*
X48063099Y7397210D01*
X47882389Y7401715D01*
X47686122Y7400637D01*
G37*
X47686122Y7400637D02*
X47485809Y7394281D01*
X47292963Y7382954D01*
X47119097Y7366960D01*
X47029077Y7355311D01*
X46936392Y7341410D01*
X46858983Y7329472D01*
X46804348Y7320675D01*
X46779986Y7316201D01*
X46779454Y7316011D01*
X46779375Y7296918D01*
X46783180Y7249114D01*
X46789744Y7182644D01*
X46797940Y7107552D01*
X46806643Y7033883D01*
X46814726Y6971681D01*
X46821063Y6930990D01*
X46823758Y6920778D01*
X46843709Y6921636D01*
X46895316Y6927775D01*
X46971655Y6938270D01*
X47065803Y6952196D01*
X47109581Y6958938D01*
X47396812Y6990998D01*
X47710901Y7002540D01*
X48045453Y6993569D01*
X48394071Y6964087D01*
X48445615Y6958085D01*
X48576109Y6942623D01*
X48709592Y6927262D01*
X48834577Y6913291D01*
X48939575Y6902003D01*
X48990708Y6896810D01*
X49211208Y6866242D01*
X49406130Y6819178D01*
X49550834Y6768024D01*
X49615519Y6743457D01*
X49668212Y6726511D01*
X49694174Y6721231D01*
X49717369Y6738123D01*
X49740100Y6780121D01*
X49745115Y6794500D01*
X49768440Y6860823D01*
X49797906Y6933929D01*
X49805246Y6950595D01*
X49827819Y7006196D01*
X49841115Y7049713D01*
X49842615Y7060672D01*
X49823572Y7086053D01*
X49767793Y7115680D01*
X49677305Y7148851D01*
X49554134Y7184864D01*
X49400309Y7223018D01*
X49323182Y7240359D01*
X49258658Y7252435D01*
X49162297Y7267810D01*
X49041111Y7285557D01*
X48902109Y7304746D01*
X48752304Y7324450D01*
X48598706Y7343742D01*
X48448326Y7361692D01*
X48308175Y7377373D01*
X48216738Y7386817D01*
X48063099Y7397210D01*
X47882389Y7401715D01*
X47686122Y7400637D01*
G36*
X44106501Y7447783D02*
G01*
X44090961Y7441702D01*
X44046078Y7402342D01*
X44027205Y7345830D01*
X44038807Y7289500D01*
X44081092Y7248220D01*
X44148694Y7222229D01*
X44230113Y7213723D01*
X44313849Y7224899D01*
X44337694Y7232415D01*
X44386410Y7267347D01*
X44408208Y7318740D01*
X44402885Y7374532D01*
X44370234Y7422664D01*
X44341244Y7441189D01*
X44269197Y7459575D01*
X44183698Y7461788D01*
X44106501Y7447783D01*
G37*
X44106501Y7447783D02*
X44090961Y7441702D01*
X44046078Y7402342D01*
X44027205Y7345830D01*
X44038807Y7289500D01*
X44081092Y7248220D01*
X44148694Y7222229D01*
X44230113Y7213723D01*
X44313849Y7224899D01*
X44337694Y7232415D01*
X44386410Y7267347D01*
X44408208Y7318740D01*
X44402885Y7374532D01*
X44370234Y7422664D01*
X44341244Y7441189D01*
X44269197Y7459575D01*
X44183698Y7461788D01*
X44106501Y7447783D01*
D10*
%TO.C,LED+*%
X30410000Y46298000D02*
X30410000Y48698000D01*
X30410000Y48698000D02*
X28010000Y48698000D01*
X28010000Y48698000D02*
X28010000Y46298000D01*
X28010000Y46298000D02*
X30410000Y46298000D01*
%TO.C,LED-*%
X24708000Y48698000D02*
X24708000Y46298000D01*
X24708000Y46298000D02*
X27108000Y46298000D01*
X27108000Y46298000D02*
X27108000Y48698000D01*
X27108000Y48698000D02*
X24708000Y48698000D01*
%TO.C,VOL1*%
X4746643Y51092030D02*
G75*
G03*
X6355000Y47209000I5269357J-92030D01*
G01*
X8741119Y45885609D02*
G75*
G03*
X11022000Y45826000I1274881J5114391D01*
G01*
X13404475Y46963379D02*
G75*
G03*
X11290000Y56114000I-3388475J4036621D01*
G01*
X8475201Y56039726D02*
G75*
G03*
X4746000Y51000000I1540799J-5039726D01*
G01*
%TO.C,U3*%
X30746000Y18476000D02*
X30746000Y18076000D01*
X30746000Y18076000D02*
X32146000Y18076000D01*
X30746000Y18476000D02*
X25946000Y18476000D01*
X30746000Y7676000D02*
X25946000Y7676000D01*
%TO.C,U2*%
X49958500Y31530000D02*
X49958500Y32840000D01*
X49958500Y32840000D02*
X47238500Y32840000D01*
X46098500Y28350000D02*
X47238500Y28350000D01*
X49958500Y28120000D02*
X49958500Y29430000D01*
X47238500Y28120000D02*
X49958500Y28120000D01*
X47238500Y28120000D02*
X47238500Y28350000D01*
X47238500Y32840000D02*
X47238500Y32610000D01*
%TO.C,U1*%
X26351000Y37445000D02*
X24401000Y37445000D01*
X26351000Y37445000D02*
X28301000Y37445000D01*
X26351000Y42565000D02*
X24401000Y42565000D01*
X26351000Y42565000D02*
X29801000Y42565000D01*
%TO.C,R19*%
X12552000Y19207564D02*
X12552000Y17753436D01*
X14372000Y19207564D02*
X14372000Y17753436D01*
%TO.C,R18*%
X19146436Y9250000D02*
X20600564Y9250000D01*
X19146436Y11070000D02*
X20600564Y11070000D01*
%TO.C,R17*%
X29432000Y36346000D02*
X29432000Y36676000D01*
X29432000Y36676000D02*
X22892000Y36676000D01*
X22892000Y36676000D02*
X22892000Y36346000D01*
X29432000Y34266000D02*
X29432000Y33936000D01*
X29432000Y33936000D02*
X22892000Y33936000D01*
X22892000Y33936000D02*
X22892000Y34266000D01*
%TO.C,R16*%
X19146436Y6202000D02*
X20600564Y6202000D01*
X19146436Y8022000D02*
X20600564Y8022000D01*
%TO.C,R15*%
X13740000Y7398000D02*
X14070000Y7398000D01*
X14070000Y7398000D02*
X14070000Y13938000D01*
X14070000Y13938000D02*
X13740000Y13938000D01*
X11660000Y7398000D02*
X11330000Y7398000D01*
X11330000Y7398000D02*
X11330000Y13938000D01*
X11330000Y13938000D02*
X11660000Y13938000D01*
%TO.C,R13*%
X6580000Y13938000D02*
X6250000Y13938000D01*
X6250000Y13938000D02*
X6250000Y7398000D01*
X6250000Y7398000D02*
X6580000Y7398000D01*
X8660000Y13938000D02*
X8990000Y13938000D01*
X8990000Y13938000D02*
X8990000Y7398000D01*
X8990000Y7398000D02*
X8660000Y7398000D01*
%TO.C,R11*%
X13946000Y31972000D02*
X13616000Y31972000D01*
X13616000Y31972000D02*
X13616000Y25432000D01*
X13616000Y25432000D02*
X13946000Y25432000D01*
X16026000Y31972000D02*
X16356000Y31972000D01*
X16356000Y31972000D02*
X16356000Y25432000D01*
X16356000Y25432000D02*
X16026000Y25432000D01*
%TO.C,R10*%
X19452000Y20416436D02*
X19452000Y21870564D01*
X17632000Y20416436D02*
X17632000Y21870564D01*
%TO.C,R8*%
X35084000Y40362000D02*
X35084000Y40032000D01*
X35084000Y40032000D02*
X41624000Y40032000D01*
X41624000Y40032000D02*
X41624000Y40362000D01*
X35084000Y42442000D02*
X35084000Y42772000D01*
X35084000Y42772000D02*
X41624000Y42772000D01*
X41624000Y42772000D02*
X41624000Y42442000D01*
%TO.C,R7*%
X45998000Y41434000D02*
X46328000Y41434000D01*
X46328000Y41434000D02*
X46328000Y47974000D01*
X46328000Y47974000D02*
X45998000Y47974000D01*
X43918000Y41434000D02*
X43588000Y41434000D01*
X43588000Y41434000D02*
X43588000Y47974000D01*
X43588000Y47974000D02*
X43918000Y47974000D01*
%TO.C,R5*%
X41624000Y49046000D02*
X41624000Y49376000D01*
X41624000Y49376000D02*
X35084000Y49376000D01*
X35084000Y49376000D02*
X35084000Y49046000D01*
X41624000Y46966000D02*
X41624000Y46636000D01*
X41624000Y46636000D02*
X35084000Y46636000D01*
X35084000Y46636000D02*
X35084000Y46966000D01*
%TO.C,R4*%
X35084000Y43664000D02*
X35084000Y43334000D01*
X35084000Y43334000D02*
X41624000Y43334000D01*
X41624000Y43334000D02*
X41624000Y43664000D01*
X35084000Y45744000D02*
X35084000Y46074000D01*
X35084000Y46074000D02*
X41624000Y46074000D01*
X41624000Y46074000D02*
X41624000Y45744000D01*
%TO.C,R3*%
X45572000Y52989564D02*
X45572000Y51535436D01*
X47392000Y52989564D02*
X47392000Y51535436D01*
%TO.C,R2*%
X50265436Y49890000D02*
X51719564Y49890000D01*
X50265436Y51710000D02*
X51719564Y51710000D01*
%TO.C,R1*%
X34894436Y53954000D02*
X36348564Y53954000D01*
X34894436Y55774000D02*
X36348564Y55774000D01*
%TO.C,LED1*%
X15120000Y57970000D02*
X15120000Y63990000D01*
X15120000Y63990000D02*
X20420000Y63990000D01*
X20420000Y63990000D02*
X20420000Y57970000D01*
X20420000Y57970000D02*
X15120000Y57970000D01*
X14830000Y59000000D02*
X14830000Y63000000D01*
X16500000Y63990000D02*
X16500000Y62990000D01*
X16500000Y62990000D02*
X19040000Y62990000D01*
X19040000Y62990000D02*
X19040000Y63990000D01*
X16500000Y62990000D02*
X16750000Y62460000D01*
X16750000Y62460000D02*
X18790000Y62460000D01*
X18790000Y62460000D02*
X19040000Y62990000D01*
X16750000Y63990000D02*
X16750000Y62990000D01*
X18790000Y63990000D02*
X18790000Y62990000D01*
X15700000Y57970000D02*
X15700000Y58570000D01*
X15700000Y58570000D02*
X17300000Y58570000D01*
X17300000Y58570000D02*
X17300000Y57970000D01*
X18240000Y57970000D02*
X18240000Y58570000D01*
X18240000Y58570000D02*
X19840000Y58570000D01*
X19840000Y58570000D02*
X19840000Y57970000D01*
%TO.C,J4*%
X48454000Y14418000D02*
X48454000Y17078000D01*
X51054000Y14418000D02*
X48454000Y14418000D01*
X51054000Y17078000D02*
X48454000Y17078000D01*
X51054000Y14418000D02*
X51054000Y17078000D01*
X52324000Y14418000D02*
X53654000Y14418000D01*
X53654000Y14418000D02*
X53654000Y15748000D01*
%TO.C,J3*%
X36636000Y9338000D02*
X33976000Y9338000D01*
X36636000Y11938000D02*
X36636000Y9338000D01*
X33976000Y11938000D02*
X33976000Y9338000D01*
X36636000Y11938000D02*
X33976000Y11938000D01*
X36636000Y13208000D02*
X36636000Y14538000D01*
X36636000Y14538000D02*
X35306000Y14538000D01*
%TO.C,J2*%
X50352000Y19498000D02*
X47692000Y19498000D01*
X50352000Y22098000D02*
X50352000Y19498000D01*
X47692000Y22098000D02*
X47692000Y19498000D01*
X50352000Y22098000D02*
X47692000Y22098000D01*
X50352000Y23368000D02*
X50352000Y24698000D01*
X50352000Y24698000D02*
X49022000Y24698000D01*
%TO.C,J1*%
X22080000Y57970000D02*
X22080000Y63990000D01*
X22080000Y63990000D02*
X32460000Y63990000D01*
X32460000Y63990000D02*
X32460000Y57970000D01*
X32460000Y57970000D02*
X22080000Y57970000D01*
X21790000Y59000000D02*
X21790000Y63000000D01*
X23460000Y63990000D02*
X23460000Y62990000D01*
X23460000Y62990000D02*
X31080000Y62990000D01*
X31080000Y62990000D02*
X31080000Y63990000D01*
X23460000Y62990000D02*
X23710000Y62460000D01*
X23710000Y62460000D02*
X30830000Y62460000D01*
X30830000Y62460000D02*
X31080000Y62990000D01*
X23710000Y63990000D02*
X23710000Y62990000D01*
X30830000Y63990000D02*
X30830000Y62990000D01*
X22660000Y57970000D02*
X22660000Y58570000D01*
X22660000Y58570000D02*
X24260000Y58570000D01*
X24260000Y58570000D02*
X24260000Y57970000D01*
X25200000Y57970000D02*
X25200000Y58570000D01*
X25200000Y58570000D02*
X26800000Y58570000D01*
X26800000Y58570000D02*
X26800000Y57970000D01*
X27740000Y57970000D02*
X27740000Y58570000D01*
X27740000Y58570000D02*
X29340000Y58570000D01*
X29340000Y58570000D02*
X29340000Y57970000D01*
X30280000Y57970000D02*
X30280000Y58570000D01*
X30280000Y58570000D02*
X31880000Y58570000D01*
X31880000Y58570000D02*
X31880000Y57970000D01*
%TO.C,GND1*%
X34120000Y57970000D02*
X34120000Y63990000D01*
X34120000Y63990000D02*
X39420000Y63990000D01*
X39420000Y63990000D02*
X39420000Y57970000D01*
X39420000Y57970000D02*
X34120000Y57970000D01*
X33830000Y59000000D02*
X33830000Y63000000D01*
X35500000Y63990000D02*
X35500000Y62990000D01*
X35500000Y62990000D02*
X38040000Y62990000D01*
X38040000Y62990000D02*
X38040000Y63990000D01*
X35500000Y62990000D02*
X35750000Y62460000D01*
X35750000Y62460000D02*
X37790000Y62460000D01*
X37790000Y62460000D02*
X38040000Y62990000D01*
X35750000Y63990000D02*
X35750000Y62990000D01*
X37790000Y63990000D02*
X37790000Y62990000D01*
X34700000Y57970000D02*
X34700000Y58570000D01*
X34700000Y58570000D02*
X36300000Y58570000D01*
X36300000Y58570000D02*
X36300000Y57970000D01*
X37240000Y57970000D02*
X37240000Y58570000D01*
X37240000Y58570000D02*
X38840000Y58570000D01*
X38840000Y58570000D02*
X38840000Y57970000D01*
%TO.C,D3*%
X52544000Y9362000D02*
X52388000Y9362000D01*
X50228000Y9362000D02*
X50072000Y9362000D01*
X50228163Y11963130D02*
G75*
G03*
X50228000Y9881039I1079837J-1041130D01*
G01*
X52387837Y11963130D02*
G75*
G02*
X52388000Y9881039I-1079837J-1041130D01*
G01*
X50229392Y12594335D02*
G75*
G03*
X50072484Y9362000I1078608J-1672335D01*
G01*
X52386608Y12594335D02*
G75*
G02*
X52543516Y9362000I-1078608J-1672335D01*
G01*
%TO.C,D2*%
X53698000Y22264000D02*
X51458000Y22264000D01*
X51458000Y22264000D02*
X51458000Y26504000D01*
X51458000Y26504000D02*
X53698000Y26504000D01*
X53698000Y26504000D02*
X53698000Y22264000D01*
X52578000Y21614000D02*
X52578000Y22264000D01*
X52578000Y27154000D02*
X52578000Y26504000D01*
X53698000Y22984000D02*
X51458000Y22984000D01*
X53698000Y23104000D02*
X51458000Y23104000D01*
X53698000Y22864000D02*
X51458000Y22864000D01*
%TO.C,D1*%
X44778000Y60506000D02*
X44778000Y63446000D01*
X44778000Y63446000D02*
X50218000Y63446000D01*
X50218000Y63446000D02*
X50218000Y60506000D01*
X50218000Y60506000D02*
X44778000Y60506000D01*
X43758000Y61976000D02*
X44778000Y61976000D01*
X51238000Y61976000D02*
X50218000Y61976000D01*
X45678000Y60506000D02*
X45678000Y63446000D01*
X45798000Y60506000D02*
X45798000Y63446000D01*
X45558000Y60506000D02*
X45558000Y63446000D01*
%TO.C,C23*%
X3786000Y18696000D02*
X11026000Y18696000D01*
X3786000Y21436000D02*
X11026000Y21436000D01*
X3786000Y18696000D02*
X3786000Y21436000D01*
X11026000Y18696000D02*
X11026000Y21436000D01*
%TO.C,C22*%
X23190000Y24942000D02*
X23190000Y32382000D01*
X17450000Y24942000D02*
X17450000Y32382000D01*
X23190000Y24942000D02*
X17450000Y24942000D01*
X23190000Y32382000D02*
X17450000Y32382000D01*
%TO.C,C21*%
X23900000Y3656000D02*
X16660000Y3656000D01*
X23900000Y916000D02*
X16660000Y916000D01*
X23900000Y3656000D02*
X23900000Y916000D01*
X16660000Y3656000D02*
X16660000Y916000D01*
%TO.C,C20*%
X24054000Y32462000D02*
X24054000Y25022000D01*
X29794000Y32462000D02*
X29794000Y25022000D01*
X24054000Y32462000D02*
X29794000Y32462000D01*
X24054000Y25022000D02*
X29794000Y25022000D01*
%TO.C,C19*%
X3075000Y7815252D02*
X3075000Y7292748D01*
X4545000Y7815252D02*
X4545000Y7292748D01*
%TO.C,C18*%
X32028000Y6958000D02*
X24788000Y6958000D01*
X32028000Y4218000D02*
X24788000Y4218000D01*
X32028000Y6958000D02*
X32028000Y4218000D01*
X24788000Y6958000D02*
X24788000Y4218000D01*
%TO.C,C17*%
X20312748Y15267000D02*
X20835252Y15267000D01*
X20312748Y16737000D02*
X20835252Y16737000D01*
%TO.C,C16*%
X24788000Y916000D02*
X32028000Y916000D01*
X24788000Y3656000D02*
X32028000Y3656000D01*
X24788000Y916000D02*
X24788000Y3656000D01*
X32028000Y916000D02*
X32028000Y3656000D01*
%TO.C,C15*%
X20124748Y12473000D02*
X20647252Y12473000D01*
X20124748Y13943000D02*
X20647252Y13943000D01*
%TO.C,C13*%
X30658000Y32462000D02*
X30658000Y25022000D01*
X36398000Y32462000D02*
X36398000Y25022000D01*
X30658000Y32462000D02*
X36398000Y32462000D01*
X30658000Y25022000D02*
X36398000Y25022000D01*
%TO.C,C12*%
X8577252Y39597000D02*
X8054748Y39597000D01*
X8577252Y38127000D02*
X8054748Y38127000D01*
%TO.C,C11*%
X38000000Y16360000D02*
X38000000Y9120000D01*
X40740000Y16360000D02*
X40740000Y9120000D01*
X38000000Y16360000D02*
X40740000Y16360000D01*
X38000000Y9120000D02*
X40740000Y9120000D01*
%TO.C,C10*%
X44604000Y16360000D02*
X44604000Y9120000D01*
X47344000Y16360000D02*
X47344000Y9120000D01*
X44604000Y16360000D02*
X47344000Y16360000D01*
X44604000Y9120000D02*
X47344000Y9120000D01*
%TO.C,C9*%
X41302000Y16360000D02*
X41302000Y9120000D01*
X44042000Y16360000D02*
X44042000Y9120000D01*
X41302000Y16360000D02*
X44042000Y16360000D01*
X41302000Y9120000D02*
X44042000Y9120000D01*
%TO.C,C8*%
X45272000Y20066000D02*
G75*
G03*
X45272000Y20066000I-2620000J0D01*
G01*
X42652000Y17486000D02*
X42652000Y22646000D01*
X42692000Y17486000D02*
X42692000Y22646000D01*
X42732000Y17487000D02*
X42732000Y22645000D01*
X42772000Y17488000D02*
X42772000Y22644000D01*
X42812000Y17490000D02*
X42812000Y22642000D01*
X42852000Y17493000D02*
X42852000Y22639000D01*
X42892000Y17497000D02*
X42892000Y19026000D01*
X42892000Y21106000D02*
X42892000Y22635000D01*
X42932000Y17501000D02*
X42932000Y19026000D01*
X42932000Y21106000D02*
X42932000Y22631000D01*
X42972000Y17505000D02*
X42972000Y19026000D01*
X42972000Y21106000D02*
X42972000Y22627000D01*
X43012000Y17510000D02*
X43012000Y19026000D01*
X43012000Y21106000D02*
X43012000Y22622000D01*
X43052000Y17516000D02*
X43052000Y19026000D01*
X43052000Y21106000D02*
X43052000Y22616000D01*
X43092000Y17523000D02*
X43092000Y19026000D01*
X43092000Y21106000D02*
X43092000Y22609000D01*
X43132000Y17530000D02*
X43132000Y19026000D01*
X43132000Y21106000D02*
X43132000Y22602000D01*
X43172000Y17538000D02*
X43172000Y19026000D01*
X43172000Y21106000D02*
X43172000Y22594000D01*
X43212000Y17546000D02*
X43212000Y19026000D01*
X43212000Y21106000D02*
X43212000Y22586000D01*
X43252000Y17555000D02*
X43252000Y19026000D01*
X43252000Y21106000D02*
X43252000Y22577000D01*
X43292000Y17565000D02*
X43292000Y19026000D01*
X43292000Y21106000D02*
X43292000Y22567000D01*
X43332000Y17575000D02*
X43332000Y19026000D01*
X43332000Y21106000D02*
X43332000Y22557000D01*
X43373000Y17586000D02*
X43373000Y19026000D01*
X43373000Y21106000D02*
X43373000Y22546000D01*
X43413000Y17598000D02*
X43413000Y19026000D01*
X43413000Y21106000D02*
X43413000Y22534000D01*
X43453000Y17611000D02*
X43453000Y19026000D01*
X43453000Y21106000D02*
X43453000Y22521000D01*
X43493000Y17624000D02*
X43493000Y19026000D01*
X43493000Y21106000D02*
X43493000Y22508000D01*
X43533000Y17638000D02*
X43533000Y19026000D01*
X43533000Y21106000D02*
X43533000Y22494000D01*
X43573000Y17652000D02*
X43573000Y19026000D01*
X43573000Y21106000D02*
X43573000Y22480000D01*
X43613000Y17668000D02*
X43613000Y19026000D01*
X43613000Y21106000D02*
X43613000Y22464000D01*
X43653000Y17684000D02*
X43653000Y19026000D01*
X43653000Y21106000D02*
X43653000Y22448000D01*
X43693000Y17701000D02*
X43693000Y19026000D01*
X43693000Y21106000D02*
X43693000Y22431000D01*
X43733000Y17718000D02*
X43733000Y19026000D01*
X43733000Y21106000D02*
X43733000Y22414000D01*
X43773000Y17737000D02*
X43773000Y19026000D01*
X43773000Y21106000D02*
X43773000Y22395000D01*
X43813000Y17756000D02*
X43813000Y19026000D01*
X43813000Y21106000D02*
X43813000Y22376000D01*
X43853000Y17776000D02*
X43853000Y19026000D01*
X43853000Y21106000D02*
X43853000Y22356000D01*
X43893000Y17798000D02*
X43893000Y19026000D01*
X43893000Y21106000D02*
X43893000Y22334000D01*
X43933000Y17819000D02*
X43933000Y19026000D01*
X43933000Y21106000D02*
X43933000Y22313000D01*
X43973000Y17842000D02*
X43973000Y19026000D01*
X43973000Y21106000D02*
X43973000Y22290000D01*
X44013000Y17866000D02*
X44013000Y19026000D01*
X44013000Y21106000D02*
X44013000Y22266000D01*
X44053000Y17891000D02*
X44053000Y19026000D01*
X44053000Y21106000D02*
X44053000Y22241000D01*
X44093000Y17917000D02*
X44093000Y19026000D01*
X44093000Y21106000D02*
X44093000Y22215000D01*
X44133000Y17944000D02*
X44133000Y19026000D01*
X44133000Y21106000D02*
X44133000Y22188000D01*
X44173000Y17971000D02*
X44173000Y19026000D01*
X44173000Y21106000D02*
X44173000Y22161000D01*
X44213000Y18001000D02*
X44213000Y19026000D01*
X44213000Y21106000D02*
X44213000Y22131000D01*
X44253000Y18031000D02*
X44253000Y19026000D01*
X44253000Y21106000D02*
X44253000Y22101000D01*
X44293000Y18062000D02*
X44293000Y19026000D01*
X44293000Y21106000D02*
X44293000Y22070000D01*
X44333000Y18095000D02*
X44333000Y19026000D01*
X44333000Y21106000D02*
X44333000Y22037000D01*
X44373000Y18129000D02*
X44373000Y19026000D01*
X44373000Y21106000D02*
X44373000Y22003000D01*
X44413000Y18165000D02*
X44413000Y19026000D01*
X44413000Y21106000D02*
X44413000Y21967000D01*
X44453000Y18202000D02*
X44453000Y19026000D01*
X44453000Y21106000D02*
X44453000Y21930000D01*
X44493000Y18240000D02*
X44493000Y19026000D01*
X44493000Y21106000D02*
X44493000Y21892000D01*
X44533000Y18281000D02*
X44533000Y19026000D01*
X44533000Y21106000D02*
X44533000Y21851000D01*
X44573000Y18323000D02*
X44573000Y19026000D01*
X44573000Y21106000D02*
X44573000Y21809000D01*
X44613000Y18367000D02*
X44613000Y19026000D01*
X44613000Y21106000D02*
X44613000Y21765000D01*
X44653000Y18413000D02*
X44653000Y19026000D01*
X44653000Y21106000D02*
X44653000Y21719000D01*
X44693000Y18461000D02*
X44693000Y19026000D01*
X44693000Y21106000D02*
X44693000Y21671000D01*
X44733000Y18512000D02*
X44733000Y19026000D01*
X44733000Y21106000D02*
X44733000Y21620000D01*
X44773000Y18566000D02*
X44773000Y19026000D01*
X44773000Y21106000D02*
X44773000Y21566000D01*
X44813000Y18623000D02*
X44813000Y19026000D01*
X44813000Y21106000D02*
X44813000Y21509000D01*
X44853000Y18683000D02*
X44853000Y19026000D01*
X44853000Y21106000D02*
X44853000Y21449000D01*
X44893000Y18747000D02*
X44893000Y19026000D01*
X44893000Y21106000D02*
X44893000Y21385000D01*
X44933000Y18815000D02*
X44933000Y19026000D01*
X44933000Y21106000D02*
X44933000Y21317000D01*
X44973000Y18888000D02*
X44973000Y21244000D01*
X45013000Y18968000D02*
X45013000Y21164000D01*
X45053000Y19055000D02*
X45053000Y21077000D01*
X45093000Y19151000D02*
X45093000Y20981000D01*
X45133000Y19261000D02*
X45133000Y20871000D01*
X45173000Y19389000D02*
X45173000Y20743000D01*
X45213000Y19548000D02*
X45213000Y20584000D01*
X45253000Y19782000D02*
X45253000Y20350000D01*
X39847225Y18591000D02*
X40347225Y18591000D01*
X40097225Y18341000D02*
X40097225Y18841000D01*
%TO.C,C7*%
X11226000Y37770000D02*
X18666000Y37770000D01*
X11226000Y43510000D02*
X18666000Y43510000D01*
X11226000Y37770000D02*
X11226000Y43510000D01*
X18666000Y37770000D02*
X18666000Y43510000D01*
%TO.C,C6*%
X20093000Y39951252D02*
X20093000Y39428748D01*
X21563000Y39951252D02*
X21563000Y39428748D01*
%TO.C,C5*%
X45038000Y27706000D02*
G75*
G03*
X45038000Y27706000I-2620000J0D01*
G01*
X39838000Y27706000D02*
X44998000Y27706000D01*
X39838000Y27666000D02*
X44998000Y27666000D01*
X39839000Y27626000D02*
X44997000Y27626000D01*
X39840000Y27586000D02*
X44996000Y27586000D01*
X39842000Y27546000D02*
X44994000Y27546000D01*
X39845000Y27506000D02*
X44991000Y27506000D01*
X39849000Y27466000D02*
X41378000Y27466000D01*
X43458000Y27466000D02*
X44987000Y27466000D01*
X39853000Y27426000D02*
X41378000Y27426000D01*
X43458000Y27426000D02*
X44983000Y27426000D01*
X39857000Y27386000D02*
X41378000Y27386000D01*
X43458000Y27386000D02*
X44979000Y27386000D01*
X39862000Y27346000D02*
X41378000Y27346000D01*
X43458000Y27346000D02*
X44974000Y27346000D01*
X39868000Y27306000D02*
X41378000Y27306000D01*
X43458000Y27306000D02*
X44968000Y27306000D01*
X39875000Y27266000D02*
X41378000Y27266000D01*
X43458000Y27266000D02*
X44961000Y27266000D01*
X39882000Y27226000D02*
X41378000Y27226000D01*
X43458000Y27226000D02*
X44954000Y27226000D01*
X39890000Y27186000D02*
X41378000Y27186000D01*
X43458000Y27186000D02*
X44946000Y27186000D01*
X39898000Y27146000D02*
X41378000Y27146000D01*
X43458000Y27146000D02*
X44938000Y27146000D01*
X39907000Y27106000D02*
X41378000Y27106000D01*
X43458000Y27106000D02*
X44929000Y27106000D01*
X39917000Y27066000D02*
X41378000Y27066000D01*
X43458000Y27066000D02*
X44919000Y27066000D01*
X39927000Y27026000D02*
X41378000Y27026000D01*
X43458000Y27026000D02*
X44909000Y27026000D01*
X39938000Y26985000D02*
X41378000Y26985000D01*
X43458000Y26985000D02*
X44898000Y26985000D01*
X39950000Y26945000D02*
X41378000Y26945000D01*
X43458000Y26945000D02*
X44886000Y26945000D01*
X39963000Y26905000D02*
X41378000Y26905000D01*
X43458000Y26905000D02*
X44873000Y26905000D01*
X39976000Y26865000D02*
X41378000Y26865000D01*
X43458000Y26865000D02*
X44860000Y26865000D01*
X39990000Y26825000D02*
X41378000Y26825000D01*
X43458000Y26825000D02*
X44846000Y26825000D01*
X40004000Y26785000D02*
X41378000Y26785000D01*
X43458000Y26785000D02*
X44832000Y26785000D01*
X40020000Y26745000D02*
X41378000Y26745000D01*
X43458000Y26745000D02*
X44816000Y26745000D01*
X40036000Y26705000D02*
X41378000Y26705000D01*
X43458000Y26705000D02*
X44800000Y26705000D01*
X40053000Y26665000D02*
X41378000Y26665000D01*
X43458000Y26665000D02*
X44783000Y26665000D01*
X40070000Y26625000D02*
X41378000Y26625000D01*
X43458000Y26625000D02*
X44766000Y26625000D01*
X40089000Y26585000D02*
X41378000Y26585000D01*
X43458000Y26585000D02*
X44747000Y26585000D01*
X40108000Y26545000D02*
X41378000Y26545000D01*
X43458000Y26545000D02*
X44728000Y26545000D01*
X40128000Y26505000D02*
X41378000Y26505000D01*
X43458000Y26505000D02*
X44708000Y26505000D01*
X40150000Y26465000D02*
X41378000Y26465000D01*
X43458000Y26465000D02*
X44686000Y26465000D01*
X40171000Y26425000D02*
X41378000Y26425000D01*
X43458000Y26425000D02*
X44665000Y26425000D01*
X40194000Y26385000D02*
X41378000Y26385000D01*
X43458000Y26385000D02*
X44642000Y26385000D01*
X40218000Y26345000D02*
X41378000Y26345000D01*
X43458000Y26345000D02*
X44618000Y26345000D01*
X40243000Y26305000D02*
X41378000Y26305000D01*
X43458000Y26305000D02*
X44593000Y26305000D01*
X40269000Y26265000D02*
X41378000Y26265000D01*
X43458000Y26265000D02*
X44567000Y26265000D01*
X40296000Y26225000D02*
X41378000Y26225000D01*
X43458000Y26225000D02*
X44540000Y26225000D01*
X40323000Y26185000D02*
X41378000Y26185000D01*
X43458000Y26185000D02*
X44513000Y26185000D01*
X40353000Y26145000D02*
X41378000Y26145000D01*
X43458000Y26145000D02*
X44483000Y26145000D01*
X40383000Y26105000D02*
X41378000Y26105000D01*
X43458000Y26105000D02*
X44453000Y26105000D01*
X40414000Y26065000D02*
X41378000Y26065000D01*
X43458000Y26065000D02*
X44422000Y26065000D01*
X40447000Y26025000D02*
X41378000Y26025000D01*
X43458000Y26025000D02*
X44389000Y26025000D01*
X40481000Y25985000D02*
X41378000Y25985000D01*
X43458000Y25985000D02*
X44355000Y25985000D01*
X40517000Y25945000D02*
X41378000Y25945000D01*
X43458000Y25945000D02*
X44319000Y25945000D01*
X40554000Y25905000D02*
X41378000Y25905000D01*
X43458000Y25905000D02*
X44282000Y25905000D01*
X40592000Y25865000D02*
X41378000Y25865000D01*
X43458000Y25865000D02*
X44244000Y25865000D01*
X40633000Y25825000D02*
X41378000Y25825000D01*
X43458000Y25825000D02*
X44203000Y25825000D01*
X40675000Y25785000D02*
X41378000Y25785000D01*
X43458000Y25785000D02*
X44161000Y25785000D01*
X40719000Y25745000D02*
X41378000Y25745000D01*
X43458000Y25745000D02*
X44117000Y25745000D01*
X40765000Y25705000D02*
X41378000Y25705000D01*
X43458000Y25705000D02*
X44071000Y25705000D01*
X40813000Y25665000D02*
X41378000Y25665000D01*
X43458000Y25665000D02*
X44023000Y25665000D01*
X40864000Y25625000D02*
X41378000Y25625000D01*
X43458000Y25625000D02*
X43972000Y25625000D01*
X40918000Y25585000D02*
X41378000Y25585000D01*
X43458000Y25585000D02*
X43918000Y25585000D01*
X40975000Y25545000D02*
X41378000Y25545000D01*
X43458000Y25545000D02*
X43861000Y25545000D01*
X41035000Y25505000D02*
X41378000Y25505000D01*
X43458000Y25505000D02*
X43801000Y25505000D01*
X41099000Y25465000D02*
X41378000Y25465000D01*
X43458000Y25465000D02*
X43737000Y25465000D01*
X41167000Y25425000D02*
X41378000Y25425000D01*
X43458000Y25425000D02*
X43669000Y25425000D01*
X41240000Y25385000D02*
X43596000Y25385000D01*
X41320000Y25345000D02*
X43516000Y25345000D01*
X41407000Y25305000D02*
X43429000Y25305000D01*
X41503000Y25265000D02*
X43333000Y25265000D01*
X41613000Y25225000D02*
X43223000Y25225000D01*
X41741000Y25185000D02*
X43095000Y25185000D01*
X41900000Y25145000D02*
X42936000Y25145000D01*
X42134000Y25105000D02*
X42702000Y25105000D01*
X40943000Y30510775D02*
X40943000Y30010775D01*
X40693000Y30260775D02*
X41193000Y30260775D01*
%TO.C,C4*%
X31015000Y41597252D02*
X31015000Y41074748D01*
X32485000Y41597252D02*
X32485000Y41074748D01*
%TO.C,C3*%
X54090000Y56388000D02*
G75*
G03*
X54090000Y56388000I-3270000J0D01*
G01*
X50820000Y53158000D02*
X50820000Y59618000D01*
X50860000Y53158000D02*
X50860000Y59618000D01*
X50900000Y53158000D02*
X50900000Y59618000D01*
X50940000Y53160000D02*
X50940000Y59616000D01*
X50980000Y53161000D02*
X50980000Y59615000D01*
X51020000Y53164000D02*
X51020000Y59612000D01*
X51060000Y53166000D02*
X51060000Y55348000D01*
X51060000Y57428000D02*
X51060000Y59610000D01*
X51100000Y53170000D02*
X51100000Y55348000D01*
X51100000Y57428000D02*
X51100000Y59606000D01*
X51140000Y53173000D02*
X51140000Y55348000D01*
X51140000Y57428000D02*
X51140000Y59603000D01*
X51180000Y53177000D02*
X51180000Y55348000D01*
X51180000Y57428000D02*
X51180000Y59599000D01*
X51220000Y53182000D02*
X51220000Y55348000D01*
X51220000Y57428000D02*
X51220000Y59594000D01*
X51260000Y53187000D02*
X51260000Y55348000D01*
X51260000Y57428000D02*
X51260000Y59589000D01*
X51300000Y53193000D02*
X51300000Y55348000D01*
X51300000Y57428000D02*
X51300000Y59583000D01*
X51340000Y53199000D02*
X51340000Y55348000D01*
X51340000Y57428000D02*
X51340000Y59577000D01*
X51380000Y53206000D02*
X51380000Y55348000D01*
X51380000Y57428000D02*
X51380000Y59570000D01*
X51420000Y53213000D02*
X51420000Y55348000D01*
X51420000Y57428000D02*
X51420000Y59563000D01*
X51460000Y53221000D02*
X51460000Y55348000D01*
X51460000Y57428000D02*
X51460000Y59555000D01*
X51500000Y53229000D02*
X51500000Y55348000D01*
X51500000Y57428000D02*
X51500000Y59547000D01*
X51541000Y53238000D02*
X51541000Y55348000D01*
X51541000Y57428000D02*
X51541000Y59538000D01*
X51581000Y53247000D02*
X51581000Y55348000D01*
X51581000Y57428000D02*
X51581000Y59529000D01*
X51621000Y53257000D02*
X51621000Y55348000D01*
X51621000Y57428000D02*
X51621000Y59519000D01*
X51661000Y53267000D02*
X51661000Y55348000D01*
X51661000Y57428000D02*
X51661000Y59509000D01*
X51701000Y53278000D02*
X51701000Y55348000D01*
X51701000Y57428000D02*
X51701000Y59498000D01*
X51741000Y53290000D02*
X51741000Y55348000D01*
X51741000Y57428000D02*
X51741000Y59486000D01*
X51781000Y53302000D02*
X51781000Y55348000D01*
X51781000Y57428000D02*
X51781000Y59474000D01*
X51821000Y53314000D02*
X51821000Y55348000D01*
X51821000Y57428000D02*
X51821000Y59462000D01*
X51861000Y53327000D02*
X51861000Y55348000D01*
X51861000Y57428000D02*
X51861000Y59449000D01*
X51901000Y53341000D02*
X51901000Y55348000D01*
X51901000Y57428000D02*
X51901000Y59435000D01*
X51941000Y53355000D02*
X51941000Y55348000D01*
X51941000Y57428000D02*
X51941000Y59421000D01*
X51981000Y53370000D02*
X51981000Y55348000D01*
X51981000Y57428000D02*
X51981000Y59406000D01*
X52021000Y53386000D02*
X52021000Y55348000D01*
X52021000Y57428000D02*
X52021000Y59390000D01*
X52061000Y53402000D02*
X52061000Y55348000D01*
X52061000Y57428000D02*
X52061000Y59374000D01*
X52101000Y53418000D02*
X52101000Y55348000D01*
X52101000Y57428000D02*
X52101000Y59358000D01*
X52141000Y53436000D02*
X52141000Y55348000D01*
X52141000Y57428000D02*
X52141000Y59340000D01*
X52181000Y53454000D02*
X52181000Y55348000D01*
X52181000Y57428000D02*
X52181000Y59322000D01*
X52221000Y53472000D02*
X52221000Y55348000D01*
X52221000Y57428000D02*
X52221000Y59304000D01*
X52261000Y53492000D02*
X52261000Y55348000D01*
X52261000Y57428000D02*
X52261000Y59284000D01*
X52301000Y53512000D02*
X52301000Y55348000D01*
X52301000Y57428000D02*
X52301000Y59264000D01*
X52341000Y53532000D02*
X52341000Y55348000D01*
X52341000Y57428000D02*
X52341000Y59244000D01*
X52381000Y53554000D02*
X52381000Y55348000D01*
X52381000Y57428000D02*
X52381000Y59222000D01*
X52421000Y53576000D02*
X52421000Y55348000D01*
X52421000Y57428000D02*
X52421000Y59200000D01*
X52461000Y53598000D02*
X52461000Y55348000D01*
X52461000Y57428000D02*
X52461000Y59178000D01*
X52501000Y53622000D02*
X52501000Y55348000D01*
X52501000Y57428000D02*
X52501000Y59154000D01*
X52541000Y53646000D02*
X52541000Y55348000D01*
X52541000Y57428000D02*
X52541000Y59130000D01*
X52581000Y53672000D02*
X52581000Y55348000D01*
X52581000Y57428000D02*
X52581000Y59104000D01*
X52621000Y53698000D02*
X52621000Y55348000D01*
X52621000Y57428000D02*
X52621000Y59078000D01*
X52661000Y53724000D02*
X52661000Y55348000D01*
X52661000Y57428000D02*
X52661000Y59052000D01*
X52701000Y53752000D02*
X52701000Y55348000D01*
X52701000Y57428000D02*
X52701000Y59024000D01*
X52741000Y53781000D02*
X52741000Y55348000D01*
X52741000Y57428000D02*
X52741000Y58995000D01*
X52781000Y53810000D02*
X52781000Y55348000D01*
X52781000Y57428000D02*
X52781000Y58966000D01*
X52821000Y53840000D02*
X52821000Y55348000D01*
X52821000Y57428000D02*
X52821000Y58936000D01*
X52861000Y53872000D02*
X52861000Y55348000D01*
X52861000Y57428000D02*
X52861000Y58904000D01*
X52901000Y53904000D02*
X52901000Y55348000D01*
X52901000Y57428000D02*
X52901000Y58872000D01*
X52941000Y53938000D02*
X52941000Y55348000D01*
X52941000Y57428000D02*
X52941000Y58838000D01*
X52981000Y53972000D02*
X52981000Y55348000D01*
X52981000Y57428000D02*
X52981000Y58804000D01*
X53021000Y54008000D02*
X53021000Y55348000D01*
X53021000Y57428000D02*
X53021000Y58768000D01*
X53061000Y54045000D02*
X53061000Y55348000D01*
X53061000Y57428000D02*
X53061000Y58731000D01*
X53101000Y54083000D02*
X53101000Y55348000D01*
X53101000Y57428000D02*
X53101000Y58693000D01*
X53141000Y54123000D02*
X53141000Y58653000D01*
X53181000Y54164000D02*
X53181000Y58612000D01*
X53221000Y54206000D02*
X53221000Y58570000D01*
X53261000Y54251000D02*
X53261000Y58525000D01*
X53301000Y54296000D02*
X53301000Y58480000D01*
X53341000Y54344000D02*
X53341000Y58432000D01*
X53381000Y54393000D02*
X53381000Y58383000D01*
X53421000Y54444000D02*
X53421000Y58332000D01*
X53461000Y54498000D02*
X53461000Y58278000D01*
X53501000Y54554000D02*
X53501000Y58222000D01*
X53541000Y54612000D02*
X53541000Y58164000D01*
X53581000Y54674000D02*
X53581000Y58102000D01*
X53621000Y54738000D02*
X53621000Y58038000D01*
X53661000Y54807000D02*
X53661000Y57969000D01*
X53701000Y54879000D02*
X53701000Y57897000D01*
X53741000Y54956000D02*
X53741000Y57820000D01*
X53781000Y55038000D02*
X53781000Y57738000D01*
X53821000Y55126000D02*
X53821000Y57650000D01*
X53861000Y55223000D02*
X53861000Y57553000D01*
X53901000Y55329000D02*
X53901000Y57447000D01*
X53941000Y55448000D02*
X53941000Y57328000D01*
X53981000Y55586000D02*
X53981000Y57190000D01*
X54021000Y55755000D02*
X54021000Y57021000D01*
X54061000Y55986000D02*
X54061000Y56790000D01*
X47319759Y54549000D02*
X47949759Y54549000D01*
X47634759Y54234000D02*
X47634759Y54864000D01*
%TO.C,C2*%
X35313252Y53313000D02*
X34790748Y53313000D01*
X35313252Y51843000D02*
X34790748Y51843000D01*
%TO.C,C1*%
X45780000Y56642000D02*
G75*
G03*
X45780000Y56642000I-2620000J0D01*
G01*
X43160000Y59222000D02*
X43160000Y54062000D01*
X43120000Y59222000D02*
X43120000Y54062000D01*
X43080000Y59221000D02*
X43080000Y54063000D01*
X43040000Y59220000D02*
X43040000Y54064000D01*
X43000000Y59218000D02*
X43000000Y54066000D01*
X42960000Y59215000D02*
X42960000Y54069000D01*
X42920000Y59211000D02*
X42920000Y57682000D01*
X42920000Y55602000D02*
X42920000Y54073000D01*
X42880000Y59207000D02*
X42880000Y57682000D01*
X42880000Y55602000D02*
X42880000Y54077000D01*
X42840000Y59203000D02*
X42840000Y57682000D01*
X42840000Y55602000D02*
X42840000Y54081000D01*
X42800000Y59198000D02*
X42800000Y57682000D01*
X42800000Y55602000D02*
X42800000Y54086000D01*
X42760000Y59192000D02*
X42760000Y57682000D01*
X42760000Y55602000D02*
X42760000Y54092000D01*
X42720000Y59185000D02*
X42720000Y57682000D01*
X42720000Y55602000D02*
X42720000Y54099000D01*
X42680000Y59178000D02*
X42680000Y57682000D01*
X42680000Y55602000D02*
X42680000Y54106000D01*
X42640000Y59170000D02*
X42640000Y57682000D01*
X42640000Y55602000D02*
X42640000Y54114000D01*
X42600000Y59162000D02*
X42600000Y57682000D01*
X42600000Y55602000D02*
X42600000Y54122000D01*
X42560000Y59153000D02*
X42560000Y57682000D01*
X42560000Y55602000D02*
X42560000Y54131000D01*
X42520000Y59143000D02*
X42520000Y57682000D01*
X42520000Y55602000D02*
X42520000Y54141000D01*
X42480000Y59133000D02*
X42480000Y57682000D01*
X42480000Y55602000D02*
X42480000Y54151000D01*
X42439000Y59122000D02*
X42439000Y57682000D01*
X42439000Y55602000D02*
X42439000Y54162000D01*
X42399000Y59110000D02*
X42399000Y57682000D01*
X42399000Y55602000D02*
X42399000Y54174000D01*
X42359000Y59097000D02*
X42359000Y57682000D01*
X42359000Y55602000D02*
X42359000Y54187000D01*
X42319000Y59084000D02*
X42319000Y57682000D01*
X42319000Y55602000D02*
X42319000Y54200000D01*
X42279000Y59070000D02*
X42279000Y57682000D01*
X42279000Y55602000D02*
X42279000Y54214000D01*
X42239000Y59056000D02*
X42239000Y57682000D01*
X42239000Y55602000D02*
X42239000Y54228000D01*
X42199000Y59040000D02*
X42199000Y57682000D01*
X42199000Y55602000D02*
X42199000Y54244000D01*
X42159000Y59024000D02*
X42159000Y57682000D01*
X42159000Y55602000D02*
X42159000Y54260000D01*
X42119000Y59007000D02*
X42119000Y57682000D01*
X42119000Y55602000D02*
X42119000Y54277000D01*
X42079000Y58990000D02*
X42079000Y57682000D01*
X42079000Y55602000D02*
X42079000Y54294000D01*
X42039000Y58971000D02*
X42039000Y57682000D01*
X42039000Y55602000D02*
X42039000Y54313000D01*
X41999000Y58952000D02*
X41999000Y57682000D01*
X41999000Y55602000D02*
X41999000Y54332000D01*
X41959000Y58932000D02*
X41959000Y57682000D01*
X41959000Y55602000D02*
X41959000Y54352000D01*
X41919000Y58910000D02*
X41919000Y57682000D01*
X41919000Y55602000D02*
X41919000Y54374000D01*
X41879000Y58889000D02*
X41879000Y57682000D01*
X41879000Y55602000D02*
X41879000Y54395000D01*
X41839000Y58866000D02*
X41839000Y57682000D01*
X41839000Y55602000D02*
X41839000Y54418000D01*
X41799000Y58842000D02*
X41799000Y57682000D01*
X41799000Y55602000D02*
X41799000Y54442000D01*
X41759000Y58817000D02*
X41759000Y57682000D01*
X41759000Y55602000D02*
X41759000Y54467000D01*
X41719000Y58791000D02*
X41719000Y57682000D01*
X41719000Y55602000D02*
X41719000Y54493000D01*
X41679000Y58764000D02*
X41679000Y57682000D01*
X41679000Y55602000D02*
X41679000Y54520000D01*
X41639000Y58737000D02*
X41639000Y57682000D01*
X41639000Y55602000D02*
X41639000Y54547000D01*
X41599000Y58707000D02*
X41599000Y57682000D01*
X41599000Y55602000D02*
X41599000Y54577000D01*
X41559000Y58677000D02*
X41559000Y57682000D01*
X41559000Y55602000D02*
X41559000Y54607000D01*
X41519000Y58646000D02*
X41519000Y57682000D01*
X41519000Y55602000D02*
X41519000Y54638000D01*
X41479000Y58613000D02*
X41479000Y57682000D01*
X41479000Y55602000D02*
X41479000Y54671000D01*
X41439000Y58579000D02*
X41439000Y57682000D01*
X41439000Y55602000D02*
X41439000Y54705000D01*
X41399000Y58543000D02*
X41399000Y57682000D01*
X41399000Y55602000D02*
X41399000Y54741000D01*
X41359000Y58506000D02*
X41359000Y57682000D01*
X41359000Y55602000D02*
X41359000Y54778000D01*
X41319000Y58468000D02*
X41319000Y57682000D01*
X41319000Y55602000D02*
X41319000Y54816000D01*
X41279000Y58427000D02*
X41279000Y57682000D01*
X41279000Y55602000D02*
X41279000Y54857000D01*
X41239000Y58385000D02*
X41239000Y57682000D01*
X41239000Y55602000D02*
X41239000Y54899000D01*
X41199000Y58341000D02*
X41199000Y57682000D01*
X41199000Y55602000D02*
X41199000Y54943000D01*
X41159000Y58295000D02*
X41159000Y57682000D01*
X41159000Y55602000D02*
X41159000Y54989000D01*
X41119000Y58247000D02*
X41119000Y57682000D01*
X41119000Y55602000D02*
X41119000Y55037000D01*
X41079000Y58196000D02*
X41079000Y57682000D01*
X41079000Y55602000D02*
X41079000Y55088000D01*
X41039000Y58142000D02*
X41039000Y57682000D01*
X41039000Y55602000D02*
X41039000Y55142000D01*
X40999000Y58085000D02*
X40999000Y57682000D01*
X40999000Y55602000D02*
X40999000Y55199000D01*
X40959000Y58025000D02*
X40959000Y57682000D01*
X40959000Y55602000D02*
X40959000Y55259000D01*
X40919000Y57961000D02*
X40919000Y57682000D01*
X40919000Y55602000D02*
X40919000Y55323000D01*
X40879000Y57893000D02*
X40879000Y57682000D01*
X40879000Y55602000D02*
X40879000Y55391000D01*
X40839000Y57820000D02*
X40839000Y55464000D01*
X40799000Y57740000D02*
X40799000Y55544000D01*
X40759000Y57653000D02*
X40759000Y55631000D01*
X40719000Y57557000D02*
X40719000Y55727000D01*
X40679000Y57447000D02*
X40679000Y55837000D01*
X40639000Y57319000D02*
X40639000Y55965000D01*
X40599000Y57160000D02*
X40599000Y56124000D01*
X40559000Y56926000D02*
X40559000Y56358000D01*
X45964775Y58117000D02*
X45464775Y58117000D01*
X45714775Y58367000D02*
X45714775Y57867000D01*
%TO.C,LED+*%
D12*
X30755619Y46236095D02*
X30755619Y45759904D01*
X31755619Y45759904D01*
X31279428Y46569428D02*
X31279428Y46902761D01*
X30755619Y47045619D02*
X30755619Y46569428D01*
X31755619Y46569428D01*
X31755619Y47045619D01*
X30755619Y47474190D02*
X31755619Y47474190D01*
X31755619Y47712285D01*
X31708000Y47855142D01*
X31612761Y47950380D01*
X31517523Y47998000D01*
X31327047Y48045619D01*
X31184190Y48045619D01*
X30993714Y47998000D01*
X30898476Y47950380D01*
X30803238Y47855142D01*
X30755619Y47712285D01*
X30755619Y47474190D01*
X31136571Y48474190D02*
X31136571Y49236095D01*
X30755619Y48855142D02*
X31517523Y48855142D01*
%TO.C,LED-*%
X24362380Y48759904D02*
X24362380Y49236095D01*
X23362380Y49236095D01*
X23838571Y48426571D02*
X23838571Y48093238D01*
X24362380Y47950380D02*
X24362380Y48426571D01*
X23362380Y48426571D01*
X23362380Y47950380D01*
X24362380Y47521809D02*
X23362380Y47521809D01*
X23362380Y47283714D01*
X23410000Y47140857D01*
X23505238Y47045619D01*
X23600476Y46998000D01*
X23790952Y46950380D01*
X23933809Y46950380D01*
X24124285Y46998000D01*
X24219523Y47045619D01*
X24314761Y47140857D01*
X24362380Y47283714D01*
X24362380Y47521809D01*
X23981428Y46521809D02*
X23981428Y45759904D01*
%TO.C,VOL1*%
X15868380Y52738095D02*
X16868380Y52404761D01*
X15868380Y52071428D01*
X15868380Y51547619D02*
X15868380Y51357142D01*
X15916000Y51261904D01*
X16011238Y51166666D01*
X16201714Y51119047D01*
X16535047Y51119047D01*
X16725523Y51166666D01*
X16820761Y51261904D01*
X16868380Y51357142D01*
X16868380Y51547619D01*
X16820761Y51642857D01*
X16725523Y51738095D01*
X16535047Y51785714D01*
X16201714Y51785714D01*
X16011238Y51738095D01*
X15916000Y51642857D01*
X15868380Y51547619D01*
X16868380Y50214285D02*
X16868380Y50690476D01*
X15868380Y50690476D01*
X16868380Y49357142D02*
X16868380Y49928571D01*
X16868380Y49642857D02*
X15868380Y49642857D01*
X16011238Y49738095D01*
X16106476Y49833333D01*
X16154095Y49928571D01*
%TO.C,U3*%
X30733904Y19823619D02*
X30733904Y19014095D01*
X30686285Y18918857D01*
X30638666Y18871238D01*
X30543428Y18823619D01*
X30352952Y18823619D01*
X30257714Y18871238D01*
X30210095Y18918857D01*
X30162476Y19014095D01*
X30162476Y19823619D01*
X29781523Y19823619D02*
X29162476Y19823619D01*
X29495809Y19442666D01*
X29352952Y19442666D01*
X29257714Y19395047D01*
X29210095Y19347428D01*
X29162476Y19252190D01*
X29162476Y19014095D01*
X29210095Y18918857D01*
X29257714Y18871238D01*
X29352952Y18823619D01*
X29638666Y18823619D01*
X29733904Y18871238D01*
X29781523Y18918857D01*
%TO.C,U2*%
X51014380Y32765904D02*
X51823904Y32765904D01*
X51919142Y32718285D01*
X51966761Y32670666D01*
X52014380Y32575428D01*
X52014380Y32384952D01*
X51966761Y32289714D01*
X51919142Y32242095D01*
X51823904Y32194476D01*
X51014380Y32194476D01*
X51109619Y31765904D02*
X51062000Y31718285D01*
X51014380Y31623047D01*
X51014380Y31384952D01*
X51062000Y31289714D01*
X51109619Y31242095D01*
X51204857Y31194476D01*
X51300095Y31194476D01*
X51442952Y31242095D01*
X52014380Y31813523D01*
X52014380Y31194476D01*
%TO.C,U1*%
X27112904Y43952619D02*
X27112904Y43143095D01*
X27065285Y43047857D01*
X27017666Y43000238D01*
X26922428Y42952619D01*
X26731952Y42952619D01*
X26636714Y43000238D01*
X26589095Y43047857D01*
X26541476Y43143095D01*
X26541476Y43952619D01*
X25541476Y42952619D02*
X26112904Y42952619D01*
X25827190Y42952619D02*
X25827190Y43952619D01*
X25922428Y43809761D01*
X26017666Y43714523D01*
X26112904Y43666904D01*
%TO.C,R19*%
X15946380Y19184857D02*
X15470190Y19518190D01*
X15946380Y19756285D02*
X14946380Y19756285D01*
X14946380Y19375333D01*
X14994000Y19280095D01*
X15041619Y19232476D01*
X15136857Y19184857D01*
X15279714Y19184857D01*
X15374952Y19232476D01*
X15422571Y19280095D01*
X15470190Y19375333D01*
X15470190Y19756285D01*
X15946380Y18232476D02*
X15946380Y18803904D01*
X15946380Y18518190D02*
X14946380Y18518190D01*
X15089238Y18613428D01*
X15184476Y18708666D01*
X15232095Y18803904D01*
X15946380Y17756285D02*
X15946380Y17565809D01*
X15898761Y17470571D01*
X15851142Y17422952D01*
X15708285Y17327714D01*
X15517809Y17280095D01*
X15136857Y17280095D01*
X15041619Y17327714D01*
X14994000Y17375333D01*
X14946380Y17470571D01*
X14946380Y17661047D01*
X14994000Y17756285D01*
X15041619Y17803904D01*
X15136857Y17851523D01*
X15374952Y17851523D01*
X15470190Y17803904D01*
X15517809Y17756285D01*
X15565428Y17661047D01*
X15565428Y17470571D01*
X15517809Y17375333D01*
X15470190Y17327714D01*
X15374952Y17280095D01*
%TO.C,R18*%
X16644857Y9707619D02*
X16978190Y10183809D01*
X17216285Y9707619D02*
X17216285Y10707619D01*
X16835333Y10707619D01*
X16740095Y10660000D01*
X16692476Y10612380D01*
X16644857Y10517142D01*
X16644857Y10374285D01*
X16692476Y10279047D01*
X16740095Y10231428D01*
X16835333Y10183809D01*
X17216285Y10183809D01*
X15692476Y9707619D02*
X16263904Y9707619D01*
X15978190Y9707619D02*
X15978190Y10707619D01*
X16073428Y10564761D01*
X16168666Y10469523D01*
X16263904Y10421904D01*
X15121047Y10279047D02*
X15216285Y10326666D01*
X15263904Y10374285D01*
X15311523Y10469523D01*
X15311523Y10517142D01*
X15263904Y10612380D01*
X15216285Y10660000D01*
X15121047Y10707619D01*
X14930571Y10707619D01*
X14835333Y10660000D01*
X14787714Y10612380D01*
X14740095Y10517142D01*
X14740095Y10469523D01*
X14787714Y10374285D01*
X14835333Y10326666D01*
X14930571Y10279047D01*
X15121047Y10279047D01*
X15216285Y10231428D01*
X15263904Y10183809D01*
X15311523Y10088571D01*
X15311523Y9898095D01*
X15263904Y9802857D01*
X15216285Y9755238D01*
X15121047Y9707619D01*
X14930571Y9707619D01*
X14835333Y9755238D01*
X14787714Y9802857D01*
X14740095Y9898095D01*
X14740095Y10088571D01*
X14787714Y10183809D01*
X14835333Y10231428D01*
X14930571Y10279047D01*
%TO.C,R17*%
X20454857Y34853619D02*
X20788190Y35329809D01*
X21026285Y34853619D02*
X21026285Y35853619D01*
X20645333Y35853619D01*
X20550095Y35806000D01*
X20502476Y35758380D01*
X20454857Y35663142D01*
X20454857Y35520285D01*
X20502476Y35425047D01*
X20550095Y35377428D01*
X20645333Y35329809D01*
X21026285Y35329809D01*
X19502476Y34853619D02*
X20073904Y34853619D01*
X19788190Y34853619D02*
X19788190Y35853619D01*
X19883428Y35710761D01*
X19978666Y35615523D01*
X20073904Y35567904D01*
X19169142Y35853619D02*
X18502476Y35853619D01*
X18931047Y34853619D01*
%TO.C,R16*%
X16644857Y6659619D02*
X16978190Y7135809D01*
X17216285Y6659619D02*
X17216285Y7659619D01*
X16835333Y7659619D01*
X16740095Y7612000D01*
X16692476Y7564380D01*
X16644857Y7469142D01*
X16644857Y7326285D01*
X16692476Y7231047D01*
X16740095Y7183428D01*
X16835333Y7135809D01*
X17216285Y7135809D01*
X15692476Y6659619D02*
X16263904Y6659619D01*
X15978190Y6659619D02*
X15978190Y7659619D01*
X16073428Y7516761D01*
X16168666Y7421523D01*
X16263904Y7373904D01*
X14835333Y7659619D02*
X15025809Y7659619D01*
X15121047Y7612000D01*
X15168666Y7564380D01*
X15263904Y7421523D01*
X15311523Y7231047D01*
X15311523Y6850095D01*
X15263904Y6754857D01*
X15216285Y6707238D01*
X15121047Y6659619D01*
X14930571Y6659619D01*
X14835333Y6707238D01*
X14787714Y6754857D01*
X14740095Y6850095D01*
X14740095Y7088190D01*
X14787714Y7183428D01*
X14835333Y7231047D01*
X14930571Y7278666D01*
X15121047Y7278666D01*
X15216285Y7231047D01*
X15263904Y7183428D01*
X15311523Y7088190D01*
%TO.C,R15*%
X10866380Y13342857D02*
X10390190Y13676190D01*
X10866380Y13914285D02*
X9866380Y13914285D01*
X9866380Y13533333D01*
X9914000Y13438095D01*
X9961619Y13390476D01*
X10056857Y13342857D01*
X10199714Y13342857D01*
X10294952Y13390476D01*
X10342571Y13438095D01*
X10390190Y13533333D01*
X10390190Y13914285D01*
X10866380Y12390476D02*
X10866380Y12961904D01*
X10866380Y12676190D02*
X9866380Y12676190D01*
X10009238Y12771428D01*
X10104476Y12866666D01*
X10152095Y12961904D01*
X9866380Y11485714D02*
X9866380Y11961904D01*
X10342571Y12009523D01*
X10294952Y11961904D01*
X10247333Y11866666D01*
X10247333Y11628571D01*
X10294952Y11533333D01*
X10342571Y11485714D01*
X10437809Y11438095D01*
X10675904Y11438095D01*
X10771142Y11485714D01*
X10818761Y11533333D01*
X10866380Y11628571D01*
X10866380Y11866666D01*
X10818761Y11961904D01*
X10771142Y12009523D01*
%TO.C,R13*%
X5786380Y13342857D02*
X5310190Y13676190D01*
X5786380Y13914285D02*
X4786380Y13914285D01*
X4786380Y13533333D01*
X4834000Y13438095D01*
X4881619Y13390476D01*
X4976857Y13342857D01*
X5119714Y13342857D01*
X5214952Y13390476D01*
X5262571Y13438095D01*
X5310190Y13533333D01*
X5310190Y13914285D01*
X5786380Y12390476D02*
X5786380Y12961904D01*
X5786380Y12676190D02*
X4786380Y12676190D01*
X4929238Y12771428D01*
X5024476Y12866666D01*
X5072095Y12961904D01*
X4786380Y12057142D02*
X4786380Y11438095D01*
X5167333Y11771428D01*
X5167333Y11628571D01*
X5214952Y11533333D01*
X5262571Y11485714D01*
X5357809Y11438095D01*
X5595904Y11438095D01*
X5691142Y11485714D01*
X5738761Y11533333D01*
X5786380Y11628571D01*
X5786380Y11914285D01*
X5738761Y12009523D01*
X5691142Y12057142D01*
%TO.C,R11*%
X13068380Y29344857D02*
X12592190Y29678190D01*
X13068380Y29916285D02*
X12068380Y29916285D01*
X12068380Y29535333D01*
X12116000Y29440095D01*
X12163619Y29392476D01*
X12258857Y29344857D01*
X12401714Y29344857D01*
X12496952Y29392476D01*
X12544571Y29440095D01*
X12592190Y29535333D01*
X12592190Y29916285D01*
X13068380Y28392476D02*
X13068380Y28963904D01*
X13068380Y28678190D02*
X12068380Y28678190D01*
X12211238Y28773428D01*
X12306476Y28868666D01*
X12354095Y28963904D01*
X13068380Y27440095D02*
X13068380Y28011523D01*
X13068380Y27725809D02*
X12068380Y27725809D01*
X12211238Y27821047D01*
X12306476Y27916285D01*
X12354095Y28011523D01*
%TO.C,R10*%
X20814380Y21786357D02*
X20338190Y22119690D01*
X20814380Y22357785D02*
X19814380Y22357785D01*
X19814380Y21976833D01*
X19862000Y21881595D01*
X19909619Y21833976D01*
X20004857Y21786357D01*
X20147714Y21786357D01*
X20242952Y21833976D01*
X20290571Y21881595D01*
X20338190Y21976833D01*
X20338190Y22357785D01*
X20814380Y20833976D02*
X20814380Y21405404D01*
X20814380Y21119690D02*
X19814380Y21119690D01*
X19957238Y21214928D01*
X20052476Y21310166D01*
X20100095Y21405404D01*
X19814380Y20214928D02*
X19814380Y20119690D01*
X19862000Y20024452D01*
X19909619Y19976833D01*
X20004857Y19929214D01*
X20195333Y19881595D01*
X20433428Y19881595D01*
X20623904Y19929214D01*
X20719142Y19976833D01*
X20766761Y20024452D01*
X20814380Y20119690D01*
X20814380Y20214928D01*
X20766761Y20310166D01*
X20719142Y20357785D01*
X20623904Y20405404D01*
X20433428Y20453023D01*
X20195333Y20453023D01*
X20004857Y20405404D01*
X19909619Y20357785D01*
X19862000Y20310166D01*
X19814380Y20214928D01*
%TO.C,R8*%
X38012666Y38663619D02*
X38346000Y39139809D01*
X38584095Y38663619D02*
X38584095Y39663619D01*
X38203142Y39663619D01*
X38107904Y39616000D01*
X38060285Y39568380D01*
X38012666Y39473142D01*
X38012666Y39330285D01*
X38060285Y39235047D01*
X38107904Y39187428D01*
X38203142Y39139809D01*
X38584095Y39139809D01*
X37441238Y39235047D02*
X37536476Y39282666D01*
X37584095Y39330285D01*
X37631714Y39425523D01*
X37631714Y39473142D01*
X37584095Y39568380D01*
X37536476Y39616000D01*
X37441238Y39663619D01*
X37250761Y39663619D01*
X37155523Y39616000D01*
X37107904Y39568380D01*
X37060285Y39473142D01*
X37060285Y39425523D01*
X37107904Y39330285D01*
X37155523Y39282666D01*
X37250761Y39235047D01*
X37441238Y39235047D01*
X37536476Y39187428D01*
X37584095Y39139809D01*
X37631714Y39044571D01*
X37631714Y38854095D01*
X37584095Y38758857D01*
X37536476Y38711238D01*
X37441238Y38663619D01*
X37250761Y38663619D01*
X37155523Y38711238D01*
X37107904Y38758857D01*
X37060285Y38854095D01*
X37060285Y39044571D01*
X37107904Y39139809D01*
X37155523Y39187428D01*
X37250761Y39235047D01*
%TO.C,R7*%
X47780380Y44870666D02*
X47304190Y45204000D01*
X47780380Y45442095D02*
X46780380Y45442095D01*
X46780380Y45061142D01*
X46828000Y44965904D01*
X46875619Y44918285D01*
X46970857Y44870666D01*
X47113714Y44870666D01*
X47208952Y44918285D01*
X47256571Y44965904D01*
X47304190Y45061142D01*
X47304190Y45442095D01*
X46780380Y44537333D02*
X46780380Y43870666D01*
X47780380Y44299238D01*
%TO.C,R5*%
X38520666Y49585619D02*
X38854000Y50061809D01*
X39092095Y49585619D02*
X39092095Y50585619D01*
X38711142Y50585619D01*
X38615904Y50538000D01*
X38568285Y50490380D01*
X38520666Y50395142D01*
X38520666Y50252285D01*
X38568285Y50157047D01*
X38615904Y50109428D01*
X38711142Y50061809D01*
X39092095Y50061809D01*
X37615904Y50585619D02*
X38092095Y50585619D01*
X38139714Y50109428D01*
X38092095Y50157047D01*
X37996857Y50204666D01*
X37758761Y50204666D01*
X37663523Y50157047D01*
X37615904Y50109428D01*
X37568285Y50014190D01*
X37568285Y49776095D01*
X37615904Y49680857D01*
X37663523Y49633238D01*
X37758761Y49585619D01*
X37996857Y49585619D01*
X38092095Y49633238D01*
X38139714Y49680857D01*
%TO.C,R4*%
X34202666Y38663619D02*
X34536000Y39139809D01*
X34774095Y38663619D02*
X34774095Y39663619D01*
X34393142Y39663619D01*
X34297904Y39616000D01*
X34250285Y39568380D01*
X34202666Y39473142D01*
X34202666Y39330285D01*
X34250285Y39235047D01*
X34297904Y39187428D01*
X34393142Y39139809D01*
X34774095Y39139809D01*
X33345523Y39330285D02*
X33345523Y38663619D01*
X33583619Y39711238D02*
X33821714Y38996952D01*
X33202666Y38996952D01*
%TO.C,R3*%
X45114380Y52429166D02*
X44638190Y52762500D01*
X45114380Y53000595D02*
X44114380Y53000595D01*
X44114380Y52619642D01*
X44162000Y52524404D01*
X44209619Y52476785D01*
X44304857Y52429166D01*
X44447714Y52429166D01*
X44542952Y52476785D01*
X44590571Y52524404D01*
X44638190Y52619642D01*
X44638190Y53000595D01*
X44114380Y52095833D02*
X44114380Y51476785D01*
X44495333Y51810119D01*
X44495333Y51667261D01*
X44542952Y51572023D01*
X44590571Y51524404D01*
X44685809Y51476785D01*
X44923904Y51476785D01*
X45019142Y51524404D01*
X45066761Y51572023D01*
X45114380Y51667261D01*
X45114380Y51952976D01*
X45066761Y52048214D01*
X45019142Y52095833D01*
%TO.C,R2*%
X51159166Y48527619D02*
X51492500Y49003809D01*
X51730595Y48527619D02*
X51730595Y49527619D01*
X51349642Y49527619D01*
X51254404Y49480000D01*
X51206785Y49432380D01*
X51159166Y49337142D01*
X51159166Y49194285D01*
X51206785Y49099047D01*
X51254404Y49051428D01*
X51349642Y49003809D01*
X51730595Y49003809D01*
X50778214Y49432380D02*
X50730595Y49480000D01*
X50635357Y49527619D01*
X50397261Y49527619D01*
X50302023Y49480000D01*
X50254404Y49432380D01*
X50206785Y49337142D01*
X50206785Y49241904D01*
X50254404Y49099047D01*
X50825833Y48527619D01*
X50206785Y48527619D01*
%TO.C,R1*%
X39028666Y54157619D02*
X39362000Y54633809D01*
X39600095Y54157619D02*
X39600095Y55157619D01*
X39219142Y55157619D01*
X39123904Y55110000D01*
X39076285Y55062380D01*
X39028666Y54967142D01*
X39028666Y54824285D01*
X39076285Y54729047D01*
X39123904Y54681428D01*
X39219142Y54633809D01*
X39600095Y54633809D01*
X38076285Y54157619D02*
X38647714Y54157619D01*
X38362000Y54157619D02*
X38362000Y55157619D01*
X38457238Y55014761D01*
X38552476Y54919523D01*
X38647714Y54871904D01*
%TO.C,LED1*%
X18889047Y56427619D02*
X19365238Y56427619D01*
X19365238Y57427619D01*
X18555714Y56951428D02*
X18222380Y56951428D01*
X18079523Y56427619D02*
X18555714Y56427619D01*
X18555714Y57427619D01*
X18079523Y57427619D01*
X17650952Y56427619D02*
X17650952Y57427619D01*
X17412857Y57427619D01*
X17270000Y57380000D01*
X17174761Y57284761D01*
X17127142Y57189523D01*
X17079523Y56999047D01*
X17079523Y56856190D01*
X17127142Y56665714D01*
X17174761Y56570476D01*
X17270000Y56475238D01*
X17412857Y56427619D01*
X17650952Y56427619D01*
X16127142Y56427619D02*
X16698571Y56427619D01*
X16412857Y56427619D02*
X16412857Y57427619D01*
X16508095Y57284761D01*
X16603333Y57189523D01*
X16698571Y57141904D01*
%TO.C,J4*%
X53165333Y18581619D02*
X53165333Y17867333D01*
X53212952Y17724476D01*
X53308190Y17629238D01*
X53451047Y17581619D01*
X53546285Y17581619D01*
X52260571Y18248285D02*
X52260571Y17581619D01*
X52498666Y18629238D02*
X52736761Y17914952D01*
X52117714Y17914952D01*
%TO.C,J3*%
X35639333Y16085619D02*
X35639333Y15371333D01*
X35686952Y15228476D01*
X35782190Y15133238D01*
X35925047Y15085619D01*
X36020285Y15085619D01*
X35258380Y16085619D02*
X34639333Y16085619D01*
X34972666Y15704666D01*
X34829809Y15704666D01*
X34734571Y15657047D01*
X34686952Y15609428D01*
X34639333Y15514190D01*
X34639333Y15276095D01*
X34686952Y15180857D01*
X34734571Y15133238D01*
X34829809Y15085619D01*
X35115523Y15085619D01*
X35210761Y15133238D01*
X35258380Y15180857D01*
%TO.C,J2*%
X46442380Y24209333D02*
X47156666Y24209333D01*
X47299523Y24256952D01*
X47394761Y24352190D01*
X47442380Y24495047D01*
X47442380Y24590285D01*
X46537619Y23780761D02*
X46490000Y23733142D01*
X46442380Y23637904D01*
X46442380Y23399809D01*
X46490000Y23304571D01*
X46537619Y23256952D01*
X46632857Y23209333D01*
X46728095Y23209333D01*
X46870952Y23256952D01*
X47442380Y23828380D01*
X47442380Y23209333D01*
%TO.C,J1*%
X23193333Y57697619D02*
X23193333Y56983333D01*
X23240952Y56840476D01*
X23336190Y56745238D01*
X23479047Y56697619D01*
X23574285Y56697619D01*
X22193333Y56697619D02*
X22764761Y56697619D01*
X22479047Y56697619D02*
X22479047Y57697619D01*
X22574285Y57554761D01*
X22669523Y57459523D01*
X22764761Y57411904D01*
%TO.C,GND1*%
X38008095Y57380000D02*
X38103333Y57427619D01*
X38246190Y57427619D01*
X38389047Y57380000D01*
X38484285Y57284761D01*
X38531904Y57189523D01*
X38579523Y56999047D01*
X38579523Y56856190D01*
X38531904Y56665714D01*
X38484285Y56570476D01*
X38389047Y56475238D01*
X38246190Y56427619D01*
X38150952Y56427619D01*
X38008095Y56475238D01*
X37960476Y56522857D01*
X37960476Y56856190D01*
X38150952Y56856190D01*
X37531904Y56427619D02*
X37531904Y57427619D01*
X36960476Y56427619D01*
X36960476Y57427619D01*
X36484285Y56427619D02*
X36484285Y57427619D01*
X36246190Y57427619D01*
X36103333Y57380000D01*
X36008095Y57284761D01*
X35960476Y57189523D01*
X35912857Y56999047D01*
X35912857Y56856190D01*
X35960476Y56665714D01*
X36008095Y56570476D01*
X36103333Y56475238D01*
X36246190Y56427619D01*
X36484285Y56427619D01*
X34960476Y56427619D02*
X35531904Y56427619D01*
X35246190Y56427619D02*
X35246190Y57427619D01*
X35341428Y57284761D01*
X35436666Y57189523D01*
X35531904Y57141904D01*
%TO.C,D3*%
X48966380Y13438095D02*
X47966380Y13438095D01*
X47966380Y13200000D01*
X48014000Y13057142D01*
X48109238Y12961904D01*
X48204476Y12914285D01*
X48394952Y12866666D01*
X48537809Y12866666D01*
X48728285Y12914285D01*
X48823523Y12961904D01*
X48918761Y13057142D01*
X48966380Y13200000D01*
X48966380Y13438095D01*
X47966380Y12533333D02*
X47966380Y11914285D01*
X48347333Y12247619D01*
X48347333Y12104761D01*
X48394952Y12009523D01*
X48442571Y11961904D01*
X48537809Y11914285D01*
X48775904Y11914285D01*
X48871142Y11961904D01*
X48918761Y12009523D01*
X48966380Y12104761D01*
X48966380Y12390476D01*
X48918761Y12485714D01*
X48871142Y12533333D01*
%TO.C,D2*%
X50998380Y26900095D02*
X49998380Y26900095D01*
X49998380Y26662000D01*
X50046000Y26519142D01*
X50141238Y26423904D01*
X50236476Y26376285D01*
X50426952Y26328666D01*
X50569809Y26328666D01*
X50760285Y26376285D01*
X50855523Y26423904D01*
X50950761Y26519142D01*
X50998380Y26662000D01*
X50998380Y26900095D01*
X50093619Y25947714D02*
X50046000Y25900095D01*
X49998380Y25804857D01*
X49998380Y25566761D01*
X50046000Y25471523D01*
X50093619Y25423904D01*
X50188857Y25376285D01*
X50284095Y25376285D01*
X50426952Y25423904D01*
X50998380Y25995333D01*
X50998380Y25376285D01*
X54830380Y20835904D02*
X53830380Y20835904D01*
X54830380Y20264476D02*
X54258952Y20693047D01*
X53830380Y20264476D02*
X54401809Y20835904D01*
%TO.C,D1*%
X48236095Y59053619D02*
X48236095Y60053619D01*
X47998000Y60053619D01*
X47855142Y60006000D01*
X47759904Y59910761D01*
X47712285Y59815523D01*
X47664666Y59625047D01*
X47664666Y59482190D01*
X47712285Y59291714D01*
X47759904Y59196476D01*
X47855142Y59101238D01*
X47998000Y59053619D01*
X48236095Y59053619D01*
X46712285Y59053619D02*
X47283714Y59053619D01*
X46998000Y59053619D02*
X46998000Y60053619D01*
X47093238Y59910761D01*
X47188476Y59815523D01*
X47283714Y59767904D01*
X40647904Y61015619D02*
X40647904Y62015619D01*
X40076476Y61015619D02*
X40505047Y61587047D01*
X40076476Y62015619D02*
X40647904Y61444190D01*
%TO.C,C23*%
X8008857Y21740857D02*
X8056476Y21693238D01*
X8199333Y21645619D01*
X8294571Y21645619D01*
X8437428Y21693238D01*
X8532666Y21788476D01*
X8580285Y21883714D01*
X8627904Y22074190D01*
X8627904Y22217047D01*
X8580285Y22407523D01*
X8532666Y22502761D01*
X8437428Y22598000D01*
X8294571Y22645619D01*
X8199333Y22645619D01*
X8056476Y22598000D01*
X8008857Y22550380D01*
X7627904Y22550380D02*
X7580285Y22598000D01*
X7485047Y22645619D01*
X7246952Y22645619D01*
X7151714Y22598000D01*
X7104095Y22550380D01*
X7056476Y22455142D01*
X7056476Y22359904D01*
X7104095Y22217047D01*
X7675523Y21645619D01*
X7056476Y21645619D01*
X6723142Y22645619D02*
X6104095Y22645619D01*
X6437428Y22264666D01*
X6294571Y22264666D01*
X6199333Y22217047D01*
X6151714Y22169428D01*
X6104095Y22074190D01*
X6104095Y21836095D01*
X6151714Y21740857D01*
X6199333Y21693238D01*
X6294571Y21645619D01*
X6580285Y21645619D01*
X6675523Y21693238D01*
X6723142Y21740857D01*
%TO.C,C22*%
X21216857Y32916857D02*
X21264476Y32869238D01*
X21407333Y32821619D01*
X21502571Y32821619D01*
X21645428Y32869238D01*
X21740666Y32964476D01*
X21788285Y33059714D01*
X21835904Y33250190D01*
X21835904Y33393047D01*
X21788285Y33583523D01*
X21740666Y33678761D01*
X21645428Y33774000D01*
X21502571Y33821619D01*
X21407333Y33821619D01*
X21264476Y33774000D01*
X21216857Y33726380D01*
X20835904Y33726380D02*
X20788285Y33774000D01*
X20693047Y33821619D01*
X20454952Y33821619D01*
X20359714Y33774000D01*
X20312095Y33726380D01*
X20264476Y33631142D01*
X20264476Y33535904D01*
X20312095Y33393047D01*
X20883523Y32821619D01*
X20264476Y32821619D01*
X19883523Y33726380D02*
X19835904Y33774000D01*
X19740666Y33821619D01*
X19502571Y33821619D01*
X19407333Y33774000D01*
X19359714Y33726380D01*
X19312095Y33631142D01*
X19312095Y33535904D01*
X19359714Y33393047D01*
X19931142Y32821619D01*
X19312095Y32821619D01*
%TO.C,C21*%
X15628857Y2690857D02*
X15676476Y2643238D01*
X15819333Y2595619D01*
X15914571Y2595619D01*
X16057428Y2643238D01*
X16152666Y2738476D01*
X16200285Y2833714D01*
X16247904Y3024190D01*
X16247904Y3167047D01*
X16200285Y3357523D01*
X16152666Y3452761D01*
X16057428Y3548000D01*
X15914571Y3595619D01*
X15819333Y3595619D01*
X15676476Y3548000D01*
X15628857Y3500380D01*
X15247904Y3500380D02*
X15200285Y3548000D01*
X15105047Y3595619D01*
X14866952Y3595619D01*
X14771714Y3548000D01*
X14724095Y3500380D01*
X14676476Y3405142D01*
X14676476Y3309904D01*
X14724095Y3167047D01*
X15295523Y2595619D01*
X14676476Y2595619D01*
X13724095Y2595619D02*
X14295523Y2595619D01*
X14009809Y2595619D02*
X14009809Y3595619D01*
X14105047Y3452761D01*
X14200285Y3357523D01*
X14295523Y3309904D01*
%TO.C,C20*%
X27566857Y32916857D02*
X27614476Y32869238D01*
X27757333Y32821619D01*
X27852571Y32821619D01*
X27995428Y32869238D01*
X28090666Y32964476D01*
X28138285Y33059714D01*
X28185904Y33250190D01*
X28185904Y33393047D01*
X28138285Y33583523D01*
X28090666Y33678761D01*
X27995428Y33774000D01*
X27852571Y33821619D01*
X27757333Y33821619D01*
X27614476Y33774000D01*
X27566857Y33726380D01*
X27185904Y33726380D02*
X27138285Y33774000D01*
X27043047Y33821619D01*
X26804952Y33821619D01*
X26709714Y33774000D01*
X26662095Y33726380D01*
X26614476Y33631142D01*
X26614476Y33535904D01*
X26662095Y33393047D01*
X27233523Y32821619D01*
X26614476Y32821619D01*
X25995428Y33821619D02*
X25900190Y33821619D01*
X25804952Y33774000D01*
X25757333Y33726380D01*
X25709714Y33631142D01*
X25662095Y33440666D01*
X25662095Y33202571D01*
X25709714Y33012095D01*
X25757333Y32916857D01*
X25804952Y32869238D01*
X25900190Y32821619D01*
X25995428Y32821619D01*
X26090666Y32869238D01*
X26138285Y32916857D01*
X26185904Y33012095D01*
X26233523Y33202571D01*
X26233523Y33440666D01*
X26185904Y33631142D01*
X26138285Y33726380D01*
X26090666Y33774000D01*
X25995428Y33821619D01*
%TO.C,C19*%
X2487142Y8196857D02*
X2534761Y8244476D01*
X2582380Y8387333D01*
X2582380Y8482571D01*
X2534761Y8625428D01*
X2439523Y8720666D01*
X2344285Y8768285D01*
X2153809Y8815904D01*
X2010952Y8815904D01*
X1820476Y8768285D01*
X1725238Y8720666D01*
X1630000Y8625428D01*
X1582380Y8482571D01*
X1582380Y8387333D01*
X1630000Y8244476D01*
X1677619Y8196857D01*
X2582380Y7244476D02*
X2582380Y7815904D01*
X2582380Y7530190D02*
X1582380Y7530190D01*
X1725238Y7625428D01*
X1820476Y7720666D01*
X1868095Y7815904D01*
X2582380Y6768285D02*
X2582380Y6577809D01*
X2534761Y6482571D01*
X2487142Y6434952D01*
X2344285Y6339714D01*
X2153809Y6292095D01*
X1772857Y6292095D01*
X1677619Y6339714D01*
X1630000Y6387333D01*
X1582380Y6482571D01*
X1582380Y6673047D01*
X1630000Y6768285D01*
X1677619Y6815904D01*
X1772857Y6863523D01*
X2010952Y6863523D01*
X2106190Y6815904D01*
X2153809Y6768285D01*
X2201428Y6673047D01*
X2201428Y6482571D01*
X2153809Y6387333D01*
X2106190Y6339714D01*
X2010952Y6292095D01*
%TO.C,C18*%
X34424857Y5992857D02*
X34472476Y5945238D01*
X34615333Y5897619D01*
X34710571Y5897619D01*
X34853428Y5945238D01*
X34948666Y6040476D01*
X34996285Y6135714D01*
X35043904Y6326190D01*
X35043904Y6469047D01*
X34996285Y6659523D01*
X34948666Y6754761D01*
X34853428Y6850000D01*
X34710571Y6897619D01*
X34615333Y6897619D01*
X34472476Y6850000D01*
X34424857Y6802380D01*
X33472476Y5897619D02*
X34043904Y5897619D01*
X33758190Y5897619D02*
X33758190Y6897619D01*
X33853428Y6754761D01*
X33948666Y6659523D01*
X34043904Y6611904D01*
X32901047Y6469047D02*
X32996285Y6516666D01*
X33043904Y6564285D01*
X33091523Y6659523D01*
X33091523Y6707142D01*
X33043904Y6802380D01*
X32996285Y6850000D01*
X32901047Y6897619D01*
X32710571Y6897619D01*
X32615333Y6850000D01*
X32567714Y6802380D01*
X32520095Y6707142D01*
X32520095Y6659523D01*
X32567714Y6564285D01*
X32615333Y6516666D01*
X32710571Y6469047D01*
X32901047Y6469047D01*
X32996285Y6421428D01*
X33043904Y6373809D01*
X33091523Y6278571D01*
X33091523Y6088095D01*
X33043904Y5992857D01*
X32996285Y5945238D01*
X32901047Y5897619D01*
X32710571Y5897619D01*
X32615333Y5945238D01*
X32567714Y5992857D01*
X32520095Y6088095D01*
X32520095Y6278571D01*
X32567714Y6373809D01*
X32615333Y6421428D01*
X32710571Y6469047D01*
%TO.C,C17*%
X17914857Y15644857D02*
X17962476Y15597238D01*
X18105333Y15549619D01*
X18200571Y15549619D01*
X18343428Y15597238D01*
X18438666Y15692476D01*
X18486285Y15787714D01*
X18533904Y15978190D01*
X18533904Y16121047D01*
X18486285Y16311523D01*
X18438666Y16406761D01*
X18343428Y16502000D01*
X18200571Y16549619D01*
X18105333Y16549619D01*
X17962476Y16502000D01*
X17914857Y16454380D01*
X16962476Y15549619D02*
X17533904Y15549619D01*
X17248190Y15549619D02*
X17248190Y16549619D01*
X17343428Y16406761D01*
X17438666Y16311523D01*
X17533904Y16263904D01*
X16629142Y16549619D02*
X15962476Y16549619D01*
X16391047Y15549619D01*
%TO.C,C16*%
X34424857Y2690857D02*
X34472476Y2643238D01*
X34615333Y2595619D01*
X34710571Y2595619D01*
X34853428Y2643238D01*
X34948666Y2738476D01*
X34996285Y2833714D01*
X35043904Y3024190D01*
X35043904Y3167047D01*
X34996285Y3357523D01*
X34948666Y3452761D01*
X34853428Y3548000D01*
X34710571Y3595619D01*
X34615333Y3595619D01*
X34472476Y3548000D01*
X34424857Y3500380D01*
X33472476Y2595619D02*
X34043904Y2595619D01*
X33758190Y2595619D02*
X33758190Y3595619D01*
X33853428Y3452761D01*
X33948666Y3357523D01*
X34043904Y3309904D01*
X32615333Y3595619D02*
X32805809Y3595619D01*
X32901047Y3548000D01*
X32948666Y3500380D01*
X33043904Y3357523D01*
X33091523Y3167047D01*
X33091523Y2786095D01*
X33043904Y2690857D01*
X32996285Y2643238D01*
X32901047Y2595619D01*
X32710571Y2595619D01*
X32615333Y2643238D01*
X32567714Y2690857D01*
X32520095Y2786095D01*
X32520095Y3024190D01*
X32567714Y3119428D01*
X32615333Y3167047D01*
X32710571Y3214666D01*
X32901047Y3214666D01*
X32996285Y3167047D01*
X33043904Y3119428D01*
X33091523Y3024190D01*
%TO.C,C15*%
X17660857Y12850857D02*
X17708476Y12803238D01*
X17851333Y12755619D01*
X17946571Y12755619D01*
X18089428Y12803238D01*
X18184666Y12898476D01*
X18232285Y12993714D01*
X18279904Y13184190D01*
X18279904Y13327047D01*
X18232285Y13517523D01*
X18184666Y13612761D01*
X18089428Y13708000D01*
X17946571Y13755619D01*
X17851333Y13755619D01*
X17708476Y13708000D01*
X17660857Y13660380D01*
X16708476Y12755619D02*
X17279904Y12755619D01*
X16994190Y12755619D02*
X16994190Y13755619D01*
X17089428Y13612761D01*
X17184666Y13517523D01*
X17279904Y13469904D01*
X15803714Y13755619D02*
X16279904Y13755619D01*
X16327523Y13279428D01*
X16279904Y13327047D01*
X16184666Y13374666D01*
X15946571Y13374666D01*
X15851333Y13327047D01*
X15803714Y13279428D01*
X15756095Y13184190D01*
X15756095Y12946095D01*
X15803714Y12850857D01*
X15851333Y12803238D01*
X15946571Y12755619D01*
X16184666Y12755619D01*
X16279904Y12803238D01*
X16327523Y12850857D01*
%TO.C,C13*%
X34170857Y32916857D02*
X34218476Y32869238D01*
X34361333Y32821619D01*
X34456571Y32821619D01*
X34599428Y32869238D01*
X34694666Y32964476D01*
X34742285Y33059714D01*
X34789904Y33250190D01*
X34789904Y33393047D01*
X34742285Y33583523D01*
X34694666Y33678761D01*
X34599428Y33774000D01*
X34456571Y33821619D01*
X34361333Y33821619D01*
X34218476Y33774000D01*
X34170857Y33726380D01*
X33218476Y32821619D02*
X33789904Y32821619D01*
X33504190Y32821619D02*
X33504190Y33821619D01*
X33599428Y33678761D01*
X33694666Y33583523D01*
X33789904Y33535904D01*
X32885142Y33821619D02*
X32266095Y33821619D01*
X32599428Y33440666D01*
X32456571Y33440666D01*
X32361333Y33393047D01*
X32313714Y33345428D01*
X32266095Y33250190D01*
X32266095Y33012095D01*
X32313714Y32916857D01*
X32361333Y32869238D01*
X32456571Y32821619D01*
X32742285Y32821619D01*
X32837523Y32869238D01*
X32885142Y32916857D01*
%TO.C,C12*%
X8958857Y40184857D02*
X9006476Y40137238D01*
X9149333Y40089619D01*
X9244571Y40089619D01*
X9387428Y40137238D01*
X9482666Y40232476D01*
X9530285Y40327714D01*
X9577904Y40518190D01*
X9577904Y40661047D01*
X9530285Y40851523D01*
X9482666Y40946761D01*
X9387428Y41042000D01*
X9244571Y41089619D01*
X9149333Y41089619D01*
X9006476Y41042000D01*
X8958857Y40994380D01*
X8006476Y40089619D02*
X8577904Y40089619D01*
X8292190Y40089619D02*
X8292190Y41089619D01*
X8387428Y40946761D01*
X8482666Y40851523D01*
X8577904Y40803904D01*
X7625523Y40994380D02*
X7577904Y41042000D01*
X7482666Y41089619D01*
X7244571Y41089619D01*
X7149333Y41042000D01*
X7101714Y40994380D01*
X7054095Y40899142D01*
X7054095Y40803904D01*
X7101714Y40661047D01*
X7673142Y40089619D01*
X7054095Y40089619D01*
%TO.C,C11*%
X39219142Y8008857D02*
X39266761Y8056476D01*
X39314380Y8199333D01*
X39314380Y8294571D01*
X39266761Y8437428D01*
X39171523Y8532666D01*
X39076285Y8580285D01*
X38885809Y8627904D01*
X38742952Y8627904D01*
X38552476Y8580285D01*
X38457238Y8532666D01*
X38362000Y8437428D01*
X38314380Y8294571D01*
X38314380Y8199333D01*
X38362000Y8056476D01*
X38409619Y8008857D01*
X39314380Y7056476D02*
X39314380Y7627904D01*
X39314380Y7342190D02*
X38314380Y7342190D01*
X38457238Y7437428D01*
X38552476Y7532666D01*
X38600095Y7627904D01*
X39314380Y6104095D02*
X39314380Y6675523D01*
X39314380Y6389809D02*
X38314380Y6389809D01*
X38457238Y6485047D01*
X38552476Y6580285D01*
X38600095Y6675523D01*
%TO.C,C10*%
X47093142Y18676857D02*
X47140761Y18724476D01*
X47188380Y18867333D01*
X47188380Y18962571D01*
X47140761Y19105428D01*
X47045523Y19200666D01*
X46950285Y19248285D01*
X46759809Y19295904D01*
X46616952Y19295904D01*
X46426476Y19248285D01*
X46331238Y19200666D01*
X46236000Y19105428D01*
X46188380Y18962571D01*
X46188380Y18867333D01*
X46236000Y18724476D01*
X46283619Y18676857D01*
X47188380Y17724476D02*
X47188380Y18295904D01*
X47188380Y18010190D02*
X46188380Y18010190D01*
X46331238Y18105428D01*
X46426476Y18200666D01*
X46474095Y18295904D01*
X46188380Y17105428D02*
X46188380Y17010190D01*
X46236000Y16914952D01*
X46283619Y16867333D01*
X46378857Y16819714D01*
X46569333Y16772095D01*
X46807428Y16772095D01*
X46997904Y16819714D01*
X47093142Y16867333D01*
X47140761Y16914952D01*
X47188380Y17010190D01*
X47188380Y17105428D01*
X47140761Y17200666D01*
X47093142Y17248285D01*
X46997904Y17295904D01*
X46807428Y17343523D01*
X46569333Y17343523D01*
X46378857Y17295904D01*
X46283619Y17248285D01*
X46236000Y17200666D01*
X46188380Y17105428D01*
%TO.C,C9*%
X42267142Y7786666D02*
X42314761Y7834285D01*
X42362380Y7977142D01*
X42362380Y8072380D01*
X42314761Y8215238D01*
X42219523Y8310476D01*
X42124285Y8358095D01*
X41933809Y8405714D01*
X41790952Y8405714D01*
X41600476Y8358095D01*
X41505238Y8310476D01*
X41410000Y8215238D01*
X41362380Y8072380D01*
X41362380Y7977142D01*
X41410000Y7834285D01*
X41457619Y7786666D01*
X42362380Y7310476D02*
X42362380Y7120000D01*
X42314761Y7024761D01*
X42267142Y6977142D01*
X42124285Y6881904D01*
X41933809Y6834285D01*
X41552857Y6834285D01*
X41457619Y6881904D01*
X41410000Y6929523D01*
X41362380Y7024761D01*
X41362380Y7215238D01*
X41410000Y7310476D01*
X41457619Y7358095D01*
X41552857Y7405714D01*
X41790952Y7405714D01*
X41886190Y7358095D01*
X41933809Y7310476D01*
X41981428Y7215238D01*
X41981428Y7024761D01*
X41933809Y6929523D01*
X41886190Y6881904D01*
X41790952Y6834285D01*
%TO.C,C8*%
X39727142Y20232666D02*
X39774761Y20280285D01*
X39822380Y20423142D01*
X39822380Y20518380D01*
X39774761Y20661238D01*
X39679523Y20756476D01*
X39584285Y20804095D01*
X39393809Y20851714D01*
X39250952Y20851714D01*
X39060476Y20804095D01*
X38965238Y20756476D01*
X38870000Y20661238D01*
X38822380Y20518380D01*
X38822380Y20423142D01*
X38870000Y20280285D01*
X38917619Y20232666D01*
X39250952Y19661238D02*
X39203333Y19756476D01*
X39155714Y19804095D01*
X39060476Y19851714D01*
X39012857Y19851714D01*
X38917619Y19804095D01*
X38870000Y19756476D01*
X38822380Y19661238D01*
X38822380Y19470761D01*
X38870000Y19375523D01*
X38917619Y19327904D01*
X39012857Y19280285D01*
X39060476Y19280285D01*
X39155714Y19327904D01*
X39203333Y19375523D01*
X39250952Y19470761D01*
X39250952Y19661238D01*
X39298571Y19756476D01*
X39346190Y19804095D01*
X39441428Y19851714D01*
X39631904Y19851714D01*
X39727142Y19804095D01*
X39774761Y19756476D01*
X39822380Y19661238D01*
X39822380Y19470761D01*
X39774761Y19375523D01*
X39727142Y19327904D01*
X39631904Y19280285D01*
X39441428Y19280285D01*
X39346190Y19327904D01*
X39298571Y19375523D01*
X39250952Y19470761D01*
%TO.C,C7*%
X10771142Y42838666D02*
X10818761Y42886285D01*
X10866380Y43029142D01*
X10866380Y43124380D01*
X10818761Y43267238D01*
X10723523Y43362476D01*
X10628285Y43410095D01*
X10437809Y43457714D01*
X10294952Y43457714D01*
X10104476Y43410095D01*
X10009238Y43362476D01*
X9914000Y43267238D01*
X9866380Y43124380D01*
X9866380Y43029142D01*
X9914000Y42886285D01*
X9961619Y42838666D01*
X9866380Y42505333D02*
X9866380Y41838666D01*
X10866380Y42267238D01*
%TO.C,C6*%
X20994666Y36980857D02*
X21042285Y36933238D01*
X21185142Y36885619D01*
X21280380Y36885619D01*
X21423238Y36933238D01*
X21518476Y37028476D01*
X21566095Y37123714D01*
X21613714Y37314190D01*
X21613714Y37457047D01*
X21566095Y37647523D01*
X21518476Y37742761D01*
X21423238Y37838000D01*
X21280380Y37885619D01*
X21185142Y37885619D01*
X21042285Y37838000D01*
X20994666Y37790380D01*
X20137523Y37885619D02*
X20328000Y37885619D01*
X20423238Y37838000D01*
X20470857Y37790380D01*
X20566095Y37647523D01*
X20613714Y37457047D01*
X20613714Y37076095D01*
X20566095Y36980857D01*
X20518476Y36933238D01*
X20423238Y36885619D01*
X20232761Y36885619D01*
X20137523Y36933238D01*
X20089904Y36980857D01*
X20042285Y37076095D01*
X20042285Y37314190D01*
X20089904Y37409428D01*
X20137523Y37457047D01*
X20232761Y37504666D01*
X20423238Y37504666D01*
X20518476Y37457047D01*
X20566095Y37409428D01*
X20613714Y37314190D01*
%TO.C,C5*%
X39473142Y28106666D02*
X39520761Y28154285D01*
X39568380Y28297142D01*
X39568380Y28392380D01*
X39520761Y28535238D01*
X39425523Y28630476D01*
X39330285Y28678095D01*
X39139809Y28725714D01*
X38996952Y28725714D01*
X38806476Y28678095D01*
X38711238Y28630476D01*
X38616000Y28535238D01*
X38568380Y28392380D01*
X38568380Y28297142D01*
X38616000Y28154285D01*
X38663619Y28106666D01*
X38568380Y27201904D02*
X38568380Y27678095D01*
X39044571Y27725714D01*
X38996952Y27678095D01*
X38949333Y27582857D01*
X38949333Y27344761D01*
X38996952Y27249523D01*
X39044571Y27201904D01*
X39139809Y27154285D01*
X39377904Y27154285D01*
X39473142Y27201904D01*
X39520761Y27249523D01*
X39568380Y27344761D01*
X39568380Y27582857D01*
X39520761Y27678095D01*
X39473142Y27725714D01*
%TO.C,C4*%
X32107142Y38774666D02*
X32154761Y38822285D01*
X32202380Y38965142D01*
X32202380Y39060380D01*
X32154761Y39203238D01*
X32059523Y39298476D01*
X31964285Y39346095D01*
X31773809Y39393714D01*
X31630952Y39393714D01*
X31440476Y39346095D01*
X31345238Y39298476D01*
X31250000Y39203238D01*
X31202380Y39060380D01*
X31202380Y38965142D01*
X31250000Y38822285D01*
X31297619Y38774666D01*
X31535714Y37917523D02*
X32202380Y37917523D01*
X31154761Y38155619D02*
X31869047Y38393714D01*
X31869047Y37774666D01*
%TO.C,C3*%
X54014666Y52728857D02*
X54062285Y52681238D01*
X54205142Y52633619D01*
X54300380Y52633619D01*
X54443238Y52681238D01*
X54538476Y52776476D01*
X54586095Y52871714D01*
X54633714Y53062190D01*
X54633714Y53205047D01*
X54586095Y53395523D01*
X54538476Y53490761D01*
X54443238Y53586000D01*
X54300380Y53633619D01*
X54205142Y53633619D01*
X54062285Y53586000D01*
X54014666Y53538380D01*
X53681333Y53633619D02*
X53062285Y53633619D01*
X53395619Y53252666D01*
X53252761Y53252666D01*
X53157523Y53205047D01*
X53109904Y53157428D01*
X53062285Y53062190D01*
X53062285Y52824095D01*
X53109904Y52728857D01*
X53157523Y52681238D01*
X53252761Y52633619D01*
X53538476Y52633619D01*
X53633714Y52681238D01*
X53681333Y52728857D01*
%TO.C,C2*%
X34456666Y50442857D02*
X34504285Y50395238D01*
X34647142Y50347619D01*
X34742380Y50347619D01*
X34885238Y50395238D01*
X34980476Y50490476D01*
X35028095Y50585714D01*
X35075714Y50776190D01*
X35075714Y50919047D01*
X35028095Y51109523D01*
X34980476Y51204761D01*
X34885238Y51300000D01*
X34742380Y51347619D01*
X34647142Y51347619D01*
X34504285Y51300000D01*
X34456666Y51252380D01*
X34075714Y51252380D02*
X34028095Y51300000D01*
X33932857Y51347619D01*
X33694761Y51347619D01*
X33599523Y51300000D01*
X33551904Y51252380D01*
X33504285Y51157142D01*
X33504285Y51061904D01*
X33551904Y50919047D01*
X34123333Y50347619D01*
X33504285Y50347619D01*
%TO.C,C1*%
X41822666Y52982857D02*
X41870285Y52935238D01*
X42013142Y52887619D01*
X42108380Y52887619D01*
X42251238Y52935238D01*
X42346476Y53030476D01*
X42394095Y53125714D01*
X42441714Y53316190D01*
X42441714Y53459047D01*
X42394095Y53649523D01*
X42346476Y53744761D01*
X42251238Y53840000D01*
X42108380Y53887619D01*
X42013142Y53887619D01*
X41870285Y53840000D01*
X41822666Y53792380D01*
X40870285Y52887619D02*
X41441714Y52887619D01*
X41156000Y52887619D02*
X41156000Y53887619D01*
X41251238Y53744761D01*
X41346476Y53649523D01*
X41441714Y53601904D01*
%TD*%
M02*
