%FSLAX45Y45*%
G04 Gerber Fmt 4.5, Leading zero omitted, Abs format (unit mm)*
G04 Created by KiCad (PCBNEW (5.1.9)-1) date 2021-09-20 18:57:42*
%MOMM*%
%LPD*%
G01*
G04 APERTURE LIST*
%TA.AperFunction,Profile*%
%ADD10C,0.050000*%
%TD*%
%ADD11C,0.200000*%
%ADD12C,0.300000*%
G04 APERTURE END LIST*
D10*
X3150000Y5325000D02*
G75*
G03*
X3150000Y5325000I-400000J0D01*
G01*
X5500000Y6500000D02*
X5500000Y0D01*
X0Y6500000D02*
X5500000Y6500000D01*
X0Y0D02*
X0Y6500000D01*
X0Y0D02*
X5500000Y0D01*
D11*
D12*
X283928Y-468214D02*
X283928Y-168214D01*
X355357Y-168214D01*
X398214Y-182500D01*
X426786Y-211071D01*
X441071Y-239643D01*
X455357Y-296786D01*
X455357Y-339643D01*
X441071Y-396786D01*
X426786Y-425357D01*
X398214Y-453929D01*
X355357Y-468214D01*
X283928Y-468214D01*
X583928Y-468214D02*
X583928Y-268214D01*
X583928Y-325357D02*
X598214Y-296786D01*
X612500Y-282500D01*
X641071Y-268214D01*
X669643Y-268214D01*
X769643Y-468214D02*
X769643Y-268214D01*
X769643Y-168214D02*
X755357Y-182500D01*
X769643Y-196786D01*
X783928Y-182500D01*
X769643Y-168214D01*
X769643Y-196786D01*
X955357Y-468214D02*
X926786Y-453929D01*
X912500Y-425357D01*
X912500Y-168214D01*
X1112500Y-468214D02*
X1083928Y-453929D01*
X1069643Y-425357D01*
X1069643Y-168214D01*
X1455357Y-468214D02*
X1455357Y-168214D01*
X1555357Y-382500D01*
X1655357Y-168214D01*
X1655357Y-468214D01*
X1926786Y-468214D02*
X1926786Y-311072D01*
X1912500Y-282500D01*
X1883928Y-268214D01*
X1826786Y-268214D01*
X1798214Y-282500D01*
X1926786Y-453929D02*
X1898214Y-468214D01*
X1826786Y-468214D01*
X1798214Y-453929D01*
X1783928Y-425357D01*
X1783928Y-396786D01*
X1798214Y-368214D01*
X1826786Y-353929D01*
X1898214Y-353929D01*
X1926786Y-339643D01*
X2069643Y-268214D02*
X2069643Y-568214D01*
X2069643Y-282500D02*
X2098214Y-268214D01*
X2155357Y-268214D01*
X2183928Y-282500D01*
X2198214Y-296786D01*
X2212500Y-325357D01*
X2212500Y-411071D01*
X2198214Y-439643D01*
X2183928Y-453929D01*
X2155357Y-468214D01*
X2098214Y-468214D01*
X2069643Y-453929D01*
X2341071Y-439643D02*
X2355357Y-453929D01*
X2341071Y-468214D01*
X2326786Y-453929D01*
X2341071Y-439643D01*
X2341071Y-468214D01*
X2341071Y-282500D02*
X2355357Y-296786D01*
X2341071Y-311072D01*
X2326786Y-296786D01*
X2341071Y-282500D01*
X2341071Y-311072D01*
M02*
