%TF.GenerationSoftware,KiCad,Pcbnew,(5.1.9)-1*%
%TF.CreationDate,2021-09-20T18:56:34+02:00*%
%TF.ProjectId,deep blue delay,64656570-2062-46c7-9565-2064656c6179,rev?*%
%TF.SameCoordinates,Original*%
%TF.FileFunction,Legend,Top*%
%TF.FilePolarity,Positive*%
%FSLAX46Y46*%
G04 Gerber Fmt 4.6, Leading zero omitted, Abs format (unit mm)*
G04 Created by KiCad (PCBNEW (5.1.9)-1) date 2021-09-20 18:56:34*
%MOMM*%
%LPD*%
G01*
G04 APERTURE LIST*
%ADD10C,0.010000*%
%ADD11C,0.120000*%
%ADD12C,0.150000*%
G04 APERTURE END LIST*
D10*
%TO.C,G\u002A\u002A\u002A*%
G36*
X5782603Y13434570D02*
G01*
X5791200Y13411200D01*
X5750054Y13366132D01*
X5715000Y13360400D01*
X5647396Y13387831D01*
X5638800Y13411200D01*
X5679945Y13456269D01*
X5715000Y13462000D01*
X5782603Y13434570D01*
G37*
X5782603Y13434570D02*
X5791200Y13411200D01*
X5750054Y13366132D01*
X5715000Y13360400D01*
X5647396Y13387831D01*
X5638800Y13411200D01*
X5679945Y13456269D01*
X5715000Y13462000D01*
X5782603Y13434570D01*
G36*
X5854073Y11981522D02*
G01*
X5867400Y11941538D01*
X5832232Y11865922D01*
X5759319Y11848719D01*
X5724525Y11869209D01*
X5687828Y11950488D01*
X5716416Y12016965D01*
X5778500Y12029930D01*
X5854073Y11981522D01*
G37*
X5854073Y11981522D02*
X5867400Y11941538D01*
X5832232Y11865922D01*
X5759319Y11848719D01*
X5724525Y11869209D01*
X5687828Y11950488D01*
X5716416Y12016965D01*
X5778500Y12029930D01*
X5854073Y11981522D01*
G36*
X5994400Y11760200D02*
G01*
X6042862Y11714551D01*
X6045200Y11706402D01*
X6005896Y11684583D01*
X5994400Y11684000D01*
X5945552Y11723053D01*
X5943600Y11737799D01*
X5974721Y11768138D01*
X5994400Y11760200D01*
G37*
X5994400Y11760200D02*
X6042862Y11714551D01*
X6045200Y11706402D01*
X6005896Y11684583D01*
X5994400Y11684000D01*
X5945552Y11723053D01*
X5943600Y11737799D01*
X5974721Y11768138D01*
X5994400Y11760200D01*
G36*
X6500923Y11289743D02*
G01*
X6502400Y11277600D01*
X6463742Y11228277D01*
X6451600Y11226800D01*
X6402276Y11265458D01*
X6400800Y11277600D01*
X6439457Y11326924D01*
X6451600Y11328400D01*
X6500923Y11289743D01*
G37*
X6500923Y11289743D02*
X6502400Y11277600D01*
X6463742Y11228277D01*
X6451600Y11226800D01*
X6402276Y11265458D01*
X6400800Y11277600D01*
X6439457Y11326924D01*
X6451600Y11328400D01*
X6500923Y11289743D01*
G36*
X7112000Y10951634D02*
G01*
X7071098Y10881655D01*
X7031566Y10871200D01*
X6972319Y10900738D01*
X6971241Y10931525D01*
X7021805Y10998610D01*
X7082677Y11007140D01*
X7112000Y10951634D01*
G37*
X7112000Y10951634D02*
X7071098Y10881655D01*
X7031566Y10871200D01*
X6972319Y10900738D01*
X6971241Y10931525D01*
X7021805Y10998610D01*
X7082677Y11007140D01*
X7112000Y10951634D01*
G36*
X7017257Y10681450D02*
G01*
X7018597Y10680123D01*
X7049570Y10609525D01*
X7012186Y10543153D01*
X6934298Y10484200D01*
X6853445Y10464584D01*
X6809666Y10492231D01*
X6808815Y10502900D01*
X6837741Y10569026D01*
X6885205Y10639870D01*
X6955849Y10704424D01*
X7017257Y10681450D01*
G37*
X7017257Y10681450D02*
X7018597Y10680123D01*
X7049570Y10609525D01*
X7012186Y10543153D01*
X6934298Y10484200D01*
X6853445Y10464584D01*
X6809666Y10492231D01*
X6808815Y10502900D01*
X6837741Y10569026D01*
X6885205Y10639870D01*
X6955849Y10704424D01*
X7017257Y10681450D01*
G36*
X15645031Y5041253D02*
G01*
X15646400Y5029200D01*
X15605050Y4984618D01*
X15567201Y4978400D01*
X15514621Y5003028D01*
X15519400Y5029200D01*
X15584345Y5078063D01*
X15598598Y5080000D01*
X15645031Y5041253D01*
G37*
X15645031Y5041253D02*
X15646400Y5029200D01*
X15605050Y4984618D01*
X15567201Y4978400D01*
X15514621Y5003028D01*
X15519400Y5029200D01*
X15584345Y5078063D01*
X15598598Y5080000D01*
X15645031Y5041253D01*
G36*
X18084800Y4648200D02*
G01*
X18133662Y4583255D01*
X18135600Y4569002D01*
X18096852Y4522569D01*
X18084800Y4521200D01*
X18040217Y4562550D01*
X18034000Y4600399D01*
X18058627Y4652979D01*
X18084800Y4648200D01*
G37*
X18084800Y4648200D02*
X18133662Y4583255D01*
X18135600Y4569002D01*
X18096852Y4522569D01*
X18084800Y4521200D01*
X18040217Y4562550D01*
X18034000Y4600399D01*
X18058627Y4652979D01*
X18084800Y4648200D01*
G36*
X18222038Y4285890D02*
G01*
X18228033Y4208889D01*
X18172622Y4097178D01*
X18110200Y4043789D01*
X18015523Y3981004D01*
X17976850Y3944277D01*
X17928048Y3937306D01*
X17910351Y3956977D01*
X17895344Y4038211D01*
X17902464Y4056662D01*
X17881633Y4080837D01*
X17803862Y4076140D01*
X17703202Y4072545D01*
X17687807Y4109888D01*
X17755290Y4177727D01*
X17839360Y4231467D01*
X17961565Y4286429D01*
X18027250Y4275196D01*
X18035889Y4264143D01*
X18080808Y4233716D01*
X18106848Y4261777D01*
X18172866Y4317141D01*
X18222038Y4285890D01*
G37*
X18222038Y4285890D02*
X18228033Y4208889D01*
X18172622Y4097178D01*
X18110200Y4043789D01*
X18015523Y3981004D01*
X17976850Y3944277D01*
X17928048Y3937306D01*
X17910351Y3956977D01*
X17895344Y4038211D01*
X17902464Y4056662D01*
X17881633Y4080837D01*
X17803862Y4076140D01*
X17703202Y4072545D01*
X17687807Y4109888D01*
X17755290Y4177727D01*
X17839360Y4231467D01*
X17961565Y4286429D01*
X18027250Y4275196D01*
X18035889Y4264143D01*
X18080808Y4233716D01*
X18106848Y4261777D01*
X18172866Y4317141D01*
X18222038Y4285890D01*
G36*
X16459200Y3886200D02*
G01*
X16433800Y3860800D01*
X16408400Y3886200D01*
X16433800Y3911600D01*
X16459200Y3886200D01*
G37*
X16459200Y3886200D02*
X16433800Y3860800D01*
X16408400Y3886200D01*
X16433800Y3911600D01*
X16459200Y3886200D01*
G36*
X3200053Y5603191D02*
G01*
X3273689Y5558447D01*
X3336133Y5505008D01*
X3315404Y5487300D01*
X3289307Y5486400D01*
X3197377Y5515863D01*
X3172911Y5540580D01*
X3152503Y5603987D01*
X3200053Y5603191D01*
G37*
X3200053Y5603191D02*
X3273689Y5558447D01*
X3336133Y5505008D01*
X3315404Y5487300D01*
X3289307Y5486400D01*
X3197377Y5515863D01*
X3172911Y5540580D01*
X3152503Y5603987D01*
X3200053Y5603191D01*
G36*
X12120578Y13284973D02*
G01*
X12115800Y13258800D01*
X12050854Y13209938D01*
X12036601Y13208000D01*
X11990168Y13246748D01*
X11988800Y13258800D01*
X12030149Y13303383D01*
X12067998Y13309600D01*
X12120578Y13284973D01*
G37*
X12120578Y13284973D02*
X12115800Y13258800D01*
X12050854Y13209938D01*
X12036601Y13208000D01*
X11990168Y13246748D01*
X11988800Y13258800D01*
X12030149Y13303383D01*
X12067998Y13309600D01*
X12120578Y13284973D01*
G36*
X8669866Y13140267D02*
G01*
X8675946Y13079979D01*
X8669866Y13072534D01*
X8639666Y13079507D01*
X8636000Y13106400D01*
X8654586Y13148215D01*
X8669866Y13140267D01*
G37*
X8669866Y13140267D02*
X8675946Y13079979D01*
X8669866Y13072534D01*
X8639666Y13079507D01*
X8636000Y13106400D01*
X8654586Y13148215D01*
X8669866Y13140267D01*
G36*
X12598348Y13235095D02*
G01*
X12598400Y13230402D01*
X12623027Y13177822D01*
X12649200Y13182600D01*
X12696213Y13183259D01*
X12700000Y13168353D01*
X12657636Y13116346D01*
X12557628Y13058696D01*
X12440601Y13015562D01*
X12370407Y13004800D01*
X12284937Y13036746D01*
X12268200Y13055600D01*
X12283279Y13096015D01*
X12337978Y13106400D01*
X12434811Y13149526D01*
X12471400Y13208000D01*
X12520492Y13291776D01*
X12572716Y13302555D01*
X12598348Y13235095D01*
G37*
X12598348Y13235095D02*
X12598400Y13230402D01*
X12623027Y13177822D01*
X12649200Y13182600D01*
X12696213Y13183259D01*
X12700000Y13168353D01*
X12657636Y13116346D01*
X12557628Y13058696D01*
X12440601Y13015562D01*
X12370407Y13004800D01*
X12284937Y13036746D01*
X12268200Y13055600D01*
X12283279Y13096015D01*
X12337978Y13106400D01*
X12434811Y13149526D01*
X12471400Y13208000D01*
X12520492Y13291776D01*
X12572716Y13302555D01*
X12598348Y13235095D01*
G36*
X9189068Y13065255D02*
G01*
X9194800Y13030200D01*
X9167369Y12962597D01*
X9144000Y12954000D01*
X9098931Y12995146D01*
X9093200Y13030200D01*
X9120630Y13097804D01*
X9144000Y13106400D01*
X9189068Y13065255D01*
G37*
X9189068Y13065255D02*
X9194800Y13030200D01*
X9167369Y12962597D01*
X9144000Y12954000D01*
X9098931Y12995146D01*
X9093200Y13030200D01*
X9120630Y13097804D01*
X9144000Y13106400D01*
X9189068Y13065255D01*
G36*
X9117764Y12680795D02*
G01*
X9120900Y12676655D01*
X9177461Y12558502D01*
X9143948Y12478330D01*
X9102725Y12457642D01*
X9058671Y12486141D01*
X9043997Y12604623D01*
X9044015Y12606867D01*
X9048613Y12716384D01*
X9068592Y12736848D01*
X9117764Y12680795D01*
G37*
X9117764Y12680795D02*
X9120900Y12676655D01*
X9177461Y12558502D01*
X9143948Y12478330D01*
X9102725Y12457642D01*
X9058671Y12486141D01*
X9043997Y12604623D01*
X9044015Y12606867D01*
X9048613Y12716384D01*
X9068592Y12736848D01*
X9117764Y12680795D01*
G36*
X9399739Y11777201D02*
G01*
X9478003Y11747162D01*
X9512448Y11668008D01*
X9519898Y11569670D01*
X9517156Y11447189D01*
X9503963Y11382292D01*
X9499435Y11379170D01*
X9452014Y11412682D01*
X9363793Y11496649D01*
X9327186Y11534612D01*
X9237045Y11659890D01*
X9233908Y11745056D01*
X9315228Y11781595D01*
X9399739Y11777201D01*
G37*
X9399739Y11777201D02*
X9478003Y11747162D01*
X9512448Y11668008D01*
X9519898Y11569670D01*
X9517156Y11447189D01*
X9503963Y11382292D01*
X9499435Y11379170D01*
X9452014Y11412682D01*
X9363793Y11496649D01*
X9327186Y11534612D01*
X9237045Y11659890D01*
X9233908Y11745056D01*
X9315228Y11781595D01*
X9399739Y11777201D01*
G36*
X12335647Y11706314D02*
G01*
X12344400Y11668487D01*
X12309610Y11587332D01*
X12282002Y11570068D01*
X12233536Y11509213D01*
X12218502Y11426135D01*
X12205770Y11346538D01*
X12150466Y11310871D01*
X12024048Y11301743D01*
X12014200Y11301664D01*
X11821719Y11305178D01*
X11618519Y11315538D01*
X11595100Y11317285D01*
X11441688Y11343150D01*
X11387686Y11387118D01*
X11433666Y11446562D01*
X11553526Y11508023D01*
X11676058Y11568195D01*
X11752156Y11622069D01*
X11757726Y11629198D01*
X11828297Y11669155D01*
X11875500Y11673461D01*
X11982504Y11680527D01*
X12130443Y11703181D01*
X12153900Y11707748D01*
X12280753Y11725450D01*
X12335647Y11706314D01*
G37*
X12335647Y11706314D02*
X12344400Y11668487D01*
X12309610Y11587332D01*
X12282002Y11570068D01*
X12233536Y11509213D01*
X12218502Y11426135D01*
X12205770Y11346538D01*
X12150466Y11310871D01*
X12024048Y11301743D01*
X12014200Y11301664D01*
X11821719Y11305178D01*
X11618519Y11315538D01*
X11595100Y11317285D01*
X11441688Y11343150D01*
X11387686Y11387118D01*
X11433666Y11446562D01*
X11553526Y11508023D01*
X11676058Y11568195D01*
X11752156Y11622069D01*
X11757726Y11629198D01*
X11828297Y11669155D01*
X11875500Y11673461D01*
X11982504Y11680527D01*
X12130443Y11703181D01*
X12153900Y11707748D01*
X12280753Y11725450D01*
X12335647Y11706314D01*
G36*
X11290296Y11242264D02*
G01*
X11307568Y11160796D01*
X11266547Y11092376D01*
X11199259Y11044600D01*
X11142165Y11079830D01*
X11129162Y11095026D01*
X11092724Y11191740D01*
X11137239Y11262271D01*
X11201400Y11277600D01*
X11290296Y11242264D01*
G37*
X11290296Y11242264D02*
X11307568Y11160796D01*
X11266547Y11092376D01*
X11199259Y11044600D01*
X11142165Y11079830D01*
X11129162Y11095026D01*
X11092724Y11191740D01*
X11137239Y11262271D01*
X11201400Y11277600D01*
X11290296Y11242264D01*
G36*
X14730523Y9816543D02*
G01*
X14732000Y9804400D01*
X14693342Y9755077D01*
X14681200Y9753600D01*
X14631876Y9792258D01*
X14630400Y9804400D01*
X14669057Y9853724D01*
X14681200Y9855200D01*
X14730523Y9816543D01*
G37*
X14730523Y9816543D02*
X14732000Y9804400D01*
X14693342Y9755077D01*
X14681200Y9753600D01*
X14631876Y9792258D01*
X14630400Y9804400D01*
X14669057Y9853724D01*
X14681200Y9855200D01*
X14730523Y9816543D01*
G36*
X10591153Y9633878D02*
G01*
X10651365Y9563804D01*
X10665593Y9443510D01*
X10641056Y9309332D01*
X10584971Y9197609D01*
X10504555Y9144676D01*
X10493847Y9144000D01*
X10417938Y9185111D01*
X10394035Y9224355D01*
X10364279Y9382352D01*
X10389438Y9521173D01*
X10457666Y9616210D01*
X10557118Y9642855D01*
X10591153Y9633878D01*
G37*
X10591153Y9633878D02*
X10651365Y9563804D01*
X10665593Y9443510D01*
X10641056Y9309332D01*
X10584971Y9197609D01*
X10504555Y9144676D01*
X10493847Y9144000D01*
X10417938Y9185111D01*
X10394035Y9224355D01*
X10364279Y9382352D01*
X10389438Y9521173D01*
X10457666Y9616210D01*
X10557118Y9642855D01*
X10591153Y9633878D01*
G36*
X12396584Y8997719D02*
G01*
X12403042Y8996391D01*
X12522721Y8956400D01*
X12568806Y8887517D01*
X12573000Y8836714D01*
X12598857Y8678742D01*
X12679905Y8603989D01*
X12804921Y8603645D01*
X12917676Y8608598D01*
X12972337Y8554319D01*
X12978493Y8537255D01*
X13055861Y8431786D01*
X13175338Y8403702D01*
X13248345Y8427960D01*
X13341745Y8438208D01*
X13399571Y8389941D01*
X13460823Y8338412D01*
X13494824Y8369300D01*
X13562659Y8426696D01*
X13662137Y8419765D01*
X13751607Y8354542D01*
X13767561Y8329778D01*
X13830575Y8255393D01*
X13875248Y8264870D01*
X13881261Y8340492D01*
X13858424Y8409008D01*
X13829042Y8520591D01*
X13874709Y8614089D01*
X13892529Y8634596D01*
X13958776Y8696176D01*
X14013852Y8703809D01*
X14072798Y8646581D01*
X14150655Y8513577D01*
X14205187Y8407725D01*
X14345594Y8130432D01*
X14225141Y8002216D01*
X14110458Y7899644D01*
X14037361Y7877118D01*
X14014784Y7912100D01*
X14016042Y7992076D01*
X13992894Y8013464D01*
X13980546Y8007518D01*
X13910638Y8006917D01*
X13783539Y8036011D01*
X13717643Y8056926D01*
X13541232Y8111489D01*
X13324390Y8170236D01*
X13187656Y8203407D01*
X12882333Y8274362D01*
X12661769Y8329282D01*
X12511172Y8372420D01*
X12415748Y8408031D01*
X12360703Y8440368D01*
X12359099Y8441681D01*
X12303664Y8469027D01*
X12293600Y8439021D01*
X12260619Y8387592D01*
X12191015Y8392021D01*
X12128796Y8446350D01*
X12121235Y8462355D01*
X12092856Y8592963D01*
X12116072Y8737504D01*
X12161742Y8860810D01*
X12217920Y8972687D01*
X12282734Y9010758D01*
X12396584Y8997719D01*
G37*
X12396584Y8997719D02*
X12403042Y8996391D01*
X12522721Y8956400D01*
X12568806Y8887517D01*
X12573000Y8836714D01*
X12598857Y8678742D01*
X12679905Y8603989D01*
X12804921Y8603645D01*
X12917676Y8608598D01*
X12972337Y8554319D01*
X12978493Y8537255D01*
X13055861Y8431786D01*
X13175338Y8403702D01*
X13248345Y8427960D01*
X13341745Y8438208D01*
X13399571Y8389941D01*
X13460823Y8338412D01*
X13494824Y8369300D01*
X13562659Y8426696D01*
X13662137Y8419765D01*
X13751607Y8354542D01*
X13767561Y8329778D01*
X13830575Y8255393D01*
X13875248Y8264870D01*
X13881261Y8340492D01*
X13858424Y8409008D01*
X13829042Y8520591D01*
X13874709Y8614089D01*
X13892529Y8634596D01*
X13958776Y8696176D01*
X14013852Y8703809D01*
X14072798Y8646581D01*
X14150655Y8513577D01*
X14205187Y8407725D01*
X14345594Y8130432D01*
X14225141Y8002216D01*
X14110458Y7899644D01*
X14037361Y7877118D01*
X14014784Y7912100D01*
X14016042Y7992076D01*
X13992894Y8013464D01*
X13980546Y8007518D01*
X13910638Y8006917D01*
X13783539Y8036011D01*
X13717643Y8056926D01*
X13541232Y8111489D01*
X13324390Y8170236D01*
X13187656Y8203407D01*
X12882333Y8274362D01*
X12661769Y8329282D01*
X12511172Y8372420D01*
X12415748Y8408031D01*
X12360703Y8440368D01*
X12359099Y8441681D01*
X12303664Y8469027D01*
X12293600Y8439021D01*
X12260619Y8387592D01*
X12191015Y8392021D01*
X12128796Y8446350D01*
X12121235Y8462355D01*
X12092856Y8592963D01*
X12116072Y8737504D01*
X12161742Y8860810D01*
X12217920Y8972687D01*
X12282734Y9010758D01*
X12396584Y8997719D01*
G36*
X10204909Y6833662D02*
G01*
X10289347Y6744374D01*
X10312400Y6629400D01*
X10269762Y6488175D01*
X10154975Y6410093D01*
X10083800Y6400800D01*
X9967222Y6428311D01*
X9916160Y6461760D01*
X9858717Y6580221D01*
X9893286Y6709656D01*
X9948100Y6773927D01*
X10082600Y6846908D01*
X10204909Y6833662D01*
G37*
X10204909Y6833662D02*
X10289347Y6744374D01*
X10312400Y6629400D01*
X10269762Y6488175D01*
X10154975Y6410093D01*
X10083800Y6400800D01*
X9967222Y6428311D01*
X9916160Y6461760D01*
X9858717Y6580221D01*
X9893286Y6709656D01*
X9948100Y6773927D01*
X10082600Y6846908D01*
X10204909Y6833662D01*
G36*
X9932023Y3923248D02*
G01*
X9993075Y3828698D01*
X10006822Y3703574D01*
X9972514Y3575634D01*
X9888671Y3463360D01*
X9786088Y3405316D01*
X9767269Y3403600D01*
X9713338Y3446256D01*
X9664276Y3543300D01*
X9645221Y3710863D01*
X9699740Y3849289D01*
X9815978Y3929284D01*
X9821077Y3930681D01*
X9932023Y3923248D01*
G37*
X9932023Y3923248D02*
X9993075Y3828698D01*
X10006822Y3703574D01*
X9972514Y3575634D01*
X9888671Y3463360D01*
X9786088Y3405316D01*
X9767269Y3403600D01*
X9713338Y3446256D01*
X9664276Y3543300D01*
X9645221Y3710863D01*
X9699740Y3849289D01*
X9815978Y3929284D01*
X9821077Y3930681D01*
X9932023Y3923248D01*
G36*
X11386272Y21892384D02*
G01*
X11245093Y21806473D01*
X11139077Y21807392D01*
X11097711Y21847380D01*
X11077458Y21893663D01*
X11103281Y21922252D01*
X11195767Y21944580D01*
X11303000Y21961393D01*
X11506200Y21991567D01*
X11386272Y21892384D01*
G37*
X11386272Y21892384D02*
X11245093Y21806473D01*
X11139077Y21807392D01*
X11097711Y21847380D01*
X11077458Y21893663D01*
X11103281Y21922252D01*
X11195767Y21944580D01*
X11303000Y21961393D01*
X11506200Y21991567D01*
X11386272Y21892384D01*
G36*
X7214026Y19905719D02*
G01*
X7350147Y19880776D01*
X7394930Y19836822D01*
X7352942Y19771906D01*
X7340040Y19760736D01*
X7306457Y19682509D01*
X7281517Y19526134D01*
X7265220Y19314694D01*
X7257566Y19071272D01*
X7258556Y18818952D01*
X7268190Y18580818D01*
X7286466Y18379952D01*
X7313386Y18239439D01*
X7340040Y18186865D01*
X7390315Y18115315D01*
X7387842Y18079045D01*
X7325916Y18056958D01*
X7191294Y18042531D01*
X7012579Y18035641D01*
X6818376Y18036168D01*
X6637290Y18043988D01*
X6497926Y18058980D01*
X6428888Y18081021D01*
X6427226Y18083139D01*
X6440795Y18143525D01*
X6500428Y18196959D01*
X6539028Y18226992D01*
X6566646Y18271731D01*
X6585109Y18346883D01*
X6596243Y18468154D01*
X6601874Y18651248D01*
X6603829Y18911873D01*
X6604000Y19087620D01*
X6604000Y19913600D01*
X6982001Y19913600D01*
X7214026Y19905719D01*
G37*
X7214026Y19905719D02*
X7350147Y19880776D01*
X7394930Y19836822D01*
X7352942Y19771906D01*
X7340040Y19760736D01*
X7306457Y19682509D01*
X7281517Y19526134D01*
X7265220Y19314694D01*
X7257566Y19071272D01*
X7258556Y18818952D01*
X7268190Y18580818D01*
X7286466Y18379952D01*
X7313386Y18239439D01*
X7340040Y18186865D01*
X7390315Y18115315D01*
X7387842Y18079045D01*
X7325916Y18056958D01*
X7191294Y18042531D01*
X7012579Y18035641D01*
X6818376Y18036168D01*
X6637290Y18043988D01*
X6497926Y18058980D01*
X6428888Y18081021D01*
X6427226Y18083139D01*
X6440795Y18143525D01*
X6500428Y18196959D01*
X6539028Y18226992D01*
X6566646Y18271731D01*
X6585109Y18346883D01*
X6596243Y18468154D01*
X6601874Y18651248D01*
X6603829Y18911873D01*
X6604000Y19087620D01*
X6604000Y19913600D01*
X6982001Y19913600D01*
X7214026Y19905719D01*
G36*
X6223783Y19672300D02*
G01*
X6298837Y19460786D01*
X6347199Y19333499D01*
X6376895Y19279185D01*
X6395953Y19286588D01*
X6412403Y19344452D01*
X6423067Y19392900D01*
X6460346Y19504827D01*
X6502404Y19557426D01*
X6506436Y19558000D01*
X6546489Y19511547D01*
X6549838Y19375376D01*
X6517086Y19154271D01*
X6448836Y18853019D01*
X6389400Y18629678D01*
X6311589Y18362726D01*
X6250189Y18183938D01*
X6200535Y18082088D01*
X6157960Y18045951D01*
X6146800Y18046055D01*
X6094561Y18101129D01*
X6023102Y18242992D01*
X5937939Y18459892D01*
X5896259Y18579903D01*
X5824706Y18789183D01*
X5765243Y18955829D01*
X5724848Y19060750D01*
X5710837Y19087327D01*
X5710290Y19034939D01*
X5718705Y18906481D01*
X5734351Y18726921D01*
X5739445Y18674396D01*
X5769852Y18442518D01*
X5808009Y18298741D01*
X5857575Y18229647D01*
X5861367Y18227372D01*
X5931641Y18152511D01*
X5943600Y18107676D01*
X5915700Y18062583D01*
X5820222Y18039629D01*
X5667198Y18034000D01*
X5509046Y18041466D01*
X5396821Y18060665D01*
X5363595Y18078011D01*
X5376386Y18140263D01*
X5436797Y18212885D01*
X5485058Y18270007D01*
X5515094Y18350369D01*
X5530979Y18476915D01*
X5536786Y18672589D01*
X5537200Y18778474D01*
X5542345Y19003477D01*
X5556644Y19164752D01*
X5578395Y19246376D01*
X5588000Y19253200D01*
X5635933Y19213515D01*
X5638800Y19193934D01*
X5657737Y19158193D01*
X5669580Y19165447D01*
X5673866Y19231684D01*
X5640169Y19353619D01*
X5581827Y19499268D01*
X5512182Y19636646D01*
X5444574Y19733770D01*
X5425196Y19751381D01*
X5349151Y19822423D01*
X5353913Y19870915D01*
X5445346Y19899916D01*
X5629316Y19912485D01*
X5736198Y19913600D01*
X6138396Y19913600D01*
X6223783Y19672300D01*
G37*
X6223783Y19672300D02*
X6298837Y19460786D01*
X6347199Y19333499D01*
X6376895Y19279185D01*
X6395953Y19286588D01*
X6412403Y19344452D01*
X6423067Y19392900D01*
X6460346Y19504827D01*
X6502404Y19557426D01*
X6506436Y19558000D01*
X6546489Y19511547D01*
X6549838Y19375376D01*
X6517086Y19154271D01*
X6448836Y18853019D01*
X6389400Y18629678D01*
X6311589Y18362726D01*
X6250189Y18183938D01*
X6200535Y18082088D01*
X6157960Y18045951D01*
X6146800Y18046055D01*
X6094561Y18101129D01*
X6023102Y18242992D01*
X5937939Y18459892D01*
X5896259Y18579903D01*
X5824706Y18789183D01*
X5765243Y18955829D01*
X5724848Y19060750D01*
X5710837Y19087327D01*
X5710290Y19034939D01*
X5718705Y18906481D01*
X5734351Y18726921D01*
X5739445Y18674396D01*
X5769852Y18442518D01*
X5808009Y18298741D01*
X5857575Y18229647D01*
X5861367Y18227372D01*
X5931641Y18152511D01*
X5943600Y18107676D01*
X5915700Y18062583D01*
X5820222Y18039629D01*
X5667198Y18034000D01*
X5509046Y18041466D01*
X5396821Y18060665D01*
X5363595Y18078011D01*
X5376386Y18140263D01*
X5436797Y18212885D01*
X5485058Y18270007D01*
X5515094Y18350369D01*
X5530979Y18476915D01*
X5536786Y18672589D01*
X5537200Y18778474D01*
X5542345Y19003477D01*
X5556644Y19164752D01*
X5578395Y19246376D01*
X5588000Y19253200D01*
X5635933Y19213515D01*
X5638800Y19193934D01*
X5657737Y19158193D01*
X5669580Y19165447D01*
X5673866Y19231684D01*
X5640169Y19353619D01*
X5581827Y19499268D01*
X5512182Y19636646D01*
X5444574Y19733770D01*
X5425196Y19751381D01*
X5349151Y19822423D01*
X5353913Y19870915D01*
X5445346Y19899916D01*
X5629316Y19912485D01*
X5736198Y19913600D01*
X6138396Y19913600D01*
X6223783Y19672300D01*
G36*
X4821324Y19723100D02*
G01*
X4853036Y19596592D01*
X4900636Y19399708D01*
X4957257Y19161095D01*
X5006993Y18948400D01*
X5066745Y18706802D01*
X5126332Y18492970D01*
X5178455Y18331596D01*
X5212911Y18251688D01*
X5265516Y18154633D01*
X5269340Y18091532D01*
X5211603Y18055193D01*
X5079523Y18038425D01*
X4860320Y18034037D01*
X4826000Y18034000D01*
X4603043Y18039428D01*
X4446925Y18054571D01*
X4372798Y18077725D01*
X4368800Y18085490D01*
X4393587Y18167113D01*
X4427617Y18231161D01*
X4467884Y18357717D01*
X4417782Y18447615D01*
X4285329Y18489535D01*
X4243394Y18491200D01*
X4120182Y18502346D01*
X4070133Y18545967D01*
X4064000Y18592800D01*
X4087949Y18667169D01*
X4177059Y18693352D01*
X4216400Y18694400D01*
X4323066Y18705432D01*
X4367692Y18732014D01*
X4367690Y18732500D01*
X4356336Y18795165D01*
X4326584Y18933940D01*
X4283414Y19126065D01*
X4248228Y19278600D01*
X4200754Y19497535D01*
X4167189Y19682496D01*
X4151545Y19809366D01*
X4153172Y19850100D01*
X4220108Y19890890D01*
X4378068Y19911431D01*
X4473876Y19913600D01*
X4771283Y19913600D01*
X4821324Y19723100D01*
G37*
X4821324Y19723100D02*
X4853036Y19596592D01*
X4900636Y19399708D01*
X4957257Y19161095D01*
X5006993Y18948400D01*
X5066745Y18706802D01*
X5126332Y18492970D01*
X5178455Y18331596D01*
X5212911Y18251688D01*
X5265516Y18154633D01*
X5269340Y18091532D01*
X5211603Y18055193D01*
X5079523Y18038425D01*
X4860320Y18034037D01*
X4826000Y18034000D01*
X4603043Y18039428D01*
X4446925Y18054571D01*
X4372798Y18077725D01*
X4368800Y18085490D01*
X4393587Y18167113D01*
X4427617Y18231161D01*
X4467884Y18357717D01*
X4417782Y18447615D01*
X4285329Y18489535D01*
X4243394Y18491200D01*
X4120182Y18502346D01*
X4070133Y18545967D01*
X4064000Y18592800D01*
X4087949Y18667169D01*
X4177059Y18693352D01*
X4216400Y18694400D01*
X4323066Y18705432D01*
X4367692Y18732014D01*
X4367690Y18732500D01*
X4356336Y18795165D01*
X4326584Y18933940D01*
X4283414Y19126065D01*
X4248228Y19278600D01*
X4200754Y19497535D01*
X4167189Y19682496D01*
X4151545Y19809366D01*
X4153172Y19850100D01*
X4220108Y19890890D01*
X4378068Y19911431D01*
X4473876Y19913600D01*
X4771283Y19913600D01*
X4821324Y19723100D01*
G36*
X4119584Y19522736D02*
G01*
X4161922Y19439760D01*
X4169332Y19301587D01*
X4140874Y19095882D01*
X4075609Y18810313D01*
X4061013Y18753802D01*
X4004825Y18533868D01*
X3974243Y18391068D01*
X3967912Y18304580D01*
X3984475Y18253583D01*
X4022576Y18217253D01*
X4025904Y18214802D01*
X4108978Y18132288D01*
X4096125Y18075271D01*
X3986284Y18042865D01*
X3810000Y18034000D01*
X3628347Y18042864D01*
X3524379Y18067697D01*
X3505200Y18090189D01*
X3541626Y18159006D01*
X3625657Y18241130D01*
X3722647Y18367110D01*
X3806159Y18584835D01*
X3831880Y18680241D01*
X3918568Y19018483D01*
X3987687Y19264668D01*
X4041806Y19426324D01*
X4083496Y19510978D01*
X4115328Y19526157D01*
X4119584Y19522736D01*
G37*
X4119584Y19522736D02*
X4161922Y19439760D01*
X4169332Y19301587D01*
X4140874Y19095882D01*
X4075609Y18810313D01*
X4061013Y18753802D01*
X4004825Y18533868D01*
X3974243Y18391068D01*
X3967912Y18304580D01*
X3984475Y18253583D01*
X4022576Y18217253D01*
X4025904Y18214802D01*
X4108978Y18132288D01*
X4096125Y18075271D01*
X3986284Y18042865D01*
X3810000Y18034000D01*
X3628347Y18042864D01*
X3524379Y18067697D01*
X3505200Y18090189D01*
X3541626Y18159006D01*
X3625657Y18241130D01*
X3722647Y18367110D01*
X3806159Y18584835D01*
X3831880Y18680241D01*
X3918568Y19018483D01*
X3987687Y19264668D01*
X4041806Y19426324D01*
X4083496Y19510978D01*
X4115328Y19526157D01*
X4119584Y19522736D01*
G36*
X2513422Y19910037D02*
G01*
X2654995Y19897760D01*
X2726270Y19874388D01*
X2743200Y19843621D01*
X2707361Y19754592D01*
X2667000Y19710400D01*
X2634570Y19663137D01*
X2612378Y19574050D01*
X2598789Y19427357D01*
X2592172Y19207273D01*
X2590800Y18973801D01*
X2593102Y18685319D01*
X2601099Y18482572D01*
X2616424Y18349776D01*
X2640708Y18271148D01*
X2667000Y18237200D01*
X2731554Y18150712D01*
X2743200Y18103980D01*
X2719918Y18069171D01*
X2639705Y18047501D01*
X2487010Y18036592D01*
X2286000Y18034000D01*
X2063739Y18036848D01*
X1925308Y18047395D01*
X1853045Y18068645D01*
X1829288Y18103605D01*
X1828800Y18111795D01*
X1869898Y18196558D01*
X1905000Y18218830D01*
X1935654Y18246791D01*
X1957112Y18313096D01*
X1970850Y18432531D01*
X1978349Y18619881D01*
X1981085Y18889932D01*
X1981200Y18980830D01*
X1979515Y19276262D01*
X1973476Y19484920D01*
X1961604Y19621590D01*
X1942421Y19701056D01*
X1914447Y19738105D01*
X1905000Y19742830D01*
X1837485Y19806792D01*
X1828800Y19842836D01*
X1851254Y19877928D01*
X1929187Y19899778D01*
X2078459Y19910840D01*
X2286000Y19913600D01*
X2513422Y19910037D01*
G37*
X2513422Y19910037D02*
X2654995Y19897760D01*
X2726270Y19874388D01*
X2743200Y19843621D01*
X2707361Y19754592D01*
X2667000Y19710400D01*
X2634570Y19663137D01*
X2612378Y19574050D01*
X2598789Y19427357D01*
X2592172Y19207273D01*
X2590800Y18973801D01*
X2593102Y18685319D01*
X2601099Y18482572D01*
X2616424Y18349776D01*
X2640708Y18271148D01*
X2667000Y18237200D01*
X2731554Y18150712D01*
X2743200Y18103980D01*
X2719918Y18069171D01*
X2639705Y18047501D01*
X2487010Y18036592D01*
X2286000Y18034000D01*
X2063739Y18036848D01*
X1925308Y18047395D01*
X1853045Y18068645D01*
X1829288Y18103605D01*
X1828800Y18111795D01*
X1869898Y18196558D01*
X1905000Y18218830D01*
X1935654Y18246791D01*
X1957112Y18313096D01*
X1970850Y18432531D01*
X1978349Y18619881D01*
X1981085Y18889932D01*
X1981200Y18980830D01*
X1979515Y19276262D01*
X1973476Y19484920D01*
X1961604Y19621590D01*
X1942421Y19701056D01*
X1914447Y19738105D01*
X1905000Y19742830D01*
X1837485Y19806792D01*
X1828800Y19842836D01*
X1851254Y19877928D01*
X1929187Y19899778D01*
X2078459Y19910840D01*
X2286000Y19913600D01*
X2513422Y19910037D01*
G36*
X10374397Y16585213D02*
G01*
X10408175Y16566787D01*
X10450549Y16490430D01*
X10444305Y16383060D01*
X10399853Y16290019D01*
X10336832Y16256000D01*
X10271636Y16222587D01*
X10267591Y16140620D01*
X10318378Y16037508D01*
X10407921Y15947662D01*
X10515268Y15836824D01*
X10528996Y15742941D01*
X10470400Y15661013D01*
X10368985Y15660474D01*
X10239500Y15738999D01*
X10177006Y15798451D01*
X10057023Y15943468D01*
X9954359Y16096680D01*
X9945190Y16113125D01*
X9890531Y16228670D01*
X9888732Y16312052D01*
X9940219Y16418130D01*
X9947660Y16430975D01*
X10065602Y16551793D01*
X10220190Y16606846D01*
X10374397Y16585213D01*
G37*
X10374397Y16585213D02*
X10408175Y16566787D01*
X10450549Y16490430D01*
X10444305Y16383060D01*
X10399853Y16290019D01*
X10336832Y16256000D01*
X10271636Y16222587D01*
X10267591Y16140620D01*
X10318378Y16037508D01*
X10407921Y15947662D01*
X10515268Y15836824D01*
X10528996Y15742941D01*
X10470400Y15661013D01*
X10368985Y15660474D01*
X10239500Y15738999D01*
X10177006Y15798451D01*
X10057023Y15943468D01*
X9954359Y16096680D01*
X9945190Y16113125D01*
X9890531Y16228670D01*
X9888732Y16312052D01*
X9940219Y16418130D01*
X9947660Y16430975D01*
X10065602Y16551793D01*
X10220190Y16606846D01*
X10374397Y16585213D01*
G36*
X11005444Y15863992D02*
G01*
X11014274Y15761135D01*
X10968182Y15644306D01*
X10882100Y15604849D01*
X10781820Y15654502D01*
X10781242Y15655078D01*
X10722642Y15757865D01*
X10753357Y15842464D01*
X10799154Y15869565D01*
X10936662Y15902258D01*
X11005444Y15863992D01*
G37*
X11005444Y15863992D02*
X11014274Y15761135D01*
X10968182Y15644306D01*
X10882100Y15604849D01*
X10781820Y15654502D01*
X10781242Y15655078D01*
X10722642Y15757865D01*
X10753357Y15842464D01*
X10799154Y15869565D01*
X10936662Y15902258D01*
X11005444Y15863992D01*
G36*
X8797763Y15494861D02*
G01*
X8829529Y15430500D01*
X8809716Y15354952D01*
X8763000Y15341600D01*
X8698715Y15378055D01*
X8695775Y15420484D01*
X8739735Y15498514D01*
X8797763Y15494861D01*
G37*
X8797763Y15494861D02*
X8829529Y15430500D01*
X8809716Y15354952D01*
X8763000Y15341600D01*
X8698715Y15378055D01*
X8695775Y15420484D01*
X8739735Y15498514D01*
X8797763Y15494861D01*
G36*
X9175132Y15105736D02*
G01*
X9224068Y15034345D01*
X9208233Y14965567D01*
X9121490Y14936313D01*
X9030531Y14964425D01*
X9025466Y14969067D01*
X8990605Y15054375D01*
X9031897Y15123442D01*
X9087764Y15138400D01*
X9175132Y15105736D01*
G37*
X9175132Y15105736D02*
X9224068Y15034345D01*
X9208233Y14965567D01*
X9121490Y14936313D01*
X9030531Y14964425D01*
X9025466Y14969067D01*
X8990605Y15054375D01*
X9031897Y15123442D01*
X9087764Y15138400D01*
X9175132Y15105736D01*
G36*
X9913061Y15536373D02*
G01*
X10006903Y15493443D01*
X10018577Y15432696D01*
X10053602Y15342922D01*
X10185809Y15255848D01*
X10410782Y15173636D01*
X10685328Y15106334D01*
X10969091Y15033908D01*
X11159015Y14954485D01*
X11252324Y14869553D01*
X11256183Y14800264D01*
X11230172Y14721085D01*
X11226800Y14702446D01*
X11189141Y14685735D01*
X11072631Y14722261D01*
X11023600Y14742849D01*
X10817892Y14826326D01*
X10610412Y14900739D01*
X10430757Y14956305D01*
X10308522Y14983240D01*
X10292996Y14984342D01*
X10187954Y15011330D01*
X10053301Y15075559D01*
X10030318Y15089258D01*
X9916394Y15144544D01*
X9842570Y15152221D01*
X9833812Y15144893D01*
X9760678Y15112485D01*
X9630533Y15118326D01*
X9477093Y15154933D01*
X9334072Y15214822D01*
X9249756Y15274526D01*
X9171529Y15377636D01*
X9183352Y15446578D01*
X9287524Y15483027D01*
X9486348Y15488658D01*
X9540316Y15486084D01*
X9695824Y15483229D01*
X9796202Y15493230D01*
X9819455Y15510973D01*
X9840474Y15536964D01*
X9913061Y15536373D01*
G37*
X9913061Y15536373D02*
X10006903Y15493443D01*
X10018577Y15432696D01*
X10053602Y15342922D01*
X10185809Y15255848D01*
X10410782Y15173636D01*
X10685328Y15106334D01*
X10969091Y15033908D01*
X11159015Y14954485D01*
X11252324Y14869553D01*
X11256183Y14800264D01*
X11230172Y14721085D01*
X11226800Y14702446D01*
X11189141Y14685735D01*
X11072631Y14722261D01*
X11023600Y14742849D01*
X10817892Y14826326D01*
X10610412Y14900739D01*
X10430757Y14956305D01*
X10308522Y14983240D01*
X10292996Y14984342D01*
X10187954Y15011330D01*
X10053301Y15075559D01*
X10030318Y15089258D01*
X9916394Y15144544D01*
X9842570Y15152221D01*
X9833812Y15144893D01*
X9760678Y15112485D01*
X9630533Y15118326D01*
X9477093Y15154933D01*
X9334072Y15214822D01*
X9249756Y15274526D01*
X9171529Y15377636D01*
X9183352Y15446578D01*
X9287524Y15483027D01*
X9486348Y15488658D01*
X9540316Y15486084D01*
X9695824Y15483229D01*
X9796202Y15493230D01*
X9819455Y15510973D01*
X9840474Y15536964D01*
X9913061Y15536373D01*
G36*
X10810387Y21968018D02*
G01*
X10820400Y21920200D01*
X10775051Y21858256D01*
X10680700Y21838937D01*
X10585914Y21833673D01*
X10588599Y21821863D01*
X10664233Y21799436D01*
X10776816Y21746506D01*
X10794885Y21672761D01*
X10718284Y21571805D01*
X10657430Y21519419D01*
X10396249Y21290374D01*
X10192297Y21070815D01*
X10052808Y20871277D01*
X9985013Y20702296D01*
X9996144Y20574409D01*
X10001839Y20564347D01*
X10033139Y20460537D01*
X10015703Y20306671D01*
X10003751Y20256706D01*
X9961557Y20082967D01*
X9926370Y19923772D01*
X9920528Y19894387D01*
X9868161Y19775283D01*
X9797678Y19723362D01*
X9727580Y19661061D01*
X9701329Y19555166D01*
X9726637Y19457016D01*
X9753737Y19430916D01*
X9777995Y19369886D01*
X9745439Y19289044D01*
X9681281Y19228532D01*
X9622704Y19222266D01*
X9565317Y19211962D01*
X9551580Y19151464D01*
X9587925Y19085118D01*
X9601386Y19075285D01*
X9628404Y19008346D01*
X9620190Y18907187D01*
X9588008Y18770600D01*
X9823488Y19015442D01*
X9896340Y18905721D01*
X9981528Y18820702D01*
X10051896Y18792729D01*
X10136765Y18767843D01*
X10278428Y18705910D01*
X10439400Y18623936D01*
X10606639Y18526593D01*
X10700031Y18450595D01*
X10738942Y18376862D01*
X10744200Y18323615D01*
X10790369Y18178421D01*
X10858499Y18108527D01*
X10945772Y18005128D01*
X10972799Y17908353D01*
X10994100Y17808106D01*
X11030019Y17769394D01*
X11043212Y17718269D01*
X11009582Y17607751D01*
X10940496Y17461736D01*
X10847318Y17304119D01*
X10741410Y17158798D01*
X10737257Y17153803D01*
X10656511Y17030794D01*
X10617785Y16919844D01*
X10617199Y16909163D01*
X10595179Y16786772D01*
X10542719Y16674994D01*
X10480221Y16614150D01*
X10466641Y16611600D01*
X10389118Y16646458D01*
X10318304Y16723812D01*
X10287483Y16802830D01*
X10293029Y16824556D01*
X10271136Y16853758D01*
X10152814Y16854782D01*
X10077596Y16847134D01*
X9834144Y16819951D01*
X9581789Y16795248D01*
X9343765Y16774897D01*
X9143309Y16760772D01*
X9003654Y16754745D01*
X8953500Y16756526D01*
X8914006Y16727969D01*
X8896590Y16616175D01*
X8895892Y16499527D01*
X8902781Y16368449D01*
X8914506Y16307483D01*
X8925017Y16319500D01*
X8972013Y16399827D01*
X9030995Y16383652D01*
X9062364Y16328046D01*
X9091663Y16207722D01*
X9059866Y16163406D01*
X9022228Y16170765D01*
X8970895Y16157706D01*
X8933979Y16063176D01*
X8917515Y15973000D01*
X8876618Y15817695D01*
X8822957Y15746387D01*
X8771742Y15761919D01*
X8738183Y15867136D01*
X8733018Y15938500D01*
X8728436Y16129000D01*
X8678241Y15951200D01*
X8613136Y15782098D01*
X8545648Y15708191D01*
X8482286Y15723464D01*
X8429563Y15821904D01*
X8393988Y15997495D01*
X8382000Y16224875D01*
X8382000Y16580731D01*
X8204200Y16408400D01*
X8081227Y16276562D01*
X8035198Y16181138D01*
X8061325Y16098190D01*
X8127999Y16027400D01*
X8210677Y15926454D01*
X8222886Y15850613D01*
X8164505Y15820358D01*
X8129209Y15823968D01*
X8021814Y15798522D01*
X7919811Y15702176D01*
X7846219Y15564088D01*
X7823200Y15436350D01*
X7799863Y15325005D01*
X7740215Y15289927D01*
X7659800Y15320010D01*
X7574162Y15404150D01*
X7498844Y15531241D01*
X7449389Y15690180D01*
X7446804Y15705255D01*
X7415908Y15837084D01*
X7373169Y15884943D01*
X7335060Y15879904D01*
X7221898Y15852331D01*
X7185639Y15849600D01*
X7131257Y15814582D01*
X7130668Y15786100D01*
X7132700Y15750419D01*
X7124840Y15760700D01*
X7066172Y15782360D01*
X6939175Y15796309D01*
X6841066Y15799113D01*
X6657769Y15813693D01*
X6493785Y15850269D01*
X6438018Y15872758D01*
X6291119Y15918755D01*
X6082476Y15944919D01*
X5835800Y15952711D01*
X5574801Y15943592D01*
X5323191Y15919023D01*
X5104680Y15880466D01*
X4942978Y15829381D01*
X4867005Y15775946D01*
X4798044Y15747297D01*
X4670832Y15738546D01*
X4633299Y15740340D01*
X4471089Y15725711D01*
X4300815Y15669878D01*
X4148161Y15587333D01*
X4038810Y15492566D01*
X3998444Y15400068D01*
X4000813Y15383478D01*
X4001300Y15315832D01*
X3934531Y15319505D01*
X3930422Y15320850D01*
X3908910Y15317266D01*
X3962911Y15272135D01*
X4013200Y15238464D01*
X4205202Y15101411D01*
X4344086Y14973903D01*
X4413704Y14871554D01*
X4418722Y14846300D01*
X4402769Y14792286D01*
X4344979Y14799999D01*
X4233921Y14873598D01*
X4141911Y14947029D01*
X4017302Y15042311D01*
X3920146Y15103438D01*
X3889037Y15115032D01*
X3763889Y15151097D01*
X3676091Y15222894D01*
X3657600Y15274369D01*
X3622101Y15327687D01*
X3542544Y15332277D01*
X3459339Y15295871D01*
X3413150Y15227594D01*
X3428747Y15126346D01*
X3489714Y15003591D01*
X3492845Y14998994D01*
X3560544Y14873124D01*
X3634519Y14694262D01*
X3682037Y14554200D01*
X3752195Y14364064D01*
X3836235Y14192674D01*
X3893923Y14105803D01*
X3972499Y14000818D01*
X4012071Y13927608D01*
X4013200Y13920527D01*
X4045728Y13853851D01*
X4124066Y13753498D01*
X4219341Y13651338D01*
X4302679Y13579244D01*
X4336535Y13563601D01*
X4395765Y13532726D01*
X4507520Y13451515D01*
X4648352Y13337090D01*
X4657870Y13328981D01*
X4794378Y13216541D01*
X4897716Y13139274D01*
X4947359Y13112424D01*
X4948566Y13113081D01*
X5050201Y13290315D01*
X5077551Y13505182D01*
X5029861Y13766476D01*
X4906377Y14082991D01*
X4856515Y14185900D01*
X4747431Y14415426D01*
X4692786Y14561619D01*
X4691884Y14626489D01*
X4702615Y14630400D01*
X4773415Y14589781D01*
X4847052Y14491969D01*
X4847743Y14490700D01*
X4899091Y14414273D01*
X4924939Y14411230D01*
X4925566Y14417405D01*
X4908482Y14561520D01*
X4860147Y14748132D01*
X4794828Y14931842D01*
X4726796Y15067251D01*
X4717023Y15080871D01*
X4656323Y15189768D01*
X4662195Y15257406D01*
X4731359Y15264730D01*
X4747720Y15259169D01*
X4795804Y15263155D01*
X4791280Y15343103D01*
X4789556Y15350288D01*
X4749213Y15466853D01*
X4717503Y15524075D01*
X4692371Y15591152D01*
X4743724Y15610635D01*
X4853508Y15576939D01*
X4953916Y15490317D01*
X4978003Y15411025D01*
X5021271Y15308157D01*
X5079999Y15276081D01*
X5166000Y15207999D01*
X5181600Y15143156D01*
X5160014Y15051585D01*
X5095400Y15052013D01*
X5031883Y15100300D01*
X4983449Y15135048D01*
X4990616Y15086526D01*
X4993730Y15077502D01*
X5025564Y14961668D01*
X5067495Y14775531D01*
X5113576Y14549115D01*
X5157858Y14312442D01*
X5194391Y14095533D01*
X5210880Y13981560D01*
X5247073Y13788649D01*
X5294276Y13693849D01*
X5355459Y13693991D01*
X5417140Y13761293D01*
X5493778Y13832043D01*
X5614229Y13863545D01*
X5732516Y13868400D01*
X6032334Y13918511D01*
X6199536Y13991860D01*
X6372676Y14083662D01*
X6583057Y14191786D01*
X6731000Y14265947D01*
X6922345Y14367734D01*
X6955174Y14387333D01*
X7824890Y14387333D01*
X7873806Y14212619D01*
X8002576Y14053085D01*
X8103228Y13980825D01*
X8208486Y13932364D01*
X8288446Y13941594D01*
X8369298Y14020193D01*
X8448196Y14134646D01*
X8530509Y14285265D01*
X8560173Y14423316D01*
X8537363Y14580988D01*
X8508791Y14660677D01*
X8707326Y14660677D01*
X8732757Y14544398D01*
X8773989Y14408554D01*
X8820039Y14290525D01*
X8850701Y14236700D01*
X8936683Y14176392D01*
X9009797Y14213241D01*
X9016736Y14223574D01*
X9006446Y14281837D01*
X8956183Y14387430D01*
X8883510Y14512046D01*
X8805992Y14627379D01*
X8741193Y14705126D01*
X8708680Y14720014D01*
X8707326Y14660677D01*
X8508791Y14660677D01*
X8462252Y14790473D01*
X8451881Y14815487D01*
X8389657Y14927607D01*
X8328487Y14985177D01*
X8287461Y14974870D01*
X8280400Y14935200D01*
X8239645Y14889258D01*
X8209462Y14884400D01*
X8117853Y14842897D01*
X8009994Y14739009D01*
X7909817Y14603667D01*
X7841251Y14467803D01*
X7824890Y14387333D01*
X6955174Y14387333D01*
X7104421Y14476431D01*
X7210769Y14548887D01*
X7333825Y14631034D01*
X7431253Y14677392D01*
X7452069Y14681200D01*
X7513128Y14708333D01*
X7518400Y14725650D01*
X7562292Y14765534D01*
X7668177Y14800048D01*
X7671155Y14800652D01*
X7777013Y14835067D01*
X7812678Y14903675D01*
X7810855Y14991974D01*
X7819817Y15115040D01*
X7861300Y15175206D01*
X7915725Y15155331D01*
X7924800Y15117234D01*
X7951562Y15045864D01*
X8012430Y15053703D01*
X8067226Y15118775D01*
X8127115Y15172828D01*
X8209450Y15149034D01*
X8260651Y15128392D01*
X8287664Y15148923D01*
X8295839Y15229532D01*
X8290524Y15389121D01*
X8288510Y15428424D01*
X8283378Y15610619D01*
X8293820Y15708769D01*
X8322592Y15739617D01*
X8339310Y15737043D01*
X8385699Y15676011D01*
X8423945Y15544559D01*
X8436275Y15464580D01*
X8474232Y15278382D01*
X8536904Y15108106D01*
X8612049Y14977355D01*
X8687425Y14909730D01*
X8724900Y14908127D01*
X8849093Y14906741D01*
X8958347Y14811613D01*
X9011805Y14713139D01*
X9108560Y14541080D01*
X9253415Y14347108D01*
X9419624Y14162061D01*
X9580440Y14016776D01*
X9664161Y13961013D01*
X9824172Y13899041D01*
X9983397Y13870658D01*
X9989057Y13870530D01*
X10121355Y13836110D01*
X10227354Y13754115D01*
X10285071Y13650896D01*
X10272526Y13552809D01*
X10263923Y13541000D01*
X10251291Y13494405D01*
X10308102Y13449693D01*
X10448908Y13395836D01*
X10460569Y13392000D01*
X10720317Y13323667D01*
X10909725Y13314873D01*
X11041362Y13366424D01*
X11102239Y13433194D01*
X11154154Y13550349D01*
X11130613Y13655013D01*
X11128209Y13659578D01*
X11102681Y13754994D01*
X11138688Y13866367D01*
X11171259Y13923617D01*
X11229274Y14047344D01*
X11245358Y14143497D01*
X11242654Y14154357D01*
X11255746Y14242710D01*
X11329699Y14340663D01*
X11432221Y14417251D01*
X11531025Y14441506D01*
X11540167Y14439679D01*
X11614704Y14376471D01*
X11636770Y14256176D01*
X11643057Y14157541D01*
X11660080Y14151433D01*
X11682744Y14198600D01*
X11705840Y14330506D01*
X11701040Y14384720D01*
X11791229Y14384720D01*
X11816560Y14391342D01*
X11856256Y14423022D01*
X11953129Y14528968D01*
X11999890Y14600822D01*
X12033970Y14672881D01*
X12008639Y14666259D01*
X11968943Y14634579D01*
X11872070Y14528633D01*
X11825309Y14456779D01*
X11791229Y14384720D01*
X11701040Y14384720D01*
X11698041Y14418586D01*
X11713161Y14564385D01*
X11779067Y14683229D01*
X11851452Y14794810D01*
X11886572Y14875803D01*
X11887200Y14882343D01*
X11928313Y14929225D01*
X11963400Y14935200D01*
X12023063Y14979198D01*
X12039600Y15092356D01*
X12061822Y15218341D01*
X12137380Y15275044D01*
X12141200Y15276081D01*
X12223705Y15323858D01*
X12242800Y15365303D01*
X12270796Y15440033D01*
X12342224Y15561281D01*
X12395200Y15638339D01*
X12509313Y15811605D01*
X12548756Y15922552D01*
X12510486Y15980914D01*
X12391464Y15996424D01*
X12285428Y15989736D01*
X12093227Y15984963D01*
X11930215Y16022205D01*
X11776836Y16092392D01*
X11502281Y16264574D01*
X11309930Y16458630D01*
X11224674Y16595336D01*
X11151634Y16710505D01*
X11083623Y16781217D01*
X11047620Y16835125D01*
X11036083Y16947810D01*
X11047276Y17138656D01*
X11049524Y17162217D01*
X11053235Y17195800D01*
X13055600Y17195800D01*
X13081000Y17170400D01*
X13106400Y17195800D01*
X13081000Y17221200D01*
X13055600Y17195800D01*
X11053235Y17195800D01*
X11070329Y17350481D01*
X11091975Y17507460D01*
X11108230Y17592411D01*
X11179806Y17682153D01*
X11324153Y17758103D01*
X11506200Y17804067D01*
X11631419Y17834158D01*
X11741844Y17872070D01*
X11852345Y17895164D01*
X12032321Y17910899D01*
X12249773Y17916917D01*
X12339562Y17916087D01*
X12558574Y17910405D01*
X12698765Y17899741D01*
X12782895Y17877317D01*
X12833728Y17836352D01*
X12874026Y17770069D01*
X12882134Y17754507D01*
X12959857Y17622514D01*
X13033717Y17522114D01*
X13094180Y17417375D01*
X13106400Y17356900D01*
X13128718Y17283851D01*
X13151764Y17272000D01*
X13211187Y17319206D01*
X13248569Y17449104D01*
X13258799Y17603965D01*
X13279021Y17769885D01*
X13330012Y17936000D01*
X13397260Y18060440D01*
X13427479Y18090650D01*
X13455642Y18151575D01*
X13493600Y18285755D01*
X13535601Y18466045D01*
X13575889Y18665297D01*
X13608709Y18856364D01*
X13628307Y19012101D01*
X13630845Y19050000D01*
X13651681Y19159218D01*
X13682165Y19209085D01*
X13707590Y19275373D01*
X13727534Y19418532D01*
X13741593Y19613960D01*
X13749362Y19837054D01*
X13750437Y20063214D01*
X13744413Y20267836D01*
X13730886Y20426319D01*
X13709452Y20514060D01*
X13703739Y20521340D01*
X13620003Y20588171D01*
X13504133Y20676918D01*
X13497011Y20682270D01*
X13408213Y20769933D01*
X13376845Y20845044D01*
X13378742Y20853326D01*
X13370322Y20943127D01*
X13352481Y20967999D01*
X13310567Y21041872D01*
X13272534Y21156970D01*
X13246824Y21276634D01*
X13241882Y21364204D01*
X13256021Y21386800D01*
X13311548Y21352058D01*
X13414398Y21261368D01*
X13544754Y21135039D01*
X13682800Y20993380D01*
X13808719Y20856699D01*
X13902695Y20745305D01*
X13944332Y20681408D01*
X13997531Y20610675D01*
X14109648Y20505853D01*
X14247791Y20396200D01*
X14411671Y20264076D01*
X14516801Y20140419D01*
X14593536Y19984880D01*
X14627823Y19891037D01*
X14695961Y19675112D01*
X14724780Y19511624D01*
X14715549Y19359869D01*
X14669535Y19179143D01*
X14651756Y19122550D01*
X14580322Y18911706D01*
X14510963Y18746134D01*
X14425827Y18592264D01*
X14307059Y18416524D01*
X14194412Y18262600D01*
X14058852Y18063143D01*
X13938814Y17856562D01*
X13856471Y17681671D01*
X13846174Y17653000D01*
X13776948Y17465940D01*
X13684646Y17244309D01*
X13612065Y17084701D01*
X13536353Y16918654D01*
X13482420Y16786098D01*
X13462000Y16716031D01*
X13428052Y16659952D01*
X13336095Y16549966D01*
X13200959Y16402998D01*
X13068300Y16266729D01*
X12799644Y15973746D01*
X12598158Y15696185D01*
X12483527Y15492400D01*
X12395543Y15311101D01*
X12329112Y15161644D01*
X12295213Y15069187D01*
X12293027Y15055886D01*
X12332177Y14975117D01*
X12434276Y14855970D01*
X12577961Y14716762D01*
X12741873Y14575811D01*
X12904651Y14451436D01*
X13044933Y14361956D01*
X13141359Y14325688D01*
X13144607Y14325601D01*
X13211212Y14296939D01*
X13337116Y14220752D01*
X13501301Y14111738D01*
X13682749Y13984594D01*
X13860440Y13854018D01*
X14013356Y13734706D01*
X14113475Y13648108D01*
X14225125Y13520164D01*
X14360797Y13332615D01*
X14506753Y13108499D01*
X14649253Y12870856D01*
X14774560Y12642724D01*
X14868934Y12447143D01*
X14918637Y12307151D01*
X14921202Y12293600D01*
X14956196Y12162167D01*
X15023411Y11976193D01*
X15109517Y11771953D01*
X15126575Y11734800D01*
X15300267Y11360148D01*
X15436573Y11061631D01*
X15542291Y10823894D01*
X15624218Y10631582D01*
X15689150Y10469341D01*
X15704132Y10430071D01*
X15784547Y10265283D01*
X15909374Y10062547D01*
X16055012Y9859394D01*
X16093288Y9811242D01*
X16388373Y9433954D01*
X16646373Y9073690D01*
X16858538Y8744051D01*
X17016119Y8458640D01*
X17110365Y8231057D01*
X17110812Y8229600D01*
X17186230Y7966422D01*
X17274495Y7632435D01*
X17368490Y7256453D01*
X17461101Y6867288D01*
X17545210Y6493750D01*
X17581280Y6324600D01*
X17649683Y6092701D01*
X17739048Y5938661D01*
X17759465Y5918200D01*
X17874651Y5793360D01*
X18018907Y5604693D01*
X18174901Y5378762D01*
X18325305Y5142125D01*
X18452787Y4921344D01*
X18540018Y4742978D01*
X18558402Y4693735D01*
X18612238Y4502586D01*
X18666534Y4271503D01*
X18697662Y4114800D01*
X18768769Y3813902D01*
X18866059Y3588942D01*
X19001388Y3415273D01*
X19059698Y3362244D01*
X19145777Y3272837D01*
X19176863Y3204730D01*
X19174138Y3195770D01*
X19118043Y3185037D01*
X18969989Y3175319D01*
X18739613Y3166835D01*
X18436551Y3159803D01*
X18070442Y3154443D01*
X17650922Y3150974D01*
X17187629Y3149612D01*
X17139214Y3149600D01*
X15132825Y3149600D01*
X14950185Y3273779D01*
X17463451Y3273779D01*
X17541136Y3258732D01*
X17703800Y3255549D01*
X17866639Y3261375D01*
X17893236Y3267095D01*
X18048617Y3267095D01*
X18092361Y3251240D01*
X18097759Y3251200D01*
X18186580Y3285067D01*
X18660533Y3285067D01*
X18667506Y3254867D01*
X18694400Y3251200D01*
X18736214Y3269787D01*
X18728266Y3285067D01*
X18667978Y3291147D01*
X18660533Y3285067D01*
X18186580Y3285067D01*
X18192439Y3287301D01*
X18237200Y3327400D01*
X18273382Y3387706D01*
X18229638Y3403561D01*
X18224240Y3403600D01*
X18129560Y3367500D01*
X18084800Y3327400D01*
X18048617Y3267095D01*
X17893236Y3267095D01*
X17933834Y3275826D01*
X17911077Y3300204D01*
X17907000Y3302000D01*
X17736524Y3343611D01*
X17566712Y3336488D01*
X17475200Y3302000D01*
X17463451Y3273779D01*
X14950185Y3273779D01*
X14843512Y3346307D01*
X14645699Y3504860D01*
X14998238Y3504860D01*
X15007703Y3414814D01*
X15074900Y3356870D01*
X15180537Y3309604D01*
X15228884Y3339561D01*
X15240000Y3450167D01*
X15254176Y3561537D01*
X15286555Y3615267D01*
X15324101Y3671477D01*
X15360854Y3791008D01*
X15369931Y3835400D01*
X15406753Y4038600D01*
X15297976Y3941827D01*
X15217407Y3839369D01*
X15189200Y3751758D01*
X15149464Y3653065D01*
X15087600Y3595011D01*
X14998238Y3504860D01*
X14645699Y3504860D01*
X14410918Y3693043D01*
X14397378Y3708400D01*
X14808200Y3708400D01*
X14819716Y3664911D01*
X14856001Y3657600D01*
X14925507Y3684123D01*
X14935200Y3708400D01*
X14898739Y3757746D01*
X14887398Y3759200D01*
X14818597Y3722274D01*
X14808200Y3708400D01*
X14397378Y3708400D01*
X14066130Y4084093D01*
X13888070Y4386550D01*
X15789048Y4386550D01*
X15807812Y4264362D01*
X15830497Y4178522D01*
X15914201Y3981734D01*
X16026642Y3824909D01*
X16150988Y3723127D01*
X16270409Y3691471D01*
X16342674Y3719595D01*
X16429783Y3743038D01*
X16461654Y3732283D01*
X16564923Y3704511D01*
X16744487Y3691609D01*
X16976163Y3693401D01*
X17235764Y3709715D01*
X17494645Y3739722D01*
X17712504Y3763438D01*
X17908366Y3770663D01*
X18045059Y3760167D01*
X18053445Y3758246D01*
X18294669Y3706183D01*
X18471798Y3685990D01*
X18572866Y3698421D01*
X18592106Y3724294D01*
X18569203Y3874764D01*
X18513781Y3975570D01*
X18448302Y4001318D01*
X18395346Y4014341D01*
X18372817Y4091218D01*
X18370628Y4196235D01*
X18380773Y4341263D01*
X18401377Y4444270D01*
X18408216Y4459425D01*
X18406958Y4530182D01*
X18389600Y4546600D01*
X18355797Y4601730D01*
X18360713Y4617160D01*
X18367039Y4703340D01*
X18332552Y4830938D01*
X18273766Y4960015D01*
X18207192Y5050629D01*
X18173700Y5069527D01*
X18112830Y5058783D01*
X18087774Y4983482D01*
X18084800Y4904427D01*
X18071378Y4769240D01*
X18027959Y4728499D01*
X17949807Y4778239D01*
X17942560Y4785361D01*
X17893841Y4892821D01*
X17885256Y5046677D01*
X17917682Y5199610D01*
X17934187Y5235740D01*
X17953921Y5332491D01*
X17934229Y5434678D01*
X17888455Y5506268D01*
X17831727Y5512373D01*
X17773650Y5528029D01*
X17708925Y5596099D01*
X17630899Y5707497D01*
X17523962Y5571549D01*
X17425135Y5478050D01*
X17330545Y5435806D01*
X17325333Y5435600D01*
X17216482Y5398856D01*
X17170400Y5359400D01*
X17089103Y5295111D01*
X17047049Y5283200D01*
X16971947Y5254551D01*
X16855988Y5182770D01*
X16811969Y5150812D01*
X16653715Y5044978D01*
X16490167Y4955452D01*
X16465214Y4944137D01*
X16355926Y4884959D01*
X16334929Y4834864D01*
X16350914Y4812366D01*
X16405229Y4727851D01*
X16366092Y4681205D01*
X16301364Y4673600D01*
X16223004Y4696828D01*
X16222577Y4747213D01*
X16220323Y4798759D01*
X16177212Y4792578D01*
X16122901Y4722139D01*
X16103600Y4590328D01*
X16085382Y4456854D01*
X16018819Y4386394D01*
X15989300Y4373420D01*
X15893677Y4357472D01*
X15858455Y4401079D01*
X15820983Y4449690D01*
X15799908Y4445685D01*
X15789048Y4386550D01*
X13888070Y4386550D01*
X13824107Y4495199D01*
X15174798Y4495199D01*
X15195627Y4466428D01*
X15287498Y4464046D01*
X15431947Y4523175D01*
X15609574Y4633621D01*
X15798800Y4783282D01*
X15997277Y4944952D01*
X16229592Y5114339D01*
X16480000Y5282173D01*
X16732756Y5439183D01*
X16972117Y5576100D01*
X17182338Y5683652D01*
X17347674Y5752570D01*
X17452381Y5773582D01*
X17471417Y5768138D01*
X17490592Y5794512D01*
X17486559Y5889198D01*
X17486171Y5891879D01*
X17459319Y5982092D01*
X17405918Y6009677D01*
X17313667Y5971381D01*
X17170265Y5863950D01*
X17075531Y5783287D01*
X16911603Y5656092D01*
X16739032Y5545501D01*
X16656431Y5503066D01*
X16535004Y5440738D01*
X16465535Y5388120D01*
X16459200Y5375024D01*
X16418038Y5338352D01*
X16384787Y5334000D01*
X16303940Y5293666D01*
X16256000Y5232400D01*
X16165525Y5150756D01*
X16086572Y5130800D01*
X15967473Y5105145D01*
X15910197Y5069478D01*
X15845450Y5038565D01*
X15767532Y5089560D01*
X15761949Y5095079D01*
X15707925Y5161348D01*
X15718603Y5218181D01*
X15789385Y5296102D01*
X15875256Y5367958D01*
X15926940Y5365459D01*
X15947318Y5339988D01*
X15986889Y5304907D01*
X16019976Y5361803D01*
X16024086Y5374359D01*
X16088280Y5454849D01*
X16224190Y5554532D01*
X16372539Y5638131D01*
X16706663Y5835961D01*
X16951137Y6045355D01*
X17085625Y6232203D01*
X17124030Y6348957D01*
X17160945Y6532950D01*
X17189891Y6749943D01*
X17195948Y6815111D01*
X17211983Y7027917D01*
X17214809Y7162200D01*
X17201100Y7240553D01*
X17167531Y7285571D01*
X17122589Y7313601D01*
X16992497Y7360265D01*
X16880616Y7339801D01*
X16772036Y7242990D01*
X16651852Y7060613D01*
X16619185Y7002284D01*
X16439822Y6684212D01*
X16228753Y6324527D01*
X16005618Y5955671D01*
X15790056Y5610087D01*
X15601706Y5320218D01*
X15593914Y5308600D01*
X15393363Y4998772D01*
X15257750Y4762235D01*
X15185441Y4595530D01*
X15174798Y4495199D01*
X13824107Y4495199D01*
X13812057Y4515667D01*
X13684857Y4856468D01*
X13609737Y5089483D01*
X13524450Y5314241D01*
X13444184Y5491662D01*
X13422745Y5530858D01*
X13290946Y5755756D01*
X13229596Y5582978D01*
X13175683Y5447429D01*
X13094841Y5262316D01*
X13010363Y5080000D01*
X12945485Y4939323D01*
X12901341Y4820881D01*
X12873947Y4699626D01*
X12859321Y4550508D01*
X12853480Y4348478D01*
X12852440Y4086828D01*
X12846789Y3754662D01*
X12830395Y3499845D01*
X12804030Y3332093D01*
X12788899Y3287125D01*
X12725400Y3150393D01*
X6996105Y3149997D01*
X6103194Y3150049D01*
X5306495Y3150385D01*
X4600622Y3151074D01*
X3980185Y3152190D01*
X3439799Y3153804D01*
X2974076Y3155987D01*
X2577628Y3158811D01*
X2245068Y3162346D01*
X1971008Y3166666D01*
X1750061Y3171842D01*
X1576840Y3177944D01*
X1445957Y3185045D01*
X1352025Y3193216D01*
X1289656Y3202529D01*
X1253463Y3213055D01*
X1238058Y3224866D01*
X1237304Y3226494D01*
X1242295Y3303284D01*
X1278170Y3454668D01*
X1338447Y3660758D01*
X1416645Y3901669D01*
X1506282Y4157515D01*
X1600877Y4408409D01*
X1693946Y4634465D01*
X1702791Y4654647D01*
X1798627Y4847211D01*
X1900163Y5024950D01*
X2894876Y5024950D01*
X2926114Y4921818D01*
X2946400Y4902200D01*
X2968994Y4840539D01*
X2986422Y4702186D01*
X2996081Y4512019D01*
X2997200Y4416602D01*
X2991838Y4198556D01*
X2977009Y4043147D01*
X2954591Y3967187D01*
X2946400Y3962400D01*
X2920340Y3915415D01*
X2902334Y3789483D01*
X2895600Y3607146D01*
X2895600Y3251200D01*
X5245489Y3251200D01*
X5210507Y3517900D01*
X5176204Y3694644D01*
X5128148Y3845294D01*
X5101571Y3898322D01*
X5055023Y4004111D01*
X5082099Y4098895D01*
X5089470Y4111087D01*
X5119478Y4173860D01*
X5121156Y4243233D01*
X5088518Y4343402D01*
X5015579Y4498563D01*
X4972473Y4584011D01*
X4933582Y4700789D01*
X4927600Y4752451D01*
X4904356Y4861223D01*
X4872457Y4935715D01*
X4817314Y5038751D01*
X4707357Y4936778D01*
X4591794Y4855280D01*
X4495800Y4817702D01*
X4406660Y4834926D01*
X4375544Y4908251D01*
X4402314Y5010470D01*
X4486835Y5114376D01*
X4497325Y5122925D01*
X4584436Y5200776D01*
X4598484Y5261207D01*
X4553692Y5339291D01*
X4476002Y5450209D01*
X4442293Y5315905D01*
X4410118Y5217677D01*
X4385064Y5181600D01*
X4320426Y5218465D01*
X4260120Y5297666D01*
X4237466Y5372112D01*
X4241559Y5384411D01*
X4225537Y5424034D01*
X4161991Y5435600D01*
X4094780Y5426054D01*
X4067411Y5379630D01*
X4069958Y5269649D01*
X4076643Y5206198D01*
X4081185Y5060338D01*
X4062654Y4964339D01*
X4028696Y4934810D01*
X3986954Y4988360D01*
X3982006Y5000581D01*
X3920424Y5070050D01*
X3883958Y5080000D01*
X3840794Y5111968D01*
X3839545Y5218491D01*
X3845240Y5257800D01*
X3856950Y5376913D01*
X3830419Y5426515D01*
X3765846Y5435600D01*
X3676747Y5467146D01*
X3657600Y5515224D01*
X3686436Y5570643D01*
X3759200Y5562600D01*
X3838867Y5556162D01*
X3855354Y5613721D01*
X3810526Y5744061D01*
X3801845Y5763410D01*
X3732266Y5872563D01*
X3667583Y5881326D01*
X3630675Y5839534D01*
X3575379Y5814201D01*
X3533389Y5839685D01*
X3460166Y5857047D01*
X3345517Y5807250D01*
X3288044Y5770287D01*
X3170100Y5702399D01*
X3087178Y5676693D01*
X3071221Y5681235D01*
X3055411Y5668961D01*
X3067807Y5609224D01*
X3058443Y5486566D01*
X2997918Y5410850D01*
X2934801Y5309187D01*
X2899113Y5167314D01*
X2894876Y5024950D01*
X1900163Y5024950D01*
X1921414Y5062148D01*
X2001038Y5187368D01*
X2124921Y5380742D01*
X2181585Y5509383D01*
X2163438Y5586378D01*
X2062886Y5624814D01*
X1872335Y5637779D01*
X1739114Y5638800D01*
X1419396Y5656011D01*
X1163838Y5715115D01*
X939742Y5827321D01*
X739766Y5981365D01*
X689747Y6028222D01*
X654528Y6078373D01*
X631515Y6149276D01*
X618111Y6258389D01*
X611719Y6423170D01*
X609745Y6661077D01*
X609600Y6856697D01*
X608675Y7021886D01*
X3351705Y7021886D01*
X3484313Y6766290D01*
X3577856Y6601486D01*
X3672316Y6459067D01*
X3718514Y6401647D01*
X3797781Y6329994D01*
X3856994Y6331805D01*
X3905113Y6369530D01*
X4008929Y6417428D01*
X4062156Y6401940D01*
X4139837Y6395475D01*
X4253621Y6422264D01*
X4360603Y6467543D01*
X4417877Y6516546D01*
X4419600Y6524950D01*
X4435356Y6583389D01*
X4450435Y6625246D01*
X4451103Y6679447D01*
X4383543Y6702423D01*
X4298035Y6705600D01*
X4178389Y6692164D01*
X4116962Y6658999D01*
X4114800Y6650567D01*
X4078328Y6613087D01*
X4051300Y6616926D01*
X3971819Y6599524D01*
X3925134Y6557659D01*
X3874801Y6509109D01*
X3843911Y6547116D01*
X3830309Y6591300D01*
X3789309Y6680063D01*
X3755042Y6705600D01*
X3694268Y6736540D01*
X3589503Y6814951D01*
X3531820Y6863743D01*
X3351705Y7021886D01*
X608675Y7021886D01*
X608404Y7070298D01*
X5997180Y7070298D01*
X6011002Y6903659D01*
X6039731Y6772551D01*
X6052730Y6742329D01*
X6075689Y6645971D01*
X6094510Y6453828D01*
X6108852Y6171646D01*
X6118373Y5805169D01*
X6121240Y5589969D01*
X6124664Y5274303D01*
X6128359Y4993844D01*
X6132068Y4764222D01*
X6135530Y4601067D01*
X6138486Y4520008D01*
X6139109Y4514425D01*
X6188090Y4477071D01*
X6248400Y4455681D01*
X6334800Y4402992D01*
X6338075Y4334162D01*
X6261100Y4284698D01*
X6218770Y4259447D01*
X6190692Y4198227D01*
X6173062Y4082115D01*
X6162075Y3892188D01*
X6158140Y3772592D01*
X6155534Y3518908D01*
X6165914Y3353523D01*
X6190492Y3263822D01*
X6208940Y3243117D01*
X6277700Y3231108D01*
X6432146Y3221242D01*
X6656388Y3213501D01*
X6934535Y3207869D01*
X7250695Y3204328D01*
X7588979Y3202862D01*
X7933495Y3203453D01*
X8268353Y3206084D01*
X8577662Y3210739D01*
X8845531Y3217400D01*
X9056069Y3226051D01*
X9193386Y3236674D01*
X9239510Y3246362D01*
X9281591Y3307658D01*
X9286161Y3428984D01*
X9274497Y3524984D01*
X9261245Y3685686D01*
X9282536Y3756185D01*
X9293287Y3759200D01*
X9329949Y3803611D01*
X9347038Y3911816D01*
X9347200Y3924636D01*
X9362362Y4094057D01*
X9398587Y4267536D01*
X9469606Y4564352D01*
X9518217Y4895654D01*
X9546190Y5280693D01*
X9555298Y5738720D01*
X9553941Y5956038D01*
X9551634Y6327439D01*
X9555702Y6607292D01*
X9566980Y6805496D01*
X9586300Y6931950D01*
X9614497Y6996555D01*
X9642723Y7010382D01*
X9652477Y6961929D01*
X9661048Y6825984D01*
X9668039Y6616651D01*
X9673054Y6348035D01*
X9675695Y6034242D01*
X9675974Y5829282D01*
X9674028Y5420293D01*
X9668730Y5098286D01*
X9659238Y4848677D01*
X9644709Y4656880D01*
X9624298Y4508308D01*
X9597162Y4388376D01*
X9591527Y4368800D01*
X9480817Y3962669D01*
X9416736Y3646018D01*
X9399209Y3418100D01*
X9428160Y3278166D01*
X9478354Y3231236D01*
X9553928Y3221439D01*
X9713849Y3213660D01*
X9942552Y3207838D01*
X10224471Y3203913D01*
X10544042Y3201824D01*
X10885698Y3201511D01*
X11233875Y3202912D01*
X11573007Y3205968D01*
X11887529Y3210617D01*
X12161875Y3216799D01*
X12380482Y3224454D01*
X12527782Y3233521D01*
X12587420Y3243340D01*
X12627388Y3321409D01*
X12616701Y3378381D01*
X12604997Y3445164D01*
X12660641Y3441321D01*
X12667822Y3438631D01*
X12710280Y3431588D01*
X12734806Y3462872D01*
X12744802Y3550591D01*
X12743671Y3712857D01*
X12740141Y3823512D01*
X12728450Y4038486D01*
X12709909Y4166619D01*
X12681477Y4222600D01*
X12656552Y4227318D01*
X12557563Y4243433D01*
X12529552Y4260985D01*
X12455957Y4283272D01*
X12306410Y4303349D01*
X12106558Y4318281D01*
X11985743Y4323202D01*
X11740154Y4326446D01*
X11572455Y4317413D01*
X11459387Y4293359D01*
X11377686Y4251538D01*
X11377540Y4251436D01*
X11241830Y4186527D01*
X11100879Y4163586D01*
X10985078Y4181924D01*
X10924823Y4240851D01*
X10922000Y4261765D01*
X10963360Y4360461D01*
X11076266Y4401639D01*
X11211055Y4387238D01*
X11301256Y4373943D01*
X11318412Y4413595D01*
X11305116Y4463733D01*
X11304020Y4564570D01*
X11374469Y4605134D01*
X11503564Y4581645D01*
X11584391Y4545571D01*
X11694038Y4501757D01*
X11823081Y4482570D01*
X12002526Y4485303D01*
X12147776Y4496383D01*
X12334673Y4518509D01*
X12474863Y4545739D01*
X12544172Y4573041D01*
X12547600Y4579597D01*
X12579933Y4646201D01*
X12658116Y4741410D01*
X12661900Y4745339D01*
X12866408Y5004544D01*
X13010188Y5287463D01*
X13077917Y5563176D01*
X13079894Y5588773D01*
X13106906Y5737139D01*
X13117974Y5765800D01*
X13157200Y5765800D01*
X13182600Y5740400D01*
X13208000Y5765800D01*
X13182600Y5791200D01*
X13157200Y5765800D01*
X13117974Y5765800D01*
X13160450Y5875782D01*
X13224944Y5971222D01*
X13268717Y5994400D01*
X13299278Y6039043D01*
X13329751Y6149809D01*
X13336102Y6184900D01*
X13367065Y6336618D01*
X13415883Y6537182D01*
X13461478Y6705600D01*
X13523953Y6926013D01*
X13587291Y7151946D01*
X13625471Y7289800D01*
X13679473Y7449710D01*
X13739009Y7532408D01*
X13810902Y7560519D01*
X13912909Y7544093D01*
X13954229Y7471619D01*
X13994336Y7387147D01*
X14026724Y7366000D01*
X14067396Y7325178D01*
X14071600Y7295454D01*
X14120458Y7237357D01*
X14259778Y7189170D01*
X14478674Y7153625D01*
X14706600Y7135991D01*
X14894902Y7120857D01*
X15069796Y7097346D01*
X15122741Y7087072D01*
X15342458Y7087852D01*
X15510864Y7136841D01*
X15721304Y7186682D01*
X15872027Y7156010D01*
X15959947Y7048665D01*
X15981978Y6868486D01*
X15935034Y6619313D01*
X15932820Y6611795D01*
X15869053Y6420204D01*
X15792737Y6224479D01*
X15714441Y6047975D01*
X15644732Y5914048D01*
X15594179Y5846053D01*
X15584501Y5842000D01*
X15534402Y5799603D01*
X15473764Y5697600D01*
X15420994Y5573776D01*
X15394498Y5465916D01*
X15393944Y5450823D01*
X15400722Y5392151D01*
X15428929Y5419882D01*
X15452939Y5461000D01*
X15528271Y5560743D01*
X15578395Y5603225D01*
X15639811Y5681983D01*
X15646400Y5717417D01*
X15668778Y5796515D01*
X15727692Y5935765D01*
X15810812Y6106242D01*
X15818354Y6120778D01*
X15911869Y6324056D01*
X15987087Y6530794D01*
X16025405Y6684604D01*
X16052710Y6826551D01*
X16087937Y6889484D01*
X16146034Y6895744D01*
X16163894Y6891598D01*
X16285603Y6904760D01*
X16354242Y6950180D01*
X16491452Y7119680D01*
X16621027Y7340268D01*
X16734073Y7587918D01*
X16821696Y7838598D01*
X16875002Y8068281D01*
X16885096Y8252937D01*
X16866190Y8333302D01*
X16773746Y8517539D01*
X16664243Y8702268D01*
X16552786Y8865622D01*
X16454482Y8985738D01*
X16384438Y9040749D01*
X16376520Y9042053D01*
X16298926Y9077667D01*
X16256000Y9118600D01*
X16220762Y9180781D01*
X16251567Y9194800D01*
X16284112Y9218221D01*
X16253843Y9301081D01*
X16249627Y9309100D01*
X16187995Y9402950D01*
X16078902Y9549795D01*
X15941347Y9725779D01*
X15794325Y9907048D01*
X15656836Y10069745D01*
X15549191Y10188657D01*
X15476019Y10313960D01*
X15474981Y10397561D01*
X15468460Y10489699D01*
X15397850Y10528894D01*
X15323057Y10575148D01*
X15298036Y10679234D01*
X15297956Y10726390D01*
X15279717Y10899330D01*
X15235017Y11049000D01*
X15167630Y11201400D01*
X15149264Y10998200D01*
X15121625Y10847931D01*
X15076572Y10733992D01*
X15065659Y10718800D01*
X15013641Y10626437D01*
X14955646Y10478477D01*
X14929865Y10396374D01*
X14872501Y10244138D01*
X14805781Y10133301D01*
X14773337Y10104137D01*
X14685607Y10083761D01*
X14654035Y10138441D01*
X14680836Y10257137D01*
X14723870Y10350714D01*
X14810345Y10538739D01*
X14887343Y10747371D01*
X14949677Y10955647D01*
X14992158Y11142606D01*
X15009599Y11287287D01*
X14996812Y11368727D01*
X14978413Y11379200D01*
X14946230Y11422818D01*
X14935200Y11509624D01*
X14921446Y11601804D01*
X14865083Y11616254D01*
X14833600Y11607800D01*
X14750696Y11605760D01*
X14737403Y11652403D01*
X14800153Y11716846D01*
X14809716Y11722444D01*
X14855529Y11761096D01*
X14857120Y11822917D01*
X14814392Y11940694D01*
X14809034Y11953568D01*
X14725780Y12094486D01*
X14630508Y12141178D01*
X14628123Y12141201D01*
X14525476Y12180491D01*
X14485663Y12287920D01*
X14514071Y12447827D01*
X14518489Y12459883D01*
X14548852Y12595147D01*
X14516817Y12724801D01*
X14495397Y12769892D01*
X14403476Y12907576D01*
X14274685Y13048723D01*
X14135634Y13169072D01*
X14012934Y13244364D01*
X13960180Y13257826D01*
X13858720Y13302561D01*
X13777734Y13406343D01*
X13746488Y13526997D01*
X13750959Y13559314D01*
X13736819Y13664323D01*
X13690915Y13733827D01*
X13600384Y13803374D01*
X13543534Y13810006D01*
X13541276Y13751923D01*
X13543257Y13746539D01*
X13540710Y13665695D01*
X13472964Y13636859D01*
X13368589Y13671876D01*
X13289069Y13779093D01*
X13277622Y13886888D01*
X13268917Y13986667D01*
X13217687Y14062553D01*
X13101765Y14142493D01*
X13052582Y14170592D01*
X12896002Y14258806D01*
X12760306Y14336251D01*
X12713371Y14363514D01*
X12630079Y14400041D01*
X12592818Y14366889D01*
X12584550Y14338114D01*
X12564306Y14275940D01*
X12540964Y14309788D01*
X12530061Y14338300D01*
X12487744Y14458179D01*
X12472994Y14503400D01*
X12415783Y14571821D01*
X12338446Y14563598D01*
X12280677Y14484212D01*
X12278499Y14476542D01*
X12239696Y14396901D01*
X12209074Y14380958D01*
X12117795Y14376826D01*
X12075214Y14309323D01*
X12066894Y14185873D01*
X12079459Y14033347D01*
X12107667Y13912668D01*
X12111836Y13902833D01*
X12118666Y13798233D01*
X12045582Y13662489D01*
X12040475Y13655519D01*
X11970021Y13538307D01*
X11974238Y13473092D01*
X11985237Y13464202D01*
X12009856Y13413604D01*
X11966602Y13362121D01*
X11886409Y13332535D01*
X11816491Y13339923D01*
X11762902Y13349818D01*
X11761654Y13302788D01*
X11787066Y13229543D01*
X11813974Y13106974D01*
X11774523Y12999617D01*
X11744356Y12956061D01*
X11672853Y12841915D01*
X11617041Y12723555D01*
X11589452Y12632082D01*
X11600221Y12598400D01*
X11720669Y12641316D01*
X11781484Y12757424D01*
X11785600Y12807036D01*
X11808737Y12923458D01*
X11860628Y12954000D01*
X11954486Y12909241D01*
X12032579Y12798986D01*
X12075407Y12659271D01*
X12073461Y12560671D01*
X12063999Y12492271D01*
X12082975Y12510752D01*
X12131361Y12612343D01*
X12233492Y12750800D01*
X12547600Y12750800D01*
X12566186Y12708986D01*
X12581466Y12716934D01*
X12587546Y12777222D01*
X12581466Y12784667D01*
X12551266Y12777694D01*
X12547600Y12750800D01*
X12233492Y12750800D01*
X12251919Y12775781D01*
X12421626Y12873627D01*
X12611175Y12893588D01*
X12725549Y12861575D01*
X12817409Y12829092D01*
X12849823Y12854845D01*
X12852400Y12889050D01*
X12866906Y12943823D01*
X12911207Y12915513D01*
X12941529Y12835803D01*
X12917485Y12791053D01*
X12889565Y12692917D01*
X12900273Y12628432D01*
X12929111Y12574621D01*
X12968246Y12587598D01*
X13038650Y12676262D01*
X13049854Y12691932D01*
X13151013Y12803069D01*
X13240064Y12849407D01*
X13297857Y12825145D01*
X13309600Y12770597D01*
X13283254Y12684957D01*
X13215353Y12550455D01*
X13150779Y12443692D01*
X13055003Y12304644D01*
X12980889Y12233791D01*
X12898972Y12211528D01*
X12807879Y12215542D01*
X12665607Y12228327D01*
X12562091Y12237087D01*
X12554792Y12237647D01*
X12508738Y12277780D01*
X12517660Y12369800D01*
X12525189Y12468230D01*
X12475365Y12496800D01*
X12388114Y12465691D01*
X12369287Y12445172D01*
X12313242Y12412789D01*
X12297746Y12418038D01*
X12248572Y12397117D01*
X12191072Y12317267D01*
X12123776Y12223312D01*
X12066008Y12191124D01*
X12039699Y12232273D01*
X12039600Y12237365D01*
X11999452Y12298419D01*
X11903100Y12313550D01*
X11786674Y12279221D01*
X11761803Y12264580D01*
X11688074Y12202370D01*
X11626899Y12129969D01*
X11593902Y12071687D01*
X11604704Y12051833D01*
X11633781Y12065360D01*
X11677833Y12054814D01*
X11684000Y12023949D01*
X11644659Y11955158D01*
X11544867Y11863105D01*
X11481233Y11817317D01*
X11313768Y11680277D01*
X11172175Y11517046D01*
X11073588Y11352647D01*
X11035141Y11212103D01*
X11039366Y11171995D01*
X11049522Y11036502D01*
X11006449Y10954126D01*
X10928684Y10944732D01*
X10875516Y10934106D01*
X10812113Y10862067D01*
X10729428Y10715985D01*
X10655300Y10563056D01*
X10569453Y10371266D01*
X10503697Y10208779D01*
X10468225Y10101455D01*
X10464800Y10079823D01*
X10438360Y9981138D01*
X10391418Y9891513D01*
X10336869Y9764883D01*
X10280578Y9560593D01*
X10227263Y9302378D01*
X10181643Y9013971D01*
X10148435Y8719108D01*
X10141816Y8636000D01*
X10117538Y8401416D01*
X10080891Y8163746D01*
X10043167Y7988337D01*
X10004842Y7826728D01*
X9999503Y7732520D01*
X10026912Y7677103D01*
X10040450Y7664617D01*
X10104327Y7582626D01*
X10078149Y7529687D01*
X10013115Y7518400D01*
X9922046Y7469618D01*
X9832464Y7321746D01*
X9823975Y7302500D01*
X9730920Y7086600D01*
X9713250Y7286206D01*
X9722485Y7472302D01*
X9768801Y7655099D01*
X9773807Y7667206D01*
X9832540Y7839779D01*
X9893088Y8076246D01*
X9947835Y8339341D01*
X9989165Y8591797D01*
X10009462Y8796346D01*
X10010283Y8824359D01*
X10022226Y8959893D01*
X10051929Y9160259D01*
X10094036Y9391355D01*
X10116314Y9499600D01*
X10165389Y9741626D01*
X10208348Y9976582D01*
X10238401Y10166442D01*
X10245533Y10223500D01*
X10275718Y10382401D01*
X10320726Y10459731D01*
X10337267Y10464800D01*
X10413325Y10509073D01*
X10447205Y10629619D01*
X10434768Y10801820D01*
X10420789Y10917396D01*
X10448041Y10964540D01*
X10515854Y10972800D01*
X10566910Y10976944D01*
X10598750Y11001678D01*
X10614720Y11065456D01*
X10618164Y11186733D01*
X10612428Y11383964D01*
X10608490Y11483839D01*
X10594017Y11743869D01*
X10570000Y11915924D01*
X10528363Y12013614D01*
X10461029Y12050554D01*
X10359922Y12040355D01*
X10290067Y12020551D01*
X10178662Y11976661D01*
X10145786Y11924322D01*
X10165347Y11847737D01*
X10203071Y11737730D01*
X10194282Y11692926D01*
X10129830Y11684044D01*
X10114169Y11684000D01*
X10021067Y11732163D01*
X9964412Y11836400D01*
X9935509Y11942373D01*
X9955234Y11983681D01*
X9995002Y11988800D01*
X10048938Y12002689D01*
X10017760Y12049760D01*
X9966695Y12148973D01*
X9956800Y12216423D01*
X9911321Y12307661D01*
X9795147Y12391480D01*
X9638664Y12450251D01*
X9525000Y12466901D01*
X9497816Y12479867D01*
X10176933Y12479867D01*
X10183906Y12449667D01*
X10210800Y12446000D01*
X10252614Y12464587D01*
X10250956Y12467775D01*
X10333504Y12467775D01*
X10364218Y12419373D01*
X10430365Y12367421D01*
X10462161Y12383422D01*
X10441488Y12442621D01*
X10372382Y12494121D01*
X10353981Y12496800D01*
X10333504Y12467775D01*
X10250956Y12467775D01*
X10244666Y12479867D01*
X10184378Y12485947D01*
X10176933Y12479867D01*
X9497816Y12479867D01*
X9447974Y12503639D01*
X9405446Y12580198D01*
X9406357Y12658224D01*
X9459646Y12699362D01*
X9470666Y12700000D01*
X9533495Y12731742D01*
X9536178Y12812275D01*
X9491407Y12919557D01*
X9411877Y13031547D01*
X9310280Y13126206D01*
X9199308Y13181493D01*
X9192441Y13183118D01*
X9101379Y13218448D01*
X9023732Y13293283D01*
X8940807Y13429423D01*
X8898442Y13514001D01*
X9652000Y13514001D01*
X9694085Y13467789D01*
X9740900Y13451740D01*
X9817718Y13476666D01*
X9853857Y13567036D01*
X9836777Y13690669D01*
X9835411Y13694295D01*
X9773970Y13758932D01*
X9742494Y13766023D01*
X9711943Y13750254D01*
X9753600Y13714293D01*
X9801275Y13667216D01*
X9760815Y13623060D01*
X9740900Y13610947D01*
X9667780Y13548564D01*
X9652000Y13514001D01*
X8898442Y13514001D01*
X8884046Y13542739D01*
X8800279Y13707882D01*
X8728549Y13834148D01*
X8683635Y13895632D01*
X8682079Y13896718D01*
X8633145Y13875177D01*
X8562543Y13793676D01*
X8491933Y13684156D01*
X8442972Y13578555D01*
X8432989Y13529408D01*
X8400887Y13456815D01*
X8321236Y13349796D01*
X8293100Y13318002D01*
X8190933Y13206463D01*
X8113621Y13121178D01*
X8102600Y13108823D01*
X8019331Y13033046D01*
X7959143Y12987964D01*
X7898716Y12928655D01*
X7902716Y12851295D01*
X7929197Y12786835D01*
X7994283Y12688415D01*
X8058783Y12649200D01*
X8145582Y12607934D01*
X8217583Y12511568D01*
X8252494Y12401252D01*
X8234469Y12324868D01*
X8143229Y12262510D01*
X8016088Y12223702D01*
X7894655Y12216059D01*
X7820544Y12247195D01*
X7819420Y12248916D01*
X7780231Y12259290D01*
X7747554Y12193746D01*
X7690630Y12108615D01*
X7595282Y12102703D01*
X7522777Y12105586D01*
X7482345Y12062489D01*
X7457650Y11949692D01*
X7450001Y11891770D01*
X7424251Y11713684D01*
X7395254Y11553191D01*
X7387013Y11515846D01*
X7375713Y11408540D01*
X7422789Y11357472D01*
X7463107Y11344294D01*
X7558445Y11278348D01*
X7640139Y11154931D01*
X7644821Y11144149D01*
X7704978Y11031725D01*
X7761335Y10974600D01*
X7769807Y10972800D01*
X7818359Y10932222D01*
X7823200Y10903451D01*
X7852687Y10817954D01*
X7924092Y10705898D01*
X7928487Y10700251D01*
X8068554Y10585961D01*
X8228695Y10570030D01*
X8404832Y10652132D01*
X8515688Y10747502D01*
X8696790Y10928604D01*
X8662769Y11344402D01*
X8625412Y11637224D01*
X8568129Y11876321D01*
X8496034Y12044626D01*
X8431440Y12116641D01*
X8393924Y12185589D01*
X8382000Y12277760D01*
X8386070Y12348314D01*
X8413777Y12384280D01*
X8488361Y12392631D01*
X8633065Y12380340D01*
X8699500Y12373017D01*
X8887960Y12342407D01*
X9049807Y12299410D01*
X9131300Y12263684D01*
X9213855Y12224346D01*
X9245600Y12235213D01*
X9285377Y12260167D01*
X9378581Y12252792D01*
X9486014Y12222520D01*
X9568482Y12178783D01*
X9588935Y12152595D01*
X9565499Y12098501D01*
X9516533Y12083850D01*
X9393894Y12075700D01*
X9283882Y12068792D01*
X9138819Y12036765D01*
X9063762Y11971606D01*
X9073236Y11887640D01*
X9084558Y11872213D01*
X9108271Y11806348D01*
X9059553Y11726554D01*
X9016365Y11683405D01*
X8911077Y11543654D01*
X8901891Y11416875D01*
X8966200Y11328400D01*
X9030841Y11240164D01*
X9042400Y11191901D01*
X9080743Y11113737D01*
X9176544Y11008566D01*
X9300963Y10902999D01*
X9425159Y10823648D01*
X9457019Y10809337D01*
X9535635Y10803252D01*
X9550400Y10840510D01*
X9582099Y10916464D01*
X9658060Y11012840D01*
X9749573Y11100455D01*
X9827932Y11150130D01*
X9855363Y11150500D01*
X9917654Y11162013D01*
X10015948Y11222530D01*
X10022341Y11227493D01*
X10135145Y11307737D01*
X10191987Y11318334D01*
X10210233Y11259961D01*
X10210800Y11234853D01*
X10175849Y11159265D01*
X10082502Y11037384D01*
X9948014Y10890734D01*
X9884996Y10828453D01*
X9710268Y10668279D01*
X9581323Y10571674D01*
X9477486Y10525362D01*
X9397727Y10515600D01*
X9300665Y10510764D01*
X9254810Y10478346D01*
X9243438Y10391489D01*
X9247485Y10274300D01*
X9254570Y10034639D01*
X9244760Y9868966D01*
X9211329Y9750178D01*
X9147551Y9651175D01*
X9072880Y9570721D01*
X8937077Y9455801D01*
X8807706Y9405859D01*
X8698730Y9398000D01*
X8499037Y9430917D01*
X8370885Y9497440D01*
X8244468Y9596879D01*
X8101089Y9447224D01*
X7986396Y9343542D01*
X7883133Y9275452D01*
X7865055Y9268162D01*
X7788771Y9196469D01*
X7772400Y9118794D01*
X7724736Y8963558D01*
X7593209Y8809548D01*
X7395011Y8668478D01*
X7147335Y8552064D01*
X6867374Y8472022D01*
X6807200Y8461111D01*
X6674216Y8418488D01*
X6573950Y8324037D01*
X6513650Y8229379D01*
X6402907Y8058279D01*
X6270043Y7882497D01*
X6234347Y7840357D01*
X6140923Y7713507D01*
X6089523Y7603078D01*
X6085827Y7565341D01*
X6072631Y7472913D01*
X6047630Y7443703D01*
X6015247Y7374290D01*
X5998513Y7238498D01*
X5997180Y7070298D01*
X608404Y7070298D01*
X607924Y7155895D01*
X610542Y7369186D01*
X628927Y7512008D01*
X674550Y7599800D01*
X758882Y7648001D01*
X893396Y7672050D01*
X1089563Y7687386D01*
X1234922Y7698275D01*
X1631644Y7730835D01*
X1598235Y7891318D01*
X1555529Y8029399D01*
X2032000Y8029399D01*
X2068876Y7977668D01*
X2082800Y7975600D01*
X2132279Y7992933D01*
X2133600Y7998002D01*
X2098002Y8041374D01*
X2082800Y8051800D01*
X2035988Y8047773D01*
X2032000Y8029399D01*
X1555529Y8029399D01*
X1550465Y8045769D01*
X1508370Y8133128D01*
X2559494Y8133128D01*
X2631886Y8014192D01*
X2777723Y7901975D01*
X2823506Y7877390D01*
X2953669Y7799998D01*
X3034687Y7727983D01*
X3048000Y7698857D01*
X3005594Y7602228D01*
X2909634Y7539084D01*
X2817408Y7537535D01*
X2759900Y7547961D01*
X2774148Y7512991D01*
X2848498Y7445241D01*
X2971294Y7357323D01*
X3002456Y7337282D01*
X3144103Y7260227D01*
X3241820Y7243623D01*
X3299958Y7263308D01*
X3385999Y7284214D01*
X3480896Y7239874D01*
X3540272Y7192114D01*
X3639264Y7123351D01*
X3697657Y7116286D01*
X3702690Y7124017D01*
X3683297Y7195241D01*
X3676177Y7202494D01*
X4713783Y7202494D01*
X4727669Y7184260D01*
X4796092Y7149919D01*
X4880258Y7149510D01*
X4927021Y7182116D01*
X4927600Y7187713D01*
X4884502Y7206457D01*
X4800155Y7226119D01*
X4715234Y7233985D01*
X4713783Y7202494D01*
X3676177Y7202494D01*
X3639190Y7240171D01*
X3633379Y7247467D01*
X5198533Y7247467D01*
X5205506Y7217267D01*
X5232400Y7213600D01*
X5274214Y7232187D01*
X5266266Y7247467D01*
X5205978Y7253547D01*
X5198533Y7247467D01*
X3633379Y7247467D01*
X3599658Y7289800D01*
X5384800Y7289800D01*
X5410200Y7264400D01*
X5435600Y7289800D01*
X5410200Y7315200D01*
X5384800Y7289800D01*
X3599658Y7289800D01*
X3569618Y7327511D01*
X3556000Y7381432D01*
X3551066Y7391400D01*
X5638800Y7391400D01*
X5664200Y7366000D01*
X5689600Y7391400D01*
X5664200Y7416800D01*
X5638800Y7391400D01*
X3551066Y7391400D01*
X3518727Y7456726D01*
X3423275Y7562037D01*
X3345480Y7629832D01*
X3326698Y7645400D01*
X4267200Y7645400D01*
X4292600Y7620000D01*
X4318000Y7645400D01*
X4292600Y7670800D01*
X4267200Y7645400D01*
X3326698Y7645400D01*
X3193228Y7756024D01*
X3010927Y7913720D01*
X2867647Y8041962D01*
X2733753Y8155292D01*
X2629254Y8227101D01*
X2574711Y8243497D01*
X2572616Y8241278D01*
X2559494Y8133128D01*
X1508370Y8133128D01*
X1492589Y8165876D01*
X1445483Y8315969D01*
X1452164Y8406703D01*
X1453302Y8520758D01*
X1398417Y8559800D01*
X3200400Y8559800D01*
X3225800Y8534400D01*
X3251200Y8559800D01*
X3225800Y8585200D01*
X3200400Y8559800D01*
X1398417Y8559800D01*
X1390530Y8565410D01*
X1276045Y8538559D01*
X1148508Y8458958D01*
X1046091Y8363123D01*
X996439Y8280633D01*
X996653Y8257545D01*
X974190Y8195850D01*
X892029Y8158700D01*
X795329Y8112595D01*
X761999Y8060542D01*
X733340Y7971115D01*
X687415Y7896410D01*
X653955Y7861253D01*
X632140Y7871245D01*
X619438Y7940419D01*
X613314Y8082811D01*
X611234Y8312454D01*
X611215Y8318500D01*
X612870Y8558620D01*
X621209Y8713822D01*
X638606Y8800697D01*
X667440Y8835837D01*
X685800Y8839200D01*
X753444Y8863744D01*
X761999Y8884565D01*
X721572Y8940099D01*
X685799Y8959171D01*
X628217Y9032153D01*
X609600Y9163393D01*
X614607Y9279145D01*
X647801Y9314446D01*
X736444Y9290444D01*
X761339Y9281100D01*
X868372Y9226775D01*
X1030121Y9128355D01*
X1219889Y9002522D01*
X1324141Y8929388D01*
X1502199Y8807729D01*
X1651435Y8716678D01*
X1752059Y8667712D01*
X1782001Y8663874D01*
X1803931Y8724918D01*
X1820356Y8861094D01*
X1828423Y9045969D01*
X1828456Y9050503D01*
X2213727Y9050503D01*
X2256837Y9001772D01*
X2308225Y9006267D01*
X2367069Y9059365D01*
X2436096Y9165193D01*
X2439911Y9172426D01*
X2477562Y9241496D01*
X2860117Y9241496D01*
X2878693Y9219920D01*
X2908265Y9211098D01*
X2983953Y9148031D01*
X3025731Y9051382D01*
X3069992Y8904834D01*
X3129191Y8763000D01*
X3168200Y8689226D01*
X3171950Y8695601D01*
X3166075Y8712200D01*
X3145046Y8817270D01*
X3130433Y8982378D01*
X3126150Y9118600D01*
X3128601Y9289088D01*
X3144530Y9383063D01*
X3182635Y9425500D01*
X3237921Y9439558D01*
X3312791Y9440092D01*
X3334335Y9393639D01*
X3319524Y9287158D01*
X3293529Y9167779D01*
X3273057Y9101897D01*
X3271657Y9099788D01*
X3282445Y9043954D01*
X3334194Y8925475D01*
X3414197Y8767974D01*
X3509746Y8595077D01*
X3608136Y8430407D01*
X3696658Y8297588D01*
X3719222Y8267700D01*
X3828787Y8134833D01*
X3881238Y8083967D01*
X3875435Y8112314D01*
X3810238Y8217086D01*
X3739987Y8318500D01*
X3579813Y8558156D01*
X3478013Y8752475D01*
X3423239Y8930020D01*
X3404140Y9119354D01*
X3403600Y9165090D01*
X3396103Y9338460D01*
X3368108Y9438935D01*
X3311356Y9494480D01*
X3305339Y9497813D01*
X3184186Y9545352D01*
X3114915Y9517506D01*
X3079462Y9429471D01*
X3011660Y9320387D01*
X2934255Y9271686D01*
X2860117Y9241496D01*
X2477562Y9241496D01*
X2511670Y9304066D01*
X2608051Y9473289D01*
X2662102Y9565600D01*
X2742354Y9705966D01*
X2773778Y9787438D01*
X2760694Y9837711D01*
X2711391Y9881484D01*
X2582635Y9949159D01*
X2496729Y9924779D01*
X2470829Y9880600D01*
X2409984Y9812889D01*
X2376494Y9803971D01*
X2331325Y9754912D01*
X2305166Y9607647D01*
X2300063Y9523778D01*
X2284736Y9348757D01*
X2257808Y9204713D01*
X2238350Y9149887D01*
X2213727Y9050503D01*
X1828456Y9050503D01*
X1828800Y9097468D01*
X1846708Y9423669D01*
X1879030Y9575800D01*
X2133600Y9575800D01*
X2159000Y9550400D01*
X2184400Y9575800D01*
X2159000Y9601200D01*
X2133600Y9575800D01*
X1879030Y9575800D01*
X1905034Y9698187D01*
X1937288Y9792970D01*
X1958960Y9858508D01*
X2247655Y9858508D01*
X2254603Y9855200D01*
X2300963Y9890963D01*
X2311400Y9906000D01*
X2324344Y9953493D01*
X2317396Y9956800D01*
X2271036Y9921038D01*
X2260600Y9906000D01*
X2247655Y9858508D01*
X1958960Y9858508D01*
X1995845Y9970045D01*
X2034471Y10125534D01*
X2043919Y10203613D01*
X2016720Y10335859D01*
X1952027Y10486970D01*
X1870079Y10618254D01*
X1791116Y10691017D01*
X1788376Y10692136D01*
X1719167Y10674978D01*
X1600006Y10608128D01*
X1456766Y10509519D01*
X1315321Y10397081D01*
X1201548Y10288745D01*
X1193800Y10280093D01*
X1127031Y10222126D01*
X1004408Y10129336D01*
X876300Y10038427D01*
X609600Y9854468D01*
X609600Y10861401D01*
X2189228Y10861401D01*
X2210478Y10838770D01*
X2260600Y10820393D01*
X2409360Y10795751D01*
X2591905Y10799982D01*
X2667047Y10813831D01*
X2911864Y10813831D01*
X2954411Y10773410D01*
X2975171Y10764408D01*
X3072183Y10731554D01*
X3144639Y10736369D01*
X3225800Y10765981D01*
X3282025Y10795516D01*
X3256695Y10818589D01*
X3163539Y10842375D01*
X3036865Y10856772D01*
X2946161Y10844438D01*
X2911864Y10813831D01*
X2667047Y10813831D01*
X2754496Y10829948D01*
X2809487Y10852448D01*
X2813747Y10871200D01*
X3352800Y10871200D01*
X3389260Y10821855D01*
X3400601Y10820400D01*
X3469402Y10857327D01*
X3479800Y10871200D01*
X3468283Y10914690D01*
X3431998Y10922000D01*
X3362492Y10895478D01*
X3352800Y10871200D01*
X2813747Y10871200D01*
X2815597Y10879338D01*
X2746774Y10900115D01*
X2629592Y10912976D01*
X2490626Y10916114D01*
X2356453Y10907727D01*
X2263826Y10889500D01*
X2189228Y10861401D01*
X609600Y10861401D01*
X609600Y11174599D01*
X4118654Y11174599D01*
X4125911Y11058804D01*
X4207760Y10910644D01*
X4343197Y10759155D01*
X4463435Y10634964D01*
X4546253Y10531561D01*
X4571797Y10478805D01*
X4612956Y10415892D01*
X4713439Y10343809D01*
X4729991Y10334909D01*
X4823644Y10295315D01*
X4857521Y10299699D01*
X4853993Y10308205D01*
X4875614Y10344399D01*
X4996980Y10361621D01*
X5075214Y10363200D01*
X5239568Y10354477D01*
X5333937Y10321424D01*
X5386544Y10258340D01*
X5451012Y10185563D01*
X5553365Y10178828D01*
X5591532Y10186176D01*
X5686748Y10200940D01*
X5729136Y10172384D01*
X5740057Y10076073D01*
X5740400Y10015870D01*
X5755218Y9876701D01*
X5793262Y9796758D01*
X5803900Y9790471D01*
X5835514Y9751461D01*
X5805970Y9663346D01*
X5780564Y9616794D01*
X5726190Y9505307D01*
X5728243Y9427950D01*
X5770947Y9355267D01*
X5912045Y9221741D01*
X6100596Y9125534D01*
X6267853Y9093200D01*
X6385987Y9054438D01*
X6427995Y8985942D01*
X6464583Y8917671D01*
X6535795Y8896952D01*
X6657788Y8909986D01*
X6818284Y8917463D01*
X6913595Y8872868D01*
X6919269Y8866776D01*
X6990444Y8804884D01*
X7060358Y8806175D01*
X7155503Y8876878D01*
X7217507Y8936893D01*
X7322769Y9062218D01*
X7357214Y9169184D01*
X7314813Y9270257D01*
X7189540Y9377904D01*
X6975365Y9504593D01*
X6931815Y9527796D01*
X6763251Y9625774D01*
X6680939Y9681825D01*
X8701875Y9681825D01*
X8720138Y9654313D01*
X8756803Y9652000D01*
X8851898Y9685836D01*
X8940800Y9753600D01*
X9016337Y9856578D01*
X9042400Y9937597D01*
X9032113Y9990939D01*
X8983089Y9978889D01*
X8931823Y9946573D01*
X8813417Y9842936D01*
X8747827Y9762577D01*
X8701875Y9681825D01*
X6680939Y9681825D01*
X6612616Y9728350D01*
X6553200Y9776669D01*
X6455257Y9858705D01*
X6301571Y9979109D01*
X6118965Y10117050D01*
X6038598Y10176301D01*
X5855983Y10319779D01*
X5670224Y10482377D01*
X5498192Y10647229D01*
X5356754Y10797473D01*
X5262780Y10916243D01*
X5232727Y10981954D01*
X5274869Y10992874D01*
X5378596Y10974361D01*
X5397164Y10969254D01*
X5510393Y10937405D01*
X5568686Y10922212D01*
X5570208Y10922000D01*
X5566078Y10963317D01*
X5552132Y11022785D01*
X5545444Y11213494D01*
X5633825Y11368859D01*
X5805692Y11482971D01*
X5961011Y11542969D01*
X6095929Y11577827D01*
X6131101Y11581285D01*
X6244141Y11561627D01*
X6268084Y11510179D01*
X6203471Y11442976D01*
X6125056Y11402854D01*
X5997651Y11341804D01*
X5947801Y11301521D01*
X5980728Y11290187D01*
X6062950Y11305620D01*
X6150349Y11310254D01*
X6207864Y11252906D01*
X6244988Y11166888D01*
X6304178Y11020505D01*
X6360290Y10900643D01*
X6361598Y10898202D01*
X6419695Y10768428D01*
X6454595Y10669602D01*
X6483438Y10595018D01*
X6496829Y10617621D01*
X6498033Y10635336D01*
X6529217Y10703679D01*
X6578600Y10700430D01*
X6644212Y10707050D01*
X6654800Y10739575D01*
X6619028Y10827158D01*
X6578600Y10871200D01*
X6514739Y10944533D01*
X6502400Y10979021D01*
X6543136Y11015712D01*
X6636581Y11021116D01*
X6739594Y10997631D01*
X6797039Y10962641D01*
X6844426Y10874287D01*
X6855645Y10768516D01*
X6831061Y10687490D01*
X6794500Y10668038D01*
X6753591Y10624760D01*
X6736827Y10490909D01*
X6736779Y10401338D01*
X6746585Y10239174D01*
X6776158Y10145736D01*
X6839213Y10088327D01*
X6876479Y10068329D01*
X6972422Y10006246D01*
X7010400Y9954029D01*
X7052080Y9913726D01*
X7155932Y9908955D01*
X7290168Y9936583D01*
X7423003Y9993482D01*
X7425433Y9994900D01*
X7530360Y10050722D01*
X7589081Y10051374D01*
X7641435Y9995707D01*
X7646731Y9988529D01*
X7736877Y9916616D01*
X7813491Y9930934D01*
X7850017Y10016952D01*
X7843207Y10083800D01*
X8585200Y10083800D01*
X8610600Y10058400D01*
X8636000Y10083800D01*
X8610600Y10109200D01*
X8585200Y10083800D01*
X7843207Y10083800D01*
X7842026Y10095385D01*
X7800571Y10209416D01*
X7757702Y10268848D01*
X7730671Y10337178D01*
X7738748Y10424609D01*
X7727257Y10578800D01*
X7627388Y10747157D01*
X7481850Y10887803D01*
X7369089Y10982766D01*
X7293154Y11052903D01*
X7210720Y11113126D01*
X7171325Y11125200D01*
X7105953Y11156312D01*
X6999610Y11234647D01*
X6951796Y11275205D01*
X6815922Y11386864D01*
X6639539Y11521185D01*
X6502400Y11619805D01*
X6266103Y11823574D01*
X6111843Y12043927D01*
X6048622Y12267595D01*
X6047640Y12290326D01*
X6011614Y12416951D01*
X5937173Y12529042D01*
X5867463Y12639788D01*
X5862459Y12733320D01*
X5916605Y12783421D01*
X5989874Y12777637D01*
X6083732Y12774885D01*
X6120122Y12799534D01*
X6192149Y12842859D01*
X6264098Y12854091D01*
X6381949Y12887078D01*
X6501341Y12960560D01*
X6584065Y13035346D01*
X6592988Y13081477D01*
X6533149Y13134379D01*
X6526741Y13139087D01*
X6454284Y13231529D01*
X6441318Y13307443D01*
X6411930Y13411440D01*
X6308030Y13499910D01*
X6156666Y13554571D01*
X6062294Y13563600D01*
X5939839Y13577903D01*
X5868673Y13612492D01*
X5867515Y13614214D01*
X5801788Y13630245D01*
X5684009Y13586110D01*
X5592760Y13531457D01*
X5553758Y13469547D01*
X5553698Y13364488D01*
X5566386Y13268796D01*
X5597102Y13105311D01*
X5633891Y12973368D01*
X5648115Y12939366D01*
X5669898Y12834800D01*
X5668218Y12681049D01*
X5661254Y12621866D01*
X5648090Y12468328D01*
X5669304Y12400579D01*
X5686830Y12395200D01*
X5722524Y12364418D01*
X5715000Y12344400D01*
X5648338Y12311820D01*
X5522173Y12294473D01*
X5484996Y12293600D01*
X5356875Y12301980D01*
X5310510Y12332782D01*
X5315629Y12369800D01*
X5312009Y12433523D01*
X5259886Y12440796D01*
X5204859Y12391737D01*
X5135828Y12359646D01*
X5093822Y12367214D01*
X4987233Y12364406D01*
X4909802Y12279025D01*
X4877029Y12129176D01*
X4876800Y12113735D01*
X4859318Y11920330D01*
X4809198Y11808690D01*
X4757064Y11784341D01*
X4667656Y11752876D01*
X4545967Y11675595D01*
X4417604Y11573957D01*
X4308177Y11469421D01*
X4243294Y11383446D01*
X4236840Y11348406D01*
X4223527Y11268848D01*
X4190143Y11244842D01*
X4118654Y11174599D01*
X609600Y11174599D01*
X609600Y11767558D01*
X718231Y11968125D01*
X965199Y11968125D01*
X1008639Y11867201D01*
X1110047Y11797147D01*
X1172339Y11785600D01*
X1275253Y11749123D01*
X1320800Y11709400D01*
X1396802Y11645393D01*
X1433882Y11633200D01*
X1434033Y11666361D01*
X1378015Y11750578D01*
X1331936Y11806078D01*
X1297054Y11848546D01*
X2612832Y11848546D01*
X2662766Y11840411D01*
X2728655Y11849751D01*
X2729441Y11867092D01*
X2711641Y11870267D01*
X3014133Y11870267D01*
X3021106Y11840067D01*
X3048000Y11836400D01*
X3089814Y11854987D01*
X3081866Y11870267D01*
X3021578Y11876347D01*
X3014133Y11870267D01*
X2711641Y11870267D01*
X2661451Y11879219D01*
X2632075Y11871103D01*
X2612832Y11848546D01*
X1297054Y11848546D01*
X1252898Y11902303D01*
X2317718Y11902303D01*
X2387600Y11895222D01*
X2459717Y11903205D01*
X2451100Y11920844D01*
X2347094Y11927554D01*
X2324100Y11920844D01*
X2317718Y11902303D01*
X1252898Y11902303D01*
X1235385Y11923623D01*
X1171360Y12015619D01*
X1160605Y12037585D01*
X1109569Y12070600D01*
X1031085Y12051671D01*
X972491Y11997627D01*
X965199Y11968125D01*
X718231Y11968125D01*
X767770Y12059588D01*
X909332Y12299104D01*
X1048245Y12475756D01*
X1214223Y12622988D01*
X1357122Y12722983D01*
X1509728Y12840930D01*
X1610186Y12939347D01*
X2344058Y12939347D01*
X2423823Y12817611D01*
X2529087Y12697510D01*
X2643637Y12625882D01*
X2737486Y12620805D01*
X2744249Y12624449D01*
X2790301Y12619414D01*
X2794000Y12601399D01*
X2830876Y12549668D01*
X2844800Y12547600D01*
X2894205Y12577214D01*
X2895600Y12586181D01*
X2860226Y12632267D01*
X3064933Y12632267D01*
X3071906Y12602067D01*
X3098800Y12598400D01*
X3140614Y12616987D01*
X3137071Y12623800D01*
X3352800Y12623800D01*
X3378200Y12598400D01*
X3403600Y12623800D01*
X3378200Y12649200D01*
X3352800Y12623800D01*
X3137071Y12623800D01*
X3132666Y12632267D01*
X3072378Y12638347D01*
X3064933Y12632267D01*
X2860226Y12632267D01*
X2849432Y12646328D01*
X2715658Y12738392D01*
X2505529Y12855318D01*
X2344058Y12939347D01*
X1610186Y12939347D01*
X1653128Y12981416D01*
X1765401Y13119634D01*
X1824629Y13230775D01*
X1828800Y13256820D01*
X1855902Y13358137D01*
X1928894Y13520443D01*
X2035300Y13721561D01*
X2162645Y13939315D01*
X2298454Y14151530D01*
X2430253Y14336030D01*
X2450456Y14361901D01*
X2545762Y14484487D01*
X2879115Y14484487D01*
X2887023Y14348812D01*
X2938683Y14229541D01*
X2998516Y14149345D01*
X3028140Y14151556D01*
X3039468Y14191818D01*
X3081291Y14255508D01*
X3187656Y14267681D01*
X3213201Y14265470D01*
X3333510Y14272919D01*
X3387466Y14312123D01*
X3363557Y14362252D01*
X3284882Y14395182D01*
X3179683Y14456800D01*
X3135026Y14528245D01*
X3069606Y14613537D01*
X3007877Y14630400D01*
X2921192Y14588731D01*
X2879115Y14484487D01*
X2545762Y14484487D01*
X2587854Y14538626D01*
X2710297Y14702218D01*
X2796258Y14823747D01*
X2810654Y14845971D01*
X2903140Y14957996D01*
X3054760Y15105130D01*
X3240122Y15266105D01*
X3433837Y15419655D01*
X3610514Y15544513D01*
X3721635Y15609019D01*
X3972093Y15724427D01*
X4219415Y15828309D01*
X4438553Y15910924D01*
X4604457Y15962535D01*
X4659549Y15973661D01*
X4785074Y15993146D01*
X4966000Y16025246D01*
X5121009Y16054800D01*
X5343293Y16084790D01*
X5617724Y16095063D01*
X5964517Y16086096D01*
X6111609Y16078212D01*
X6532291Y16055917D01*
X6866172Y16045260D01*
X7127486Y16047157D01*
X7330465Y16062524D01*
X7489341Y16092279D01*
X7618348Y16137338D01*
X7702191Y16180626D01*
X7962434Y16351501D01*
X8150257Y16523500D01*
X8291844Y16722234D01*
X8332258Y16796821D01*
X8384372Y16908182D01*
X8420569Y17017788D01*
X8444239Y17148411D01*
X8458775Y17322822D01*
X8467567Y17563792D01*
X8471113Y17729200D01*
X8481329Y18246799D01*
X8491771Y18675086D01*
X8504121Y19026338D01*
X8520064Y19312832D01*
X8541282Y19546845D01*
X8569458Y19740655D01*
X8606275Y19906539D01*
X8653417Y20056775D01*
X8712567Y20203639D01*
X8785407Y20359408D01*
X8849336Y20488076D01*
X9053475Y20864758D01*
X9255672Y21181710D01*
X9449791Y21432233D01*
X9629698Y21609628D01*
X9789259Y21707198D01*
X9922340Y21718245D01*
X9960362Y21701165D01*
X10120693Y21645213D01*
X10286918Y21680700D01*
X10470970Y21810327D01*
X10480327Y21818843D01*
X10634514Y21941505D01*
X10747503Y21992115D01*
X10810387Y21968018D01*
G37*
X10810387Y21968018D02*
X10820400Y21920200D01*
X10775051Y21858256D01*
X10680700Y21838937D01*
X10585914Y21833673D01*
X10588599Y21821863D01*
X10664233Y21799436D01*
X10776816Y21746506D01*
X10794885Y21672761D01*
X10718284Y21571805D01*
X10657430Y21519419D01*
X10396249Y21290374D01*
X10192297Y21070815D01*
X10052808Y20871277D01*
X9985013Y20702296D01*
X9996144Y20574409D01*
X10001839Y20564347D01*
X10033139Y20460537D01*
X10015703Y20306671D01*
X10003751Y20256706D01*
X9961557Y20082967D01*
X9926370Y19923772D01*
X9920528Y19894387D01*
X9868161Y19775283D01*
X9797678Y19723362D01*
X9727580Y19661061D01*
X9701329Y19555166D01*
X9726637Y19457016D01*
X9753737Y19430916D01*
X9777995Y19369886D01*
X9745439Y19289044D01*
X9681281Y19228532D01*
X9622704Y19222266D01*
X9565317Y19211962D01*
X9551580Y19151464D01*
X9587925Y19085118D01*
X9601386Y19075285D01*
X9628404Y19008346D01*
X9620190Y18907187D01*
X9588008Y18770600D01*
X9823488Y19015442D01*
X9896340Y18905721D01*
X9981528Y18820702D01*
X10051896Y18792729D01*
X10136765Y18767843D01*
X10278428Y18705910D01*
X10439400Y18623936D01*
X10606639Y18526593D01*
X10700031Y18450595D01*
X10738942Y18376862D01*
X10744200Y18323615D01*
X10790369Y18178421D01*
X10858499Y18108527D01*
X10945772Y18005128D01*
X10972799Y17908353D01*
X10994100Y17808106D01*
X11030019Y17769394D01*
X11043212Y17718269D01*
X11009582Y17607751D01*
X10940496Y17461736D01*
X10847318Y17304119D01*
X10741410Y17158798D01*
X10737257Y17153803D01*
X10656511Y17030794D01*
X10617785Y16919844D01*
X10617199Y16909163D01*
X10595179Y16786772D01*
X10542719Y16674994D01*
X10480221Y16614150D01*
X10466641Y16611600D01*
X10389118Y16646458D01*
X10318304Y16723812D01*
X10287483Y16802830D01*
X10293029Y16824556D01*
X10271136Y16853758D01*
X10152814Y16854782D01*
X10077596Y16847134D01*
X9834144Y16819951D01*
X9581789Y16795248D01*
X9343765Y16774897D01*
X9143309Y16760772D01*
X9003654Y16754745D01*
X8953500Y16756526D01*
X8914006Y16727969D01*
X8896590Y16616175D01*
X8895892Y16499527D01*
X8902781Y16368449D01*
X8914506Y16307483D01*
X8925017Y16319500D01*
X8972013Y16399827D01*
X9030995Y16383652D01*
X9062364Y16328046D01*
X9091663Y16207722D01*
X9059866Y16163406D01*
X9022228Y16170765D01*
X8970895Y16157706D01*
X8933979Y16063176D01*
X8917515Y15973000D01*
X8876618Y15817695D01*
X8822957Y15746387D01*
X8771742Y15761919D01*
X8738183Y15867136D01*
X8733018Y15938500D01*
X8728436Y16129000D01*
X8678241Y15951200D01*
X8613136Y15782098D01*
X8545648Y15708191D01*
X8482286Y15723464D01*
X8429563Y15821904D01*
X8393988Y15997495D01*
X8382000Y16224875D01*
X8382000Y16580731D01*
X8204200Y16408400D01*
X8081227Y16276562D01*
X8035198Y16181138D01*
X8061325Y16098190D01*
X8127999Y16027400D01*
X8210677Y15926454D01*
X8222886Y15850613D01*
X8164505Y15820358D01*
X8129209Y15823968D01*
X8021814Y15798522D01*
X7919811Y15702176D01*
X7846219Y15564088D01*
X7823200Y15436350D01*
X7799863Y15325005D01*
X7740215Y15289927D01*
X7659800Y15320010D01*
X7574162Y15404150D01*
X7498844Y15531241D01*
X7449389Y15690180D01*
X7446804Y15705255D01*
X7415908Y15837084D01*
X7373169Y15884943D01*
X7335060Y15879904D01*
X7221898Y15852331D01*
X7185639Y15849600D01*
X7131257Y15814582D01*
X7130668Y15786100D01*
X7132700Y15750419D01*
X7124840Y15760700D01*
X7066172Y15782360D01*
X6939175Y15796309D01*
X6841066Y15799113D01*
X6657769Y15813693D01*
X6493785Y15850269D01*
X6438018Y15872758D01*
X6291119Y15918755D01*
X6082476Y15944919D01*
X5835800Y15952711D01*
X5574801Y15943592D01*
X5323191Y15919023D01*
X5104680Y15880466D01*
X4942978Y15829381D01*
X4867005Y15775946D01*
X4798044Y15747297D01*
X4670832Y15738546D01*
X4633299Y15740340D01*
X4471089Y15725711D01*
X4300815Y15669878D01*
X4148161Y15587333D01*
X4038810Y15492566D01*
X3998444Y15400068D01*
X4000813Y15383478D01*
X4001300Y15315832D01*
X3934531Y15319505D01*
X3930422Y15320850D01*
X3908910Y15317266D01*
X3962911Y15272135D01*
X4013200Y15238464D01*
X4205202Y15101411D01*
X4344086Y14973903D01*
X4413704Y14871554D01*
X4418722Y14846300D01*
X4402769Y14792286D01*
X4344979Y14799999D01*
X4233921Y14873598D01*
X4141911Y14947029D01*
X4017302Y15042311D01*
X3920146Y15103438D01*
X3889037Y15115032D01*
X3763889Y15151097D01*
X3676091Y15222894D01*
X3657600Y15274369D01*
X3622101Y15327687D01*
X3542544Y15332277D01*
X3459339Y15295871D01*
X3413150Y15227594D01*
X3428747Y15126346D01*
X3489714Y15003591D01*
X3492845Y14998994D01*
X3560544Y14873124D01*
X3634519Y14694262D01*
X3682037Y14554200D01*
X3752195Y14364064D01*
X3836235Y14192674D01*
X3893923Y14105803D01*
X3972499Y14000818D01*
X4012071Y13927608D01*
X4013200Y13920527D01*
X4045728Y13853851D01*
X4124066Y13753498D01*
X4219341Y13651338D01*
X4302679Y13579244D01*
X4336535Y13563601D01*
X4395765Y13532726D01*
X4507520Y13451515D01*
X4648352Y13337090D01*
X4657870Y13328981D01*
X4794378Y13216541D01*
X4897716Y13139274D01*
X4947359Y13112424D01*
X4948566Y13113081D01*
X5050201Y13290315D01*
X5077551Y13505182D01*
X5029861Y13766476D01*
X4906377Y14082991D01*
X4856515Y14185900D01*
X4747431Y14415426D01*
X4692786Y14561619D01*
X4691884Y14626489D01*
X4702615Y14630400D01*
X4773415Y14589781D01*
X4847052Y14491969D01*
X4847743Y14490700D01*
X4899091Y14414273D01*
X4924939Y14411230D01*
X4925566Y14417405D01*
X4908482Y14561520D01*
X4860147Y14748132D01*
X4794828Y14931842D01*
X4726796Y15067251D01*
X4717023Y15080871D01*
X4656323Y15189768D01*
X4662195Y15257406D01*
X4731359Y15264730D01*
X4747720Y15259169D01*
X4795804Y15263155D01*
X4791280Y15343103D01*
X4789556Y15350288D01*
X4749213Y15466853D01*
X4717503Y15524075D01*
X4692371Y15591152D01*
X4743724Y15610635D01*
X4853508Y15576939D01*
X4953916Y15490317D01*
X4978003Y15411025D01*
X5021271Y15308157D01*
X5079999Y15276081D01*
X5166000Y15207999D01*
X5181600Y15143156D01*
X5160014Y15051585D01*
X5095400Y15052013D01*
X5031883Y15100300D01*
X4983449Y15135048D01*
X4990616Y15086526D01*
X4993730Y15077502D01*
X5025564Y14961668D01*
X5067495Y14775531D01*
X5113576Y14549115D01*
X5157858Y14312442D01*
X5194391Y14095533D01*
X5210880Y13981560D01*
X5247073Y13788649D01*
X5294276Y13693849D01*
X5355459Y13693991D01*
X5417140Y13761293D01*
X5493778Y13832043D01*
X5614229Y13863545D01*
X5732516Y13868400D01*
X6032334Y13918511D01*
X6199536Y13991860D01*
X6372676Y14083662D01*
X6583057Y14191786D01*
X6731000Y14265947D01*
X6922345Y14367734D01*
X6955174Y14387333D01*
X7824890Y14387333D01*
X7873806Y14212619D01*
X8002576Y14053085D01*
X8103228Y13980825D01*
X8208486Y13932364D01*
X8288446Y13941594D01*
X8369298Y14020193D01*
X8448196Y14134646D01*
X8530509Y14285265D01*
X8560173Y14423316D01*
X8537363Y14580988D01*
X8508791Y14660677D01*
X8707326Y14660677D01*
X8732757Y14544398D01*
X8773989Y14408554D01*
X8820039Y14290525D01*
X8850701Y14236700D01*
X8936683Y14176392D01*
X9009797Y14213241D01*
X9016736Y14223574D01*
X9006446Y14281837D01*
X8956183Y14387430D01*
X8883510Y14512046D01*
X8805992Y14627379D01*
X8741193Y14705126D01*
X8708680Y14720014D01*
X8707326Y14660677D01*
X8508791Y14660677D01*
X8462252Y14790473D01*
X8451881Y14815487D01*
X8389657Y14927607D01*
X8328487Y14985177D01*
X8287461Y14974870D01*
X8280400Y14935200D01*
X8239645Y14889258D01*
X8209462Y14884400D01*
X8117853Y14842897D01*
X8009994Y14739009D01*
X7909817Y14603667D01*
X7841251Y14467803D01*
X7824890Y14387333D01*
X6955174Y14387333D01*
X7104421Y14476431D01*
X7210769Y14548887D01*
X7333825Y14631034D01*
X7431253Y14677392D01*
X7452069Y14681200D01*
X7513128Y14708333D01*
X7518400Y14725650D01*
X7562292Y14765534D01*
X7668177Y14800048D01*
X7671155Y14800652D01*
X7777013Y14835067D01*
X7812678Y14903675D01*
X7810855Y14991974D01*
X7819817Y15115040D01*
X7861300Y15175206D01*
X7915725Y15155331D01*
X7924800Y15117234D01*
X7951562Y15045864D01*
X8012430Y15053703D01*
X8067226Y15118775D01*
X8127115Y15172828D01*
X8209450Y15149034D01*
X8260651Y15128392D01*
X8287664Y15148923D01*
X8295839Y15229532D01*
X8290524Y15389121D01*
X8288510Y15428424D01*
X8283378Y15610619D01*
X8293820Y15708769D01*
X8322592Y15739617D01*
X8339310Y15737043D01*
X8385699Y15676011D01*
X8423945Y15544559D01*
X8436275Y15464580D01*
X8474232Y15278382D01*
X8536904Y15108106D01*
X8612049Y14977355D01*
X8687425Y14909730D01*
X8724900Y14908127D01*
X8849093Y14906741D01*
X8958347Y14811613D01*
X9011805Y14713139D01*
X9108560Y14541080D01*
X9253415Y14347108D01*
X9419624Y14162061D01*
X9580440Y14016776D01*
X9664161Y13961013D01*
X9824172Y13899041D01*
X9983397Y13870658D01*
X9989057Y13870530D01*
X10121355Y13836110D01*
X10227354Y13754115D01*
X10285071Y13650896D01*
X10272526Y13552809D01*
X10263923Y13541000D01*
X10251291Y13494405D01*
X10308102Y13449693D01*
X10448908Y13395836D01*
X10460569Y13392000D01*
X10720317Y13323667D01*
X10909725Y13314873D01*
X11041362Y13366424D01*
X11102239Y13433194D01*
X11154154Y13550349D01*
X11130613Y13655013D01*
X11128209Y13659578D01*
X11102681Y13754994D01*
X11138688Y13866367D01*
X11171259Y13923617D01*
X11229274Y14047344D01*
X11245358Y14143497D01*
X11242654Y14154357D01*
X11255746Y14242710D01*
X11329699Y14340663D01*
X11432221Y14417251D01*
X11531025Y14441506D01*
X11540167Y14439679D01*
X11614704Y14376471D01*
X11636770Y14256176D01*
X11643057Y14157541D01*
X11660080Y14151433D01*
X11682744Y14198600D01*
X11705840Y14330506D01*
X11701040Y14384720D01*
X11791229Y14384720D01*
X11816560Y14391342D01*
X11856256Y14423022D01*
X11953129Y14528968D01*
X11999890Y14600822D01*
X12033970Y14672881D01*
X12008639Y14666259D01*
X11968943Y14634579D01*
X11872070Y14528633D01*
X11825309Y14456779D01*
X11791229Y14384720D01*
X11701040Y14384720D01*
X11698041Y14418586D01*
X11713161Y14564385D01*
X11779067Y14683229D01*
X11851452Y14794810D01*
X11886572Y14875803D01*
X11887200Y14882343D01*
X11928313Y14929225D01*
X11963400Y14935200D01*
X12023063Y14979198D01*
X12039600Y15092356D01*
X12061822Y15218341D01*
X12137380Y15275044D01*
X12141200Y15276081D01*
X12223705Y15323858D01*
X12242800Y15365303D01*
X12270796Y15440033D01*
X12342224Y15561281D01*
X12395200Y15638339D01*
X12509313Y15811605D01*
X12548756Y15922552D01*
X12510486Y15980914D01*
X12391464Y15996424D01*
X12285428Y15989736D01*
X12093227Y15984963D01*
X11930215Y16022205D01*
X11776836Y16092392D01*
X11502281Y16264574D01*
X11309930Y16458630D01*
X11224674Y16595336D01*
X11151634Y16710505D01*
X11083623Y16781217D01*
X11047620Y16835125D01*
X11036083Y16947810D01*
X11047276Y17138656D01*
X11049524Y17162217D01*
X11053235Y17195800D01*
X13055600Y17195800D01*
X13081000Y17170400D01*
X13106400Y17195800D01*
X13081000Y17221200D01*
X13055600Y17195800D01*
X11053235Y17195800D01*
X11070329Y17350481D01*
X11091975Y17507460D01*
X11108230Y17592411D01*
X11179806Y17682153D01*
X11324153Y17758103D01*
X11506200Y17804067D01*
X11631419Y17834158D01*
X11741844Y17872070D01*
X11852345Y17895164D01*
X12032321Y17910899D01*
X12249773Y17916917D01*
X12339562Y17916087D01*
X12558574Y17910405D01*
X12698765Y17899741D01*
X12782895Y17877317D01*
X12833728Y17836352D01*
X12874026Y17770069D01*
X12882134Y17754507D01*
X12959857Y17622514D01*
X13033717Y17522114D01*
X13094180Y17417375D01*
X13106400Y17356900D01*
X13128718Y17283851D01*
X13151764Y17272000D01*
X13211187Y17319206D01*
X13248569Y17449104D01*
X13258799Y17603965D01*
X13279021Y17769885D01*
X13330012Y17936000D01*
X13397260Y18060440D01*
X13427479Y18090650D01*
X13455642Y18151575D01*
X13493600Y18285755D01*
X13535601Y18466045D01*
X13575889Y18665297D01*
X13608709Y18856364D01*
X13628307Y19012101D01*
X13630845Y19050000D01*
X13651681Y19159218D01*
X13682165Y19209085D01*
X13707590Y19275373D01*
X13727534Y19418532D01*
X13741593Y19613960D01*
X13749362Y19837054D01*
X13750437Y20063214D01*
X13744413Y20267836D01*
X13730886Y20426319D01*
X13709452Y20514060D01*
X13703739Y20521340D01*
X13620003Y20588171D01*
X13504133Y20676918D01*
X13497011Y20682270D01*
X13408213Y20769933D01*
X13376845Y20845044D01*
X13378742Y20853326D01*
X13370322Y20943127D01*
X13352481Y20967999D01*
X13310567Y21041872D01*
X13272534Y21156970D01*
X13246824Y21276634D01*
X13241882Y21364204D01*
X13256021Y21386800D01*
X13311548Y21352058D01*
X13414398Y21261368D01*
X13544754Y21135039D01*
X13682800Y20993380D01*
X13808719Y20856699D01*
X13902695Y20745305D01*
X13944332Y20681408D01*
X13997531Y20610675D01*
X14109648Y20505853D01*
X14247791Y20396200D01*
X14411671Y20264076D01*
X14516801Y20140419D01*
X14593536Y19984880D01*
X14627823Y19891037D01*
X14695961Y19675112D01*
X14724780Y19511624D01*
X14715549Y19359869D01*
X14669535Y19179143D01*
X14651756Y19122550D01*
X14580322Y18911706D01*
X14510963Y18746134D01*
X14425827Y18592264D01*
X14307059Y18416524D01*
X14194412Y18262600D01*
X14058852Y18063143D01*
X13938814Y17856562D01*
X13856471Y17681671D01*
X13846174Y17653000D01*
X13776948Y17465940D01*
X13684646Y17244309D01*
X13612065Y17084701D01*
X13536353Y16918654D01*
X13482420Y16786098D01*
X13462000Y16716031D01*
X13428052Y16659952D01*
X13336095Y16549966D01*
X13200959Y16402998D01*
X13068300Y16266729D01*
X12799644Y15973746D01*
X12598158Y15696185D01*
X12483527Y15492400D01*
X12395543Y15311101D01*
X12329112Y15161644D01*
X12295213Y15069187D01*
X12293027Y15055886D01*
X12332177Y14975117D01*
X12434276Y14855970D01*
X12577961Y14716762D01*
X12741873Y14575811D01*
X12904651Y14451436D01*
X13044933Y14361956D01*
X13141359Y14325688D01*
X13144607Y14325601D01*
X13211212Y14296939D01*
X13337116Y14220752D01*
X13501301Y14111738D01*
X13682749Y13984594D01*
X13860440Y13854018D01*
X14013356Y13734706D01*
X14113475Y13648108D01*
X14225125Y13520164D01*
X14360797Y13332615D01*
X14506753Y13108499D01*
X14649253Y12870856D01*
X14774560Y12642724D01*
X14868934Y12447143D01*
X14918637Y12307151D01*
X14921202Y12293600D01*
X14956196Y12162167D01*
X15023411Y11976193D01*
X15109517Y11771953D01*
X15126575Y11734800D01*
X15300267Y11360148D01*
X15436573Y11061631D01*
X15542291Y10823894D01*
X15624218Y10631582D01*
X15689150Y10469341D01*
X15704132Y10430071D01*
X15784547Y10265283D01*
X15909374Y10062547D01*
X16055012Y9859394D01*
X16093288Y9811242D01*
X16388373Y9433954D01*
X16646373Y9073690D01*
X16858538Y8744051D01*
X17016119Y8458640D01*
X17110365Y8231057D01*
X17110812Y8229600D01*
X17186230Y7966422D01*
X17274495Y7632435D01*
X17368490Y7256453D01*
X17461101Y6867288D01*
X17545210Y6493750D01*
X17581280Y6324600D01*
X17649683Y6092701D01*
X17739048Y5938661D01*
X17759465Y5918200D01*
X17874651Y5793360D01*
X18018907Y5604693D01*
X18174901Y5378762D01*
X18325305Y5142125D01*
X18452787Y4921344D01*
X18540018Y4742978D01*
X18558402Y4693735D01*
X18612238Y4502586D01*
X18666534Y4271503D01*
X18697662Y4114800D01*
X18768769Y3813902D01*
X18866059Y3588942D01*
X19001388Y3415273D01*
X19059698Y3362244D01*
X19145777Y3272837D01*
X19176863Y3204730D01*
X19174138Y3195770D01*
X19118043Y3185037D01*
X18969989Y3175319D01*
X18739613Y3166835D01*
X18436551Y3159803D01*
X18070442Y3154443D01*
X17650922Y3150974D01*
X17187629Y3149612D01*
X17139214Y3149600D01*
X15132825Y3149600D01*
X14950185Y3273779D01*
X17463451Y3273779D01*
X17541136Y3258732D01*
X17703800Y3255549D01*
X17866639Y3261375D01*
X17893236Y3267095D01*
X18048617Y3267095D01*
X18092361Y3251240D01*
X18097759Y3251200D01*
X18186580Y3285067D01*
X18660533Y3285067D01*
X18667506Y3254867D01*
X18694400Y3251200D01*
X18736214Y3269787D01*
X18728266Y3285067D01*
X18667978Y3291147D01*
X18660533Y3285067D01*
X18186580Y3285067D01*
X18192439Y3287301D01*
X18237200Y3327400D01*
X18273382Y3387706D01*
X18229638Y3403561D01*
X18224240Y3403600D01*
X18129560Y3367500D01*
X18084800Y3327400D01*
X18048617Y3267095D01*
X17893236Y3267095D01*
X17933834Y3275826D01*
X17911077Y3300204D01*
X17907000Y3302000D01*
X17736524Y3343611D01*
X17566712Y3336488D01*
X17475200Y3302000D01*
X17463451Y3273779D01*
X14950185Y3273779D01*
X14843512Y3346307D01*
X14645699Y3504860D01*
X14998238Y3504860D01*
X15007703Y3414814D01*
X15074900Y3356870D01*
X15180537Y3309604D01*
X15228884Y3339561D01*
X15240000Y3450167D01*
X15254176Y3561537D01*
X15286555Y3615267D01*
X15324101Y3671477D01*
X15360854Y3791008D01*
X15369931Y3835400D01*
X15406753Y4038600D01*
X15297976Y3941827D01*
X15217407Y3839369D01*
X15189200Y3751758D01*
X15149464Y3653065D01*
X15087600Y3595011D01*
X14998238Y3504860D01*
X14645699Y3504860D01*
X14410918Y3693043D01*
X14397378Y3708400D01*
X14808200Y3708400D01*
X14819716Y3664911D01*
X14856001Y3657600D01*
X14925507Y3684123D01*
X14935200Y3708400D01*
X14898739Y3757746D01*
X14887398Y3759200D01*
X14818597Y3722274D01*
X14808200Y3708400D01*
X14397378Y3708400D01*
X14066130Y4084093D01*
X13888070Y4386550D01*
X15789048Y4386550D01*
X15807812Y4264362D01*
X15830497Y4178522D01*
X15914201Y3981734D01*
X16026642Y3824909D01*
X16150988Y3723127D01*
X16270409Y3691471D01*
X16342674Y3719595D01*
X16429783Y3743038D01*
X16461654Y3732283D01*
X16564923Y3704511D01*
X16744487Y3691609D01*
X16976163Y3693401D01*
X17235764Y3709715D01*
X17494645Y3739722D01*
X17712504Y3763438D01*
X17908366Y3770663D01*
X18045059Y3760167D01*
X18053445Y3758246D01*
X18294669Y3706183D01*
X18471798Y3685990D01*
X18572866Y3698421D01*
X18592106Y3724294D01*
X18569203Y3874764D01*
X18513781Y3975570D01*
X18448302Y4001318D01*
X18395346Y4014341D01*
X18372817Y4091218D01*
X18370628Y4196235D01*
X18380773Y4341263D01*
X18401377Y4444270D01*
X18408216Y4459425D01*
X18406958Y4530182D01*
X18389600Y4546600D01*
X18355797Y4601730D01*
X18360713Y4617160D01*
X18367039Y4703340D01*
X18332552Y4830938D01*
X18273766Y4960015D01*
X18207192Y5050629D01*
X18173700Y5069527D01*
X18112830Y5058783D01*
X18087774Y4983482D01*
X18084800Y4904427D01*
X18071378Y4769240D01*
X18027959Y4728499D01*
X17949807Y4778239D01*
X17942560Y4785361D01*
X17893841Y4892821D01*
X17885256Y5046677D01*
X17917682Y5199610D01*
X17934187Y5235740D01*
X17953921Y5332491D01*
X17934229Y5434678D01*
X17888455Y5506268D01*
X17831727Y5512373D01*
X17773650Y5528029D01*
X17708925Y5596099D01*
X17630899Y5707497D01*
X17523962Y5571549D01*
X17425135Y5478050D01*
X17330545Y5435806D01*
X17325333Y5435600D01*
X17216482Y5398856D01*
X17170400Y5359400D01*
X17089103Y5295111D01*
X17047049Y5283200D01*
X16971947Y5254551D01*
X16855988Y5182770D01*
X16811969Y5150812D01*
X16653715Y5044978D01*
X16490167Y4955452D01*
X16465214Y4944137D01*
X16355926Y4884959D01*
X16334929Y4834864D01*
X16350914Y4812366D01*
X16405229Y4727851D01*
X16366092Y4681205D01*
X16301364Y4673600D01*
X16223004Y4696828D01*
X16222577Y4747213D01*
X16220323Y4798759D01*
X16177212Y4792578D01*
X16122901Y4722139D01*
X16103600Y4590328D01*
X16085382Y4456854D01*
X16018819Y4386394D01*
X15989300Y4373420D01*
X15893677Y4357472D01*
X15858455Y4401079D01*
X15820983Y4449690D01*
X15799908Y4445685D01*
X15789048Y4386550D01*
X13888070Y4386550D01*
X13824107Y4495199D01*
X15174798Y4495199D01*
X15195627Y4466428D01*
X15287498Y4464046D01*
X15431947Y4523175D01*
X15609574Y4633621D01*
X15798800Y4783282D01*
X15997277Y4944952D01*
X16229592Y5114339D01*
X16480000Y5282173D01*
X16732756Y5439183D01*
X16972117Y5576100D01*
X17182338Y5683652D01*
X17347674Y5752570D01*
X17452381Y5773582D01*
X17471417Y5768138D01*
X17490592Y5794512D01*
X17486559Y5889198D01*
X17486171Y5891879D01*
X17459319Y5982092D01*
X17405918Y6009677D01*
X17313667Y5971381D01*
X17170265Y5863950D01*
X17075531Y5783287D01*
X16911603Y5656092D01*
X16739032Y5545501D01*
X16656431Y5503066D01*
X16535004Y5440738D01*
X16465535Y5388120D01*
X16459200Y5375024D01*
X16418038Y5338352D01*
X16384787Y5334000D01*
X16303940Y5293666D01*
X16256000Y5232400D01*
X16165525Y5150756D01*
X16086572Y5130800D01*
X15967473Y5105145D01*
X15910197Y5069478D01*
X15845450Y5038565D01*
X15767532Y5089560D01*
X15761949Y5095079D01*
X15707925Y5161348D01*
X15718603Y5218181D01*
X15789385Y5296102D01*
X15875256Y5367958D01*
X15926940Y5365459D01*
X15947318Y5339988D01*
X15986889Y5304907D01*
X16019976Y5361803D01*
X16024086Y5374359D01*
X16088280Y5454849D01*
X16224190Y5554532D01*
X16372539Y5638131D01*
X16706663Y5835961D01*
X16951137Y6045355D01*
X17085625Y6232203D01*
X17124030Y6348957D01*
X17160945Y6532950D01*
X17189891Y6749943D01*
X17195948Y6815111D01*
X17211983Y7027917D01*
X17214809Y7162200D01*
X17201100Y7240553D01*
X17167531Y7285571D01*
X17122589Y7313601D01*
X16992497Y7360265D01*
X16880616Y7339801D01*
X16772036Y7242990D01*
X16651852Y7060613D01*
X16619185Y7002284D01*
X16439822Y6684212D01*
X16228753Y6324527D01*
X16005618Y5955671D01*
X15790056Y5610087D01*
X15601706Y5320218D01*
X15593914Y5308600D01*
X15393363Y4998772D01*
X15257750Y4762235D01*
X15185441Y4595530D01*
X15174798Y4495199D01*
X13824107Y4495199D01*
X13812057Y4515667D01*
X13684857Y4856468D01*
X13609737Y5089483D01*
X13524450Y5314241D01*
X13444184Y5491662D01*
X13422745Y5530858D01*
X13290946Y5755756D01*
X13229596Y5582978D01*
X13175683Y5447429D01*
X13094841Y5262316D01*
X13010363Y5080000D01*
X12945485Y4939323D01*
X12901341Y4820881D01*
X12873947Y4699626D01*
X12859321Y4550508D01*
X12853480Y4348478D01*
X12852440Y4086828D01*
X12846789Y3754662D01*
X12830395Y3499845D01*
X12804030Y3332093D01*
X12788899Y3287125D01*
X12725400Y3150393D01*
X6996105Y3149997D01*
X6103194Y3150049D01*
X5306495Y3150385D01*
X4600622Y3151074D01*
X3980185Y3152190D01*
X3439799Y3153804D01*
X2974076Y3155987D01*
X2577628Y3158811D01*
X2245068Y3162346D01*
X1971008Y3166666D01*
X1750061Y3171842D01*
X1576840Y3177944D01*
X1445957Y3185045D01*
X1352025Y3193216D01*
X1289656Y3202529D01*
X1253463Y3213055D01*
X1238058Y3224866D01*
X1237304Y3226494D01*
X1242295Y3303284D01*
X1278170Y3454668D01*
X1338447Y3660758D01*
X1416645Y3901669D01*
X1506282Y4157515D01*
X1600877Y4408409D01*
X1693946Y4634465D01*
X1702791Y4654647D01*
X1798627Y4847211D01*
X1900163Y5024950D01*
X2894876Y5024950D01*
X2926114Y4921818D01*
X2946400Y4902200D01*
X2968994Y4840539D01*
X2986422Y4702186D01*
X2996081Y4512019D01*
X2997200Y4416602D01*
X2991838Y4198556D01*
X2977009Y4043147D01*
X2954591Y3967187D01*
X2946400Y3962400D01*
X2920340Y3915415D01*
X2902334Y3789483D01*
X2895600Y3607146D01*
X2895600Y3251200D01*
X5245489Y3251200D01*
X5210507Y3517900D01*
X5176204Y3694644D01*
X5128148Y3845294D01*
X5101571Y3898322D01*
X5055023Y4004111D01*
X5082099Y4098895D01*
X5089470Y4111087D01*
X5119478Y4173860D01*
X5121156Y4243233D01*
X5088518Y4343402D01*
X5015579Y4498563D01*
X4972473Y4584011D01*
X4933582Y4700789D01*
X4927600Y4752451D01*
X4904356Y4861223D01*
X4872457Y4935715D01*
X4817314Y5038751D01*
X4707357Y4936778D01*
X4591794Y4855280D01*
X4495800Y4817702D01*
X4406660Y4834926D01*
X4375544Y4908251D01*
X4402314Y5010470D01*
X4486835Y5114376D01*
X4497325Y5122925D01*
X4584436Y5200776D01*
X4598484Y5261207D01*
X4553692Y5339291D01*
X4476002Y5450209D01*
X4442293Y5315905D01*
X4410118Y5217677D01*
X4385064Y5181600D01*
X4320426Y5218465D01*
X4260120Y5297666D01*
X4237466Y5372112D01*
X4241559Y5384411D01*
X4225537Y5424034D01*
X4161991Y5435600D01*
X4094780Y5426054D01*
X4067411Y5379630D01*
X4069958Y5269649D01*
X4076643Y5206198D01*
X4081185Y5060338D01*
X4062654Y4964339D01*
X4028696Y4934810D01*
X3986954Y4988360D01*
X3982006Y5000581D01*
X3920424Y5070050D01*
X3883958Y5080000D01*
X3840794Y5111968D01*
X3839545Y5218491D01*
X3845240Y5257800D01*
X3856950Y5376913D01*
X3830419Y5426515D01*
X3765846Y5435600D01*
X3676747Y5467146D01*
X3657600Y5515224D01*
X3686436Y5570643D01*
X3759200Y5562600D01*
X3838867Y5556162D01*
X3855354Y5613721D01*
X3810526Y5744061D01*
X3801845Y5763410D01*
X3732266Y5872563D01*
X3667583Y5881326D01*
X3630675Y5839534D01*
X3575379Y5814201D01*
X3533389Y5839685D01*
X3460166Y5857047D01*
X3345517Y5807250D01*
X3288044Y5770287D01*
X3170100Y5702399D01*
X3087178Y5676693D01*
X3071221Y5681235D01*
X3055411Y5668961D01*
X3067807Y5609224D01*
X3058443Y5486566D01*
X2997918Y5410850D01*
X2934801Y5309187D01*
X2899113Y5167314D01*
X2894876Y5024950D01*
X1900163Y5024950D01*
X1921414Y5062148D01*
X2001038Y5187368D01*
X2124921Y5380742D01*
X2181585Y5509383D01*
X2163438Y5586378D01*
X2062886Y5624814D01*
X1872335Y5637779D01*
X1739114Y5638800D01*
X1419396Y5656011D01*
X1163838Y5715115D01*
X939742Y5827321D01*
X739766Y5981365D01*
X689747Y6028222D01*
X654528Y6078373D01*
X631515Y6149276D01*
X618111Y6258389D01*
X611719Y6423170D01*
X609745Y6661077D01*
X609600Y6856697D01*
X608675Y7021886D01*
X3351705Y7021886D01*
X3484313Y6766290D01*
X3577856Y6601486D01*
X3672316Y6459067D01*
X3718514Y6401647D01*
X3797781Y6329994D01*
X3856994Y6331805D01*
X3905113Y6369530D01*
X4008929Y6417428D01*
X4062156Y6401940D01*
X4139837Y6395475D01*
X4253621Y6422264D01*
X4360603Y6467543D01*
X4417877Y6516546D01*
X4419600Y6524950D01*
X4435356Y6583389D01*
X4450435Y6625246D01*
X4451103Y6679447D01*
X4383543Y6702423D01*
X4298035Y6705600D01*
X4178389Y6692164D01*
X4116962Y6658999D01*
X4114800Y6650567D01*
X4078328Y6613087D01*
X4051300Y6616926D01*
X3971819Y6599524D01*
X3925134Y6557659D01*
X3874801Y6509109D01*
X3843911Y6547116D01*
X3830309Y6591300D01*
X3789309Y6680063D01*
X3755042Y6705600D01*
X3694268Y6736540D01*
X3589503Y6814951D01*
X3531820Y6863743D01*
X3351705Y7021886D01*
X608675Y7021886D01*
X608404Y7070298D01*
X5997180Y7070298D01*
X6011002Y6903659D01*
X6039731Y6772551D01*
X6052730Y6742329D01*
X6075689Y6645971D01*
X6094510Y6453828D01*
X6108852Y6171646D01*
X6118373Y5805169D01*
X6121240Y5589969D01*
X6124664Y5274303D01*
X6128359Y4993844D01*
X6132068Y4764222D01*
X6135530Y4601067D01*
X6138486Y4520008D01*
X6139109Y4514425D01*
X6188090Y4477071D01*
X6248400Y4455681D01*
X6334800Y4402992D01*
X6338075Y4334162D01*
X6261100Y4284698D01*
X6218770Y4259447D01*
X6190692Y4198227D01*
X6173062Y4082115D01*
X6162075Y3892188D01*
X6158140Y3772592D01*
X6155534Y3518908D01*
X6165914Y3353523D01*
X6190492Y3263822D01*
X6208940Y3243117D01*
X6277700Y3231108D01*
X6432146Y3221242D01*
X6656388Y3213501D01*
X6934535Y3207869D01*
X7250695Y3204328D01*
X7588979Y3202862D01*
X7933495Y3203453D01*
X8268353Y3206084D01*
X8577662Y3210739D01*
X8845531Y3217400D01*
X9056069Y3226051D01*
X9193386Y3236674D01*
X9239510Y3246362D01*
X9281591Y3307658D01*
X9286161Y3428984D01*
X9274497Y3524984D01*
X9261245Y3685686D01*
X9282536Y3756185D01*
X9293287Y3759200D01*
X9329949Y3803611D01*
X9347038Y3911816D01*
X9347200Y3924636D01*
X9362362Y4094057D01*
X9398587Y4267536D01*
X9469606Y4564352D01*
X9518217Y4895654D01*
X9546190Y5280693D01*
X9555298Y5738720D01*
X9553941Y5956038D01*
X9551634Y6327439D01*
X9555702Y6607292D01*
X9566980Y6805496D01*
X9586300Y6931950D01*
X9614497Y6996555D01*
X9642723Y7010382D01*
X9652477Y6961929D01*
X9661048Y6825984D01*
X9668039Y6616651D01*
X9673054Y6348035D01*
X9675695Y6034242D01*
X9675974Y5829282D01*
X9674028Y5420293D01*
X9668730Y5098286D01*
X9659238Y4848677D01*
X9644709Y4656880D01*
X9624298Y4508308D01*
X9597162Y4388376D01*
X9591527Y4368800D01*
X9480817Y3962669D01*
X9416736Y3646018D01*
X9399209Y3418100D01*
X9428160Y3278166D01*
X9478354Y3231236D01*
X9553928Y3221439D01*
X9713849Y3213660D01*
X9942552Y3207838D01*
X10224471Y3203913D01*
X10544042Y3201824D01*
X10885698Y3201511D01*
X11233875Y3202912D01*
X11573007Y3205968D01*
X11887529Y3210617D01*
X12161875Y3216799D01*
X12380482Y3224454D01*
X12527782Y3233521D01*
X12587420Y3243340D01*
X12627388Y3321409D01*
X12616701Y3378381D01*
X12604997Y3445164D01*
X12660641Y3441321D01*
X12667822Y3438631D01*
X12710280Y3431588D01*
X12734806Y3462872D01*
X12744802Y3550591D01*
X12743671Y3712857D01*
X12740141Y3823512D01*
X12728450Y4038486D01*
X12709909Y4166619D01*
X12681477Y4222600D01*
X12656552Y4227318D01*
X12557563Y4243433D01*
X12529552Y4260985D01*
X12455957Y4283272D01*
X12306410Y4303349D01*
X12106558Y4318281D01*
X11985743Y4323202D01*
X11740154Y4326446D01*
X11572455Y4317413D01*
X11459387Y4293359D01*
X11377686Y4251538D01*
X11377540Y4251436D01*
X11241830Y4186527D01*
X11100879Y4163586D01*
X10985078Y4181924D01*
X10924823Y4240851D01*
X10922000Y4261765D01*
X10963360Y4360461D01*
X11076266Y4401639D01*
X11211055Y4387238D01*
X11301256Y4373943D01*
X11318412Y4413595D01*
X11305116Y4463733D01*
X11304020Y4564570D01*
X11374469Y4605134D01*
X11503564Y4581645D01*
X11584391Y4545571D01*
X11694038Y4501757D01*
X11823081Y4482570D01*
X12002526Y4485303D01*
X12147776Y4496383D01*
X12334673Y4518509D01*
X12474863Y4545739D01*
X12544172Y4573041D01*
X12547600Y4579597D01*
X12579933Y4646201D01*
X12658116Y4741410D01*
X12661900Y4745339D01*
X12866408Y5004544D01*
X13010188Y5287463D01*
X13077917Y5563176D01*
X13079894Y5588773D01*
X13106906Y5737139D01*
X13117974Y5765800D01*
X13157200Y5765800D01*
X13182600Y5740400D01*
X13208000Y5765800D01*
X13182600Y5791200D01*
X13157200Y5765800D01*
X13117974Y5765800D01*
X13160450Y5875782D01*
X13224944Y5971222D01*
X13268717Y5994400D01*
X13299278Y6039043D01*
X13329751Y6149809D01*
X13336102Y6184900D01*
X13367065Y6336618D01*
X13415883Y6537182D01*
X13461478Y6705600D01*
X13523953Y6926013D01*
X13587291Y7151946D01*
X13625471Y7289800D01*
X13679473Y7449710D01*
X13739009Y7532408D01*
X13810902Y7560519D01*
X13912909Y7544093D01*
X13954229Y7471619D01*
X13994336Y7387147D01*
X14026724Y7366000D01*
X14067396Y7325178D01*
X14071600Y7295454D01*
X14120458Y7237357D01*
X14259778Y7189170D01*
X14478674Y7153625D01*
X14706600Y7135991D01*
X14894902Y7120857D01*
X15069796Y7097346D01*
X15122741Y7087072D01*
X15342458Y7087852D01*
X15510864Y7136841D01*
X15721304Y7186682D01*
X15872027Y7156010D01*
X15959947Y7048665D01*
X15981978Y6868486D01*
X15935034Y6619313D01*
X15932820Y6611795D01*
X15869053Y6420204D01*
X15792737Y6224479D01*
X15714441Y6047975D01*
X15644732Y5914048D01*
X15594179Y5846053D01*
X15584501Y5842000D01*
X15534402Y5799603D01*
X15473764Y5697600D01*
X15420994Y5573776D01*
X15394498Y5465916D01*
X15393944Y5450823D01*
X15400722Y5392151D01*
X15428929Y5419882D01*
X15452939Y5461000D01*
X15528271Y5560743D01*
X15578395Y5603225D01*
X15639811Y5681983D01*
X15646400Y5717417D01*
X15668778Y5796515D01*
X15727692Y5935765D01*
X15810812Y6106242D01*
X15818354Y6120778D01*
X15911869Y6324056D01*
X15987087Y6530794D01*
X16025405Y6684604D01*
X16052710Y6826551D01*
X16087937Y6889484D01*
X16146034Y6895744D01*
X16163894Y6891598D01*
X16285603Y6904760D01*
X16354242Y6950180D01*
X16491452Y7119680D01*
X16621027Y7340268D01*
X16734073Y7587918D01*
X16821696Y7838598D01*
X16875002Y8068281D01*
X16885096Y8252937D01*
X16866190Y8333302D01*
X16773746Y8517539D01*
X16664243Y8702268D01*
X16552786Y8865622D01*
X16454482Y8985738D01*
X16384438Y9040749D01*
X16376520Y9042053D01*
X16298926Y9077667D01*
X16256000Y9118600D01*
X16220762Y9180781D01*
X16251567Y9194800D01*
X16284112Y9218221D01*
X16253843Y9301081D01*
X16249627Y9309100D01*
X16187995Y9402950D01*
X16078902Y9549795D01*
X15941347Y9725779D01*
X15794325Y9907048D01*
X15656836Y10069745D01*
X15549191Y10188657D01*
X15476019Y10313960D01*
X15474981Y10397561D01*
X15468460Y10489699D01*
X15397850Y10528894D01*
X15323057Y10575148D01*
X15298036Y10679234D01*
X15297956Y10726390D01*
X15279717Y10899330D01*
X15235017Y11049000D01*
X15167630Y11201400D01*
X15149264Y10998200D01*
X15121625Y10847931D01*
X15076572Y10733992D01*
X15065659Y10718800D01*
X15013641Y10626437D01*
X14955646Y10478477D01*
X14929865Y10396374D01*
X14872501Y10244138D01*
X14805781Y10133301D01*
X14773337Y10104137D01*
X14685607Y10083761D01*
X14654035Y10138441D01*
X14680836Y10257137D01*
X14723870Y10350714D01*
X14810345Y10538739D01*
X14887343Y10747371D01*
X14949677Y10955647D01*
X14992158Y11142606D01*
X15009599Y11287287D01*
X14996812Y11368727D01*
X14978413Y11379200D01*
X14946230Y11422818D01*
X14935200Y11509624D01*
X14921446Y11601804D01*
X14865083Y11616254D01*
X14833600Y11607800D01*
X14750696Y11605760D01*
X14737403Y11652403D01*
X14800153Y11716846D01*
X14809716Y11722444D01*
X14855529Y11761096D01*
X14857120Y11822917D01*
X14814392Y11940694D01*
X14809034Y11953568D01*
X14725780Y12094486D01*
X14630508Y12141178D01*
X14628123Y12141201D01*
X14525476Y12180491D01*
X14485663Y12287920D01*
X14514071Y12447827D01*
X14518489Y12459883D01*
X14548852Y12595147D01*
X14516817Y12724801D01*
X14495397Y12769892D01*
X14403476Y12907576D01*
X14274685Y13048723D01*
X14135634Y13169072D01*
X14012934Y13244364D01*
X13960180Y13257826D01*
X13858720Y13302561D01*
X13777734Y13406343D01*
X13746488Y13526997D01*
X13750959Y13559314D01*
X13736819Y13664323D01*
X13690915Y13733827D01*
X13600384Y13803374D01*
X13543534Y13810006D01*
X13541276Y13751923D01*
X13543257Y13746539D01*
X13540710Y13665695D01*
X13472964Y13636859D01*
X13368589Y13671876D01*
X13289069Y13779093D01*
X13277622Y13886888D01*
X13268917Y13986667D01*
X13217687Y14062553D01*
X13101765Y14142493D01*
X13052582Y14170592D01*
X12896002Y14258806D01*
X12760306Y14336251D01*
X12713371Y14363514D01*
X12630079Y14400041D01*
X12592818Y14366889D01*
X12584550Y14338114D01*
X12564306Y14275940D01*
X12540964Y14309788D01*
X12530061Y14338300D01*
X12487744Y14458179D01*
X12472994Y14503400D01*
X12415783Y14571821D01*
X12338446Y14563598D01*
X12280677Y14484212D01*
X12278499Y14476542D01*
X12239696Y14396901D01*
X12209074Y14380958D01*
X12117795Y14376826D01*
X12075214Y14309323D01*
X12066894Y14185873D01*
X12079459Y14033347D01*
X12107667Y13912668D01*
X12111836Y13902833D01*
X12118666Y13798233D01*
X12045582Y13662489D01*
X12040475Y13655519D01*
X11970021Y13538307D01*
X11974238Y13473092D01*
X11985237Y13464202D01*
X12009856Y13413604D01*
X11966602Y13362121D01*
X11886409Y13332535D01*
X11816491Y13339923D01*
X11762902Y13349818D01*
X11761654Y13302788D01*
X11787066Y13229543D01*
X11813974Y13106974D01*
X11774523Y12999617D01*
X11744356Y12956061D01*
X11672853Y12841915D01*
X11617041Y12723555D01*
X11589452Y12632082D01*
X11600221Y12598400D01*
X11720669Y12641316D01*
X11781484Y12757424D01*
X11785600Y12807036D01*
X11808737Y12923458D01*
X11860628Y12954000D01*
X11954486Y12909241D01*
X12032579Y12798986D01*
X12075407Y12659271D01*
X12073461Y12560671D01*
X12063999Y12492271D01*
X12082975Y12510752D01*
X12131361Y12612343D01*
X12233492Y12750800D01*
X12547600Y12750800D01*
X12566186Y12708986D01*
X12581466Y12716934D01*
X12587546Y12777222D01*
X12581466Y12784667D01*
X12551266Y12777694D01*
X12547600Y12750800D01*
X12233492Y12750800D01*
X12251919Y12775781D01*
X12421626Y12873627D01*
X12611175Y12893588D01*
X12725549Y12861575D01*
X12817409Y12829092D01*
X12849823Y12854845D01*
X12852400Y12889050D01*
X12866906Y12943823D01*
X12911207Y12915513D01*
X12941529Y12835803D01*
X12917485Y12791053D01*
X12889565Y12692917D01*
X12900273Y12628432D01*
X12929111Y12574621D01*
X12968246Y12587598D01*
X13038650Y12676262D01*
X13049854Y12691932D01*
X13151013Y12803069D01*
X13240064Y12849407D01*
X13297857Y12825145D01*
X13309600Y12770597D01*
X13283254Y12684957D01*
X13215353Y12550455D01*
X13150779Y12443692D01*
X13055003Y12304644D01*
X12980889Y12233791D01*
X12898972Y12211528D01*
X12807879Y12215542D01*
X12665607Y12228327D01*
X12562091Y12237087D01*
X12554792Y12237647D01*
X12508738Y12277780D01*
X12517660Y12369800D01*
X12525189Y12468230D01*
X12475365Y12496800D01*
X12388114Y12465691D01*
X12369287Y12445172D01*
X12313242Y12412789D01*
X12297746Y12418038D01*
X12248572Y12397117D01*
X12191072Y12317267D01*
X12123776Y12223312D01*
X12066008Y12191124D01*
X12039699Y12232273D01*
X12039600Y12237365D01*
X11999452Y12298419D01*
X11903100Y12313550D01*
X11786674Y12279221D01*
X11761803Y12264580D01*
X11688074Y12202370D01*
X11626899Y12129969D01*
X11593902Y12071687D01*
X11604704Y12051833D01*
X11633781Y12065360D01*
X11677833Y12054814D01*
X11684000Y12023949D01*
X11644659Y11955158D01*
X11544867Y11863105D01*
X11481233Y11817317D01*
X11313768Y11680277D01*
X11172175Y11517046D01*
X11073588Y11352647D01*
X11035141Y11212103D01*
X11039366Y11171995D01*
X11049522Y11036502D01*
X11006449Y10954126D01*
X10928684Y10944732D01*
X10875516Y10934106D01*
X10812113Y10862067D01*
X10729428Y10715985D01*
X10655300Y10563056D01*
X10569453Y10371266D01*
X10503697Y10208779D01*
X10468225Y10101455D01*
X10464800Y10079823D01*
X10438360Y9981138D01*
X10391418Y9891513D01*
X10336869Y9764883D01*
X10280578Y9560593D01*
X10227263Y9302378D01*
X10181643Y9013971D01*
X10148435Y8719108D01*
X10141816Y8636000D01*
X10117538Y8401416D01*
X10080891Y8163746D01*
X10043167Y7988337D01*
X10004842Y7826728D01*
X9999503Y7732520D01*
X10026912Y7677103D01*
X10040450Y7664617D01*
X10104327Y7582626D01*
X10078149Y7529687D01*
X10013115Y7518400D01*
X9922046Y7469618D01*
X9832464Y7321746D01*
X9823975Y7302500D01*
X9730920Y7086600D01*
X9713250Y7286206D01*
X9722485Y7472302D01*
X9768801Y7655099D01*
X9773807Y7667206D01*
X9832540Y7839779D01*
X9893088Y8076246D01*
X9947835Y8339341D01*
X9989165Y8591797D01*
X10009462Y8796346D01*
X10010283Y8824359D01*
X10022226Y8959893D01*
X10051929Y9160259D01*
X10094036Y9391355D01*
X10116314Y9499600D01*
X10165389Y9741626D01*
X10208348Y9976582D01*
X10238401Y10166442D01*
X10245533Y10223500D01*
X10275718Y10382401D01*
X10320726Y10459731D01*
X10337267Y10464800D01*
X10413325Y10509073D01*
X10447205Y10629619D01*
X10434768Y10801820D01*
X10420789Y10917396D01*
X10448041Y10964540D01*
X10515854Y10972800D01*
X10566910Y10976944D01*
X10598750Y11001678D01*
X10614720Y11065456D01*
X10618164Y11186733D01*
X10612428Y11383964D01*
X10608490Y11483839D01*
X10594017Y11743869D01*
X10570000Y11915924D01*
X10528363Y12013614D01*
X10461029Y12050554D01*
X10359922Y12040355D01*
X10290067Y12020551D01*
X10178662Y11976661D01*
X10145786Y11924322D01*
X10165347Y11847737D01*
X10203071Y11737730D01*
X10194282Y11692926D01*
X10129830Y11684044D01*
X10114169Y11684000D01*
X10021067Y11732163D01*
X9964412Y11836400D01*
X9935509Y11942373D01*
X9955234Y11983681D01*
X9995002Y11988800D01*
X10048938Y12002689D01*
X10017760Y12049760D01*
X9966695Y12148973D01*
X9956800Y12216423D01*
X9911321Y12307661D01*
X9795147Y12391480D01*
X9638664Y12450251D01*
X9525000Y12466901D01*
X9497816Y12479867D01*
X10176933Y12479867D01*
X10183906Y12449667D01*
X10210800Y12446000D01*
X10252614Y12464587D01*
X10250956Y12467775D01*
X10333504Y12467775D01*
X10364218Y12419373D01*
X10430365Y12367421D01*
X10462161Y12383422D01*
X10441488Y12442621D01*
X10372382Y12494121D01*
X10353981Y12496800D01*
X10333504Y12467775D01*
X10250956Y12467775D01*
X10244666Y12479867D01*
X10184378Y12485947D01*
X10176933Y12479867D01*
X9497816Y12479867D01*
X9447974Y12503639D01*
X9405446Y12580198D01*
X9406357Y12658224D01*
X9459646Y12699362D01*
X9470666Y12700000D01*
X9533495Y12731742D01*
X9536178Y12812275D01*
X9491407Y12919557D01*
X9411877Y13031547D01*
X9310280Y13126206D01*
X9199308Y13181493D01*
X9192441Y13183118D01*
X9101379Y13218448D01*
X9023732Y13293283D01*
X8940807Y13429423D01*
X8898442Y13514001D01*
X9652000Y13514001D01*
X9694085Y13467789D01*
X9740900Y13451740D01*
X9817718Y13476666D01*
X9853857Y13567036D01*
X9836777Y13690669D01*
X9835411Y13694295D01*
X9773970Y13758932D01*
X9742494Y13766023D01*
X9711943Y13750254D01*
X9753600Y13714293D01*
X9801275Y13667216D01*
X9760815Y13623060D01*
X9740900Y13610947D01*
X9667780Y13548564D01*
X9652000Y13514001D01*
X8898442Y13514001D01*
X8884046Y13542739D01*
X8800279Y13707882D01*
X8728549Y13834148D01*
X8683635Y13895632D01*
X8682079Y13896718D01*
X8633145Y13875177D01*
X8562543Y13793676D01*
X8491933Y13684156D01*
X8442972Y13578555D01*
X8432989Y13529408D01*
X8400887Y13456815D01*
X8321236Y13349796D01*
X8293100Y13318002D01*
X8190933Y13206463D01*
X8113621Y13121178D01*
X8102600Y13108823D01*
X8019331Y13033046D01*
X7959143Y12987964D01*
X7898716Y12928655D01*
X7902716Y12851295D01*
X7929197Y12786835D01*
X7994283Y12688415D01*
X8058783Y12649200D01*
X8145582Y12607934D01*
X8217583Y12511568D01*
X8252494Y12401252D01*
X8234469Y12324868D01*
X8143229Y12262510D01*
X8016088Y12223702D01*
X7894655Y12216059D01*
X7820544Y12247195D01*
X7819420Y12248916D01*
X7780231Y12259290D01*
X7747554Y12193746D01*
X7690630Y12108615D01*
X7595282Y12102703D01*
X7522777Y12105586D01*
X7482345Y12062489D01*
X7457650Y11949692D01*
X7450001Y11891770D01*
X7424251Y11713684D01*
X7395254Y11553191D01*
X7387013Y11515846D01*
X7375713Y11408540D01*
X7422789Y11357472D01*
X7463107Y11344294D01*
X7558445Y11278348D01*
X7640139Y11154931D01*
X7644821Y11144149D01*
X7704978Y11031725D01*
X7761335Y10974600D01*
X7769807Y10972800D01*
X7818359Y10932222D01*
X7823200Y10903451D01*
X7852687Y10817954D01*
X7924092Y10705898D01*
X7928487Y10700251D01*
X8068554Y10585961D01*
X8228695Y10570030D01*
X8404832Y10652132D01*
X8515688Y10747502D01*
X8696790Y10928604D01*
X8662769Y11344402D01*
X8625412Y11637224D01*
X8568129Y11876321D01*
X8496034Y12044626D01*
X8431440Y12116641D01*
X8393924Y12185589D01*
X8382000Y12277760D01*
X8386070Y12348314D01*
X8413777Y12384280D01*
X8488361Y12392631D01*
X8633065Y12380340D01*
X8699500Y12373017D01*
X8887960Y12342407D01*
X9049807Y12299410D01*
X9131300Y12263684D01*
X9213855Y12224346D01*
X9245600Y12235213D01*
X9285377Y12260167D01*
X9378581Y12252792D01*
X9486014Y12222520D01*
X9568482Y12178783D01*
X9588935Y12152595D01*
X9565499Y12098501D01*
X9516533Y12083850D01*
X9393894Y12075700D01*
X9283882Y12068792D01*
X9138819Y12036765D01*
X9063762Y11971606D01*
X9073236Y11887640D01*
X9084558Y11872213D01*
X9108271Y11806348D01*
X9059553Y11726554D01*
X9016365Y11683405D01*
X8911077Y11543654D01*
X8901891Y11416875D01*
X8966200Y11328400D01*
X9030841Y11240164D01*
X9042400Y11191901D01*
X9080743Y11113737D01*
X9176544Y11008566D01*
X9300963Y10902999D01*
X9425159Y10823648D01*
X9457019Y10809337D01*
X9535635Y10803252D01*
X9550400Y10840510D01*
X9582099Y10916464D01*
X9658060Y11012840D01*
X9749573Y11100455D01*
X9827932Y11150130D01*
X9855363Y11150500D01*
X9917654Y11162013D01*
X10015948Y11222530D01*
X10022341Y11227493D01*
X10135145Y11307737D01*
X10191987Y11318334D01*
X10210233Y11259961D01*
X10210800Y11234853D01*
X10175849Y11159265D01*
X10082502Y11037384D01*
X9948014Y10890734D01*
X9884996Y10828453D01*
X9710268Y10668279D01*
X9581323Y10571674D01*
X9477486Y10525362D01*
X9397727Y10515600D01*
X9300665Y10510764D01*
X9254810Y10478346D01*
X9243438Y10391489D01*
X9247485Y10274300D01*
X9254570Y10034639D01*
X9244760Y9868966D01*
X9211329Y9750178D01*
X9147551Y9651175D01*
X9072880Y9570721D01*
X8937077Y9455801D01*
X8807706Y9405859D01*
X8698730Y9398000D01*
X8499037Y9430917D01*
X8370885Y9497440D01*
X8244468Y9596879D01*
X8101089Y9447224D01*
X7986396Y9343542D01*
X7883133Y9275452D01*
X7865055Y9268162D01*
X7788771Y9196469D01*
X7772400Y9118794D01*
X7724736Y8963558D01*
X7593209Y8809548D01*
X7395011Y8668478D01*
X7147335Y8552064D01*
X6867374Y8472022D01*
X6807200Y8461111D01*
X6674216Y8418488D01*
X6573950Y8324037D01*
X6513650Y8229379D01*
X6402907Y8058279D01*
X6270043Y7882497D01*
X6234347Y7840357D01*
X6140923Y7713507D01*
X6089523Y7603078D01*
X6085827Y7565341D01*
X6072631Y7472913D01*
X6047630Y7443703D01*
X6015247Y7374290D01*
X5998513Y7238498D01*
X5997180Y7070298D01*
X608404Y7070298D01*
X607924Y7155895D01*
X610542Y7369186D01*
X628927Y7512008D01*
X674550Y7599800D01*
X758882Y7648001D01*
X893396Y7672050D01*
X1089563Y7687386D01*
X1234922Y7698275D01*
X1631644Y7730835D01*
X1598235Y7891318D01*
X1555529Y8029399D01*
X2032000Y8029399D01*
X2068876Y7977668D01*
X2082800Y7975600D01*
X2132279Y7992933D01*
X2133600Y7998002D01*
X2098002Y8041374D01*
X2082800Y8051800D01*
X2035988Y8047773D01*
X2032000Y8029399D01*
X1555529Y8029399D01*
X1550465Y8045769D01*
X1508370Y8133128D01*
X2559494Y8133128D01*
X2631886Y8014192D01*
X2777723Y7901975D01*
X2823506Y7877390D01*
X2953669Y7799998D01*
X3034687Y7727983D01*
X3048000Y7698857D01*
X3005594Y7602228D01*
X2909634Y7539084D01*
X2817408Y7537535D01*
X2759900Y7547961D01*
X2774148Y7512991D01*
X2848498Y7445241D01*
X2971294Y7357323D01*
X3002456Y7337282D01*
X3144103Y7260227D01*
X3241820Y7243623D01*
X3299958Y7263308D01*
X3385999Y7284214D01*
X3480896Y7239874D01*
X3540272Y7192114D01*
X3639264Y7123351D01*
X3697657Y7116286D01*
X3702690Y7124017D01*
X3683297Y7195241D01*
X3676177Y7202494D01*
X4713783Y7202494D01*
X4727669Y7184260D01*
X4796092Y7149919D01*
X4880258Y7149510D01*
X4927021Y7182116D01*
X4927600Y7187713D01*
X4884502Y7206457D01*
X4800155Y7226119D01*
X4715234Y7233985D01*
X4713783Y7202494D01*
X3676177Y7202494D01*
X3639190Y7240171D01*
X3633379Y7247467D01*
X5198533Y7247467D01*
X5205506Y7217267D01*
X5232400Y7213600D01*
X5274214Y7232187D01*
X5266266Y7247467D01*
X5205978Y7253547D01*
X5198533Y7247467D01*
X3633379Y7247467D01*
X3599658Y7289800D01*
X5384800Y7289800D01*
X5410200Y7264400D01*
X5435600Y7289800D01*
X5410200Y7315200D01*
X5384800Y7289800D01*
X3599658Y7289800D01*
X3569618Y7327511D01*
X3556000Y7381432D01*
X3551066Y7391400D01*
X5638800Y7391400D01*
X5664200Y7366000D01*
X5689600Y7391400D01*
X5664200Y7416800D01*
X5638800Y7391400D01*
X3551066Y7391400D01*
X3518727Y7456726D01*
X3423275Y7562037D01*
X3345480Y7629832D01*
X3326698Y7645400D01*
X4267200Y7645400D01*
X4292600Y7620000D01*
X4318000Y7645400D01*
X4292600Y7670800D01*
X4267200Y7645400D01*
X3326698Y7645400D01*
X3193228Y7756024D01*
X3010927Y7913720D01*
X2867647Y8041962D01*
X2733753Y8155292D01*
X2629254Y8227101D01*
X2574711Y8243497D01*
X2572616Y8241278D01*
X2559494Y8133128D01*
X1508370Y8133128D01*
X1492589Y8165876D01*
X1445483Y8315969D01*
X1452164Y8406703D01*
X1453302Y8520758D01*
X1398417Y8559800D01*
X3200400Y8559800D01*
X3225800Y8534400D01*
X3251200Y8559800D01*
X3225800Y8585200D01*
X3200400Y8559800D01*
X1398417Y8559800D01*
X1390530Y8565410D01*
X1276045Y8538559D01*
X1148508Y8458958D01*
X1046091Y8363123D01*
X996439Y8280633D01*
X996653Y8257545D01*
X974190Y8195850D01*
X892029Y8158700D01*
X795329Y8112595D01*
X761999Y8060542D01*
X733340Y7971115D01*
X687415Y7896410D01*
X653955Y7861253D01*
X632140Y7871245D01*
X619438Y7940419D01*
X613314Y8082811D01*
X611234Y8312454D01*
X611215Y8318500D01*
X612870Y8558620D01*
X621209Y8713822D01*
X638606Y8800697D01*
X667440Y8835837D01*
X685800Y8839200D01*
X753444Y8863744D01*
X761999Y8884565D01*
X721572Y8940099D01*
X685799Y8959171D01*
X628217Y9032153D01*
X609600Y9163393D01*
X614607Y9279145D01*
X647801Y9314446D01*
X736444Y9290444D01*
X761339Y9281100D01*
X868372Y9226775D01*
X1030121Y9128355D01*
X1219889Y9002522D01*
X1324141Y8929388D01*
X1502199Y8807729D01*
X1651435Y8716678D01*
X1752059Y8667712D01*
X1782001Y8663874D01*
X1803931Y8724918D01*
X1820356Y8861094D01*
X1828423Y9045969D01*
X1828456Y9050503D01*
X2213727Y9050503D01*
X2256837Y9001772D01*
X2308225Y9006267D01*
X2367069Y9059365D01*
X2436096Y9165193D01*
X2439911Y9172426D01*
X2477562Y9241496D01*
X2860117Y9241496D01*
X2878693Y9219920D01*
X2908265Y9211098D01*
X2983953Y9148031D01*
X3025731Y9051382D01*
X3069992Y8904834D01*
X3129191Y8763000D01*
X3168200Y8689226D01*
X3171950Y8695601D01*
X3166075Y8712200D01*
X3145046Y8817270D01*
X3130433Y8982378D01*
X3126150Y9118600D01*
X3128601Y9289088D01*
X3144530Y9383063D01*
X3182635Y9425500D01*
X3237921Y9439558D01*
X3312791Y9440092D01*
X3334335Y9393639D01*
X3319524Y9287158D01*
X3293529Y9167779D01*
X3273057Y9101897D01*
X3271657Y9099788D01*
X3282445Y9043954D01*
X3334194Y8925475D01*
X3414197Y8767974D01*
X3509746Y8595077D01*
X3608136Y8430407D01*
X3696658Y8297588D01*
X3719222Y8267700D01*
X3828787Y8134833D01*
X3881238Y8083967D01*
X3875435Y8112314D01*
X3810238Y8217086D01*
X3739987Y8318500D01*
X3579813Y8558156D01*
X3478013Y8752475D01*
X3423239Y8930020D01*
X3404140Y9119354D01*
X3403600Y9165090D01*
X3396103Y9338460D01*
X3368108Y9438935D01*
X3311356Y9494480D01*
X3305339Y9497813D01*
X3184186Y9545352D01*
X3114915Y9517506D01*
X3079462Y9429471D01*
X3011660Y9320387D01*
X2934255Y9271686D01*
X2860117Y9241496D01*
X2477562Y9241496D01*
X2511670Y9304066D01*
X2608051Y9473289D01*
X2662102Y9565600D01*
X2742354Y9705966D01*
X2773778Y9787438D01*
X2760694Y9837711D01*
X2711391Y9881484D01*
X2582635Y9949159D01*
X2496729Y9924779D01*
X2470829Y9880600D01*
X2409984Y9812889D01*
X2376494Y9803971D01*
X2331325Y9754912D01*
X2305166Y9607647D01*
X2300063Y9523778D01*
X2284736Y9348757D01*
X2257808Y9204713D01*
X2238350Y9149887D01*
X2213727Y9050503D01*
X1828456Y9050503D01*
X1828800Y9097468D01*
X1846708Y9423669D01*
X1879030Y9575800D01*
X2133600Y9575800D01*
X2159000Y9550400D01*
X2184400Y9575800D01*
X2159000Y9601200D01*
X2133600Y9575800D01*
X1879030Y9575800D01*
X1905034Y9698187D01*
X1937288Y9792970D01*
X1958960Y9858508D01*
X2247655Y9858508D01*
X2254603Y9855200D01*
X2300963Y9890963D01*
X2311400Y9906000D01*
X2324344Y9953493D01*
X2317396Y9956800D01*
X2271036Y9921038D01*
X2260600Y9906000D01*
X2247655Y9858508D01*
X1958960Y9858508D01*
X1995845Y9970045D01*
X2034471Y10125534D01*
X2043919Y10203613D01*
X2016720Y10335859D01*
X1952027Y10486970D01*
X1870079Y10618254D01*
X1791116Y10691017D01*
X1788376Y10692136D01*
X1719167Y10674978D01*
X1600006Y10608128D01*
X1456766Y10509519D01*
X1315321Y10397081D01*
X1201548Y10288745D01*
X1193800Y10280093D01*
X1127031Y10222126D01*
X1004408Y10129336D01*
X876300Y10038427D01*
X609600Y9854468D01*
X609600Y10861401D01*
X2189228Y10861401D01*
X2210478Y10838770D01*
X2260600Y10820393D01*
X2409360Y10795751D01*
X2591905Y10799982D01*
X2667047Y10813831D01*
X2911864Y10813831D01*
X2954411Y10773410D01*
X2975171Y10764408D01*
X3072183Y10731554D01*
X3144639Y10736369D01*
X3225800Y10765981D01*
X3282025Y10795516D01*
X3256695Y10818589D01*
X3163539Y10842375D01*
X3036865Y10856772D01*
X2946161Y10844438D01*
X2911864Y10813831D01*
X2667047Y10813831D01*
X2754496Y10829948D01*
X2809487Y10852448D01*
X2813747Y10871200D01*
X3352800Y10871200D01*
X3389260Y10821855D01*
X3400601Y10820400D01*
X3469402Y10857327D01*
X3479800Y10871200D01*
X3468283Y10914690D01*
X3431998Y10922000D01*
X3362492Y10895478D01*
X3352800Y10871200D01*
X2813747Y10871200D01*
X2815597Y10879338D01*
X2746774Y10900115D01*
X2629592Y10912976D01*
X2490626Y10916114D01*
X2356453Y10907727D01*
X2263826Y10889500D01*
X2189228Y10861401D01*
X609600Y10861401D01*
X609600Y11174599D01*
X4118654Y11174599D01*
X4125911Y11058804D01*
X4207760Y10910644D01*
X4343197Y10759155D01*
X4463435Y10634964D01*
X4546253Y10531561D01*
X4571797Y10478805D01*
X4612956Y10415892D01*
X4713439Y10343809D01*
X4729991Y10334909D01*
X4823644Y10295315D01*
X4857521Y10299699D01*
X4853993Y10308205D01*
X4875614Y10344399D01*
X4996980Y10361621D01*
X5075214Y10363200D01*
X5239568Y10354477D01*
X5333937Y10321424D01*
X5386544Y10258340D01*
X5451012Y10185563D01*
X5553365Y10178828D01*
X5591532Y10186176D01*
X5686748Y10200940D01*
X5729136Y10172384D01*
X5740057Y10076073D01*
X5740400Y10015870D01*
X5755218Y9876701D01*
X5793262Y9796758D01*
X5803900Y9790471D01*
X5835514Y9751461D01*
X5805970Y9663346D01*
X5780564Y9616794D01*
X5726190Y9505307D01*
X5728243Y9427950D01*
X5770947Y9355267D01*
X5912045Y9221741D01*
X6100596Y9125534D01*
X6267853Y9093200D01*
X6385987Y9054438D01*
X6427995Y8985942D01*
X6464583Y8917671D01*
X6535795Y8896952D01*
X6657788Y8909986D01*
X6818284Y8917463D01*
X6913595Y8872868D01*
X6919269Y8866776D01*
X6990444Y8804884D01*
X7060358Y8806175D01*
X7155503Y8876878D01*
X7217507Y8936893D01*
X7322769Y9062218D01*
X7357214Y9169184D01*
X7314813Y9270257D01*
X7189540Y9377904D01*
X6975365Y9504593D01*
X6931815Y9527796D01*
X6763251Y9625774D01*
X6680939Y9681825D01*
X8701875Y9681825D01*
X8720138Y9654313D01*
X8756803Y9652000D01*
X8851898Y9685836D01*
X8940800Y9753600D01*
X9016337Y9856578D01*
X9042400Y9937597D01*
X9032113Y9990939D01*
X8983089Y9978889D01*
X8931823Y9946573D01*
X8813417Y9842936D01*
X8747827Y9762577D01*
X8701875Y9681825D01*
X6680939Y9681825D01*
X6612616Y9728350D01*
X6553200Y9776669D01*
X6455257Y9858705D01*
X6301571Y9979109D01*
X6118965Y10117050D01*
X6038598Y10176301D01*
X5855983Y10319779D01*
X5670224Y10482377D01*
X5498192Y10647229D01*
X5356754Y10797473D01*
X5262780Y10916243D01*
X5232727Y10981954D01*
X5274869Y10992874D01*
X5378596Y10974361D01*
X5397164Y10969254D01*
X5510393Y10937405D01*
X5568686Y10922212D01*
X5570208Y10922000D01*
X5566078Y10963317D01*
X5552132Y11022785D01*
X5545444Y11213494D01*
X5633825Y11368859D01*
X5805692Y11482971D01*
X5961011Y11542969D01*
X6095929Y11577827D01*
X6131101Y11581285D01*
X6244141Y11561627D01*
X6268084Y11510179D01*
X6203471Y11442976D01*
X6125056Y11402854D01*
X5997651Y11341804D01*
X5947801Y11301521D01*
X5980728Y11290187D01*
X6062950Y11305620D01*
X6150349Y11310254D01*
X6207864Y11252906D01*
X6244988Y11166888D01*
X6304178Y11020505D01*
X6360290Y10900643D01*
X6361598Y10898202D01*
X6419695Y10768428D01*
X6454595Y10669602D01*
X6483438Y10595018D01*
X6496829Y10617621D01*
X6498033Y10635336D01*
X6529217Y10703679D01*
X6578600Y10700430D01*
X6644212Y10707050D01*
X6654800Y10739575D01*
X6619028Y10827158D01*
X6578600Y10871200D01*
X6514739Y10944533D01*
X6502400Y10979021D01*
X6543136Y11015712D01*
X6636581Y11021116D01*
X6739594Y10997631D01*
X6797039Y10962641D01*
X6844426Y10874287D01*
X6855645Y10768516D01*
X6831061Y10687490D01*
X6794500Y10668038D01*
X6753591Y10624760D01*
X6736827Y10490909D01*
X6736779Y10401338D01*
X6746585Y10239174D01*
X6776158Y10145736D01*
X6839213Y10088327D01*
X6876479Y10068329D01*
X6972422Y10006246D01*
X7010400Y9954029D01*
X7052080Y9913726D01*
X7155932Y9908955D01*
X7290168Y9936583D01*
X7423003Y9993482D01*
X7425433Y9994900D01*
X7530360Y10050722D01*
X7589081Y10051374D01*
X7641435Y9995707D01*
X7646731Y9988529D01*
X7736877Y9916616D01*
X7813491Y9930934D01*
X7850017Y10016952D01*
X7843207Y10083800D01*
X8585200Y10083800D01*
X8610600Y10058400D01*
X8636000Y10083800D01*
X8610600Y10109200D01*
X8585200Y10083800D01*
X7843207Y10083800D01*
X7842026Y10095385D01*
X7800571Y10209416D01*
X7757702Y10268848D01*
X7730671Y10337178D01*
X7738748Y10424609D01*
X7727257Y10578800D01*
X7627388Y10747157D01*
X7481850Y10887803D01*
X7369089Y10982766D01*
X7293154Y11052903D01*
X7210720Y11113126D01*
X7171325Y11125200D01*
X7105953Y11156312D01*
X6999610Y11234647D01*
X6951796Y11275205D01*
X6815922Y11386864D01*
X6639539Y11521185D01*
X6502400Y11619805D01*
X6266103Y11823574D01*
X6111843Y12043927D01*
X6048622Y12267595D01*
X6047640Y12290326D01*
X6011614Y12416951D01*
X5937173Y12529042D01*
X5867463Y12639788D01*
X5862459Y12733320D01*
X5916605Y12783421D01*
X5989874Y12777637D01*
X6083732Y12774885D01*
X6120122Y12799534D01*
X6192149Y12842859D01*
X6264098Y12854091D01*
X6381949Y12887078D01*
X6501341Y12960560D01*
X6584065Y13035346D01*
X6592988Y13081477D01*
X6533149Y13134379D01*
X6526741Y13139087D01*
X6454284Y13231529D01*
X6441318Y13307443D01*
X6411930Y13411440D01*
X6308030Y13499910D01*
X6156666Y13554571D01*
X6062294Y13563600D01*
X5939839Y13577903D01*
X5868673Y13612492D01*
X5867515Y13614214D01*
X5801788Y13630245D01*
X5684009Y13586110D01*
X5592760Y13531457D01*
X5553758Y13469547D01*
X5553698Y13364488D01*
X5566386Y13268796D01*
X5597102Y13105311D01*
X5633891Y12973368D01*
X5648115Y12939366D01*
X5669898Y12834800D01*
X5668218Y12681049D01*
X5661254Y12621866D01*
X5648090Y12468328D01*
X5669304Y12400579D01*
X5686830Y12395200D01*
X5722524Y12364418D01*
X5715000Y12344400D01*
X5648338Y12311820D01*
X5522173Y12294473D01*
X5484996Y12293600D01*
X5356875Y12301980D01*
X5310510Y12332782D01*
X5315629Y12369800D01*
X5312009Y12433523D01*
X5259886Y12440796D01*
X5204859Y12391737D01*
X5135828Y12359646D01*
X5093822Y12367214D01*
X4987233Y12364406D01*
X4909802Y12279025D01*
X4877029Y12129176D01*
X4876800Y12113735D01*
X4859318Y11920330D01*
X4809198Y11808690D01*
X4757064Y11784341D01*
X4667656Y11752876D01*
X4545967Y11675595D01*
X4417604Y11573957D01*
X4308177Y11469421D01*
X4243294Y11383446D01*
X4236840Y11348406D01*
X4223527Y11268848D01*
X4190143Y11244842D01*
X4118654Y11174599D01*
X609600Y11174599D01*
X609600Y11767558D01*
X718231Y11968125D01*
X965199Y11968125D01*
X1008639Y11867201D01*
X1110047Y11797147D01*
X1172339Y11785600D01*
X1275253Y11749123D01*
X1320800Y11709400D01*
X1396802Y11645393D01*
X1433882Y11633200D01*
X1434033Y11666361D01*
X1378015Y11750578D01*
X1331936Y11806078D01*
X1297054Y11848546D01*
X2612832Y11848546D01*
X2662766Y11840411D01*
X2728655Y11849751D01*
X2729441Y11867092D01*
X2711641Y11870267D01*
X3014133Y11870267D01*
X3021106Y11840067D01*
X3048000Y11836400D01*
X3089814Y11854987D01*
X3081866Y11870267D01*
X3021578Y11876347D01*
X3014133Y11870267D01*
X2711641Y11870267D01*
X2661451Y11879219D01*
X2632075Y11871103D01*
X2612832Y11848546D01*
X1297054Y11848546D01*
X1252898Y11902303D01*
X2317718Y11902303D01*
X2387600Y11895222D01*
X2459717Y11903205D01*
X2451100Y11920844D01*
X2347094Y11927554D01*
X2324100Y11920844D01*
X2317718Y11902303D01*
X1252898Y11902303D01*
X1235385Y11923623D01*
X1171360Y12015619D01*
X1160605Y12037585D01*
X1109569Y12070600D01*
X1031085Y12051671D01*
X972491Y11997627D01*
X965199Y11968125D01*
X718231Y11968125D01*
X767770Y12059588D01*
X909332Y12299104D01*
X1048245Y12475756D01*
X1214223Y12622988D01*
X1357122Y12722983D01*
X1509728Y12840930D01*
X1610186Y12939347D01*
X2344058Y12939347D01*
X2423823Y12817611D01*
X2529087Y12697510D01*
X2643637Y12625882D01*
X2737486Y12620805D01*
X2744249Y12624449D01*
X2790301Y12619414D01*
X2794000Y12601399D01*
X2830876Y12549668D01*
X2844800Y12547600D01*
X2894205Y12577214D01*
X2895600Y12586181D01*
X2860226Y12632267D01*
X3064933Y12632267D01*
X3071906Y12602067D01*
X3098800Y12598400D01*
X3140614Y12616987D01*
X3137071Y12623800D01*
X3352800Y12623800D01*
X3378200Y12598400D01*
X3403600Y12623800D01*
X3378200Y12649200D01*
X3352800Y12623800D01*
X3137071Y12623800D01*
X3132666Y12632267D01*
X3072378Y12638347D01*
X3064933Y12632267D01*
X2860226Y12632267D01*
X2849432Y12646328D01*
X2715658Y12738392D01*
X2505529Y12855318D01*
X2344058Y12939347D01*
X1610186Y12939347D01*
X1653128Y12981416D01*
X1765401Y13119634D01*
X1824629Y13230775D01*
X1828800Y13256820D01*
X1855902Y13358137D01*
X1928894Y13520443D01*
X2035300Y13721561D01*
X2162645Y13939315D01*
X2298454Y14151530D01*
X2430253Y14336030D01*
X2450456Y14361901D01*
X2545762Y14484487D01*
X2879115Y14484487D01*
X2887023Y14348812D01*
X2938683Y14229541D01*
X2998516Y14149345D01*
X3028140Y14151556D01*
X3039468Y14191818D01*
X3081291Y14255508D01*
X3187656Y14267681D01*
X3213201Y14265470D01*
X3333510Y14272919D01*
X3387466Y14312123D01*
X3363557Y14362252D01*
X3284882Y14395182D01*
X3179683Y14456800D01*
X3135026Y14528245D01*
X3069606Y14613537D01*
X3007877Y14630400D01*
X2921192Y14588731D01*
X2879115Y14484487D01*
X2545762Y14484487D01*
X2587854Y14538626D01*
X2710297Y14702218D01*
X2796258Y14823747D01*
X2810654Y14845971D01*
X2903140Y14957996D01*
X3054760Y15105130D01*
X3240122Y15266105D01*
X3433837Y15419655D01*
X3610514Y15544513D01*
X3721635Y15609019D01*
X3972093Y15724427D01*
X4219415Y15828309D01*
X4438553Y15910924D01*
X4604457Y15962535D01*
X4659549Y15973661D01*
X4785074Y15993146D01*
X4966000Y16025246D01*
X5121009Y16054800D01*
X5343293Y16084790D01*
X5617724Y16095063D01*
X5964517Y16086096D01*
X6111609Y16078212D01*
X6532291Y16055917D01*
X6866172Y16045260D01*
X7127486Y16047157D01*
X7330465Y16062524D01*
X7489341Y16092279D01*
X7618348Y16137338D01*
X7702191Y16180626D01*
X7962434Y16351501D01*
X8150257Y16523500D01*
X8291844Y16722234D01*
X8332258Y16796821D01*
X8384372Y16908182D01*
X8420569Y17017788D01*
X8444239Y17148411D01*
X8458775Y17322822D01*
X8467567Y17563792D01*
X8471113Y17729200D01*
X8481329Y18246799D01*
X8491771Y18675086D01*
X8504121Y19026338D01*
X8520064Y19312832D01*
X8541282Y19546845D01*
X8569458Y19740655D01*
X8606275Y19906539D01*
X8653417Y20056775D01*
X8712567Y20203639D01*
X8785407Y20359408D01*
X8849336Y20488076D01*
X9053475Y20864758D01*
X9255672Y21181710D01*
X9449791Y21432233D01*
X9629698Y21609628D01*
X9789259Y21707198D01*
X9922340Y21718245D01*
X9960362Y21701165D01*
X10120693Y21645213D01*
X10286918Y21680700D01*
X10470970Y21810327D01*
X10480327Y21818843D01*
X10634514Y21941505D01*
X10747503Y21992115D01*
X10810387Y21968018D01*
G36*
X7203435Y2455114D02*
G01*
X7185874Y2295325D01*
X7156390Y2182802D01*
X7130980Y2148174D01*
X7072009Y2175744D01*
X6994015Y2267527D01*
X6968561Y2307620D01*
X6864975Y2436101D01*
X6749220Y2513649D01*
X6733681Y2518467D01*
X6627808Y2579285D01*
X6604000Y2647108D01*
X6616648Y2700812D01*
X6669805Y2729930D01*
X6786286Y2741596D01*
X6911335Y2743200D01*
X7218670Y2743200D01*
X7203435Y2455114D01*
G37*
X7203435Y2455114D02*
X7185874Y2295325D01*
X7156390Y2182802D01*
X7130980Y2148174D01*
X7072009Y2175744D01*
X6994015Y2267527D01*
X6968561Y2307620D01*
X6864975Y2436101D01*
X6749220Y2513649D01*
X6733681Y2518467D01*
X6627808Y2579285D01*
X6604000Y2647108D01*
X6616648Y2700812D01*
X6669805Y2729930D01*
X6786286Y2741596D01*
X6911335Y2743200D01*
X7218670Y2743200D01*
X7203435Y2455114D01*
G36*
X3505200Y2444621D02*
G01*
X3490252Y2237019D01*
X3448640Y2104644D01*
X3385207Y2056239D01*
X3310951Y2094169D01*
X3256981Y2192479D01*
X3250865Y2232660D01*
X3223928Y2326213D01*
X3158611Y2449882D01*
X3149600Y2463800D01*
X3066731Y2608840D01*
X3060215Y2694308D01*
X3136476Y2734337D01*
X3276600Y2743200D01*
X3505200Y2743200D01*
X3505200Y2444621D01*
G37*
X3505200Y2444621D02*
X3490252Y2237019D01*
X3448640Y2104644D01*
X3385207Y2056239D01*
X3310951Y2094169D01*
X3256981Y2192479D01*
X3250865Y2232660D01*
X3223928Y2326213D01*
X3158611Y2449882D01*
X3149600Y2463800D01*
X3066731Y2608840D01*
X3060215Y2694308D01*
X3136476Y2734337D01*
X3276600Y2743200D01*
X3505200Y2743200D01*
X3505200Y2444621D01*
G36*
X2222670Y2729409D02*
G01*
X2281385Y2677551D01*
X2266114Y2571904D01*
X2214087Y2455217D01*
X2141601Y2299416D01*
X2088176Y2171700D01*
X2022150Y2055409D01*
X1950835Y2038742D01*
X1913466Y2065867D01*
X1895838Y2130832D01*
X1883590Y2266431D01*
X1879600Y2421467D01*
X1879600Y2743200D01*
X2082800Y2743200D01*
X2222670Y2729409D01*
G37*
X2222670Y2729409D02*
X2281385Y2677551D01*
X2266114Y2571904D01*
X2214087Y2455217D01*
X2141601Y2299416D01*
X2088176Y2171700D01*
X2022150Y2055409D01*
X1950835Y2038742D01*
X1913466Y2065867D01*
X1895838Y2130832D01*
X1883590Y2266431D01*
X1879600Y2421467D01*
X1879600Y2743200D01*
X2082800Y2743200D01*
X2222670Y2729409D01*
G36*
X6908735Y2142205D02*
G01*
X6938007Y1973888D01*
X6949036Y1812024D01*
X6953515Y1611436D01*
X6945912Y1492610D01*
X6922993Y1436094D01*
X6884279Y1422400D01*
X6808814Y1464915D01*
X6756400Y1549400D01*
X6703347Y1643604D01*
X6656057Y1676400D01*
X6616505Y1717407D01*
X6605409Y1809565D01*
X6622460Y1906583D01*
X6657933Y1957737D01*
X6715709Y2027317D01*
X6759846Y2117264D01*
X6816130Y2219578D01*
X6866935Y2225997D01*
X6908735Y2142205D01*
G37*
X6908735Y2142205D02*
X6938007Y1973888D01*
X6949036Y1812024D01*
X6953515Y1611436D01*
X6945912Y1492610D01*
X6922993Y1436094D01*
X6884279Y1422400D01*
X6808814Y1464915D01*
X6756400Y1549400D01*
X6703347Y1643604D01*
X6656057Y1676400D01*
X6616505Y1717407D01*
X6605409Y1809565D01*
X6622460Y1906583D01*
X6657933Y1957737D01*
X6715709Y2027317D01*
X6759846Y2117264D01*
X6816130Y2219578D01*
X6866935Y2225997D01*
X6908735Y2142205D01*
G36*
X17448818Y2732722D02*
G01*
X17567707Y2689980D01*
X17678992Y2598014D01*
X17682307Y2594708D01*
X17805952Y2411373D01*
X17833476Y2216090D01*
X17764677Y2026026D01*
X17690085Y1934271D01*
X17549371Y1793557D01*
X17690085Y1664630D01*
X17800228Y1521542D01*
X17830800Y1357696D01*
X17843556Y1233317D01*
X17888436Y1187768D01*
X17914232Y1186745D01*
X17999685Y1164998D01*
X18009072Y1086676D01*
X17941618Y963421D01*
X17930082Y948392D01*
X17832571Y855364D01*
X17709506Y818158D01*
X17611212Y814416D01*
X17451661Y832968D01*
X17321930Y876948D01*
X17300655Y890422D01*
X17235889Y973403D01*
X17196722Y1116915D01*
X17180338Y1268580D01*
X17156694Y1447420D01*
X17118912Y1581180D01*
X17088183Y1630594D01*
X17026851Y1727338D01*
X17030349Y1831727D01*
X17094200Y1897971D01*
X17142607Y1952260D01*
X17166302Y2078651D01*
X17170400Y2209800D01*
X17160769Y2393014D01*
X17129140Y2493027D01*
X17094200Y2521630D01*
X17029950Y2590907D01*
X17018000Y2647036D01*
X17032921Y2704650D01*
X17093903Y2733574D01*
X17225273Y2742876D01*
X17275907Y2743200D01*
X17448818Y2732722D01*
G37*
X17448818Y2732722D02*
X17567707Y2689980D01*
X17678992Y2598014D01*
X17682307Y2594708D01*
X17805952Y2411373D01*
X17833476Y2216090D01*
X17764677Y2026026D01*
X17690085Y1934271D01*
X17549371Y1793557D01*
X17690085Y1664630D01*
X17800228Y1521542D01*
X17830800Y1357696D01*
X17843556Y1233317D01*
X17888436Y1187768D01*
X17914232Y1186745D01*
X17999685Y1164998D01*
X18009072Y1086676D01*
X17941618Y963421D01*
X17930082Y948392D01*
X17832571Y855364D01*
X17709506Y818158D01*
X17611212Y814416D01*
X17451661Y832968D01*
X17321930Y876948D01*
X17300655Y890422D01*
X17235889Y973403D01*
X17196722Y1116915D01*
X17180338Y1268580D01*
X17156694Y1447420D01*
X17118912Y1581180D01*
X17088183Y1630594D01*
X17026851Y1727338D01*
X17030349Y1831727D01*
X17094200Y1897971D01*
X17142607Y1952260D01*
X17166302Y2078651D01*
X17170400Y2209800D01*
X17160769Y2393014D01*
X17129140Y2493027D01*
X17094200Y2521630D01*
X17029950Y2590907D01*
X17018000Y2647036D01*
X17032921Y2704650D01*
X17093903Y2733574D01*
X17225273Y2742876D01*
X17275907Y2743200D01*
X17448818Y2732722D01*
G36*
X16967200Y1907525D02*
G01*
X16968368Y1592892D01*
X16972815Y1365017D01*
X16981952Y1209076D01*
X16997190Y1110244D01*
X17019941Y1053696D01*
X17051248Y1024813D01*
X17109435Y946904D01*
X17103642Y895289D01*
X17069482Y853899D01*
X16992716Y828678D01*
X16853624Y816141D01*
X16637000Y812800D01*
X16417406Y816266D01*
X16279528Y828989D01*
X16203644Y854453D01*
X16170357Y895289D01*
X16181084Y987741D01*
X16222751Y1024813D01*
X16256184Y1056146D01*
X16279565Y1117024D01*
X16294595Y1223287D01*
X16302975Y1390775D01*
X16306406Y1635326D01*
X16306800Y1807519D01*
X16305125Y2103589D01*
X16299123Y2312859D01*
X16287322Y2450086D01*
X16268253Y2530030D01*
X16240444Y2567450D01*
X16230600Y2572430D01*
X16163085Y2636392D01*
X16154400Y2672436D01*
X16178438Y2709396D01*
X16261374Y2731539D01*
X16419438Y2741690D01*
X16560800Y2743200D01*
X16967200Y2743200D01*
X16967200Y1907525D01*
G37*
X16967200Y1907525D02*
X16968368Y1592892D01*
X16972815Y1365017D01*
X16981952Y1209076D01*
X16997190Y1110244D01*
X17019941Y1053696D01*
X17051248Y1024813D01*
X17109435Y946904D01*
X17103642Y895289D01*
X17069482Y853899D01*
X16992716Y828678D01*
X16853624Y816141D01*
X16637000Y812800D01*
X16417406Y816266D01*
X16279528Y828989D01*
X16203644Y854453D01*
X16170357Y895289D01*
X16181084Y987741D01*
X16222751Y1024813D01*
X16256184Y1056146D01*
X16279565Y1117024D01*
X16294595Y1223287D01*
X16302975Y1390775D01*
X16306406Y1635326D01*
X16306800Y1807519D01*
X16305125Y2103589D01*
X16299123Y2312859D01*
X16287322Y2450086D01*
X16268253Y2530030D01*
X16240444Y2567450D01*
X16230600Y2572430D01*
X16163085Y2636392D01*
X16154400Y2672436D01*
X16178438Y2709396D01*
X16261374Y2731539D01*
X16419438Y2741690D01*
X16560800Y2743200D01*
X16967200Y2743200D01*
X16967200Y1907525D01*
G36*
X15413231Y2769784D02*
G01*
X15546766Y2723553D01*
X15679332Y2640893D01*
X15711878Y2612791D01*
X15877974Y2422020D01*
X15977340Y2207351D01*
X16021098Y1940089D01*
X16025580Y1803400D01*
X15998631Y1473990D01*
X15910184Y1216188D01*
X15754510Y1016676D01*
X15652747Y936698D01*
X15503511Y857941D01*
X15359326Y818068D01*
X15246430Y820130D01*
X15191063Y867180D01*
X15189200Y882780D01*
X15225038Y971809D01*
X15265400Y1016000D01*
X15301450Y1096804D01*
X15327496Y1255602D01*
X15343668Y1469295D01*
X15350097Y1714785D01*
X15346913Y1968973D01*
X15334247Y2208759D01*
X15312230Y2411045D01*
X15280991Y2552732D01*
X15256440Y2600701D01*
X15200331Y2695046D01*
X15220661Y2755017D01*
X15298078Y2780101D01*
X15413231Y2769784D01*
G37*
X15413231Y2769784D02*
X15546766Y2723553D01*
X15679332Y2640893D01*
X15711878Y2612791D01*
X15877974Y2422020D01*
X15977340Y2207351D01*
X16021098Y1940089D01*
X16025580Y1803400D01*
X15998631Y1473990D01*
X15910184Y1216188D01*
X15754510Y1016676D01*
X15652747Y936698D01*
X15503511Y857941D01*
X15359326Y818068D01*
X15246430Y820130D01*
X15191063Y867180D01*
X15189200Y882780D01*
X15225038Y971809D01*
X15265400Y1016000D01*
X15301450Y1096804D01*
X15327496Y1255602D01*
X15343668Y1469295D01*
X15350097Y1714785D01*
X15346913Y1968973D01*
X15334247Y2208759D01*
X15312230Y2411045D01*
X15280991Y2552732D01*
X15256440Y2600701D01*
X15200331Y2695046D01*
X15220661Y2755017D01*
X15298078Y2780101D01*
X15413231Y2769784D01*
G36*
X15118607Y2754490D02*
G01*
X15138294Y2668497D01*
X15109743Y2584828D01*
X15087600Y2565400D01*
X15067688Y2503608D01*
X15051962Y2354581D01*
X15041378Y2132630D01*
X15036888Y1852071D01*
X15036800Y1803400D01*
X15040240Y1514902D01*
X15049927Y1282755D01*
X15064904Y1121273D01*
X15084219Y1044769D01*
X15087600Y1041400D01*
X15130275Y969749D01*
X15138400Y911402D01*
X15100820Y833013D01*
X15000577Y814683D01*
X14856409Y855680D01*
X14726812Y927511D01*
X14519357Y1124155D01*
X14388473Y1386344D01*
X14335144Y1711732D01*
X14335765Y1859424D01*
X14353325Y2076486D01*
X14389753Y2232473D01*
X14456383Y2367630D01*
X14495626Y2427184D01*
X14646222Y2594488D01*
X14826704Y2722305D01*
X15004031Y2789053D01*
X15057177Y2794000D01*
X15118607Y2754490D01*
G37*
X15118607Y2754490D02*
X15138294Y2668497D01*
X15109743Y2584828D01*
X15087600Y2565400D01*
X15067688Y2503608D01*
X15051962Y2354581D01*
X15041378Y2132630D01*
X15036888Y1852071D01*
X15036800Y1803400D01*
X15040240Y1514902D01*
X15049927Y1282755D01*
X15064904Y1121273D01*
X15084219Y1044769D01*
X15087600Y1041400D01*
X15130275Y969749D01*
X15138400Y911402D01*
X15100820Y833013D01*
X15000577Y814683D01*
X14856409Y855680D01*
X14726812Y927511D01*
X14519357Y1124155D01*
X14388473Y1386344D01*
X14335144Y1711732D01*
X14335765Y1859424D01*
X14353325Y2076486D01*
X14389753Y2232473D01*
X14456383Y2367630D01*
X14495626Y2427184D01*
X14646222Y2594488D01*
X14826704Y2722305D01*
X15004031Y2789053D01*
X15057177Y2794000D01*
X15118607Y2754490D01*
G36*
X14113477Y2731790D02*
G01*
X14211584Y2695369D01*
X14216597Y2630652D01*
X14131595Y2534356D01*
X14122400Y2526388D01*
X14077862Y2478116D01*
X14048511Y2410922D01*
X14031271Y2304694D01*
X14023065Y2139321D01*
X14020815Y1894691D01*
X14020800Y1862278D01*
X14014178Y1528632D01*
X13991665Y1280808D01*
X13949285Y1103728D01*
X13883063Y982315D01*
X13789026Y901492D01*
X13763815Y887457D01*
X13618647Y824666D01*
X13539583Y825905D01*
X13513089Y892111D01*
X13512800Y904847D01*
X13551083Y993995D01*
X13645217Y1094001D01*
X13665200Y1109568D01*
X13817600Y1222242D01*
X13817600Y1853934D01*
X13816342Y2118987D01*
X13810789Y2300497D01*
X13798268Y2416510D01*
X13776107Y2485069D01*
X13741633Y2524220D01*
X13716000Y2540000D01*
X13635087Y2612845D01*
X13614400Y2668788D01*
X13639476Y2712270D01*
X13726924Y2735561D01*
X13895067Y2743135D01*
X13919200Y2743200D01*
X14113477Y2731790D01*
G37*
X14113477Y2731790D02*
X14211584Y2695369D01*
X14216597Y2630652D01*
X14131595Y2534356D01*
X14122400Y2526388D01*
X14077862Y2478116D01*
X14048511Y2410922D01*
X14031271Y2304694D01*
X14023065Y2139321D01*
X14020815Y1894691D01*
X14020800Y1862278D01*
X14014178Y1528632D01*
X13991665Y1280808D01*
X13949285Y1103728D01*
X13883063Y982315D01*
X13789026Y901492D01*
X13763815Y887457D01*
X13618647Y824666D01*
X13539583Y825905D01*
X13513089Y892111D01*
X13512800Y904847D01*
X13551083Y993995D01*
X13645217Y1094001D01*
X13665200Y1109568D01*
X13817600Y1222242D01*
X13817600Y1853934D01*
X13816342Y2118987D01*
X13810789Y2300497D01*
X13798268Y2416510D01*
X13776107Y2485069D01*
X13741633Y2524220D01*
X13716000Y2540000D01*
X13635087Y2612845D01*
X13614400Y2668788D01*
X13639476Y2712270D01*
X13726924Y2735561D01*
X13895067Y2743135D01*
X13919200Y2743200D01*
X14113477Y2731790D01*
G36*
X13187241Y2733293D02*
G01*
X13346988Y2703645D01*
X13407584Y2654368D01*
X13368770Y2585573D01*
X13342760Y2564794D01*
X13305608Y2487582D01*
X13277818Y2332813D01*
X13259512Y2124111D01*
X13250813Y1885097D01*
X13251844Y1639394D01*
X13262726Y1410624D01*
X13283583Y1222411D01*
X13314536Y1098377D01*
X13335000Y1066800D01*
X13400207Y966500D01*
X13411200Y908180D01*
X13368789Y840901D01*
X13259835Y812091D01*
X13111752Y821564D01*
X12951956Y869132D01*
X12868342Y911872D01*
X12744537Y1005394D01*
X12657816Y1102286D01*
X12652442Y1111542D01*
X12631524Y1200441D01*
X12614511Y1368991D01*
X12602956Y1595272D01*
X12598415Y1857363D01*
X12598400Y1873737D01*
X12596640Y2150955D01*
X12590053Y2343279D01*
X12576678Y2467374D01*
X12554551Y2539907D01*
X12521712Y2577542D01*
X12515067Y2581587D01*
X12448142Y2641522D01*
X12477063Y2689445D01*
X12596562Y2723298D01*
X12801376Y2741025D01*
X12928600Y2743200D01*
X13187241Y2733293D01*
G37*
X13187241Y2733293D02*
X13346988Y2703645D01*
X13407584Y2654368D01*
X13368770Y2585573D01*
X13342760Y2564794D01*
X13305608Y2487582D01*
X13277818Y2332813D01*
X13259512Y2124111D01*
X13250813Y1885097D01*
X13251844Y1639394D01*
X13262726Y1410624D01*
X13283583Y1222411D01*
X13314536Y1098377D01*
X13335000Y1066800D01*
X13400207Y966500D01*
X13411200Y908180D01*
X13368789Y840901D01*
X13259835Y812091D01*
X13111752Y821564D01*
X12951956Y869132D01*
X12868342Y911872D01*
X12744537Y1005394D01*
X12657816Y1102286D01*
X12652442Y1111542D01*
X12631524Y1200441D01*
X12614511Y1368991D01*
X12602956Y1595272D01*
X12598415Y1857363D01*
X12598400Y1873737D01*
X12596640Y2150955D01*
X12590053Y2343279D01*
X12576678Y2467374D01*
X12554551Y2539907D01*
X12521712Y2577542D01*
X12515067Y2581587D01*
X12448142Y2641522D01*
X12477063Y2689445D01*
X12596562Y2723298D01*
X12801376Y2741025D01*
X12928600Y2743200D01*
X13187241Y2733293D01*
G36*
X11423795Y2779471D02*
G01*
X11478810Y2722342D01*
X11460460Y2629123D01*
X11404600Y2558143D01*
X11372556Y2504993D01*
X11350453Y2410167D01*
X11336758Y2258026D01*
X11329937Y2032935D01*
X11328400Y1780592D01*
X11330544Y1486141D01*
X11338008Y1277713D01*
X11352336Y1139800D01*
X11375075Y1056895D01*
X11404600Y1016000D01*
X11469154Y929512D01*
X11480800Y882780D01*
X11441502Y825336D01*
X11340406Y817583D01*
X11202706Y856727D01*
X11070421Y928309D01*
X10854718Y1129163D01*
X10711634Y1378613D01*
X10640201Y1657135D01*
X10639455Y1945204D01*
X10708427Y2223297D01*
X10846151Y2471890D01*
X11051662Y2671458D01*
X11159960Y2736993D01*
X11311987Y2788393D01*
X11423795Y2779471D01*
G37*
X11423795Y2779471D02*
X11478810Y2722342D01*
X11460460Y2629123D01*
X11404600Y2558143D01*
X11372556Y2504993D01*
X11350453Y2410167D01*
X11336758Y2258026D01*
X11329937Y2032935D01*
X11328400Y1780592D01*
X11330544Y1486141D01*
X11338008Y1277713D01*
X11352336Y1139800D01*
X11375075Y1056895D01*
X11404600Y1016000D01*
X11469154Y929512D01*
X11480800Y882780D01*
X11441502Y825336D01*
X11340406Y817583D01*
X11202706Y856727D01*
X11070421Y928309D01*
X10854718Y1129163D01*
X10711634Y1378613D01*
X10640201Y1657135D01*
X10639455Y1945204D01*
X10708427Y2223297D01*
X10846151Y2471890D01*
X11051662Y2671458D01*
X11159960Y2736993D01*
X11311987Y2788393D01*
X11423795Y2779471D01*
G36*
X10260524Y2734453D02*
G01*
X10430501Y2709248D01*
X10510283Y2669139D01*
X10495618Y2615681D01*
X10446532Y2581587D01*
X10409447Y2511368D01*
X10381764Y2362441D01*
X10363514Y2157266D01*
X10354727Y1918301D01*
X10355435Y1668006D01*
X10365668Y1428840D01*
X10385457Y1223262D01*
X10414832Y1073731D01*
X10444376Y1010502D01*
X10498954Y926306D01*
X10479684Y868080D01*
X10379112Y832280D01*
X10189780Y815362D01*
X10028407Y812800D01*
X9810048Y816336D01*
X9673312Y829298D01*
X9598392Y855224D01*
X9566357Y895289D01*
X9577084Y987741D01*
X9618751Y1024813D01*
X9652184Y1056146D01*
X9675565Y1117024D01*
X9690595Y1223287D01*
X9698975Y1390775D01*
X9702406Y1635326D01*
X9702800Y1807519D01*
X9701125Y2103589D01*
X9695123Y2312859D01*
X9683322Y2450086D01*
X9664253Y2530030D01*
X9636444Y2567450D01*
X9626600Y2572430D01*
X9559085Y2636392D01*
X9550400Y2672436D01*
X9572936Y2707630D01*
X9651132Y2729498D01*
X9800872Y2740516D01*
X10004601Y2743200D01*
X10260524Y2734453D01*
G37*
X10260524Y2734453D02*
X10430501Y2709248D01*
X10510283Y2669139D01*
X10495618Y2615681D01*
X10446532Y2581587D01*
X10409447Y2511368D01*
X10381764Y2362441D01*
X10363514Y2157266D01*
X10354727Y1918301D01*
X10355435Y1668006D01*
X10365668Y1428840D01*
X10385457Y1223262D01*
X10414832Y1073731D01*
X10444376Y1010502D01*
X10498954Y926306D01*
X10479684Y868080D01*
X10379112Y832280D01*
X10189780Y815362D01*
X10028407Y812800D01*
X9810048Y816336D01*
X9673312Y829298D01*
X9598392Y855224D01*
X9566357Y895289D01*
X9577084Y987741D01*
X9618751Y1024813D01*
X9652184Y1056146D01*
X9675565Y1117024D01*
X9690595Y1223287D01*
X9698975Y1390775D01*
X9702406Y1635326D01*
X9702800Y1807519D01*
X9701125Y2103589D01*
X9695123Y2312859D01*
X9683322Y2450086D01*
X9664253Y2530030D01*
X9636444Y2567450D01*
X9626600Y2572430D01*
X9559085Y2636392D01*
X9550400Y2672436D01*
X9572936Y2707630D01*
X9651132Y2729498D01*
X9800872Y2740516D01*
X10004601Y2743200D01*
X10260524Y2734453D01*
G36*
X9467836Y1506449D02*
G01*
X9488995Y1440387D01*
X9493299Y1305703D01*
X9489221Y1181100D01*
X9474200Y838200D01*
X9213869Y823067D01*
X9038919Y823260D01*
X8946807Y851608D01*
X8926469Y878473D01*
X8924492Y974083D01*
X9007337Y1060411D01*
X9067800Y1096788D01*
X9155349Y1177629D01*
X9242864Y1307189D01*
X9258699Y1338088D01*
X9332762Y1455500D01*
X9407691Y1519836D01*
X9426120Y1524000D01*
X9467836Y1506449D01*
G37*
X9467836Y1506449D02*
X9488995Y1440387D01*
X9493299Y1305703D01*
X9489221Y1181100D01*
X9474200Y838200D01*
X9213869Y823067D01*
X9038919Y823260D01*
X8946807Y851608D01*
X8926469Y878473D01*
X8924492Y974083D01*
X9007337Y1060411D01*
X9067800Y1096788D01*
X9155349Y1177629D01*
X9242864Y1307189D01*
X9258699Y1338088D01*
X9332762Y1455500D01*
X9407691Y1519836D01*
X9426120Y1524000D01*
X9467836Y1506449D01*
G36*
X8736540Y2738063D02*
G01*
X8900838Y2724321D01*
X8999495Y2704480D01*
X9015854Y2694253D01*
X9005911Y2627407D01*
X8942652Y2541853D01*
X8903664Y2495703D01*
X8875882Y2436605D01*
X8857429Y2347937D01*
X8846428Y2213075D01*
X8841003Y2015397D01*
X8839277Y1738280D01*
X8839200Y1625600D01*
X8839200Y812800D01*
X8482005Y812800D01*
X8285580Y817526D01*
X8168427Y834935D01*
X8108522Y869873D01*
X8091866Y898654D01*
X8091402Y980012D01*
X8118860Y1004487D01*
X8141174Y1059851D01*
X8158657Y1195039D01*
X8171181Y1388386D01*
X8178619Y1618224D01*
X8180846Y1862887D01*
X8177733Y2100710D01*
X8169154Y2310024D01*
X8154982Y2469165D01*
X8135091Y2556465D01*
X8128000Y2565400D01*
X8081257Y2638902D01*
X8077200Y2669999D01*
X8097440Y2706103D01*
X8169279Y2728547D01*
X8309395Y2740016D01*
X8531401Y2743200D01*
X8736540Y2738063D01*
G37*
X8736540Y2738063D02*
X8900838Y2724321D01*
X8999495Y2704480D01*
X9015854Y2694253D01*
X9005911Y2627407D01*
X8942652Y2541853D01*
X8903664Y2495703D01*
X8875882Y2436605D01*
X8857429Y2347937D01*
X8846428Y2213075D01*
X8841003Y2015397D01*
X8839277Y1738280D01*
X8839200Y1625600D01*
X8839200Y812800D01*
X8482005Y812800D01*
X8285580Y817526D01*
X8168427Y834935D01*
X8108522Y869873D01*
X8091866Y898654D01*
X8091402Y980012D01*
X8118860Y1004487D01*
X8141174Y1059851D01*
X8158657Y1195039D01*
X8171181Y1388386D01*
X8178619Y1618224D01*
X8180846Y1862887D01*
X8177733Y2100710D01*
X8169154Y2310024D01*
X8154982Y2469165D01*
X8135091Y2556465D01*
X8128000Y2565400D01*
X8081257Y2638902D01*
X8077200Y2669999D01*
X8097440Y2706103D01*
X8169279Y2728547D01*
X8309395Y2740016D01*
X8531401Y2743200D01*
X8736540Y2738063D01*
G36*
X7167967Y1380830D02*
G01*
X7187055Y1211926D01*
X7188200Y1138767D01*
X7188200Y838200D01*
X6896100Y822965D01*
X6731177Y817730D01*
X6643511Y829016D01*
X6609167Y864208D01*
X6604000Y913123D01*
X6650837Y1017292D01*
X6732252Y1067277D01*
X6840986Y1142272D01*
X6947643Y1266068D01*
X6967132Y1296759D01*
X7058301Y1423036D01*
X7125147Y1451130D01*
X7167967Y1380830D01*
G37*
X7167967Y1380830D02*
X7187055Y1211926D01*
X7188200Y1138767D01*
X7188200Y838200D01*
X6896100Y822965D01*
X6731177Y817730D01*
X6643511Y829016D01*
X6609167Y864208D01*
X6604000Y913123D01*
X6650837Y1017292D01*
X6732252Y1067277D01*
X6840986Y1142272D01*
X6947643Y1266068D01*
X6967132Y1296759D01*
X7058301Y1423036D01*
X7125147Y1451130D01*
X7167967Y1380830D01*
G36*
X6502400Y812800D02*
G01*
X6145205Y812800D01*
X5948780Y817526D01*
X5831627Y834935D01*
X5771722Y869873D01*
X5755066Y898654D01*
X5754602Y980012D01*
X5782060Y1004487D01*
X5804374Y1059851D01*
X5821857Y1195039D01*
X5834381Y1388386D01*
X5841819Y1618224D01*
X5844046Y1862887D01*
X5840933Y2100710D01*
X5832354Y2310024D01*
X5818182Y2469165D01*
X5798291Y2556465D01*
X5791200Y2565400D01*
X5744457Y2638902D01*
X5740400Y2669999D01*
X5762915Y2708969D01*
X5842071Y2731819D01*
X5995280Y2741892D01*
X6121400Y2743200D01*
X6502400Y2743200D01*
X6502400Y812800D01*
G37*
X6502400Y812800D02*
X6145205Y812800D01*
X5948780Y817526D01*
X5831627Y834935D01*
X5771722Y869873D01*
X5755066Y898654D01*
X5754602Y980012D01*
X5782060Y1004487D01*
X5804374Y1059851D01*
X5821857Y1195039D01*
X5834381Y1388386D01*
X5841819Y1618224D01*
X5844046Y1862887D01*
X5840933Y2100710D01*
X5832354Y2310024D01*
X5818182Y2469165D01*
X5798291Y2556465D01*
X5791200Y2565400D01*
X5744457Y2638902D01*
X5740400Y2669999D01*
X5762915Y2708969D01*
X5842071Y2731819D01*
X5995280Y2741892D01*
X6121400Y2743200D01*
X6502400Y2743200D01*
X6502400Y812800D01*
G36*
X4809731Y2738386D02*
G01*
X5059572Y2733799D01*
X5271872Y2725935D01*
X5426761Y2714795D01*
X5504368Y2700382D01*
X5509110Y2696752D01*
X5498278Y2633246D01*
X5460440Y2590336D01*
X5426592Y2511832D01*
X5401535Y2355201D01*
X5385250Y2143535D01*
X5377721Y1899923D01*
X5378931Y1647457D01*
X5388861Y1409228D01*
X5407495Y1208326D01*
X5434815Y1067842D01*
X5461626Y1015481D01*
X5509785Y943294D01*
X5482515Y884320D01*
X5434180Y857817D01*
X5331907Y838699D01*
X5163886Y826094D01*
X4918306Y819126D01*
X4583359Y816921D01*
X4572000Y816919D01*
X4234236Y818997D01*
X3986190Y825812D01*
X3816050Y838238D01*
X3712006Y857151D01*
X3662249Y883424D01*
X3661484Y884320D01*
X3636637Y958508D01*
X3682373Y1015481D01*
X3716339Y1094020D01*
X3741633Y1250677D01*
X3758236Y1462360D01*
X3766132Y1705980D01*
X3765785Y1811773D01*
X4419600Y1811773D01*
X4422970Y1490040D01*
X4434569Y1257342D01*
X4456627Y1101291D01*
X4491373Y1009500D01*
X4541037Y969580D01*
X4572000Y965200D01*
X4629880Y996483D01*
X4663440Y1026160D01*
X4696670Y1108562D01*
X4718573Y1259716D01*
X4724400Y1403627D01*
X4721105Y1578037D01*
X4705608Y1675425D01*
X4669491Y1720297D01*
X4610100Y1736367D01*
X4520735Y1777887D01*
X4495800Y1828800D01*
X4539042Y1894518D01*
X4610100Y1921234D01*
X4675028Y1940548D01*
X4709354Y1991850D01*
X4722590Y2100716D01*
X4724400Y2228574D01*
X4709452Y2448571D01*
X4663265Y2574684D01*
X4583821Y2610336D01*
X4513417Y2586636D01*
X4476245Y2557820D01*
X4450346Y2506932D01*
X4433727Y2417511D01*
X4424395Y2273097D01*
X4420358Y2057230D01*
X4419600Y1811773D01*
X3765785Y1811773D01*
X3765302Y1958445D01*
X3755731Y2196664D01*
X3737399Y2397547D01*
X3710291Y2538003D01*
X3683559Y2590336D01*
X3632960Y2661359D01*
X3635015Y2696956D01*
X3692841Y2712081D01*
X3832345Y2723914D01*
X4033655Y2732459D01*
X4276902Y2737718D01*
X4542218Y2739693D01*
X4809731Y2738386D01*
G37*
X4809731Y2738386D02*
X5059572Y2733799D01*
X5271872Y2725935D01*
X5426761Y2714795D01*
X5504368Y2700382D01*
X5509110Y2696752D01*
X5498278Y2633246D01*
X5460440Y2590336D01*
X5426592Y2511832D01*
X5401535Y2355201D01*
X5385250Y2143535D01*
X5377721Y1899923D01*
X5378931Y1647457D01*
X5388861Y1409228D01*
X5407495Y1208326D01*
X5434815Y1067842D01*
X5461626Y1015481D01*
X5509785Y943294D01*
X5482515Y884320D01*
X5434180Y857817D01*
X5331907Y838699D01*
X5163886Y826094D01*
X4918306Y819126D01*
X4583359Y816921D01*
X4572000Y816919D01*
X4234236Y818997D01*
X3986190Y825812D01*
X3816050Y838238D01*
X3712006Y857151D01*
X3662249Y883424D01*
X3661484Y884320D01*
X3636637Y958508D01*
X3682373Y1015481D01*
X3716339Y1094020D01*
X3741633Y1250677D01*
X3758236Y1462360D01*
X3766132Y1705980D01*
X3765785Y1811773D01*
X4419600Y1811773D01*
X4422970Y1490040D01*
X4434569Y1257342D01*
X4456627Y1101291D01*
X4491373Y1009500D01*
X4541037Y969580D01*
X4572000Y965200D01*
X4629880Y996483D01*
X4663440Y1026160D01*
X4696670Y1108562D01*
X4718573Y1259716D01*
X4724400Y1403627D01*
X4721105Y1578037D01*
X4705608Y1675425D01*
X4669491Y1720297D01*
X4610100Y1736367D01*
X4520735Y1777887D01*
X4495800Y1828800D01*
X4539042Y1894518D01*
X4610100Y1921234D01*
X4675028Y1940548D01*
X4709354Y1991850D01*
X4722590Y2100716D01*
X4724400Y2228574D01*
X4709452Y2448571D01*
X4663265Y2574684D01*
X4583821Y2610336D01*
X4513417Y2586636D01*
X4476245Y2557820D01*
X4450346Y2506932D01*
X4433727Y2417511D01*
X4424395Y2273097D01*
X4420358Y2057230D01*
X4419600Y1811773D01*
X3765785Y1811773D01*
X3765302Y1958445D01*
X3755731Y2196664D01*
X3737399Y2397547D01*
X3710291Y2538003D01*
X3683559Y2590336D01*
X3632960Y2661359D01*
X3635015Y2696956D01*
X3692841Y2712081D01*
X3832345Y2723914D01*
X4033655Y2732459D01*
X4276902Y2737718D01*
X4542218Y2739693D01*
X4809731Y2738386D01*
G36*
X2997200Y1917220D02*
G01*
X2997908Y1609150D01*
X3001272Y1386939D01*
X3009154Y1234852D01*
X3023415Y1137152D01*
X3045915Y1078101D01*
X3078515Y1041963D01*
X3102661Y1025378D01*
X3173125Y963056D01*
X3157944Y899837D01*
X3147241Y886158D01*
X3063718Y844278D01*
X2914848Y817845D01*
X2729441Y806582D01*
X2536310Y810211D01*
X2364265Y828453D01*
X2242119Y861033D01*
X2200357Y895289D01*
X2211084Y987741D01*
X2252751Y1024813D01*
X2284330Y1054105D01*
X2306998Y1111006D01*
X2322168Y1210341D01*
X2331250Y1366935D01*
X2335657Y1595611D01*
X2336800Y1907525D01*
X2336800Y2743200D01*
X2997200Y2743200D01*
X2997200Y1917220D01*
G37*
X2997200Y1917220D02*
X2997908Y1609150D01*
X3001272Y1386939D01*
X3009154Y1234852D01*
X3023415Y1137152D01*
X3045915Y1078101D01*
X3078515Y1041963D01*
X3102661Y1025378D01*
X3173125Y963056D01*
X3157944Y899837D01*
X3147241Y886158D01*
X3063718Y844278D01*
X2914848Y817845D01*
X2729441Y806582D01*
X2536310Y810211D01*
X2364265Y828453D01*
X2242119Y861033D01*
X2200357Y895289D01*
X2211084Y987741D01*
X2252751Y1024813D01*
X2284330Y1054105D01*
X2306998Y1111006D01*
X2322168Y1210341D01*
X2331250Y1366935D01*
X2335657Y1595611D01*
X2336800Y1907525D01*
X2336800Y2743200D01*
X2997200Y2743200D01*
X2997200Y1917220D01*
G36*
X11813591Y2751307D02*
G01*
X11943187Y2679290D01*
X12133733Y2495123D01*
X12266574Y2247877D01*
X12337065Y1961118D01*
X12340559Y1658412D01*
X12272411Y1363325D01*
X12224309Y1253210D01*
X12104218Y1016000D01*
X12224309Y1016000D01*
X12321424Y988147D01*
X12344400Y919836D01*
X12319192Y836757D01*
X12235983Y787454D01*
X12083389Y769823D01*
X11850027Y781760D01*
X11691467Y799139D01*
X11576890Y823270D01*
X11538394Y872354D01*
X11543979Y939521D01*
X11537058Y1041661D01*
X11467660Y1084956D01*
X11396203Y1133737D01*
X11404736Y1199624D01*
X11483612Y1251892D01*
X11522879Y1260834D01*
X11567988Y1271973D01*
X11598757Y1300875D01*
X11617925Y1364247D01*
X11628229Y1478796D01*
X11632407Y1661228D01*
X11633199Y1928250D01*
X11633200Y1933934D01*
X11629411Y2215355D01*
X11618589Y2425520D01*
X11601550Y2553880D01*
X11582400Y2590800D01*
X11541125Y2633348D01*
X11531600Y2692400D01*
X11568950Y2772971D01*
X11668965Y2792414D01*
X11813591Y2751307D01*
G37*
X11813591Y2751307D02*
X11943187Y2679290D01*
X12133733Y2495123D01*
X12266574Y2247877D01*
X12337065Y1961118D01*
X12340559Y1658412D01*
X12272411Y1363325D01*
X12224309Y1253210D01*
X12104218Y1016000D01*
X12224309Y1016000D01*
X12321424Y988147D01*
X12344400Y919836D01*
X12319192Y836757D01*
X12235983Y787454D01*
X12083389Y769823D01*
X11850027Y781760D01*
X11691467Y799139D01*
X11576890Y823270D01*
X11538394Y872354D01*
X11543979Y939521D01*
X11537058Y1041661D01*
X11467660Y1084956D01*
X11396203Y1133737D01*
X11404736Y1199624D01*
X11483612Y1251892D01*
X11522879Y1260834D01*
X11567988Y1271973D01*
X11598757Y1300875D01*
X11617925Y1364247D01*
X11628229Y1478796D01*
X11632407Y1661228D01*
X11633199Y1928250D01*
X11633200Y1933934D01*
X11629411Y2215355D01*
X11618589Y2425520D01*
X11601550Y2553880D01*
X11582400Y2590800D01*
X11541125Y2633348D01*
X11531600Y2692400D01*
X11568950Y2772971D01*
X11668965Y2792414D01*
X11813591Y2751307D01*
D11*
%TO.C,R6*%
X33939564Y62590000D02*
X32485436Y62590000D01*
X33939564Y64410000D02*
X32485436Y64410000D01*
%TO.C,R14*%
X20731564Y11790000D02*
X19277436Y11790000D01*
X20731564Y13610000D02*
X19277436Y13610000D01*
%TO.C,R12*%
X15346000Y14066436D02*
X15346000Y15520564D01*
X17166000Y14066436D02*
X17166000Y15520564D01*
%TO.C,R9*%
X38838000Y24162000D02*
X38508000Y24162000D01*
X38508000Y24162000D02*
X38508000Y30702000D01*
X38508000Y30702000D02*
X38838000Y30702000D01*
X40918000Y24162000D02*
X41248000Y24162000D01*
X41248000Y24162000D02*
X41248000Y30702000D01*
X41248000Y30702000D02*
X40918000Y30702000D01*
%TO.C,MIX1*%
X36014693Y36000000D02*
G75*
G03*
X36014693Y36000000I-8514693J0D01*
G01*
X18985307Y36000000D02*
X36014693Y36000000D01*
X27500000Y44500000D02*
X27500000Y27485307D01*
%TO.C,FEEDBACK1*%
X18514693Y51000000D02*
G75*
G03*
X18514693Y51000000I-8514693J0D01*
G01*
X1485307Y51000000D02*
X18514693Y51000000D01*
X10000000Y59500000D02*
X10000000Y42485307D01*
%TO.C,DELAY1*%
X53514693Y51000000D02*
G75*
G03*
X53514693Y51000000I-8514693J0D01*
G01*
X36485307Y51000000D02*
X53514693Y51000000D01*
X45000000Y59500000D02*
X45000000Y42485307D01*
%TO.C,C14*%
X19230748Y16991000D02*
X19753252Y16991000D01*
X19230748Y15521000D02*
X19753252Y15521000D01*
%TO.C,R6*%
D12*
X36663333Y63047619D02*
X36330000Y63523809D01*
X36091904Y63047619D02*
X36091904Y64047619D01*
X36472857Y64047619D01*
X36568095Y64000000D01*
X36615714Y63952380D01*
X36663333Y63857142D01*
X36663333Y63714285D01*
X36615714Y63619047D01*
X36568095Y63571428D01*
X36472857Y63523809D01*
X36091904Y63523809D01*
X37520476Y64047619D02*
X37330000Y64047619D01*
X37234761Y64000000D01*
X37187142Y63952380D01*
X37091904Y63809523D01*
X37044285Y63619047D01*
X37044285Y63238095D01*
X37091904Y63142857D01*
X37139523Y63095238D01*
X37234761Y63047619D01*
X37425238Y63047619D01*
X37520476Y63095238D01*
X37568095Y63142857D01*
X37615714Y63238095D01*
X37615714Y63476190D01*
X37568095Y63571428D01*
X37520476Y63619047D01*
X37425238Y63666666D01*
X37234761Y63666666D01*
X37139523Y63619047D01*
X37091904Y63571428D01*
X37044285Y63476190D01*
%TO.C,R14*%
X19361642Y10427619D02*
X19028309Y10903809D01*
X18790214Y10427619D02*
X18790214Y11427619D01*
X19171166Y11427619D01*
X19266404Y11380000D01*
X19314023Y11332380D01*
X19361642Y11237142D01*
X19361642Y11094285D01*
X19314023Y10999047D01*
X19266404Y10951428D01*
X19171166Y10903809D01*
X18790214Y10903809D01*
X20314023Y10427619D02*
X19742595Y10427619D01*
X20028309Y10427619D02*
X20028309Y11427619D01*
X19933071Y11284761D01*
X19837833Y11189523D01*
X19742595Y11141904D01*
X21171166Y11094285D02*
X21171166Y10427619D01*
X20933071Y11475238D02*
X20694976Y10760952D01*
X21314023Y10760952D01*
%TO.C,R12*%
X17216380Y17899142D02*
X16740190Y17565809D01*
X17216380Y17327714D02*
X16216380Y17327714D01*
X16216380Y17708666D01*
X16264000Y17803904D01*
X16311619Y17851523D01*
X16406857Y17899142D01*
X16549714Y17899142D01*
X16644952Y17851523D01*
X16692571Y17803904D01*
X16740190Y17708666D01*
X16740190Y17327714D01*
X17216380Y18851523D02*
X17216380Y18280095D01*
X17216380Y18565809D02*
X16216380Y18565809D01*
X16359238Y18470571D01*
X16454476Y18375333D01*
X16502095Y18280095D01*
X16311619Y19232476D02*
X16264000Y19280095D01*
X16216380Y19375333D01*
X16216380Y19613428D01*
X16264000Y19708666D01*
X16311619Y19756285D01*
X16406857Y19803904D01*
X16502095Y19803904D01*
X16644952Y19756285D01*
X17216380Y19184857D01*
X17216380Y19803904D01*
%TO.C,R9*%
X37960380Y27265333D02*
X37484190Y26932000D01*
X37960380Y26693904D02*
X36960380Y26693904D01*
X36960380Y27074857D01*
X37008000Y27170095D01*
X37055619Y27217714D01*
X37150857Y27265333D01*
X37293714Y27265333D01*
X37388952Y27217714D01*
X37436571Y27170095D01*
X37484190Y27074857D01*
X37484190Y26693904D01*
X37960380Y27741523D02*
X37960380Y27932000D01*
X37912761Y28027238D01*
X37865142Y28074857D01*
X37722285Y28170095D01*
X37531809Y28217714D01*
X37150857Y28217714D01*
X37055619Y28170095D01*
X37008000Y28122476D01*
X36960380Y28027238D01*
X36960380Y27836761D01*
X37008000Y27741523D01*
X37055619Y27693904D01*
X37150857Y27646285D01*
X37388952Y27646285D01*
X37484190Y27693904D01*
X37531809Y27741523D01*
X37579428Y27836761D01*
X37579428Y28027238D01*
X37531809Y28122476D01*
X37484190Y28170095D01*
X37388952Y28217714D01*
%TO.C,MIX1*%
X25976190Y17047619D02*
X25976190Y18047619D01*
X26309523Y17333333D01*
X26642857Y18047619D01*
X26642857Y17047619D01*
X27119047Y17047619D02*
X27119047Y18047619D01*
X27500000Y18047619D02*
X28166666Y17047619D01*
X28166666Y18047619D02*
X27500000Y17047619D01*
X29071428Y17047619D02*
X28500000Y17047619D01*
X28785714Y17047619D02*
X28785714Y18047619D01*
X28690476Y17904761D01*
X28595238Y17809523D01*
X28500000Y17761904D01*
%TO.C,FEEDBACK1*%
X4969333Y32837428D02*
X4636000Y32837428D01*
X4636000Y32313619D02*
X4636000Y33313619D01*
X5112190Y33313619D01*
X5493142Y32837428D02*
X5826476Y32837428D01*
X5969333Y32313619D02*
X5493142Y32313619D01*
X5493142Y33313619D01*
X5969333Y33313619D01*
X6397904Y32837428D02*
X6731238Y32837428D01*
X6874095Y32313619D02*
X6397904Y32313619D01*
X6397904Y33313619D01*
X6874095Y33313619D01*
X7302666Y32313619D02*
X7302666Y33313619D01*
X7540761Y33313619D01*
X7683619Y33266000D01*
X7778857Y33170761D01*
X7826476Y33075523D01*
X7874095Y32885047D01*
X7874095Y32742190D01*
X7826476Y32551714D01*
X7778857Y32456476D01*
X7683619Y32361238D01*
X7540761Y32313619D01*
X7302666Y32313619D01*
X8636000Y32837428D02*
X8778857Y32789809D01*
X8826476Y32742190D01*
X8874095Y32646952D01*
X8874095Y32504095D01*
X8826476Y32408857D01*
X8778857Y32361238D01*
X8683619Y32313619D01*
X8302666Y32313619D01*
X8302666Y33313619D01*
X8636000Y33313619D01*
X8731238Y33266000D01*
X8778857Y33218380D01*
X8826476Y33123142D01*
X8826476Y33027904D01*
X8778857Y32932666D01*
X8731238Y32885047D01*
X8636000Y32837428D01*
X8302666Y32837428D01*
X9255047Y32599333D02*
X9731238Y32599333D01*
X9159809Y32313619D02*
X9493142Y33313619D01*
X9826476Y32313619D01*
X10731238Y32408857D02*
X10683619Y32361238D01*
X10540761Y32313619D01*
X10445523Y32313619D01*
X10302666Y32361238D01*
X10207428Y32456476D01*
X10159809Y32551714D01*
X10112190Y32742190D01*
X10112190Y32885047D01*
X10159809Y33075523D01*
X10207428Y33170761D01*
X10302666Y33266000D01*
X10445523Y33313619D01*
X10540761Y33313619D01*
X10683619Y33266000D01*
X10731238Y33218380D01*
X11159809Y32313619D02*
X11159809Y33313619D01*
X11731238Y32313619D02*
X11302666Y32885047D01*
X11731238Y33313619D02*
X11159809Y32742190D01*
X12683619Y32313619D02*
X12112190Y32313619D01*
X12397904Y32313619D02*
X12397904Y33313619D01*
X12302666Y33170761D01*
X12207428Y33075523D01*
X12112190Y33027904D01*
%TO.C,DELAY1*%
X42547619Y32047619D02*
X42547619Y33047619D01*
X42785714Y33047619D01*
X42928571Y33000000D01*
X43023809Y32904761D01*
X43071428Y32809523D01*
X43119047Y32619047D01*
X43119047Y32476190D01*
X43071428Y32285714D01*
X43023809Y32190476D01*
X42928571Y32095238D01*
X42785714Y32047619D01*
X42547619Y32047619D01*
X43547619Y32571428D02*
X43880952Y32571428D01*
X44023809Y32047619D02*
X43547619Y32047619D01*
X43547619Y33047619D01*
X44023809Y33047619D01*
X44928571Y32047619D02*
X44452380Y32047619D01*
X44452380Y33047619D01*
X45214285Y32333333D02*
X45690476Y32333333D01*
X45119047Y32047619D02*
X45452380Y33047619D01*
X45785714Y32047619D01*
X46309523Y32523809D02*
X46309523Y32047619D01*
X45976190Y33047619D02*
X46309523Y32523809D01*
X46642857Y33047619D01*
X47500000Y32047619D02*
X46928571Y32047619D01*
X47214285Y32047619D02*
X47214285Y33047619D01*
X47119047Y32904761D01*
X47023809Y32809523D01*
X46928571Y32761904D01*
%TO.C,C14*%
X21963142Y15644857D02*
X21915523Y15597238D01*
X21772666Y15549619D01*
X21677428Y15549619D01*
X21534571Y15597238D01*
X21439333Y15692476D01*
X21391714Y15787714D01*
X21344095Y15978190D01*
X21344095Y16121047D01*
X21391714Y16311523D01*
X21439333Y16406761D01*
X21534571Y16502000D01*
X21677428Y16549619D01*
X21772666Y16549619D01*
X21915523Y16502000D01*
X21963142Y16454380D01*
X22915523Y15549619D02*
X22344095Y15549619D01*
X22629809Y15549619D02*
X22629809Y16549619D01*
X22534571Y16406761D01*
X22439333Y16311523D01*
X22344095Y16263904D01*
X23772666Y16216285D02*
X23772666Y15549619D01*
X23534571Y16597238D02*
X23296476Y15882952D01*
X23915523Y15882952D01*
%TD*%
M02*
