M48
; DRILL file {KiCad (5.1.9)-1} date 09/20/21 18:57:40
; FORMAT={-:-/ absolute / metric / decimal}
; #@! TF.CreationDate,2021-09-20T18:57:40+02:00
; #@! TF.GenerationSoftware,Kicad,Pcbnew,(5.1.9)-1
; #@! TF.FileFunction,Plated,1,2,PTH
FMAT,2
METRIC
T1C0.500
T2C0.800
T3C0.900
T4C1.000
T5C1.100
T6C1.190
T7C1.300
%
G90
G05
T1
X16.51Y14.732
X18.542Y18.034
X21.082Y42.418
X25.146Y36.83
X26.924Y15.494
X27.178Y43.942
X29.972Y20.574
X30.988Y37.084
X31.75Y44.958
X33.274Y13.208
X37.084Y20.828
T2
X4.906Y20.066
X7.62Y14.478
X7.62Y6.858
X9.906Y20.066
X12.446Y40.64
X12.7Y14.478
X12.7Y6.858
X14.986Y32.512
X14.986Y24.892
X17.446Y40.64
X17.78Y2.286
X20.32Y31.162
X20.32Y26.162
X22.352Y35.306
X22.78Y2.286
X25.908Y5.588
X25.908Y2.286
X26.924Y31.242
X26.924Y26.242
X29.972Y35.306
X30.908Y5.588
X30.908Y2.286
X33.528Y31.242
X33.528Y26.242
X34.544Y48.006
X34.544Y44.704
X34.544Y41.402
X39.37Y15.24
X39.37Y10.24
X39.878Y31.242
X39.878Y23.622
X41.402Y20.066
X41.91Y56.642
X42.164Y48.006
X42.164Y44.704
X42.164Y41.402
X42.418Y28.956
X42.418Y26.456
X42.672Y15.24
X42.672Y10.24
X43.902Y20.066
X44.41Y56.642
X44.958Y48.514
X44.958Y40.894
X45.974Y15.24
X45.974Y10.24
X49.57Y56.388
X52.07Y56.388
X52.578Y28.194
X52.578Y20.574
T3
X51.308Y12.192
X51.308Y9.652
T4
X35.306Y13.208
X35.306Y10.668
X49.022Y23.368
X49.022Y20.828
X49.784Y15.748
X52.324Y15.748
T5
X42.418Y61.976
X52.578Y61.976
T6
X16.5Y61.0
X19.04Y61.0
X23.46Y61.0
X26.0Y61.0
X28.54Y61.0
X31.08Y61.0
X35.5Y61.0
X38.04Y61.0
T7
X5.0Y35.5
X7.366Y46.0
X9.866Y56.0
X10.0Y35.5
X12.366Y46.0
X15.0Y35.5
X22.5Y20.5
X27.5Y20.5
X32.5Y20.5
X40.0Y35.5
X45.0Y35.5
X50.0Y35.5
T0
M30
