%TF.GenerationSoftware,KiCad,Pcbnew,(5.1.9)-1*%
%TF.CreationDate,2021-09-20T18:56:34+02:00*%
%TF.ProjectId,deep blue delay,64656570-2062-46c7-9565-2064656c6179,rev?*%
%TF.SameCoordinates,Original*%
%TF.FileFunction,Soldermask,Bot*%
%TF.FilePolarity,Negative*%
%FSLAX46Y46*%
G04 Gerber Fmt 4.6, Leading zero omitted, Abs format (unit mm)*
G04 Created by KiCad (PCBNEW (5.1.9)-1) date 2021-09-20 18:56:34*
%MOMM*%
%LPD*%
G01*
G04 APERTURE LIST*
%ADD10R,2.000000X2.000000*%
%ADD11C,2.340000*%
%ADD12R,1.300000X0.800000*%
%ADD13C,0.100000*%
%ADD14R,1.300000X0.900000*%
%ADD15O,1.600000X1.600000*%
%ADD16C,1.600000*%
%ADD17C,2.500000*%
%ADD18O,1.740000X2.190000*%
%ADD19O,1.700000X1.700000*%
%ADD20R,1.700000X1.700000*%
%ADD21C,1.800000*%
%ADD22R,1.800000X1.800000*%
%ADD23R,1.600000X1.600000*%
%ADD24O,2.200000X2.200000*%
%ADD25R,2.200000X2.200000*%
G04 APERTURE END LIST*
D10*
%TO.C,LED+*%
X29210000Y47498000D03*
%TD*%
%TO.C,LED-*%
X25908000Y47498000D03*
%TD*%
D11*
%TO.C,VOL1*%
X7366000Y46000000D03*
X9866000Y56000000D03*
X12366000Y46000000D03*
%TD*%
D12*
%TO.C,U3*%
X25196000Y17526000D03*
X25196000Y16246000D03*
X25196000Y14986000D03*
X25196000Y13716000D03*
X25196000Y12436000D03*
X25196000Y11166000D03*
X25196000Y9906000D03*
X25196000Y8626000D03*
X31496000Y8626000D03*
X31496000Y9906000D03*
X31496000Y11166000D03*
X31496000Y12436000D03*
X31496000Y13716000D03*
X31496000Y14986000D03*
X31496000Y16246000D03*
X31496000Y17526000D03*
%TD*%
D13*
%TO.C,U2*%
G36*
X50598500Y29613500D02*
G01*
X47473500Y29613500D01*
X47473500Y30030000D01*
X45998500Y30030000D01*
X45998500Y30930000D01*
X47473500Y30930000D01*
X47473500Y31346500D01*
X50598500Y31346500D01*
X50598500Y29613500D01*
G37*
D14*
X46648500Y31980000D03*
X46648500Y28980000D03*
%TD*%
%TO.C,U1*%
G36*
G01*
X24851000Y42060000D02*
X24851000Y41760000D01*
G75*
G02*
X24701000Y41610000I-150000J0D01*
G01*
X23051000Y41610000D01*
G75*
G02*
X22901000Y41760000I0J150000D01*
G01*
X22901000Y42060000D01*
G75*
G02*
X23051000Y42210000I150000J0D01*
G01*
X24701000Y42210000D01*
G75*
G02*
X24851000Y42060000I0J-150000D01*
G01*
G37*
G36*
G01*
X24851000Y40790000D02*
X24851000Y40490000D01*
G75*
G02*
X24701000Y40340000I-150000J0D01*
G01*
X23051000Y40340000D01*
G75*
G02*
X22901000Y40490000I0J150000D01*
G01*
X22901000Y40790000D01*
G75*
G02*
X23051000Y40940000I150000J0D01*
G01*
X24701000Y40940000D01*
G75*
G02*
X24851000Y40790000I0J-150000D01*
G01*
G37*
G36*
G01*
X24851000Y39520000D02*
X24851000Y39220000D01*
G75*
G02*
X24701000Y39070000I-150000J0D01*
G01*
X23051000Y39070000D01*
G75*
G02*
X22901000Y39220000I0J150000D01*
G01*
X22901000Y39520000D01*
G75*
G02*
X23051000Y39670000I150000J0D01*
G01*
X24701000Y39670000D01*
G75*
G02*
X24851000Y39520000I0J-150000D01*
G01*
G37*
G36*
G01*
X24851000Y38250000D02*
X24851000Y37950000D01*
G75*
G02*
X24701000Y37800000I-150000J0D01*
G01*
X23051000Y37800000D01*
G75*
G02*
X22901000Y37950000I0J150000D01*
G01*
X22901000Y38250000D01*
G75*
G02*
X23051000Y38400000I150000J0D01*
G01*
X24701000Y38400000D01*
G75*
G02*
X24851000Y38250000I0J-150000D01*
G01*
G37*
G36*
G01*
X29801000Y38250000D02*
X29801000Y37950000D01*
G75*
G02*
X29651000Y37800000I-150000J0D01*
G01*
X28001000Y37800000D01*
G75*
G02*
X27851000Y37950000I0J150000D01*
G01*
X27851000Y38250000D01*
G75*
G02*
X28001000Y38400000I150000J0D01*
G01*
X29651000Y38400000D01*
G75*
G02*
X29801000Y38250000I0J-150000D01*
G01*
G37*
G36*
G01*
X29801000Y39520000D02*
X29801000Y39220000D01*
G75*
G02*
X29651000Y39070000I-150000J0D01*
G01*
X28001000Y39070000D01*
G75*
G02*
X27851000Y39220000I0J150000D01*
G01*
X27851000Y39520000D01*
G75*
G02*
X28001000Y39670000I150000J0D01*
G01*
X29651000Y39670000D01*
G75*
G02*
X29801000Y39520000I0J-150000D01*
G01*
G37*
G36*
G01*
X29801000Y40790000D02*
X29801000Y40490000D01*
G75*
G02*
X29651000Y40340000I-150000J0D01*
G01*
X28001000Y40340000D01*
G75*
G02*
X27851000Y40490000I0J150000D01*
G01*
X27851000Y40790000D01*
G75*
G02*
X28001000Y40940000I150000J0D01*
G01*
X29651000Y40940000D01*
G75*
G02*
X29801000Y40790000I0J-150000D01*
G01*
G37*
G36*
G01*
X29801000Y42060000D02*
X29801000Y41760000D01*
G75*
G02*
X29651000Y41610000I-150000J0D01*
G01*
X28001000Y41610000D01*
G75*
G02*
X27851000Y41760000I0J150000D01*
G01*
X27851000Y42060000D01*
G75*
G02*
X28001000Y42210000I150000J0D01*
G01*
X29651000Y42210000D01*
G75*
G02*
X29801000Y42060000I0J-150000D01*
G01*
G37*
%TD*%
%TO.C,R19*%
G36*
G01*
X12836999Y17580500D02*
X14087001Y17580500D01*
G75*
G02*
X14337000Y17330501I0J-249999D01*
G01*
X14337000Y16705499D01*
G75*
G02*
X14087001Y16455500I-249999J0D01*
G01*
X12836999Y16455500D01*
G75*
G02*
X12587000Y16705499I0J249999D01*
G01*
X12587000Y17330501D01*
G75*
G02*
X12836999Y17580500I249999J0D01*
G01*
G37*
G36*
G01*
X12836999Y20505500D02*
X14087001Y20505500D01*
G75*
G02*
X14337000Y20255501I0J-249999D01*
G01*
X14337000Y19630499D01*
G75*
G02*
X14087001Y19380500I-249999J0D01*
G01*
X12836999Y19380500D01*
G75*
G02*
X12587000Y19630499I0J249999D01*
G01*
X12587000Y20255501D01*
G75*
G02*
X12836999Y20505500I249999J0D01*
G01*
G37*
%TD*%
%TO.C,R18*%
G36*
G01*
X20773500Y9534999D02*
X20773500Y10785001D01*
G75*
G02*
X21023499Y11035000I249999J0D01*
G01*
X21648501Y11035000D01*
G75*
G02*
X21898500Y10785001I0J-249999D01*
G01*
X21898500Y9534999D01*
G75*
G02*
X21648501Y9285000I-249999J0D01*
G01*
X21023499Y9285000D01*
G75*
G02*
X20773500Y9534999I0J249999D01*
G01*
G37*
G36*
G01*
X17848500Y9534999D02*
X17848500Y10785001D01*
G75*
G02*
X18098499Y11035000I249999J0D01*
G01*
X18723501Y11035000D01*
G75*
G02*
X18973500Y10785001I0J-249999D01*
G01*
X18973500Y9534999D01*
G75*
G02*
X18723501Y9285000I-249999J0D01*
G01*
X18098499Y9285000D01*
G75*
G02*
X17848500Y9534999I0J249999D01*
G01*
G37*
%TD*%
D15*
%TO.C,R17*%
X22352000Y35306000D03*
D16*
X29972000Y35306000D03*
%TD*%
%TO.C,R16*%
G36*
G01*
X20773500Y6486999D02*
X20773500Y7737001D01*
G75*
G02*
X21023499Y7987000I249999J0D01*
G01*
X21648501Y7987000D01*
G75*
G02*
X21898500Y7737001I0J-249999D01*
G01*
X21898500Y6486999D01*
G75*
G02*
X21648501Y6237000I-249999J0D01*
G01*
X21023499Y6237000D01*
G75*
G02*
X20773500Y6486999I0J249999D01*
G01*
G37*
G36*
G01*
X17848500Y6486999D02*
X17848500Y7737001D01*
G75*
G02*
X18098499Y7987000I249999J0D01*
G01*
X18723501Y7987000D01*
G75*
G02*
X18973500Y7737001I0J-249999D01*
G01*
X18973500Y6486999D01*
G75*
G02*
X18723501Y6237000I-249999J0D01*
G01*
X18098499Y6237000D01*
G75*
G02*
X17848500Y6486999I0J249999D01*
G01*
G37*
%TD*%
D15*
%TO.C,R15*%
X12700000Y14478000D03*
D16*
X12700000Y6858000D03*
%TD*%
D15*
%TO.C,R13*%
X7620000Y6858000D03*
D16*
X7620000Y14478000D03*
%TD*%
D15*
%TO.C,R11*%
X14986000Y24892000D03*
D16*
X14986000Y32512000D03*
%TD*%
%TO.C,R10*%
G36*
G01*
X19167001Y22043500D02*
X17916999Y22043500D01*
G75*
G02*
X17667000Y22293499I0J249999D01*
G01*
X17667000Y22918501D01*
G75*
G02*
X17916999Y23168500I249999J0D01*
G01*
X19167001Y23168500D01*
G75*
G02*
X19417000Y22918501I0J-249999D01*
G01*
X19417000Y22293499D01*
G75*
G02*
X19167001Y22043500I-249999J0D01*
G01*
G37*
G36*
G01*
X19167001Y19118500D02*
X17916999Y19118500D01*
G75*
G02*
X17667000Y19368499I0J249999D01*
G01*
X17667000Y19993501D01*
G75*
G02*
X17916999Y20243500I249999J0D01*
G01*
X19167001Y20243500D01*
G75*
G02*
X19417000Y19993501I0J-249999D01*
G01*
X19417000Y19368499D01*
G75*
G02*
X19167001Y19118500I-249999J0D01*
G01*
G37*
%TD*%
D15*
%TO.C,R9*%
X39878000Y31242000D03*
D16*
X39878000Y23622000D03*
%TD*%
D15*
%TO.C,R8*%
X42164000Y41402000D03*
D16*
X34544000Y41402000D03*
%TD*%
D15*
%TO.C,R7*%
X44958000Y48514000D03*
D16*
X44958000Y40894000D03*
%TD*%
D15*
%TO.C,R5*%
X34544000Y48006000D03*
D16*
X42164000Y48006000D03*
%TD*%
D15*
%TO.C,R4*%
X42164000Y44704000D03*
D16*
X34544000Y44704000D03*
%TD*%
%TO.C,R3*%
G36*
G01*
X45856999Y51362500D02*
X47107001Y51362500D01*
G75*
G02*
X47357000Y51112501I0J-249999D01*
G01*
X47357000Y50487499D01*
G75*
G02*
X47107001Y50237500I-249999J0D01*
G01*
X45856999Y50237500D01*
G75*
G02*
X45607000Y50487499I0J249999D01*
G01*
X45607000Y51112501D01*
G75*
G02*
X45856999Y51362500I249999J0D01*
G01*
G37*
G36*
G01*
X45856999Y54287500D02*
X47107001Y54287500D01*
G75*
G02*
X47357000Y54037501I0J-249999D01*
G01*
X47357000Y53412499D01*
G75*
G02*
X47107001Y53162500I-249999J0D01*
G01*
X45856999Y53162500D01*
G75*
G02*
X45607000Y53412499I0J249999D01*
G01*
X45607000Y54037501D01*
G75*
G02*
X45856999Y54287500I249999J0D01*
G01*
G37*
%TD*%
%TO.C,R2*%
G36*
G01*
X51892500Y50174999D02*
X51892500Y51425001D01*
G75*
G02*
X52142499Y51675000I249999J0D01*
G01*
X52767501Y51675000D01*
G75*
G02*
X53017500Y51425001I0J-249999D01*
G01*
X53017500Y50174999D01*
G75*
G02*
X52767501Y49925000I-249999J0D01*
G01*
X52142499Y49925000D01*
G75*
G02*
X51892500Y50174999I0J249999D01*
G01*
G37*
G36*
G01*
X48967500Y50174999D02*
X48967500Y51425001D01*
G75*
G02*
X49217499Y51675000I249999J0D01*
G01*
X49842501Y51675000D01*
G75*
G02*
X50092500Y51425001I0J-249999D01*
G01*
X50092500Y50174999D01*
G75*
G02*
X49842501Y49925000I-249999J0D01*
G01*
X49217499Y49925000D01*
G75*
G02*
X48967500Y50174999I0J249999D01*
G01*
G37*
%TD*%
%TO.C,R1*%
G36*
G01*
X36521500Y54238999D02*
X36521500Y55489001D01*
G75*
G02*
X36771499Y55739000I249999J0D01*
G01*
X37396501Y55739000D01*
G75*
G02*
X37646500Y55489001I0J-249999D01*
G01*
X37646500Y54238999D01*
G75*
G02*
X37396501Y53989000I-249999J0D01*
G01*
X36771499Y53989000D01*
G75*
G02*
X36521500Y54238999I0J249999D01*
G01*
G37*
G36*
G01*
X33596500Y54238999D02*
X33596500Y55489001D01*
G75*
G02*
X33846499Y55739000I249999J0D01*
G01*
X34471501Y55739000D01*
G75*
G02*
X34721500Y55489001I0J-249999D01*
G01*
X34721500Y54238999D01*
G75*
G02*
X34471501Y53989000I-249999J0D01*
G01*
X33846499Y53989000D01*
G75*
G02*
X33596500Y54238999I0J249999D01*
G01*
G37*
%TD*%
D17*
%TO.C,MIX1*%
X32500000Y20500000D03*
X27500000Y20500000D03*
X22500000Y20500000D03*
%TD*%
D18*
%TO.C,LED1*%
X19040000Y61000000D03*
G36*
G01*
X15630000Y60154999D02*
X15630000Y61845001D01*
G75*
G02*
X15879999Y62095000I249999J0D01*
G01*
X17120001Y62095000D01*
G75*
G02*
X17370000Y61845001I0J-249999D01*
G01*
X17370000Y60154999D01*
G75*
G02*
X17120001Y59905000I-249999J0D01*
G01*
X15879999Y59905000D01*
G75*
G02*
X15630000Y60154999I0J249999D01*
G01*
G37*
%TD*%
D19*
%TO.C,J4*%
X49784000Y15748000D03*
D20*
X52324000Y15748000D03*
%TD*%
D19*
%TO.C,J3*%
X35306000Y10668000D03*
D20*
X35306000Y13208000D03*
%TD*%
D19*
%TO.C,J2*%
X49022000Y20828000D03*
D20*
X49022000Y23368000D03*
%TD*%
D18*
%TO.C,J1*%
X31080000Y61000000D03*
X28540000Y61000000D03*
X26000000Y61000000D03*
G36*
G01*
X22590000Y60154999D02*
X22590000Y61845001D01*
G75*
G02*
X22839999Y62095000I249999J0D01*
G01*
X24080001Y62095000D01*
G75*
G02*
X24330000Y61845001I0J-249999D01*
G01*
X24330000Y60154999D01*
G75*
G02*
X24080001Y59905000I-249999J0D01*
G01*
X22839999Y59905000D01*
G75*
G02*
X22590000Y60154999I0J249999D01*
G01*
G37*
%TD*%
%TO.C,GND1*%
X38040000Y61000000D03*
G36*
G01*
X34630000Y60154999D02*
X34630000Y61845001D01*
G75*
G02*
X34879999Y62095000I249999J0D01*
G01*
X36120001Y62095000D01*
G75*
G02*
X36370000Y61845001I0J-249999D01*
G01*
X36370000Y60154999D01*
G75*
G02*
X36120001Y59905000I-249999J0D01*
G01*
X34879999Y59905000D01*
G75*
G02*
X34630000Y60154999I0J249999D01*
G01*
G37*
%TD*%
D17*
%TO.C,FEEDBACK1*%
X15000000Y35500000D03*
X10000000Y35500000D03*
X5000000Y35500000D03*
%TD*%
%TO.C,DELAY1*%
X50000000Y35500000D03*
X45000000Y35500000D03*
X40000000Y35500000D03*
%TD*%
D21*
%TO.C,D3*%
X51308000Y12192000D03*
D22*
X51308000Y9652000D03*
%TD*%
D15*
%TO.C,D2*%
X52578000Y28194000D03*
D23*
X52578000Y20574000D03*
%TD*%
D24*
%TO.C,D1*%
X52578000Y61976000D03*
D25*
X42418000Y61976000D03*
%TD*%
D16*
%TO.C,C23*%
X9906000Y20066000D03*
X4906000Y20066000D03*
%TD*%
%TO.C,C22*%
X20320000Y31162000D03*
X20320000Y26162000D03*
%TD*%
%TO.C,C21*%
X17780000Y2286000D03*
X22780000Y2286000D03*
%TD*%
%TO.C,C20*%
X26924000Y26242000D03*
X26924000Y31242000D03*
%TD*%
%TO.C,C19*%
G36*
G01*
X3335000Y7104000D02*
X4285000Y7104000D01*
G75*
G02*
X4535000Y6854000I0J-250000D01*
G01*
X4535000Y6354000D01*
G75*
G02*
X4285000Y6104000I-250000J0D01*
G01*
X3335000Y6104000D01*
G75*
G02*
X3085000Y6354000I0J250000D01*
G01*
X3085000Y6854000D01*
G75*
G02*
X3335000Y7104000I250000J0D01*
G01*
G37*
G36*
G01*
X3335000Y9004000D02*
X4285000Y9004000D01*
G75*
G02*
X4535000Y8754000I0J-250000D01*
G01*
X4535000Y8254000D01*
G75*
G02*
X4285000Y8004000I-250000J0D01*
G01*
X3335000Y8004000D01*
G75*
G02*
X3085000Y8254000I0J250000D01*
G01*
X3085000Y8754000D01*
G75*
G02*
X3335000Y9004000I250000J0D01*
G01*
G37*
%TD*%
%TO.C,C18*%
X25908000Y5588000D03*
X30908000Y5588000D03*
%TD*%
%TO.C,C17*%
G36*
G01*
X21024000Y15527000D02*
X21024000Y16477000D01*
G75*
G02*
X21274000Y16727000I250000J0D01*
G01*
X21774000Y16727000D01*
G75*
G02*
X22024000Y16477000I0J-250000D01*
G01*
X22024000Y15527000D01*
G75*
G02*
X21774000Y15277000I-250000J0D01*
G01*
X21274000Y15277000D01*
G75*
G02*
X21024000Y15527000I0J250000D01*
G01*
G37*
G36*
G01*
X19124000Y15527000D02*
X19124000Y16477000D01*
G75*
G02*
X19374000Y16727000I250000J0D01*
G01*
X19874000Y16727000D01*
G75*
G02*
X20124000Y16477000I0J-250000D01*
G01*
X20124000Y15527000D01*
G75*
G02*
X19874000Y15277000I-250000J0D01*
G01*
X19374000Y15277000D01*
G75*
G02*
X19124000Y15527000I0J250000D01*
G01*
G37*
%TD*%
%TO.C,C16*%
X30908000Y2286000D03*
X25908000Y2286000D03*
%TD*%
%TO.C,C15*%
G36*
G01*
X20836000Y12733000D02*
X20836000Y13683000D01*
G75*
G02*
X21086000Y13933000I250000J0D01*
G01*
X21586000Y13933000D01*
G75*
G02*
X21836000Y13683000I0J-250000D01*
G01*
X21836000Y12733000D01*
G75*
G02*
X21586000Y12483000I-250000J0D01*
G01*
X21086000Y12483000D01*
G75*
G02*
X20836000Y12733000I0J250000D01*
G01*
G37*
G36*
G01*
X18936000Y12733000D02*
X18936000Y13683000D01*
G75*
G02*
X19186000Y13933000I250000J0D01*
G01*
X19686000Y13933000D01*
G75*
G02*
X19936000Y13683000I0J-250000D01*
G01*
X19936000Y12733000D01*
G75*
G02*
X19686000Y12483000I-250000J0D01*
G01*
X19186000Y12483000D01*
G75*
G02*
X18936000Y12733000I0J250000D01*
G01*
G37*
%TD*%
%TO.C,C13*%
X33528000Y26242000D03*
X33528000Y31242000D03*
%TD*%
%TO.C,C12*%
G36*
G01*
X7866000Y39337000D02*
X7866000Y38387000D01*
G75*
G02*
X7616000Y38137000I-250000J0D01*
G01*
X7116000Y38137000D01*
G75*
G02*
X6866000Y38387000I0J250000D01*
G01*
X6866000Y39337000D01*
G75*
G02*
X7116000Y39587000I250000J0D01*
G01*
X7616000Y39587000D01*
G75*
G02*
X7866000Y39337000I0J-250000D01*
G01*
G37*
G36*
G01*
X9766000Y39337000D02*
X9766000Y38387000D01*
G75*
G02*
X9516000Y38137000I-250000J0D01*
G01*
X9016000Y38137000D01*
G75*
G02*
X8766000Y38387000I0J250000D01*
G01*
X8766000Y39337000D01*
G75*
G02*
X9016000Y39587000I250000J0D01*
G01*
X9516000Y39587000D01*
G75*
G02*
X9766000Y39337000I0J-250000D01*
G01*
G37*
%TD*%
%TO.C,C11*%
X39370000Y10240000D03*
X39370000Y15240000D03*
%TD*%
%TO.C,C10*%
X45974000Y10240000D03*
X45974000Y15240000D03*
%TD*%
%TO.C,C9*%
X42672000Y10240000D03*
X42672000Y15240000D03*
%TD*%
%TO.C,C8*%
X43902000Y20066000D03*
D23*
X41402000Y20066000D03*
%TD*%
D16*
%TO.C,C7*%
X17446000Y40640000D03*
X12446000Y40640000D03*
%TD*%
%TO.C,C6*%
G36*
G01*
X20353000Y39240000D02*
X21303000Y39240000D01*
G75*
G02*
X21553000Y38990000I0J-250000D01*
G01*
X21553000Y38490000D01*
G75*
G02*
X21303000Y38240000I-250000J0D01*
G01*
X20353000Y38240000D01*
G75*
G02*
X20103000Y38490000I0J250000D01*
G01*
X20103000Y38990000D01*
G75*
G02*
X20353000Y39240000I250000J0D01*
G01*
G37*
G36*
G01*
X20353000Y41140000D02*
X21303000Y41140000D01*
G75*
G02*
X21553000Y40890000I0J-250000D01*
G01*
X21553000Y40390000D01*
G75*
G02*
X21303000Y40140000I-250000J0D01*
G01*
X20353000Y40140000D01*
G75*
G02*
X20103000Y40390000I0J250000D01*
G01*
X20103000Y40890000D01*
G75*
G02*
X20353000Y41140000I250000J0D01*
G01*
G37*
%TD*%
%TO.C,C5*%
X42418000Y26456000D03*
D23*
X42418000Y28956000D03*
%TD*%
%TO.C,C4*%
G36*
G01*
X31275000Y40886000D02*
X32225000Y40886000D01*
G75*
G02*
X32475000Y40636000I0J-250000D01*
G01*
X32475000Y40136000D01*
G75*
G02*
X32225000Y39886000I-250000J0D01*
G01*
X31275000Y39886000D01*
G75*
G02*
X31025000Y40136000I0J250000D01*
G01*
X31025000Y40636000D01*
G75*
G02*
X31275000Y40886000I250000J0D01*
G01*
G37*
G36*
G01*
X31275000Y42786000D02*
X32225000Y42786000D01*
G75*
G02*
X32475000Y42536000I0J-250000D01*
G01*
X32475000Y42036000D01*
G75*
G02*
X32225000Y41786000I-250000J0D01*
G01*
X31275000Y41786000D01*
G75*
G02*
X31025000Y42036000I0J250000D01*
G01*
X31025000Y42536000D01*
G75*
G02*
X31275000Y42786000I250000J0D01*
G01*
G37*
%TD*%
D16*
%TO.C,C3*%
X52070000Y56388000D03*
D23*
X49570000Y56388000D03*
%TD*%
%TO.C,C2*%
G36*
G01*
X34602000Y53053000D02*
X34602000Y52103000D01*
G75*
G02*
X34352000Y51853000I-250000J0D01*
G01*
X33852000Y51853000D01*
G75*
G02*
X33602000Y52103000I0J250000D01*
G01*
X33602000Y53053000D01*
G75*
G02*
X33852000Y53303000I250000J0D01*
G01*
X34352000Y53303000D01*
G75*
G02*
X34602000Y53053000I0J-250000D01*
G01*
G37*
G36*
G01*
X36502000Y53053000D02*
X36502000Y52103000D01*
G75*
G02*
X36252000Y51853000I-250000J0D01*
G01*
X35752000Y51853000D01*
G75*
G02*
X35502000Y52103000I0J250000D01*
G01*
X35502000Y53053000D01*
G75*
G02*
X35752000Y53303000I250000J0D01*
G01*
X36252000Y53303000D01*
G75*
G02*
X36502000Y53053000I0J-250000D01*
G01*
G37*
%TD*%
D16*
%TO.C,C1*%
X41910000Y56642000D03*
D23*
X44410000Y56642000D03*
%TD*%
M02*
